G04 EAGLE Gerber RS-274X export*
G75*
%MOMM*%
%FSLAX34Y34*%
%LPD*%
%INCopper Layer 15*%
%IPPOS*%
%AMOC8*
5,1,8,0,0,1.08239X$1,22.5*%
G01*
%ADD10C,1.524000*%
%ADD11C,2.250000*%
%ADD12C,1.981200*%
%ADD13C,1.371600*%
%ADD14C,1.219200*%
%ADD15C,2.781300*%
%ADD16C,0.600000*%
%ADD17C,0.203200*%
%ADD18C,0.508000*%
%ADD19C,0.304800*%
%ADD20C,0.254000*%
%ADD21C,0.406400*%
%ADD22C,0.152400*%

G36*
X512058Y10993D02*
X512058Y10993D01*
X512116Y10991D01*
X512198Y11013D01*
X512282Y11025D01*
X512335Y11049D01*
X512391Y11063D01*
X512464Y11106D01*
X512541Y11141D01*
X512586Y11179D01*
X512636Y11209D01*
X512694Y11270D01*
X512758Y11325D01*
X512790Y11373D01*
X512830Y11416D01*
X512869Y11491D01*
X512916Y11561D01*
X512933Y11617D01*
X512960Y11669D01*
X512971Y11737D01*
X513001Y11832D01*
X513004Y11932D01*
X513015Y12000D01*
X513015Y144985D01*
X616985Y144985D01*
X616985Y12000D01*
X616993Y11942D01*
X616991Y11884D01*
X617013Y11802D01*
X617025Y11719D01*
X617049Y11665D01*
X617063Y11609D01*
X617106Y11536D01*
X617141Y11459D01*
X617179Y11414D01*
X617209Y11364D01*
X617270Y11306D01*
X617325Y11242D01*
X617373Y11210D01*
X617416Y11170D01*
X617491Y11131D01*
X617561Y11085D01*
X617617Y11067D01*
X617669Y11040D01*
X617737Y11029D01*
X617832Y10999D01*
X617932Y10996D01*
X618000Y10985D01*
X1216000Y10985D01*
X1216087Y10997D01*
X1216174Y11000D01*
X1216227Y11017D01*
X1216282Y11025D01*
X1216361Y11060D01*
X1216445Y11087D01*
X1216484Y11115D01*
X1216541Y11141D01*
X1216654Y11237D01*
X1216718Y11282D01*
X1222718Y17282D01*
X1222770Y17352D01*
X1222830Y17416D01*
X1222856Y17465D01*
X1222889Y17509D01*
X1222920Y17591D01*
X1222960Y17669D01*
X1222968Y17717D01*
X1222990Y17775D01*
X1223002Y17923D01*
X1223015Y18000D01*
X1223015Y778000D01*
X1223003Y778087D01*
X1223000Y778174D01*
X1222983Y778227D01*
X1222975Y778282D01*
X1222940Y778361D01*
X1222913Y778445D01*
X1222885Y778484D01*
X1222859Y778541D01*
X1222763Y778654D01*
X1222718Y778718D01*
X1208718Y792718D01*
X1208648Y792770D01*
X1208584Y792830D01*
X1208535Y792856D01*
X1208491Y792889D01*
X1208409Y792920D01*
X1208331Y792960D01*
X1208284Y792968D01*
X1208225Y792990D01*
X1208077Y793002D01*
X1208000Y793015D01*
X1179923Y793015D01*
X1179809Y792999D01*
X1179695Y792989D01*
X1179669Y792979D01*
X1179642Y792975D01*
X1179537Y792928D01*
X1179430Y792887D01*
X1179408Y792871D01*
X1179382Y792859D01*
X1179295Y792785D01*
X1179203Y792716D01*
X1179187Y792693D01*
X1179165Y792676D01*
X1179102Y792580D01*
X1179033Y792488D01*
X1179023Y792462D01*
X1179008Y792439D01*
X1178973Y792329D01*
X1178933Y792222D01*
X1178930Y792194D01*
X1178922Y792168D01*
X1178919Y792053D01*
X1178910Y791939D01*
X1178915Y791914D01*
X1178915Y791884D01*
X1178982Y791627D01*
X1178985Y791611D01*
X1179601Y790126D01*
X1179601Y784834D01*
X1177576Y779946D01*
X1173834Y776204D01*
X1168946Y774179D01*
X1163654Y774179D01*
X1158766Y776204D01*
X1155024Y779946D01*
X1152999Y784834D01*
X1152999Y790126D01*
X1153615Y791611D01*
X1153643Y791723D01*
X1153678Y791832D01*
X1153679Y791860D01*
X1153686Y791887D01*
X1153682Y792001D01*
X1153685Y792116D01*
X1153678Y792143D01*
X1153677Y792171D01*
X1153642Y792280D01*
X1153613Y792391D01*
X1153599Y792415D01*
X1153591Y792442D01*
X1153527Y792537D01*
X1153468Y792636D01*
X1153448Y792655D01*
X1153433Y792678D01*
X1153345Y792752D01*
X1153261Y792830D01*
X1153236Y792843D01*
X1153215Y792861D01*
X1153110Y792908D01*
X1153008Y792960D01*
X1152983Y792964D01*
X1152955Y792976D01*
X1152692Y793013D01*
X1152677Y793015D01*
X1106923Y793015D01*
X1106809Y792999D01*
X1106695Y792989D01*
X1106669Y792979D01*
X1106642Y792975D01*
X1106537Y792928D01*
X1106430Y792887D01*
X1106408Y792871D01*
X1106382Y792859D01*
X1106295Y792785D01*
X1106203Y792716D01*
X1106187Y792693D01*
X1106165Y792676D01*
X1106102Y792580D01*
X1106033Y792488D01*
X1106023Y792462D01*
X1106008Y792439D01*
X1105973Y792329D01*
X1105933Y792222D01*
X1105930Y792194D01*
X1105922Y792168D01*
X1105919Y792053D01*
X1105910Y791939D01*
X1105915Y791914D01*
X1105915Y791884D01*
X1105982Y791627D01*
X1105985Y791611D01*
X1106601Y790126D01*
X1106601Y784834D01*
X1104576Y779946D01*
X1100834Y776204D01*
X1095946Y774179D01*
X1090654Y774179D01*
X1085766Y776204D01*
X1082024Y779946D01*
X1079999Y784834D01*
X1079999Y790126D01*
X1080615Y791611D01*
X1080643Y791723D01*
X1080678Y791832D01*
X1080679Y791860D01*
X1080686Y791887D01*
X1080682Y792001D01*
X1080685Y792116D01*
X1080678Y792143D01*
X1080677Y792171D01*
X1080642Y792280D01*
X1080613Y792391D01*
X1080599Y792415D01*
X1080591Y792442D01*
X1080527Y792537D01*
X1080468Y792636D01*
X1080448Y792655D01*
X1080433Y792678D01*
X1080345Y792752D01*
X1080261Y792830D01*
X1080236Y792843D01*
X1080215Y792861D01*
X1080110Y792908D01*
X1080008Y792960D01*
X1079983Y792964D01*
X1079955Y792976D01*
X1079692Y793013D01*
X1079677Y793015D01*
X834000Y793015D01*
X833942Y793007D01*
X833884Y793009D01*
X833802Y792987D01*
X833719Y792975D01*
X833665Y792952D01*
X833609Y792937D01*
X833536Y792894D01*
X833459Y792859D01*
X833414Y792821D01*
X833364Y792792D01*
X833306Y792730D01*
X833242Y792676D01*
X833210Y792627D01*
X833170Y792584D01*
X833131Y792509D01*
X833085Y792439D01*
X833067Y792383D01*
X833040Y792331D01*
X833029Y792263D01*
X832999Y792168D01*
X832996Y792068D01*
X832985Y792000D01*
X832985Y604421D01*
X781580Y553015D01*
X40000Y553015D01*
X39913Y553003D01*
X39826Y553000D01*
X39773Y552983D01*
X39719Y552975D01*
X39639Y552940D01*
X39555Y552913D01*
X39516Y552885D01*
X39459Y552859D01*
X39346Y552763D01*
X39282Y552718D01*
X23282Y536718D01*
X23229Y536647D01*
X23167Y536581D01*
X23143Y536533D01*
X23111Y536491D01*
X23079Y536407D01*
X23039Y536327D01*
X23031Y536281D01*
X23010Y536225D01*
X22997Y536073D01*
X22985Y535996D01*
X24985Y25996D01*
X24997Y25911D01*
X25000Y25826D01*
X25017Y25772D01*
X25026Y25715D01*
X25061Y25637D01*
X25087Y25555D01*
X25116Y25515D01*
X25143Y25456D01*
X25237Y25346D01*
X25282Y25282D01*
X39282Y11282D01*
X39352Y11230D01*
X39416Y11170D01*
X39465Y11144D01*
X39509Y11111D01*
X39591Y11080D01*
X39669Y11040D01*
X39717Y11032D01*
X39775Y11010D01*
X39923Y10998D01*
X40000Y10985D01*
X512000Y10985D01*
X512058Y10993D01*
G37*
%LPC*%
G36*
X512908Y298949D02*
X512908Y298949D01*
X509949Y301908D01*
X509949Y306092D01*
X512908Y309051D01*
X515293Y309051D01*
X515380Y309063D01*
X515467Y309066D01*
X515520Y309083D01*
X515575Y309091D01*
X515654Y309126D01*
X515738Y309153D01*
X515777Y309181D01*
X515834Y309207D01*
X515947Y309303D01*
X516011Y309348D01*
X516863Y310200D01*
X516881Y310224D01*
X516903Y310243D01*
X516966Y310337D01*
X517034Y310427D01*
X517044Y310455D01*
X517061Y310479D01*
X517095Y310587D01*
X517135Y310693D01*
X517138Y310722D01*
X517147Y310750D01*
X517149Y310864D01*
X517159Y310976D01*
X517153Y311005D01*
X517154Y311034D01*
X517125Y311144D01*
X517103Y311255D01*
X517089Y311281D01*
X517082Y311309D01*
X517024Y311406D01*
X516972Y311507D01*
X516952Y311529D01*
X516937Y311554D01*
X516854Y311631D01*
X516776Y311713D01*
X516751Y311728D01*
X516729Y311748D01*
X516628Y311800D01*
X516531Y311857D01*
X516502Y311864D01*
X516476Y311878D01*
X516399Y311891D01*
X516255Y311927D01*
X516193Y311925D01*
X516145Y311933D01*
X455727Y311933D01*
X455697Y311929D01*
X455668Y311932D01*
X455557Y311909D01*
X455445Y311893D01*
X455418Y311881D01*
X455389Y311876D01*
X455289Y311824D01*
X455186Y311777D01*
X455163Y311758D01*
X455137Y311745D01*
X455055Y311667D01*
X454969Y311594D01*
X454952Y311569D01*
X454931Y311549D01*
X454874Y311451D01*
X454811Y311357D01*
X454802Y311329D01*
X454787Y311304D01*
X454759Y311194D01*
X454725Y311086D01*
X454725Y311057D01*
X454717Y311028D01*
X454721Y310915D01*
X454718Y310802D01*
X454725Y310773D01*
X454726Y310744D01*
X454761Y310636D01*
X454790Y310527D01*
X454805Y310501D01*
X454814Y310473D01*
X454859Y310410D01*
X454935Y310282D01*
X454981Y310239D01*
X455009Y310200D01*
X455051Y310158D01*
X455051Y305974D01*
X452092Y303015D01*
X447908Y303015D01*
X444949Y305974D01*
X444949Y310158D01*
X444991Y310200D01*
X445009Y310224D01*
X445031Y310243D01*
X445094Y310337D01*
X445162Y310427D01*
X445173Y310455D01*
X445189Y310479D01*
X445223Y310587D01*
X445263Y310693D01*
X445266Y310722D01*
X445275Y310750D01*
X445278Y310863D01*
X445287Y310976D01*
X445281Y311005D01*
X445282Y311034D01*
X445253Y311144D01*
X445231Y311255D01*
X445218Y311281D01*
X445210Y311309D01*
X445153Y311406D01*
X445100Y311507D01*
X445080Y311529D01*
X445065Y311554D01*
X444982Y311631D01*
X444904Y311713D01*
X444879Y311728D01*
X444858Y311748D01*
X444757Y311800D01*
X444659Y311857D01*
X444631Y311864D01*
X444605Y311878D01*
X444527Y311891D01*
X444384Y311927D01*
X444321Y311925D01*
X444273Y311933D01*
X412497Y311933D01*
X412410Y311921D01*
X412323Y311918D01*
X412270Y311901D01*
X412215Y311893D01*
X412135Y311858D01*
X412052Y311831D01*
X412013Y311803D01*
X411956Y311777D01*
X411842Y311681D01*
X411779Y311636D01*
X410092Y309949D01*
X405908Y309949D01*
X402949Y312908D01*
X402949Y317092D01*
X405908Y320051D01*
X410092Y320051D01*
X411779Y318364D01*
X411848Y318312D01*
X411912Y318252D01*
X411962Y318226D01*
X412006Y318193D01*
X412088Y318162D01*
X412166Y318122D01*
X412213Y318114D01*
X412272Y318092D01*
X412419Y318080D01*
X412497Y318067D01*
X433934Y318067D01*
X433992Y318075D01*
X434050Y318073D01*
X434132Y318095D01*
X434216Y318107D01*
X434269Y318130D01*
X434325Y318145D01*
X434398Y318188D01*
X434475Y318223D01*
X434520Y318261D01*
X434570Y318290D01*
X434628Y318352D01*
X434692Y318406D01*
X434724Y318455D01*
X434764Y318498D01*
X434803Y318573D01*
X434850Y318643D01*
X434867Y318699D01*
X434894Y318751D01*
X434905Y318819D01*
X434935Y318914D01*
X434938Y319014D01*
X434949Y319082D01*
X434949Y323158D01*
X434991Y323200D01*
X435009Y323224D01*
X435031Y323243D01*
X435094Y323337D01*
X435162Y323427D01*
X435173Y323455D01*
X435189Y323479D01*
X435223Y323587D01*
X435263Y323693D01*
X435266Y323722D01*
X435275Y323750D01*
X435278Y323863D01*
X435287Y323976D01*
X435281Y324005D01*
X435282Y324034D01*
X435253Y324144D01*
X435231Y324255D01*
X435218Y324281D01*
X435210Y324309D01*
X435152Y324407D01*
X435100Y324507D01*
X435080Y324529D01*
X435065Y324554D01*
X434982Y324631D01*
X434904Y324713D01*
X434879Y324728D01*
X434858Y324748D01*
X434757Y324800D01*
X434659Y324857D01*
X434631Y324864D01*
X434605Y324878D01*
X434527Y324891D01*
X434384Y324927D01*
X434321Y324925D01*
X434273Y324933D01*
X425730Y324933D01*
X401011Y349652D01*
X400941Y349704D01*
X400877Y349764D01*
X400828Y349790D01*
X400784Y349823D01*
X400702Y349854D01*
X400624Y349894D01*
X400577Y349902D01*
X400518Y349924D01*
X400371Y349936D01*
X400293Y349949D01*
X397908Y349949D01*
X394949Y352908D01*
X394949Y357092D01*
X397908Y360051D01*
X402092Y360051D01*
X405051Y357092D01*
X405051Y354707D01*
X405063Y354620D01*
X405066Y354533D01*
X405083Y354480D01*
X405091Y354425D01*
X405126Y354346D01*
X405153Y354262D01*
X405181Y354223D01*
X405207Y354166D01*
X405303Y354053D01*
X405348Y353989D01*
X427973Y331364D01*
X428043Y331312D01*
X428107Y331252D01*
X428156Y331226D01*
X428200Y331193D01*
X428282Y331162D01*
X428360Y331122D01*
X428407Y331114D01*
X428466Y331092D01*
X428613Y331080D01*
X428691Y331067D01*
X438145Y331067D01*
X438174Y331071D01*
X438204Y331068D01*
X438315Y331091D01*
X438427Y331107D01*
X438453Y331119D01*
X438482Y331124D01*
X438583Y331177D01*
X438686Y331223D01*
X438709Y331242D01*
X438735Y331255D01*
X438817Y331333D01*
X438903Y331406D01*
X438919Y331431D01*
X438941Y331451D01*
X438998Y331549D01*
X439061Y331643D01*
X439070Y331671D01*
X439084Y331696D01*
X439112Y331806D01*
X439147Y331914D01*
X439147Y331944D01*
X439154Y331972D01*
X439151Y332085D01*
X439154Y332198D01*
X439146Y332227D01*
X439145Y332256D01*
X439111Y332364D01*
X439082Y332473D01*
X439067Y332499D01*
X439058Y332527D01*
X439012Y332591D01*
X438937Y332718D01*
X438891Y332761D01*
X438863Y332800D01*
X437636Y334027D01*
X428933Y342730D01*
X428933Y353503D01*
X428921Y353590D01*
X428918Y353677D01*
X428901Y353730D01*
X428893Y353785D01*
X428858Y353865D01*
X428831Y353948D01*
X428803Y353987D01*
X428777Y354044D01*
X428681Y354158D01*
X428636Y354221D01*
X426949Y355908D01*
X426949Y360092D01*
X429908Y363051D01*
X434092Y363051D01*
X437051Y360092D01*
X437051Y355908D01*
X435364Y354221D01*
X435312Y354152D01*
X435252Y354088D01*
X435226Y354038D01*
X435193Y353994D01*
X435162Y353912D01*
X435122Y353834D01*
X435114Y353787D01*
X435092Y353728D01*
X435080Y353581D01*
X435067Y353503D01*
X435067Y345691D01*
X435079Y345604D01*
X435082Y345517D01*
X435099Y345464D01*
X435107Y345409D01*
X435142Y345330D01*
X435169Y345246D01*
X435197Y345207D01*
X435223Y345150D01*
X435319Y345037D01*
X435364Y344973D01*
X441973Y338364D01*
X442043Y338312D01*
X442107Y338252D01*
X442156Y338226D01*
X442200Y338193D01*
X442282Y338162D01*
X442360Y338122D01*
X442407Y338114D01*
X442466Y338092D01*
X442613Y338080D01*
X442691Y338067D01*
X1088309Y338067D01*
X1088396Y338079D01*
X1088483Y338082D01*
X1088536Y338099D01*
X1088591Y338107D01*
X1088670Y338142D01*
X1088754Y338169D01*
X1088793Y338197D01*
X1088850Y338223D01*
X1088963Y338319D01*
X1089027Y338364D01*
X1111652Y360989D01*
X1111704Y361059D01*
X1111764Y361123D01*
X1111790Y361172D01*
X1111823Y361216D01*
X1111854Y361298D01*
X1111894Y361376D01*
X1111902Y361423D01*
X1111924Y361482D01*
X1111936Y361629D01*
X1111949Y361707D01*
X1111949Y366092D01*
X1114908Y369051D01*
X1119092Y369051D01*
X1122051Y366092D01*
X1122051Y361908D01*
X1119927Y359784D01*
X1119909Y359760D01*
X1119887Y359741D01*
X1119824Y359647D01*
X1119756Y359557D01*
X1119745Y359529D01*
X1119729Y359505D01*
X1119695Y359397D01*
X1119655Y359291D01*
X1119652Y359262D01*
X1119643Y359234D01*
X1119640Y359120D01*
X1119631Y359008D01*
X1119637Y358979D01*
X1119636Y358950D01*
X1119665Y358840D01*
X1119687Y358729D01*
X1119700Y358703D01*
X1119708Y358675D01*
X1119766Y358577D01*
X1119818Y358477D01*
X1119838Y358455D01*
X1119853Y358430D01*
X1119936Y358353D01*
X1120014Y358271D01*
X1120039Y358256D01*
X1120060Y358236D01*
X1120161Y358184D01*
X1120259Y358127D01*
X1120287Y358120D01*
X1120313Y358106D01*
X1120391Y358093D01*
X1120534Y358057D01*
X1120597Y358059D01*
X1120645Y358051D01*
X1122092Y358051D01*
X1125051Y355092D01*
X1125051Y354839D01*
X1125055Y354810D01*
X1125052Y354780D01*
X1125075Y354669D01*
X1125091Y354557D01*
X1125103Y354531D01*
X1125108Y354502D01*
X1125161Y354401D01*
X1125207Y354298D01*
X1125226Y354275D01*
X1125239Y354249D01*
X1125317Y354167D01*
X1125390Y354081D01*
X1125415Y354065D01*
X1125435Y354043D01*
X1125533Y353986D01*
X1125627Y353923D01*
X1125655Y353914D01*
X1125680Y353900D01*
X1125790Y353872D01*
X1125898Y353837D01*
X1125928Y353837D01*
X1125956Y353830D01*
X1126069Y353833D01*
X1126182Y353830D01*
X1126211Y353838D01*
X1126240Y353839D01*
X1126348Y353873D01*
X1126457Y353902D01*
X1126483Y353917D01*
X1126511Y353926D01*
X1126574Y353972D01*
X1126702Y354047D01*
X1126745Y354093D01*
X1126784Y354121D01*
X1128652Y355989D01*
X1128704Y356059D01*
X1128764Y356123D01*
X1128790Y356172D01*
X1128823Y356216D01*
X1128854Y356298D01*
X1128894Y356376D01*
X1128902Y356423D01*
X1128924Y356482D01*
X1128936Y356629D01*
X1128949Y356707D01*
X1128949Y359092D01*
X1131908Y362051D01*
X1136092Y362051D01*
X1139051Y359092D01*
X1139051Y354908D01*
X1136092Y351949D01*
X1133707Y351949D01*
X1133620Y351937D01*
X1133533Y351934D01*
X1133480Y351917D01*
X1133425Y351909D01*
X1133346Y351874D01*
X1133262Y351847D01*
X1133223Y351819D01*
X1133166Y351793D01*
X1133053Y351697D01*
X1132989Y351652D01*
X1132636Y351299D01*
X1132618Y351275D01*
X1132596Y351256D01*
X1132533Y351162D01*
X1132465Y351071D01*
X1132454Y351044D01*
X1132438Y351020D01*
X1132404Y350912D01*
X1132363Y350806D01*
X1132361Y350776D01*
X1132352Y350749D01*
X1132349Y350636D01*
X1132340Y350522D01*
X1132346Y350494D01*
X1132345Y350464D01*
X1132373Y350355D01*
X1132396Y350244D01*
X1132409Y350218D01*
X1132417Y350189D01*
X1132475Y350092D01*
X1132527Y349991D01*
X1132547Y349970D01*
X1132562Y349945D01*
X1132645Y349867D01*
X1132723Y349785D01*
X1132748Y349770D01*
X1132769Y349750D01*
X1132870Y349699D01*
X1132968Y349642D01*
X1132996Y349634D01*
X1133022Y349621D01*
X1133100Y349608D01*
X1133243Y349571D01*
X1133306Y349573D01*
X1133353Y349565D01*
X1135361Y349565D01*
X1138320Y346607D01*
X1138320Y342423D01*
X1135361Y339464D01*
X1132976Y339464D01*
X1132890Y339452D01*
X1132802Y339449D01*
X1132749Y339432D01*
X1132695Y339424D01*
X1132615Y339388D01*
X1132532Y339361D01*
X1132492Y339333D01*
X1132435Y339308D01*
X1132322Y339212D01*
X1132258Y339167D01*
X1107119Y314027D01*
X1105892Y312800D01*
X1105874Y312776D01*
X1105851Y312757D01*
X1105789Y312663D01*
X1105721Y312573D01*
X1105710Y312545D01*
X1105694Y312521D01*
X1105660Y312413D01*
X1105619Y312307D01*
X1105617Y312278D01*
X1105608Y312250D01*
X1105605Y312136D01*
X1105596Y312024D01*
X1105602Y311995D01*
X1105601Y311966D01*
X1105629Y311856D01*
X1105652Y311745D01*
X1105665Y311719D01*
X1105673Y311691D01*
X1105730Y311593D01*
X1105783Y311493D01*
X1105803Y311471D01*
X1105818Y311446D01*
X1105900Y311369D01*
X1105978Y311287D01*
X1106004Y311272D01*
X1106025Y311252D01*
X1106126Y311200D01*
X1106224Y311143D01*
X1106252Y311136D01*
X1106278Y311122D01*
X1106356Y311109D01*
X1106499Y311073D01*
X1106562Y311075D01*
X1106609Y311067D01*
X1149010Y311067D01*
X1150729Y309348D01*
X1150799Y309296D01*
X1150863Y309236D01*
X1150912Y309210D01*
X1150956Y309177D01*
X1151038Y309146D01*
X1151116Y309106D01*
X1151163Y309098D01*
X1151222Y309076D01*
X1151369Y309064D01*
X1151447Y309051D01*
X1153832Y309051D01*
X1156791Y306092D01*
X1156791Y301908D01*
X1153832Y298949D01*
X1149648Y298949D01*
X1146689Y301908D01*
X1146689Y303918D01*
X1146681Y303976D01*
X1146683Y304034D01*
X1146661Y304116D01*
X1146649Y304200D01*
X1146626Y304253D01*
X1146611Y304309D01*
X1146568Y304382D01*
X1146533Y304459D01*
X1146495Y304504D01*
X1146466Y304554D01*
X1146404Y304612D01*
X1146350Y304676D01*
X1146301Y304708D01*
X1146258Y304748D01*
X1146183Y304787D01*
X1146113Y304834D01*
X1146057Y304851D01*
X1146005Y304878D01*
X1145937Y304889D01*
X1145842Y304919D01*
X1145742Y304922D01*
X1145674Y304933D01*
X521066Y304933D01*
X521008Y304925D01*
X520950Y304927D01*
X520868Y304905D01*
X520784Y304893D01*
X520731Y304870D01*
X520675Y304855D01*
X520602Y304812D01*
X520525Y304777D01*
X520480Y304739D01*
X520430Y304710D01*
X520372Y304648D01*
X520308Y304594D01*
X520276Y304545D01*
X520236Y304502D01*
X520197Y304427D01*
X520150Y304357D01*
X520133Y304301D01*
X520106Y304249D01*
X520095Y304181D01*
X520065Y304086D01*
X520062Y303986D01*
X520051Y303918D01*
X520051Y301908D01*
X517092Y298949D01*
X512908Y298949D01*
G37*
%LPD*%
G36*
X660058Y612993D02*
X660058Y612993D01*
X660116Y612991D01*
X660198Y613013D01*
X660282Y613025D01*
X660335Y613049D01*
X660391Y613063D01*
X660464Y613106D01*
X660541Y613141D01*
X660586Y613179D01*
X660636Y613209D01*
X660694Y613270D01*
X660758Y613325D01*
X660790Y613373D01*
X660830Y613416D01*
X660869Y613491D01*
X660916Y613561D01*
X660933Y613617D01*
X660960Y613669D01*
X660971Y613737D01*
X661001Y613832D01*
X661004Y613932D01*
X661015Y614000D01*
X661015Y796000D01*
X661007Y796058D01*
X661009Y796116D01*
X660987Y796198D01*
X660975Y796282D01*
X660952Y796335D01*
X660937Y796391D01*
X660894Y796464D01*
X660859Y796541D01*
X660821Y796586D01*
X660792Y796636D01*
X660730Y796694D01*
X660676Y796758D01*
X660627Y796790D01*
X660584Y796830D01*
X660509Y796869D01*
X660439Y796916D01*
X660383Y796933D01*
X660331Y796960D01*
X660263Y796971D01*
X660168Y797001D01*
X660068Y797004D01*
X660000Y797015D01*
X578000Y797015D01*
X577942Y797007D01*
X577884Y797009D01*
X577802Y796987D01*
X577719Y796975D01*
X577665Y796952D01*
X577609Y796937D01*
X577536Y796894D01*
X577459Y796859D01*
X577414Y796821D01*
X577364Y796792D01*
X577306Y796730D01*
X577242Y796676D01*
X577210Y796627D01*
X577170Y796584D01*
X577131Y796509D01*
X577085Y796439D01*
X577067Y796383D01*
X577040Y796331D01*
X577029Y796263D01*
X576999Y796168D01*
X576996Y796068D01*
X576985Y796000D01*
X576985Y614000D01*
X576993Y613942D01*
X576991Y613884D01*
X577013Y613802D01*
X577025Y613719D01*
X577049Y613665D01*
X577063Y613609D01*
X577106Y613536D01*
X577141Y613459D01*
X577179Y613414D01*
X577209Y613364D01*
X577270Y613306D01*
X577325Y613242D01*
X577373Y613210D01*
X577416Y613170D01*
X577491Y613131D01*
X577561Y613085D01*
X577617Y613067D01*
X577669Y613040D01*
X577737Y613029D01*
X577832Y612999D01*
X577932Y612996D01*
X578000Y612985D01*
X660000Y612985D01*
X660058Y612993D01*
G37*
G36*
X786058Y612993D02*
X786058Y612993D01*
X786116Y612991D01*
X786198Y613013D01*
X786282Y613025D01*
X786335Y613049D01*
X786391Y613063D01*
X786464Y613106D01*
X786541Y613141D01*
X786586Y613179D01*
X786636Y613209D01*
X786694Y613270D01*
X786758Y613325D01*
X786790Y613373D01*
X786830Y613416D01*
X786869Y613491D01*
X786916Y613561D01*
X786933Y613617D01*
X786960Y613669D01*
X786971Y613737D01*
X787001Y613832D01*
X787004Y613932D01*
X787015Y614000D01*
X787015Y796000D01*
X787007Y796058D01*
X787009Y796116D01*
X786987Y796198D01*
X786975Y796282D01*
X786952Y796335D01*
X786937Y796391D01*
X786894Y796464D01*
X786859Y796541D01*
X786821Y796586D01*
X786792Y796636D01*
X786730Y796694D01*
X786676Y796758D01*
X786627Y796790D01*
X786584Y796830D01*
X786509Y796869D01*
X786439Y796916D01*
X786383Y796933D01*
X786331Y796960D01*
X786263Y796971D01*
X786168Y797001D01*
X786068Y797004D01*
X786000Y797015D01*
X704000Y797015D01*
X703942Y797007D01*
X703884Y797009D01*
X703802Y796987D01*
X703719Y796975D01*
X703665Y796952D01*
X703609Y796937D01*
X703536Y796894D01*
X703459Y796859D01*
X703414Y796821D01*
X703364Y796792D01*
X703306Y796730D01*
X703242Y796676D01*
X703210Y796627D01*
X703170Y796584D01*
X703131Y796509D01*
X703085Y796439D01*
X703067Y796383D01*
X703040Y796331D01*
X703029Y796263D01*
X702999Y796168D01*
X702996Y796068D01*
X702985Y796000D01*
X702985Y614000D01*
X702993Y613942D01*
X702991Y613884D01*
X703013Y613802D01*
X703025Y613719D01*
X703049Y613665D01*
X703063Y613609D01*
X703106Y613536D01*
X703141Y613459D01*
X703179Y613414D01*
X703209Y613364D01*
X703270Y613306D01*
X703325Y613242D01*
X703373Y613210D01*
X703416Y613170D01*
X703491Y613131D01*
X703561Y613085D01*
X703617Y613067D01*
X703669Y613040D01*
X703737Y613029D01*
X703832Y612999D01*
X703932Y612996D01*
X704000Y612985D01*
X786000Y612985D01*
X786058Y612993D01*
G37*
G36*
X158058Y612993D02*
X158058Y612993D01*
X158116Y612991D01*
X158198Y613013D01*
X158282Y613025D01*
X158335Y613049D01*
X158391Y613063D01*
X158464Y613106D01*
X158541Y613141D01*
X158586Y613179D01*
X158636Y613209D01*
X158694Y613270D01*
X158758Y613325D01*
X158790Y613373D01*
X158830Y613416D01*
X158869Y613491D01*
X158916Y613561D01*
X158933Y613617D01*
X158960Y613669D01*
X158971Y613737D01*
X159001Y613832D01*
X159004Y613932D01*
X159015Y614000D01*
X159015Y796000D01*
X159007Y796058D01*
X159009Y796116D01*
X158987Y796198D01*
X158975Y796282D01*
X158952Y796335D01*
X158937Y796391D01*
X158894Y796464D01*
X158859Y796541D01*
X158821Y796586D01*
X158792Y796636D01*
X158730Y796694D01*
X158676Y796758D01*
X158627Y796790D01*
X158584Y796830D01*
X158509Y796869D01*
X158439Y796916D01*
X158383Y796933D01*
X158331Y796960D01*
X158263Y796971D01*
X158168Y797001D01*
X158068Y797004D01*
X158000Y797015D01*
X78000Y797015D01*
X77942Y797007D01*
X77884Y797009D01*
X77802Y796987D01*
X77719Y796975D01*
X77665Y796952D01*
X77609Y796937D01*
X77536Y796894D01*
X77459Y796859D01*
X77414Y796821D01*
X77364Y796792D01*
X77306Y796730D01*
X77242Y796676D01*
X77210Y796627D01*
X77170Y796584D01*
X77131Y796509D01*
X77085Y796439D01*
X77067Y796383D01*
X77040Y796331D01*
X77029Y796263D01*
X76999Y796168D01*
X76996Y796068D01*
X76985Y796000D01*
X76985Y614000D01*
X76993Y613942D01*
X76991Y613884D01*
X77013Y613802D01*
X77025Y613719D01*
X77049Y613665D01*
X77063Y613609D01*
X77106Y613536D01*
X77141Y613459D01*
X77179Y613414D01*
X77209Y613364D01*
X77270Y613306D01*
X77325Y613242D01*
X77373Y613210D01*
X77416Y613170D01*
X77491Y613131D01*
X77561Y613085D01*
X77617Y613067D01*
X77669Y613040D01*
X77737Y613029D01*
X77832Y612999D01*
X77932Y612996D01*
X78000Y612985D01*
X158000Y612985D01*
X158058Y612993D01*
G37*
G36*
X534058Y612993D02*
X534058Y612993D01*
X534116Y612991D01*
X534198Y613013D01*
X534282Y613025D01*
X534335Y613049D01*
X534391Y613063D01*
X534464Y613106D01*
X534541Y613141D01*
X534586Y613179D01*
X534636Y613209D01*
X534694Y613270D01*
X534758Y613325D01*
X534790Y613373D01*
X534830Y613416D01*
X534869Y613491D01*
X534916Y613561D01*
X534933Y613617D01*
X534960Y613669D01*
X534971Y613737D01*
X535001Y613832D01*
X535004Y613932D01*
X535015Y614000D01*
X535015Y796000D01*
X535007Y796058D01*
X535009Y796116D01*
X534987Y796198D01*
X534975Y796282D01*
X534952Y796335D01*
X534937Y796391D01*
X534894Y796464D01*
X534859Y796541D01*
X534821Y796586D01*
X534792Y796636D01*
X534730Y796694D01*
X534676Y796758D01*
X534627Y796790D01*
X534584Y796830D01*
X534509Y796869D01*
X534439Y796916D01*
X534383Y796933D01*
X534331Y796960D01*
X534263Y796971D01*
X534168Y797001D01*
X534068Y797004D01*
X534000Y797015D01*
X454000Y797015D01*
X453942Y797007D01*
X453884Y797009D01*
X453802Y796987D01*
X453719Y796975D01*
X453665Y796952D01*
X453609Y796937D01*
X453536Y796894D01*
X453459Y796859D01*
X453414Y796821D01*
X453364Y796792D01*
X453306Y796730D01*
X453242Y796676D01*
X453210Y796627D01*
X453170Y796584D01*
X453131Y796509D01*
X453085Y796439D01*
X453067Y796383D01*
X453040Y796331D01*
X453029Y796263D01*
X452999Y796168D01*
X452996Y796068D01*
X452985Y796000D01*
X452985Y614000D01*
X452993Y613942D01*
X452991Y613884D01*
X453013Y613802D01*
X453025Y613719D01*
X453049Y613665D01*
X453063Y613609D01*
X453106Y613536D01*
X453141Y613459D01*
X453179Y613414D01*
X453209Y613364D01*
X453270Y613306D01*
X453325Y613242D01*
X453373Y613210D01*
X453416Y613170D01*
X453491Y613131D01*
X453561Y613085D01*
X453617Y613067D01*
X453669Y613040D01*
X453737Y613029D01*
X453832Y612999D01*
X453932Y612996D01*
X454000Y612985D01*
X534000Y612985D01*
X534058Y612993D01*
G37*
G36*
X410058Y612993D02*
X410058Y612993D01*
X410116Y612991D01*
X410198Y613013D01*
X410282Y613025D01*
X410335Y613049D01*
X410391Y613063D01*
X410464Y613106D01*
X410541Y613141D01*
X410586Y613179D01*
X410636Y613209D01*
X410694Y613270D01*
X410758Y613325D01*
X410790Y613373D01*
X410830Y613416D01*
X410869Y613491D01*
X410916Y613561D01*
X410933Y613617D01*
X410960Y613669D01*
X410971Y613737D01*
X411001Y613832D01*
X411004Y613932D01*
X411015Y614000D01*
X411015Y796000D01*
X411007Y796058D01*
X411009Y796116D01*
X410987Y796198D01*
X410975Y796282D01*
X410952Y796335D01*
X410937Y796391D01*
X410894Y796464D01*
X410859Y796541D01*
X410821Y796586D01*
X410792Y796636D01*
X410730Y796694D01*
X410676Y796758D01*
X410627Y796790D01*
X410584Y796830D01*
X410509Y796869D01*
X410439Y796916D01*
X410383Y796933D01*
X410331Y796960D01*
X410263Y796971D01*
X410168Y797001D01*
X410068Y797004D01*
X410000Y797015D01*
X330000Y797015D01*
X329942Y797007D01*
X329884Y797009D01*
X329802Y796987D01*
X329719Y796975D01*
X329665Y796952D01*
X329609Y796937D01*
X329536Y796894D01*
X329459Y796859D01*
X329414Y796821D01*
X329364Y796792D01*
X329306Y796730D01*
X329242Y796676D01*
X329210Y796627D01*
X329170Y796584D01*
X329131Y796509D01*
X329085Y796439D01*
X329067Y796383D01*
X329040Y796331D01*
X329029Y796263D01*
X328999Y796168D01*
X328996Y796068D01*
X328985Y796000D01*
X328985Y614000D01*
X328993Y613942D01*
X328991Y613884D01*
X329013Y613802D01*
X329025Y613719D01*
X329049Y613665D01*
X329063Y613609D01*
X329106Y613536D01*
X329141Y613459D01*
X329179Y613414D01*
X329209Y613364D01*
X329270Y613306D01*
X329325Y613242D01*
X329373Y613210D01*
X329416Y613170D01*
X329491Y613131D01*
X329561Y613085D01*
X329617Y613067D01*
X329669Y613040D01*
X329737Y613029D01*
X329832Y612999D01*
X329932Y612996D01*
X330000Y612985D01*
X410000Y612985D01*
X410058Y612993D01*
G37*
G36*
X282058Y612993D02*
X282058Y612993D01*
X282116Y612991D01*
X282198Y613013D01*
X282282Y613025D01*
X282335Y613049D01*
X282391Y613063D01*
X282464Y613106D01*
X282541Y613141D01*
X282586Y613179D01*
X282636Y613209D01*
X282694Y613270D01*
X282758Y613325D01*
X282790Y613373D01*
X282830Y613416D01*
X282869Y613491D01*
X282916Y613561D01*
X282933Y613617D01*
X282960Y613669D01*
X282971Y613737D01*
X283001Y613832D01*
X283004Y613932D01*
X283015Y614000D01*
X283015Y796000D01*
X283007Y796058D01*
X283009Y796116D01*
X282987Y796198D01*
X282975Y796282D01*
X282952Y796335D01*
X282937Y796391D01*
X282894Y796464D01*
X282859Y796541D01*
X282821Y796586D01*
X282792Y796636D01*
X282730Y796694D01*
X282676Y796758D01*
X282627Y796790D01*
X282584Y796830D01*
X282509Y796869D01*
X282439Y796916D01*
X282383Y796933D01*
X282331Y796960D01*
X282263Y796971D01*
X282168Y797001D01*
X282068Y797004D01*
X282000Y797015D01*
X204000Y797015D01*
X203942Y797007D01*
X203884Y797009D01*
X203802Y796987D01*
X203719Y796975D01*
X203665Y796952D01*
X203609Y796937D01*
X203536Y796894D01*
X203459Y796859D01*
X203414Y796821D01*
X203364Y796792D01*
X203306Y796730D01*
X203242Y796676D01*
X203210Y796627D01*
X203170Y796584D01*
X203131Y796509D01*
X203085Y796439D01*
X203067Y796383D01*
X203040Y796331D01*
X203029Y796263D01*
X202999Y796168D01*
X202996Y796068D01*
X202985Y796000D01*
X202985Y614000D01*
X202993Y613942D01*
X202991Y613884D01*
X203013Y613802D01*
X203025Y613719D01*
X203049Y613665D01*
X203063Y613609D01*
X203106Y613536D01*
X203141Y613459D01*
X203179Y613414D01*
X203209Y613364D01*
X203270Y613306D01*
X203325Y613242D01*
X203373Y613210D01*
X203416Y613170D01*
X203491Y613131D01*
X203561Y613085D01*
X203617Y613067D01*
X203669Y613040D01*
X203737Y613029D01*
X203832Y612999D01*
X203932Y612996D01*
X204000Y612985D01*
X282000Y612985D01*
X282058Y612993D01*
G37*
%LPC*%
G36*
X1053160Y45489D02*
X1053160Y45489D01*
X1052713Y45936D01*
X1052713Y83040D01*
X1052705Y83098D01*
X1052707Y83156D01*
X1052685Y83238D01*
X1052673Y83322D01*
X1052650Y83375D01*
X1052635Y83431D01*
X1052592Y83504D01*
X1052557Y83581D01*
X1052519Y83626D01*
X1052490Y83676D01*
X1052428Y83734D01*
X1052374Y83798D01*
X1052325Y83830D01*
X1052282Y83870D01*
X1052207Y83909D01*
X1052137Y83956D01*
X1052081Y83973D01*
X1052029Y84000D01*
X1051961Y84011D01*
X1051866Y84041D01*
X1051766Y84044D01*
X1051698Y84055D01*
X1027082Y84055D01*
X1027024Y84047D01*
X1026966Y84049D01*
X1026884Y84027D01*
X1026800Y84015D01*
X1026747Y83992D01*
X1026691Y83977D01*
X1026618Y83934D01*
X1026541Y83899D01*
X1026496Y83861D01*
X1026446Y83832D01*
X1026388Y83770D01*
X1026324Y83716D01*
X1026292Y83667D01*
X1026252Y83624D01*
X1026213Y83549D01*
X1026166Y83479D01*
X1026149Y83423D01*
X1026122Y83371D01*
X1026111Y83303D01*
X1026081Y83208D01*
X1026078Y83108D01*
X1026067Y83040D01*
X1026067Y46444D01*
X1025620Y45997D01*
X1000328Y45997D01*
X999881Y46444D01*
X999881Y83040D01*
X999873Y83098D01*
X999875Y83156D01*
X999853Y83238D01*
X999841Y83322D01*
X999818Y83375D01*
X999803Y83431D01*
X999760Y83504D01*
X999725Y83581D01*
X999687Y83626D01*
X999658Y83676D01*
X999596Y83734D01*
X999542Y83798D01*
X999493Y83830D01*
X999450Y83870D01*
X999375Y83909D01*
X999305Y83956D01*
X999249Y83973D01*
X999197Y84000D01*
X999129Y84011D01*
X999034Y84041D01*
X998934Y84044D01*
X998866Y84055D01*
X974250Y84055D01*
X974192Y84047D01*
X974134Y84049D01*
X974052Y84027D01*
X973968Y84015D01*
X973915Y83992D01*
X973859Y83977D01*
X973786Y83934D01*
X973709Y83899D01*
X973664Y83861D01*
X973614Y83832D01*
X973556Y83770D01*
X973492Y83716D01*
X973460Y83667D01*
X973420Y83624D01*
X973381Y83549D01*
X973334Y83479D01*
X973317Y83423D01*
X973290Y83371D01*
X973279Y83303D01*
X973249Y83208D01*
X973246Y83108D01*
X973235Y83040D01*
X973235Y46444D01*
X972788Y45997D01*
X947496Y45997D01*
X947049Y46444D01*
X947049Y150448D01*
X947496Y150895D01*
X972788Y150895D01*
X973235Y150448D01*
X973235Y92220D01*
X973243Y92162D01*
X973241Y92104D01*
X973263Y92022D01*
X973275Y91938D01*
X973298Y91885D01*
X973313Y91829D01*
X973356Y91756D01*
X973391Y91679D01*
X973429Y91634D01*
X973458Y91584D01*
X973520Y91526D01*
X973574Y91462D01*
X973623Y91430D01*
X973666Y91390D01*
X973741Y91351D01*
X973811Y91304D01*
X973867Y91287D01*
X973919Y91260D01*
X973987Y91249D01*
X974082Y91219D01*
X974182Y91216D01*
X974250Y91205D01*
X998866Y91205D01*
X998924Y91213D01*
X998982Y91211D01*
X999064Y91233D01*
X999148Y91245D01*
X999201Y91268D01*
X999257Y91283D01*
X999330Y91326D01*
X999407Y91361D01*
X999452Y91399D01*
X999502Y91428D01*
X999560Y91490D01*
X999624Y91544D01*
X999656Y91593D01*
X999696Y91636D01*
X999735Y91711D01*
X999782Y91781D01*
X999799Y91837D01*
X999826Y91889D01*
X999837Y91957D01*
X999867Y92052D01*
X999870Y92152D01*
X999881Y92220D01*
X999881Y150448D01*
X1000328Y150895D01*
X1025620Y150895D01*
X1026067Y150448D01*
X1026067Y92220D01*
X1026075Y92162D01*
X1026073Y92104D01*
X1026095Y92022D01*
X1026107Y91938D01*
X1026130Y91885D01*
X1026145Y91829D01*
X1026188Y91756D01*
X1026223Y91679D01*
X1026261Y91634D01*
X1026290Y91584D01*
X1026352Y91526D01*
X1026406Y91462D01*
X1026455Y91430D01*
X1026498Y91390D01*
X1026573Y91351D01*
X1026643Y91304D01*
X1026699Y91287D01*
X1026751Y91260D01*
X1026819Y91249D01*
X1026914Y91219D01*
X1027014Y91216D01*
X1027082Y91205D01*
X1051698Y91205D01*
X1051756Y91213D01*
X1051814Y91211D01*
X1051896Y91233D01*
X1051980Y91245D01*
X1052033Y91268D01*
X1052089Y91283D01*
X1052162Y91326D01*
X1052239Y91361D01*
X1052284Y91399D01*
X1052334Y91428D01*
X1052392Y91490D01*
X1052456Y91544D01*
X1052488Y91593D01*
X1052528Y91636D01*
X1052567Y91711D01*
X1052614Y91781D01*
X1052631Y91837D01*
X1052658Y91889D01*
X1052669Y91957D01*
X1052699Y92052D01*
X1052702Y92152D01*
X1052713Y92220D01*
X1052713Y149940D01*
X1053160Y150387D01*
X1078452Y150387D01*
X1078899Y149940D01*
X1078899Y92220D01*
X1078907Y92162D01*
X1078905Y92104D01*
X1078927Y92022D01*
X1078939Y91938D01*
X1078962Y91885D01*
X1078977Y91829D01*
X1079020Y91756D01*
X1079055Y91679D01*
X1079093Y91634D01*
X1079122Y91584D01*
X1079184Y91526D01*
X1079238Y91462D01*
X1079287Y91430D01*
X1079330Y91390D01*
X1079405Y91351D01*
X1079475Y91304D01*
X1079531Y91287D01*
X1079583Y91260D01*
X1079651Y91249D01*
X1079746Y91219D01*
X1079846Y91216D01*
X1079914Y91205D01*
X1106054Y91205D01*
X1106112Y91213D01*
X1106170Y91211D01*
X1106252Y91233D01*
X1106336Y91245D01*
X1106389Y91268D01*
X1106445Y91283D01*
X1106518Y91326D01*
X1106595Y91361D01*
X1106640Y91399D01*
X1106690Y91428D01*
X1106748Y91490D01*
X1106812Y91544D01*
X1106844Y91593D01*
X1106884Y91636D01*
X1106923Y91711D01*
X1106970Y91781D01*
X1106987Y91837D01*
X1107014Y91889D01*
X1107025Y91957D01*
X1107055Y92052D01*
X1107058Y92152D01*
X1107069Y92220D01*
X1107069Y149940D01*
X1107516Y150387D01*
X1132808Y150387D01*
X1133255Y149940D01*
X1133255Y92220D01*
X1133263Y92162D01*
X1133261Y92104D01*
X1133283Y92022D01*
X1133295Y91938D01*
X1133318Y91885D01*
X1133333Y91829D01*
X1133376Y91756D01*
X1133411Y91679D01*
X1133449Y91634D01*
X1133478Y91584D01*
X1133540Y91526D01*
X1133594Y91462D01*
X1133643Y91430D01*
X1133686Y91390D01*
X1133761Y91351D01*
X1133831Y91304D01*
X1133887Y91287D01*
X1133939Y91260D01*
X1134007Y91249D01*
X1134102Y91219D01*
X1134202Y91216D01*
X1134270Y91205D01*
X1159902Y91205D01*
X1159960Y91213D01*
X1160018Y91211D01*
X1160100Y91233D01*
X1160184Y91245D01*
X1160237Y91268D01*
X1160293Y91283D01*
X1160366Y91326D01*
X1160443Y91361D01*
X1160488Y91399D01*
X1160538Y91428D01*
X1160596Y91490D01*
X1160660Y91544D01*
X1160692Y91593D01*
X1160732Y91636D01*
X1160771Y91711D01*
X1160818Y91781D01*
X1160835Y91837D01*
X1160862Y91889D01*
X1160873Y91957D01*
X1160903Y92052D01*
X1160906Y92152D01*
X1160917Y92220D01*
X1160917Y149940D01*
X1161364Y150387D01*
X1186656Y150387D01*
X1187103Y149940D01*
X1187103Y45936D01*
X1186656Y45489D01*
X1161364Y45489D01*
X1160917Y45936D01*
X1160917Y83040D01*
X1160909Y83098D01*
X1160911Y83156D01*
X1160889Y83238D01*
X1160877Y83322D01*
X1160854Y83375D01*
X1160839Y83431D01*
X1160796Y83504D01*
X1160761Y83581D01*
X1160723Y83626D01*
X1160694Y83676D01*
X1160632Y83734D01*
X1160578Y83798D01*
X1160529Y83830D01*
X1160486Y83870D01*
X1160411Y83909D01*
X1160341Y83956D01*
X1160285Y83973D01*
X1160233Y84000D01*
X1160165Y84011D01*
X1160070Y84041D01*
X1159970Y84044D01*
X1159902Y84055D01*
X1134270Y84055D01*
X1134212Y84047D01*
X1134154Y84049D01*
X1134072Y84027D01*
X1133988Y84015D01*
X1133935Y83992D01*
X1133879Y83977D01*
X1133806Y83934D01*
X1133729Y83899D01*
X1133684Y83861D01*
X1133634Y83832D01*
X1133576Y83770D01*
X1133512Y83716D01*
X1133480Y83667D01*
X1133440Y83624D01*
X1133401Y83549D01*
X1133354Y83479D01*
X1133337Y83423D01*
X1133310Y83371D01*
X1133299Y83303D01*
X1133269Y83208D01*
X1133266Y83108D01*
X1133255Y83040D01*
X1133255Y45936D01*
X1132808Y45489D01*
X1107516Y45489D01*
X1107069Y45936D01*
X1107069Y83040D01*
X1107061Y83098D01*
X1107063Y83156D01*
X1107041Y83238D01*
X1107029Y83322D01*
X1107006Y83375D01*
X1106991Y83431D01*
X1106948Y83504D01*
X1106913Y83581D01*
X1106875Y83626D01*
X1106846Y83676D01*
X1106784Y83734D01*
X1106730Y83798D01*
X1106681Y83830D01*
X1106638Y83870D01*
X1106563Y83909D01*
X1106493Y83956D01*
X1106437Y83973D01*
X1106385Y84000D01*
X1106317Y84011D01*
X1106222Y84041D01*
X1106122Y84044D01*
X1106054Y84055D01*
X1079914Y84055D01*
X1079856Y84047D01*
X1079798Y84049D01*
X1079716Y84027D01*
X1079632Y84015D01*
X1079579Y83992D01*
X1079523Y83977D01*
X1079450Y83934D01*
X1079373Y83899D01*
X1079328Y83861D01*
X1079278Y83832D01*
X1079220Y83770D01*
X1079156Y83716D01*
X1079124Y83667D01*
X1079084Y83624D01*
X1079045Y83549D01*
X1078998Y83479D01*
X1078981Y83423D01*
X1078954Y83371D01*
X1078943Y83303D01*
X1078913Y83208D01*
X1078910Y83108D01*
X1078899Y83040D01*
X1078899Y45936D01*
X1078452Y45489D01*
X1053160Y45489D01*
G37*
%LPD*%
%LPC*%
G36*
X375908Y510949D02*
X375908Y510949D01*
X372949Y513908D01*
X372949Y518092D01*
X373620Y518763D01*
X373672Y518832D01*
X373732Y518896D01*
X373758Y518946D01*
X373791Y518990D01*
X373822Y519072D01*
X373862Y519150D01*
X373870Y519197D01*
X373892Y519256D01*
X373904Y519403D01*
X373917Y519481D01*
X373917Y522902D01*
X373909Y522960D01*
X373911Y523018D01*
X373889Y523100D01*
X373877Y523184D01*
X373854Y523237D01*
X373839Y523293D01*
X373796Y523366D01*
X373761Y523443D01*
X373723Y523488D01*
X373694Y523538D01*
X373632Y523596D01*
X373578Y523660D01*
X373529Y523692D01*
X373486Y523732D01*
X373411Y523771D01*
X373341Y523818D01*
X373285Y523835D01*
X373233Y523862D01*
X373165Y523873D01*
X373070Y523903D01*
X372970Y523906D01*
X372902Y523917D01*
X366112Y523917D01*
X366025Y523905D01*
X365938Y523902D01*
X365885Y523885D01*
X365830Y523877D01*
X365750Y523842D01*
X365667Y523815D01*
X365628Y523787D01*
X365571Y523761D01*
X365457Y523665D01*
X365394Y523620D01*
X359348Y517574D01*
X359296Y517504D01*
X359236Y517441D01*
X359210Y517391D01*
X359177Y517347D01*
X359146Y517265D01*
X359106Y517187D01*
X359098Y517140D01*
X359076Y517081D01*
X359064Y516934D01*
X359051Y516856D01*
X359051Y515908D01*
X356092Y512949D01*
X351908Y512949D01*
X348949Y515908D01*
X348949Y520092D01*
X351041Y522184D01*
X351059Y522208D01*
X351081Y522227D01*
X351144Y522321D01*
X351212Y522411D01*
X351223Y522439D01*
X351239Y522463D01*
X351273Y522571D01*
X351313Y522677D01*
X351316Y522706D01*
X351325Y522734D01*
X351328Y522848D01*
X351337Y522960D01*
X351331Y522989D01*
X351332Y523018D01*
X351303Y523128D01*
X351281Y523239D01*
X351268Y523265D01*
X351260Y523293D01*
X351202Y523391D01*
X351150Y523491D01*
X351130Y523513D01*
X351115Y523538D01*
X351032Y523615D01*
X350954Y523697D01*
X350929Y523712D01*
X350908Y523732D01*
X350807Y523784D01*
X350709Y523841D01*
X350681Y523848D01*
X350655Y523862D01*
X350577Y523875D01*
X350434Y523911D01*
X350371Y523909D01*
X350323Y523917D01*
X115112Y523917D01*
X115025Y523905D01*
X114938Y523902D01*
X114885Y523885D01*
X114830Y523877D01*
X114750Y523842D01*
X114667Y523815D01*
X114628Y523787D01*
X114571Y523761D01*
X114458Y523665D01*
X114394Y523620D01*
X112348Y521574D01*
X112296Y521504D01*
X112236Y521441D01*
X112210Y521391D01*
X112177Y521347D01*
X112146Y521265D01*
X112106Y521187D01*
X112098Y521140D01*
X112076Y521081D01*
X112064Y520934D01*
X112051Y520856D01*
X112051Y519908D01*
X109092Y516949D01*
X104908Y516949D01*
X101949Y519908D01*
X101949Y524092D01*
X104908Y527051D01*
X105856Y527051D01*
X105943Y527063D01*
X106030Y527066D01*
X106083Y527083D01*
X106138Y527091D01*
X106218Y527126D01*
X106301Y527153D01*
X106340Y527181D01*
X106397Y527207D01*
X106510Y527303D01*
X106574Y527348D01*
X111309Y532083D01*
X155323Y532083D01*
X155353Y532087D01*
X155382Y532084D01*
X155493Y532107D01*
X155605Y532123D01*
X155632Y532135D01*
X155660Y532140D01*
X155761Y532193D01*
X155864Y532239D01*
X155887Y532258D01*
X155913Y532271D01*
X155995Y532349D01*
X156081Y532422D01*
X156098Y532447D01*
X156119Y532467D01*
X156176Y532565D01*
X156239Y532659D01*
X156248Y532687D01*
X156263Y532712D01*
X156290Y532822D01*
X156325Y532930D01*
X156325Y532960D01*
X156333Y532988D01*
X156329Y533101D01*
X156332Y533214D01*
X156325Y533243D01*
X156324Y533272D01*
X156289Y533380D01*
X156260Y533489D01*
X156245Y533515D01*
X156236Y533543D01*
X156191Y533606D01*
X156115Y533734D01*
X156069Y533777D01*
X156041Y533816D01*
X152949Y536908D01*
X152949Y541092D01*
X155908Y544051D01*
X160092Y544051D01*
X163051Y541092D01*
X163051Y536908D01*
X159959Y533816D01*
X159941Y533792D01*
X159919Y533773D01*
X159856Y533679D01*
X159788Y533589D01*
X159777Y533561D01*
X159761Y533537D01*
X159727Y533429D01*
X159687Y533323D01*
X159684Y533294D01*
X159675Y533266D01*
X159672Y533152D01*
X159663Y533040D01*
X159669Y533011D01*
X159668Y532982D01*
X159697Y532872D01*
X159719Y532761D01*
X159732Y532735D01*
X159740Y532707D01*
X159798Y532609D01*
X159850Y532509D01*
X159870Y532487D01*
X159885Y532462D01*
X159968Y532385D01*
X160046Y532303D01*
X160071Y532288D01*
X160092Y532268D01*
X160193Y532216D01*
X160291Y532159D01*
X160319Y532152D01*
X160345Y532138D01*
X160423Y532125D01*
X160566Y532089D01*
X160629Y532091D01*
X160677Y532083D01*
X226323Y532083D01*
X226353Y532087D01*
X226382Y532084D01*
X226493Y532107D01*
X226605Y532123D01*
X226632Y532135D01*
X226661Y532140D01*
X226761Y532193D01*
X226864Y532239D01*
X226887Y532258D01*
X226913Y532271D01*
X226995Y532349D01*
X227081Y532422D01*
X227098Y532447D01*
X227119Y532467D01*
X227176Y532565D01*
X227239Y532659D01*
X227248Y532687D01*
X227263Y532712D01*
X227291Y532822D01*
X227325Y532930D01*
X227325Y532959D01*
X227333Y532988D01*
X227329Y533101D01*
X227332Y533214D01*
X227325Y533243D01*
X227324Y533272D01*
X227289Y533380D01*
X227260Y533489D01*
X227245Y533515D01*
X227236Y533543D01*
X227191Y533607D01*
X227115Y533734D01*
X227069Y533777D01*
X227041Y533816D01*
X226949Y533908D01*
X226949Y538092D01*
X229908Y541051D01*
X234092Y541051D01*
X237051Y538092D01*
X237051Y533707D01*
X237063Y533620D01*
X237066Y533533D01*
X237083Y533480D01*
X237091Y533425D01*
X237126Y533346D01*
X237153Y533262D01*
X237181Y533223D01*
X237207Y533166D01*
X237303Y533053D01*
X237348Y532989D01*
X237957Y532380D01*
X238027Y532328D01*
X238091Y532268D01*
X238140Y532242D01*
X238184Y532209D01*
X238266Y532178D01*
X238344Y532138D01*
X238391Y532130D01*
X238450Y532108D01*
X238597Y532096D01*
X238675Y532083D01*
X356968Y532083D01*
X357026Y532091D01*
X357084Y532089D01*
X357166Y532111D01*
X357250Y532123D01*
X357303Y532146D01*
X357359Y532161D01*
X357432Y532204D01*
X357509Y532239D01*
X357554Y532277D01*
X357604Y532306D01*
X357662Y532368D01*
X357726Y532422D01*
X357758Y532471D01*
X357798Y532514D01*
X357837Y532589D01*
X357884Y532659D01*
X357901Y532715D01*
X357928Y532767D01*
X357939Y532835D01*
X357969Y532930D01*
X357972Y533030D01*
X357983Y533098D01*
X357983Y534519D01*
X357971Y534606D01*
X357968Y534693D01*
X357951Y534746D01*
X357943Y534801D01*
X357908Y534881D01*
X357881Y534964D01*
X357853Y535003D01*
X357827Y535060D01*
X357731Y535174D01*
X357686Y535237D01*
X357015Y535908D01*
X357015Y540092D01*
X359974Y543051D01*
X364158Y543051D01*
X367117Y540092D01*
X367117Y535888D01*
X367089Y535841D01*
X367038Y535773D01*
X367017Y535719D01*
X366988Y535668D01*
X366967Y535586D01*
X366937Y535508D01*
X366932Y535449D01*
X366918Y535393D01*
X366921Y535308D01*
X366914Y535224D01*
X366925Y535167D01*
X366927Y535108D01*
X366953Y535028D01*
X366969Y534946D01*
X366996Y534894D01*
X367014Y534838D01*
X367054Y534782D01*
X367100Y534693D01*
X367169Y534621D01*
X367209Y534565D01*
X369394Y532380D01*
X369464Y532328D01*
X369527Y532268D01*
X369577Y532242D01*
X369621Y532209D01*
X369703Y532178D01*
X369781Y532138D01*
X369828Y532130D01*
X369887Y532108D01*
X370034Y532096D01*
X370112Y532083D01*
X483389Y532083D01*
X483419Y532087D01*
X483448Y532084D01*
X483559Y532107D01*
X483671Y532123D01*
X483698Y532135D01*
X483726Y532140D01*
X483827Y532193D01*
X483930Y532239D01*
X483953Y532258D01*
X483979Y532271D01*
X484061Y532349D01*
X484147Y532422D01*
X484164Y532447D01*
X484185Y532467D01*
X484242Y532565D01*
X484305Y532659D01*
X484314Y532687D01*
X484329Y532712D01*
X484356Y532822D01*
X484391Y532930D01*
X484391Y532960D01*
X484399Y532988D01*
X484395Y533101D01*
X484398Y533214D01*
X484391Y533243D01*
X484390Y533272D01*
X484355Y533380D01*
X484326Y533489D01*
X484311Y533515D01*
X484302Y533543D01*
X484257Y533607D01*
X484181Y533734D01*
X484135Y533777D01*
X484107Y533816D01*
X483015Y534908D01*
X483015Y539092D01*
X485974Y542051D01*
X490158Y542051D01*
X493117Y539092D01*
X493117Y535098D01*
X493125Y535040D01*
X493123Y534982D01*
X493145Y534900D01*
X493157Y534816D01*
X493180Y534763D01*
X493195Y534707D01*
X493238Y534634D01*
X493273Y534557D01*
X493311Y534512D01*
X493340Y534462D01*
X493402Y534404D01*
X493456Y534340D01*
X493505Y534308D01*
X493548Y534268D01*
X493623Y534229D01*
X493693Y534182D01*
X493749Y534165D01*
X493801Y534138D01*
X493869Y534127D01*
X493964Y534097D01*
X494064Y534094D01*
X494132Y534083D01*
X510323Y534083D01*
X510353Y534087D01*
X510382Y534084D01*
X510493Y534107D01*
X510605Y534123D01*
X510632Y534135D01*
X510660Y534140D01*
X510761Y534193D01*
X510864Y534239D01*
X510887Y534258D01*
X510913Y534271D01*
X510995Y534349D01*
X511081Y534422D01*
X511098Y534447D01*
X511119Y534467D01*
X511176Y534565D01*
X511239Y534659D01*
X511248Y534687D01*
X511263Y534712D01*
X511290Y534822D01*
X511325Y534930D01*
X511325Y534960D01*
X511333Y534988D01*
X511329Y535101D01*
X511332Y535214D01*
X511325Y535243D01*
X511324Y535272D01*
X511289Y535380D01*
X511260Y535489D01*
X511245Y535515D01*
X511236Y535543D01*
X511191Y535606D01*
X511115Y535734D01*
X511069Y535777D01*
X511041Y535816D01*
X508949Y537908D01*
X508949Y542092D01*
X511908Y545051D01*
X516092Y545051D01*
X519051Y542092D01*
X519051Y537908D01*
X516959Y535816D01*
X516941Y535792D01*
X516919Y535773D01*
X516856Y535679D01*
X516788Y535589D01*
X516777Y535561D01*
X516761Y535537D01*
X516727Y535429D01*
X516687Y535323D01*
X516684Y535294D01*
X516675Y535266D01*
X516672Y535152D01*
X516663Y535040D01*
X516669Y535011D01*
X516668Y534982D01*
X516697Y534872D01*
X516719Y534761D01*
X516732Y534735D01*
X516740Y534707D01*
X516798Y534609D01*
X516850Y534509D01*
X516870Y534487D01*
X516885Y534462D01*
X516968Y534385D01*
X517046Y534303D01*
X517071Y534288D01*
X517092Y534268D01*
X517193Y534216D01*
X517291Y534159D01*
X517319Y534152D01*
X517345Y534138D01*
X517423Y534125D01*
X517566Y534089D01*
X517629Y534091D01*
X517677Y534083D01*
X604934Y534083D01*
X604992Y534091D01*
X605050Y534089D01*
X605132Y534111D01*
X605216Y534123D01*
X605269Y534146D01*
X605325Y534161D01*
X605398Y534204D01*
X605475Y534239D01*
X605520Y534277D01*
X605570Y534306D01*
X605628Y534368D01*
X605692Y534422D01*
X605724Y534471D01*
X605764Y534514D01*
X605803Y534589D01*
X605850Y534659D01*
X605867Y534715D01*
X605894Y534767D01*
X605905Y534835D01*
X605935Y534930D01*
X605938Y535030D01*
X605949Y535098D01*
X605949Y539092D01*
X608908Y542051D01*
X613092Y542051D01*
X616051Y539092D01*
X616051Y535098D01*
X616059Y535040D01*
X616057Y534982D01*
X616079Y534900D01*
X616091Y534816D01*
X616114Y534763D01*
X616129Y534707D01*
X616172Y534634D01*
X616207Y534557D01*
X616245Y534512D01*
X616274Y534462D01*
X616336Y534404D01*
X616390Y534340D01*
X616439Y534308D01*
X616482Y534268D01*
X616557Y534229D01*
X616627Y534182D01*
X616683Y534165D01*
X616735Y534138D01*
X616803Y534127D01*
X616898Y534097D01*
X616998Y534094D01*
X617066Y534083D01*
X625323Y534083D01*
X625353Y534087D01*
X625382Y534084D01*
X625493Y534107D01*
X625605Y534123D01*
X625632Y534135D01*
X625660Y534140D01*
X625761Y534193D01*
X625864Y534239D01*
X625887Y534258D01*
X625913Y534271D01*
X625995Y534349D01*
X626081Y534422D01*
X626098Y534447D01*
X626119Y534467D01*
X626176Y534565D01*
X626239Y534659D01*
X626248Y534687D01*
X626263Y534712D01*
X626290Y534822D01*
X626325Y534930D01*
X626325Y534960D01*
X626333Y534988D01*
X626329Y535101D01*
X626332Y535214D01*
X626325Y535243D01*
X626324Y535272D01*
X626289Y535380D01*
X626260Y535489D01*
X626245Y535515D01*
X626236Y535543D01*
X626191Y535606D01*
X626115Y535734D01*
X626069Y535777D01*
X626041Y535816D01*
X623949Y537908D01*
X623949Y542092D01*
X626908Y545051D01*
X631092Y545051D01*
X634051Y542092D01*
X634051Y537908D01*
X631959Y535816D01*
X631941Y535792D01*
X631919Y535773D01*
X631856Y535679D01*
X631788Y535589D01*
X631777Y535561D01*
X631761Y535537D01*
X631727Y535429D01*
X631687Y535323D01*
X631684Y535294D01*
X631675Y535266D01*
X631672Y535152D01*
X631663Y535040D01*
X631669Y535011D01*
X631668Y534982D01*
X631697Y534872D01*
X631719Y534761D01*
X631732Y534735D01*
X631740Y534707D01*
X631798Y534609D01*
X631850Y534509D01*
X631870Y534487D01*
X631885Y534462D01*
X631968Y534385D01*
X632046Y534303D01*
X632071Y534288D01*
X632092Y534268D01*
X632193Y534216D01*
X632291Y534159D01*
X632319Y534152D01*
X632345Y534138D01*
X632423Y534125D01*
X632566Y534089D01*
X632629Y534091D01*
X632677Y534083D01*
X726000Y534083D01*
X726058Y534091D01*
X726116Y534089D01*
X726198Y534111D01*
X726282Y534123D01*
X726335Y534146D01*
X726391Y534161D01*
X726464Y534204D01*
X726541Y534239D01*
X726586Y534277D01*
X726636Y534306D01*
X726694Y534368D01*
X726758Y534422D01*
X726790Y534471D01*
X726830Y534514D01*
X726869Y534589D01*
X726916Y534659D01*
X726933Y534715D01*
X726960Y534767D01*
X726971Y534835D01*
X727001Y534930D01*
X727004Y535030D01*
X727015Y535098D01*
X727015Y539092D01*
X729974Y542051D01*
X734158Y542051D01*
X737117Y539092D01*
X737117Y535098D01*
X737125Y535040D01*
X737123Y534982D01*
X737145Y534900D01*
X737157Y534816D01*
X737180Y534763D01*
X737195Y534707D01*
X737238Y534634D01*
X737273Y534557D01*
X737311Y534512D01*
X737340Y534462D01*
X737402Y534404D01*
X737456Y534340D01*
X737505Y534308D01*
X737548Y534268D01*
X737623Y534229D01*
X737693Y534182D01*
X737749Y534165D01*
X737801Y534138D01*
X737869Y534127D01*
X737964Y534097D01*
X738064Y534094D01*
X738132Y534083D01*
X773251Y534083D01*
X773379Y534101D01*
X773506Y534115D01*
X773519Y534121D01*
X773533Y534123D01*
X773650Y534175D01*
X773769Y534225D01*
X773778Y534233D01*
X773792Y534239D01*
X774009Y534422D01*
X774017Y534434D01*
X774025Y534441D01*
X774288Y534751D01*
X774290Y534751D01*
X774330Y534773D01*
X774374Y534788D01*
X774409Y534813D01*
X775486Y534813D01*
X775532Y534819D01*
X775569Y534816D01*
X776630Y534903D01*
X776632Y534902D01*
X776676Y534889D01*
X776717Y534868D01*
X776791Y534856D01*
X776905Y534823D01*
X776988Y534823D01*
X777048Y534813D01*
X804414Y534813D01*
X804501Y534825D01*
X804588Y534828D01*
X804641Y534845D01*
X804696Y534853D01*
X804776Y534888D01*
X804859Y534915D01*
X804898Y534943D01*
X804955Y534969D01*
X805069Y535065D01*
X805132Y535110D01*
X818835Y548813D01*
X821410Y548813D01*
X821468Y548821D01*
X821526Y548819D01*
X821608Y548841D01*
X821692Y548853D01*
X821745Y548876D01*
X821801Y548891D01*
X821874Y548934D01*
X821951Y548969D01*
X821996Y549007D01*
X822046Y549036D01*
X822104Y549098D01*
X822168Y549152D01*
X822200Y549201D01*
X822240Y549244D01*
X822279Y549319D01*
X822326Y549389D01*
X822343Y549445D01*
X822370Y549497D01*
X822381Y549565D01*
X822411Y549660D01*
X822414Y549760D01*
X822425Y549828D01*
X822425Y552641D01*
X830279Y560495D01*
X885120Y560495D01*
X885122Y560495D01*
X885124Y560495D01*
X885263Y560515D01*
X885402Y560535D01*
X885403Y560535D01*
X885405Y560535D01*
X885531Y560592D01*
X885661Y560651D01*
X885663Y560652D01*
X885664Y560653D01*
X885771Y560744D01*
X885878Y560834D01*
X885879Y560836D01*
X885880Y560837D01*
X885889Y560850D01*
X886036Y561071D01*
X886045Y561100D01*
X886058Y561121D01*
X887124Y563693D01*
X890487Y567056D01*
X894882Y568877D01*
X899638Y568877D01*
X904033Y567056D01*
X907396Y563693D01*
X908462Y561121D01*
X908462Y561120D01*
X908463Y561119D01*
X908534Y560999D01*
X908606Y560877D01*
X908607Y560876D01*
X908608Y560874D01*
X908712Y560777D01*
X908813Y560681D01*
X908814Y560681D01*
X908815Y560680D01*
X908943Y560614D01*
X909066Y560551D01*
X909067Y560551D01*
X909068Y560550D01*
X909083Y560548D01*
X909344Y560496D01*
X909375Y560499D01*
X909400Y560495D01*
X924819Y560495D01*
X924905Y560507D01*
X924993Y560510D01*
X925045Y560527D01*
X925100Y560535D01*
X925180Y560570D01*
X925263Y560597D01*
X925303Y560625D01*
X925360Y560651D01*
X925473Y560747D01*
X925537Y560792D01*
X934652Y569907D01*
X934704Y569977D01*
X934764Y570041D01*
X934790Y570090D01*
X934823Y570135D01*
X934854Y570216D01*
X934894Y570294D01*
X934902Y570342D01*
X934924Y570400D01*
X934936Y570548D01*
X934949Y570625D01*
X934949Y572092D01*
X937908Y575051D01*
X939399Y575051D01*
X939485Y575063D01*
X939573Y575066D01*
X939625Y575083D01*
X939680Y575091D01*
X939760Y575126D01*
X939843Y575153D01*
X939883Y575181D01*
X939940Y575207D01*
X940053Y575303D01*
X940117Y575348D01*
X943040Y578271D01*
X945431Y580663D01*
X960585Y580663D01*
X968407Y572840D01*
X968479Y572786D01*
X968544Y572725D01*
X968592Y572702D01*
X968634Y572670D01*
X968718Y572638D01*
X968798Y572597D01*
X968844Y572590D01*
X968900Y572568D01*
X969052Y572556D01*
X969129Y572543D01*
X1199998Y573557D01*
X1200083Y573569D01*
X1200168Y573572D01*
X1200223Y573590D01*
X1200280Y573598D01*
X1200357Y573633D01*
X1200438Y573660D01*
X1200479Y573689D01*
X1200539Y573716D01*
X1200648Y573809D01*
X1200712Y573855D01*
X1201908Y575051D01*
X1206092Y575051D01*
X1209051Y572092D01*
X1209051Y567908D01*
X1206092Y564949D01*
X1201908Y564949D01*
X1200747Y566110D01*
X1200675Y566164D01*
X1200609Y566225D01*
X1200562Y566249D01*
X1200520Y566281D01*
X1200436Y566313D01*
X1200356Y566354D01*
X1200310Y566361D01*
X1200254Y566383D01*
X1200101Y566395D01*
X1200024Y566408D01*
X969137Y565394D01*
X969080Y565385D01*
X967243Y565385D01*
X967241Y565385D01*
X967239Y565385D01*
X965758Y565379D01*
X964910Y566227D01*
X964841Y566278D01*
X964779Y566337D01*
X964728Y566363D01*
X964683Y566398D01*
X964602Y566428D01*
X964526Y566468D01*
X964470Y566479D01*
X964417Y566499D01*
X964331Y566506D01*
X964247Y566523D01*
X964190Y566518D01*
X964134Y566522D01*
X964049Y566506D01*
X963964Y566498D01*
X963911Y566478D01*
X963855Y566467D01*
X963779Y566427D01*
X963698Y566396D01*
X963653Y566362D01*
X963603Y566336D01*
X963540Y566276D01*
X963472Y566225D01*
X963438Y566179D01*
X963397Y566140D01*
X963353Y566066D01*
X963302Y565997D01*
X963282Y565944D01*
X963253Y565894D01*
X963232Y565811D01*
X963201Y565731D01*
X963197Y565674D01*
X963183Y565619D01*
X963185Y565533D01*
X963179Y565447D01*
X963190Y565399D01*
X963192Y565335D01*
X963236Y565197D01*
X963254Y565120D01*
X963842Y563702D01*
X963907Y563371D01*
X958087Y563371D01*
X958087Y569191D01*
X958418Y569126D01*
X959836Y568538D01*
X959920Y568517D01*
X960000Y568486D01*
X960057Y568481D01*
X960112Y568467D01*
X960198Y568470D01*
X960283Y568462D01*
X960339Y568474D01*
X960396Y568475D01*
X960478Y568501D01*
X960562Y568518D01*
X960612Y568544D01*
X960667Y568562D01*
X960738Y568610D01*
X960814Y568649D01*
X960855Y568688D01*
X960903Y568720D01*
X960958Y568786D01*
X961020Y568845D01*
X961049Y568894D01*
X961086Y568938D01*
X961121Y569016D01*
X961164Y569090D01*
X961178Y569145D01*
X961201Y569197D01*
X961213Y569283D01*
X961234Y569366D01*
X961232Y569423D01*
X961240Y569479D01*
X961228Y569564D01*
X961225Y569650D01*
X961208Y569704D01*
X961199Y569760D01*
X961164Y569839D01*
X961138Y569920D01*
X961109Y569961D01*
X961082Y570020D01*
X960988Y570130D01*
X960943Y570194D01*
X957921Y573216D01*
X957851Y573268D01*
X957787Y573328D01*
X957738Y573354D01*
X957693Y573387D01*
X957612Y573418D01*
X957534Y573458D01*
X957486Y573466D01*
X957428Y573488D01*
X957280Y573500D01*
X957203Y573513D01*
X948813Y573513D01*
X948727Y573501D01*
X948639Y573498D01*
X948587Y573481D01*
X948532Y573473D01*
X948452Y573438D01*
X948369Y573411D01*
X948329Y573383D01*
X948272Y573357D01*
X948159Y573261D01*
X948095Y573216D01*
X945348Y570469D01*
X945296Y570399D01*
X945236Y570335D01*
X945210Y570286D01*
X945177Y570242D01*
X945146Y570160D01*
X945106Y570082D01*
X945098Y570034D01*
X945076Y569976D01*
X945064Y569828D01*
X945051Y569751D01*
X945051Y567908D01*
X942092Y564949D01*
X940225Y564949D01*
X940139Y564937D01*
X940051Y564934D01*
X939999Y564917D01*
X939944Y564909D01*
X939864Y564874D01*
X939781Y564847D01*
X939741Y564819D01*
X939684Y564793D01*
X939571Y564697D01*
X939507Y564652D01*
X928201Y553345D01*
X909400Y553345D01*
X909398Y553345D01*
X909396Y553345D01*
X909257Y553325D01*
X909118Y553305D01*
X909117Y553305D01*
X909115Y553305D01*
X908988Y553247D01*
X908859Y553189D01*
X908857Y553188D01*
X908856Y553187D01*
X908749Y553096D01*
X908642Y553006D01*
X908641Y553004D01*
X908640Y553003D01*
X908631Y552990D01*
X908484Y552769D01*
X908475Y552740D01*
X908462Y552719D01*
X907396Y550147D01*
X904033Y546784D01*
X899638Y544963D01*
X894882Y544963D01*
X890487Y546784D01*
X887124Y550147D01*
X886058Y552719D01*
X886058Y552720D01*
X886057Y552721D01*
X885987Y552840D01*
X885914Y552963D01*
X885913Y552964D01*
X885912Y552966D01*
X885810Y553061D01*
X885707Y553159D01*
X885706Y553159D01*
X885705Y553160D01*
X885579Y553225D01*
X885454Y553289D01*
X885453Y553289D01*
X885452Y553290D01*
X885437Y553292D01*
X885176Y553344D01*
X885145Y553341D01*
X885120Y553345D01*
X833661Y553345D01*
X833575Y553333D01*
X833487Y553330D01*
X833435Y553313D01*
X833380Y553305D01*
X833300Y553270D01*
X833217Y553243D01*
X833177Y553215D01*
X833120Y553189D01*
X833007Y553093D01*
X832943Y553048D01*
X830441Y550546D01*
X830424Y550522D01*
X830401Y550503D01*
X830338Y550409D01*
X830270Y550319D01*
X830260Y550291D01*
X830244Y550267D01*
X830209Y550159D01*
X830169Y550053D01*
X830167Y550024D01*
X830158Y549996D01*
X830155Y549882D01*
X830146Y549770D01*
X830151Y549741D01*
X830151Y549712D01*
X830179Y549602D01*
X830201Y549491D01*
X830215Y549465D01*
X830222Y549437D01*
X830280Y549339D01*
X830332Y549239D01*
X830353Y549217D01*
X830368Y549192D01*
X830450Y549115D01*
X830528Y549033D01*
X830554Y549018D01*
X830575Y548998D01*
X830676Y548946D01*
X830774Y548889D01*
X830802Y548882D01*
X830828Y548868D01*
X830905Y548855D01*
X831049Y548819D01*
X831112Y548821D01*
X831159Y548813D01*
X831651Y548813D01*
X831711Y548768D01*
X831740Y548756D01*
X831767Y548739D01*
X831842Y548717D01*
X831886Y548701D01*
X832508Y547923D01*
X832555Y547879D01*
X832583Y547839D01*
X833286Y547136D01*
X833297Y547061D01*
X833310Y547033D01*
X833316Y547002D01*
X833354Y546933D01*
X833373Y546891D01*
X833263Y545900D01*
X833265Y545836D01*
X833257Y545788D01*
X833257Y544794D01*
X833212Y544733D01*
X833201Y544704D01*
X833183Y544678D01*
X833162Y544602D01*
X833111Y544468D01*
X833105Y544403D01*
X833092Y544355D01*
X832319Y537400D01*
X832321Y537336D01*
X832313Y537288D01*
X832313Y536294D01*
X832268Y536234D01*
X832256Y536204D01*
X832239Y536178D01*
X832217Y536102D01*
X832201Y536059D01*
X831423Y535436D01*
X831379Y535390D01*
X831339Y535361D01*
X813110Y517132D01*
X811165Y515187D01*
X792299Y515187D01*
X792253Y515181D01*
X792217Y515184D01*
X791156Y515097D01*
X791154Y515098D01*
X791110Y515111D01*
X791069Y515132D01*
X791026Y515139D01*
X790265Y515900D01*
X790228Y515928D01*
X790204Y515957D01*
X778748Y525676D01*
X778709Y525701D01*
X778676Y525732D01*
X778590Y525776D01*
X778508Y525828D01*
X778464Y525841D01*
X778423Y525862D01*
X778348Y525874D01*
X778235Y525907D01*
X778152Y525907D01*
X778092Y525917D01*
X498112Y525917D01*
X498025Y525905D01*
X497938Y525902D01*
X497885Y525885D01*
X497830Y525877D01*
X497750Y525842D01*
X497667Y525815D01*
X497628Y525787D01*
X497571Y525761D01*
X497457Y525665D01*
X497394Y525620D01*
X495691Y523917D01*
X474112Y523917D01*
X474025Y523905D01*
X473938Y523902D01*
X473885Y523885D01*
X473830Y523877D01*
X473750Y523842D01*
X473667Y523815D01*
X473628Y523787D01*
X473571Y523761D01*
X473458Y523665D01*
X473394Y523620D01*
X467348Y517574D01*
X467296Y517504D01*
X467236Y517441D01*
X467210Y517391D01*
X467177Y517347D01*
X467146Y517265D01*
X467106Y517187D01*
X467098Y517140D01*
X467076Y517081D01*
X467064Y516934D01*
X467051Y516856D01*
X467051Y515908D01*
X464092Y512949D01*
X459908Y512949D01*
X456949Y515908D01*
X456949Y520092D01*
X459041Y522184D01*
X459059Y522208D01*
X459081Y522227D01*
X459144Y522321D01*
X459212Y522411D01*
X459223Y522439D01*
X459239Y522463D01*
X459273Y522571D01*
X459313Y522677D01*
X459316Y522706D01*
X459325Y522734D01*
X459328Y522848D01*
X459337Y522960D01*
X459331Y522989D01*
X459332Y523018D01*
X459303Y523128D01*
X459281Y523239D01*
X459268Y523265D01*
X459260Y523293D01*
X459202Y523391D01*
X459150Y523491D01*
X459130Y523513D01*
X459115Y523538D01*
X459032Y523615D01*
X458954Y523697D01*
X458929Y523712D01*
X458908Y523732D01*
X458807Y523784D01*
X458709Y523841D01*
X458681Y523848D01*
X458655Y523862D01*
X458577Y523875D01*
X458434Y523911D01*
X458371Y523909D01*
X458323Y523917D01*
X386112Y523917D01*
X386025Y523905D01*
X385938Y523902D01*
X385885Y523885D01*
X385830Y523877D01*
X385750Y523842D01*
X385667Y523815D01*
X385628Y523787D01*
X385571Y523761D01*
X385458Y523665D01*
X385394Y523620D01*
X382380Y520606D01*
X382328Y520536D01*
X382268Y520473D01*
X382242Y520423D01*
X382209Y520379D01*
X382178Y520297D01*
X382138Y520219D01*
X382130Y520172D01*
X382108Y520113D01*
X382096Y519966D01*
X382083Y519888D01*
X382083Y519481D01*
X382095Y519394D01*
X382098Y519307D01*
X382115Y519254D01*
X382123Y519199D01*
X382158Y519119D01*
X382185Y519036D01*
X382213Y518997D01*
X382239Y518940D01*
X382335Y518826D01*
X382380Y518763D01*
X383051Y518092D01*
X383051Y513908D01*
X380092Y510949D01*
X375908Y510949D01*
G37*
%LPD*%
%LPC*%
G36*
X698068Y142197D02*
X698068Y142197D01*
X697621Y142644D01*
X697621Y184918D01*
X697613Y184976D01*
X697615Y185034D01*
X697593Y185116D01*
X697581Y185200D01*
X697558Y185253D01*
X697543Y185309D01*
X697500Y185382D01*
X697465Y185459D01*
X697427Y185504D01*
X697398Y185554D01*
X697336Y185612D01*
X697282Y185676D01*
X697233Y185708D01*
X697190Y185748D01*
X697115Y185787D01*
X697045Y185834D01*
X696989Y185851D01*
X696937Y185878D01*
X696869Y185889D01*
X696774Y185919D01*
X696674Y185922D01*
X696606Y185933D01*
X427497Y185933D01*
X427410Y185921D01*
X427323Y185918D01*
X427270Y185901D01*
X427215Y185893D01*
X427135Y185858D01*
X427052Y185831D01*
X427013Y185803D01*
X426956Y185777D01*
X426842Y185681D01*
X426779Y185636D01*
X426092Y184949D01*
X421908Y184949D01*
X418949Y187908D01*
X418949Y192092D01*
X421908Y195051D01*
X426092Y195051D01*
X428779Y192364D01*
X428848Y192312D01*
X428912Y192252D01*
X428962Y192226D01*
X429006Y192193D01*
X429088Y192162D01*
X429166Y192122D01*
X429213Y192114D01*
X429272Y192092D01*
X429419Y192080D01*
X429497Y192067D01*
X433145Y192067D01*
X433174Y192071D01*
X433204Y192068D01*
X433315Y192091D01*
X433427Y192107D01*
X433453Y192119D01*
X433482Y192124D01*
X433583Y192177D01*
X433686Y192223D01*
X433709Y192242D01*
X433735Y192255D01*
X433817Y192333D01*
X433903Y192406D01*
X433919Y192431D01*
X433941Y192451D01*
X433998Y192549D01*
X434061Y192643D01*
X434070Y192671D01*
X434084Y192696D01*
X434112Y192806D01*
X434147Y192914D01*
X434147Y192944D01*
X434154Y192972D01*
X434151Y193085D01*
X434154Y193198D01*
X434146Y193227D01*
X434145Y193256D01*
X434111Y193364D01*
X434082Y193473D01*
X434067Y193499D01*
X434058Y193527D01*
X434012Y193591D01*
X433937Y193718D01*
X433891Y193761D01*
X433863Y193800D01*
X433011Y194652D01*
X432941Y194704D01*
X432877Y194764D01*
X432828Y194790D01*
X432784Y194823D01*
X432702Y194854D01*
X432624Y194894D01*
X432577Y194902D01*
X432518Y194924D01*
X432371Y194936D01*
X432293Y194949D01*
X429908Y194949D01*
X426949Y197908D01*
X426949Y202092D01*
X429908Y205051D01*
X434092Y205051D01*
X437051Y202092D01*
X437051Y200082D01*
X437059Y200024D01*
X437057Y199966D01*
X437079Y199884D01*
X437091Y199800D01*
X437114Y199747D01*
X437129Y199691D01*
X437172Y199618D01*
X437207Y199541D01*
X437245Y199496D01*
X437274Y199446D01*
X437336Y199388D01*
X437390Y199324D01*
X437439Y199292D01*
X437482Y199252D01*
X437557Y199213D01*
X437627Y199166D01*
X437683Y199149D01*
X437735Y199122D01*
X437803Y199111D01*
X437898Y199081D01*
X437998Y199078D01*
X438066Y199067D01*
X788934Y199067D01*
X788992Y199075D01*
X789050Y199073D01*
X789132Y199095D01*
X789216Y199107D01*
X789269Y199130D01*
X789325Y199145D01*
X789398Y199188D01*
X789475Y199223D01*
X789520Y199261D01*
X789570Y199290D01*
X789628Y199352D01*
X789692Y199406D01*
X789724Y199455D01*
X789764Y199498D01*
X789803Y199573D01*
X789850Y199643D01*
X789867Y199699D01*
X789894Y199751D01*
X789905Y199819D01*
X789935Y199914D01*
X789938Y200014D01*
X789949Y200082D01*
X789949Y202092D01*
X792908Y205051D01*
X797092Y205051D01*
X800051Y202092D01*
X800051Y197908D01*
X797092Y194949D01*
X794707Y194949D01*
X794620Y194937D01*
X794533Y194934D01*
X794480Y194917D01*
X794425Y194909D01*
X794346Y194874D01*
X794262Y194847D01*
X794223Y194819D01*
X794166Y194793D01*
X794053Y194697D01*
X793989Y194652D01*
X792270Y192933D01*
X758661Y192933D01*
X758631Y192929D01*
X758602Y192932D01*
X758491Y192909D01*
X758379Y192893D01*
X758352Y192881D01*
X758324Y192876D01*
X758223Y192824D01*
X758120Y192777D01*
X758097Y192758D01*
X758071Y192745D01*
X757989Y192667D01*
X757903Y192594D01*
X757886Y192569D01*
X757865Y192549D01*
X757808Y192451D01*
X757745Y192357D01*
X757736Y192329D01*
X757721Y192304D01*
X757693Y192194D01*
X757659Y192086D01*
X757659Y192057D01*
X757651Y192028D01*
X757655Y191915D01*
X757652Y191802D01*
X757659Y191773D01*
X757660Y191744D01*
X757695Y191636D01*
X757724Y191527D01*
X757739Y191501D01*
X757748Y191473D01*
X757793Y191409D01*
X757869Y191282D01*
X757915Y191239D01*
X757943Y191200D01*
X758051Y191092D01*
X758051Y188674D01*
X758059Y188616D01*
X758057Y188558D01*
X758079Y188476D01*
X758091Y188392D01*
X758114Y188339D01*
X758129Y188283D01*
X758172Y188210D01*
X758207Y188133D01*
X758245Y188088D01*
X758274Y188038D01*
X758336Y187980D01*
X758390Y187916D01*
X758439Y187884D01*
X758482Y187844D01*
X758557Y187805D01*
X758627Y187758D01*
X758683Y187741D01*
X758735Y187714D01*
X758803Y187703D01*
X758898Y187673D01*
X758998Y187670D01*
X759066Y187659D01*
X833596Y187659D01*
X834043Y187212D01*
X834043Y142644D01*
X833596Y142197D01*
X698068Y142197D01*
G37*
%LPD*%
%LPC*%
G36*
X601908Y206949D02*
X601908Y206949D01*
X600221Y208636D01*
X600152Y208688D01*
X600088Y208748D01*
X600038Y208774D01*
X599994Y208807D01*
X599912Y208838D01*
X599834Y208878D01*
X599787Y208886D01*
X599728Y208908D01*
X599581Y208920D01*
X599503Y208933D01*
X450730Y208933D01*
X436933Y222730D01*
X436933Y233503D01*
X436921Y233590D01*
X436918Y233677D01*
X436901Y233730D01*
X436893Y233785D01*
X436858Y233865D01*
X436831Y233948D01*
X436803Y233987D01*
X436777Y234044D01*
X436681Y234158D01*
X436636Y234221D01*
X434949Y235908D01*
X434949Y240092D01*
X436945Y242088D01*
X436963Y242112D01*
X436985Y242131D01*
X437048Y242225D01*
X437116Y242315D01*
X437127Y242343D01*
X437143Y242367D01*
X437177Y242475D01*
X437217Y242581D01*
X437220Y242610D01*
X437229Y242638D01*
X437232Y242752D01*
X437241Y242864D01*
X437235Y242893D01*
X437236Y242922D01*
X437207Y243032D01*
X437185Y243143D01*
X437172Y243169D01*
X437164Y243197D01*
X437106Y243295D01*
X437054Y243395D01*
X437034Y243417D01*
X437019Y243442D01*
X436936Y243519D01*
X436858Y243601D01*
X436833Y243616D01*
X436812Y243636D01*
X436711Y243688D01*
X436613Y243745D01*
X436585Y243752D01*
X436559Y243766D01*
X436481Y243779D01*
X436338Y243815D01*
X436275Y243813D01*
X436227Y243821D01*
X423331Y243821D01*
X423244Y243809D01*
X423157Y243806D01*
X423104Y243789D01*
X423049Y243781D01*
X422970Y243746D01*
X422886Y243719D01*
X422847Y243691D01*
X422790Y243665D01*
X422677Y243569D01*
X422613Y243524D01*
X421400Y242311D01*
X421348Y242241D01*
X421288Y242177D01*
X421262Y242128D01*
X421229Y242084D01*
X421198Y242002D01*
X421158Y241924D01*
X421150Y241877D01*
X421128Y241818D01*
X421116Y241671D01*
X421103Y241593D01*
X421103Y239208D01*
X418144Y236249D01*
X413960Y236249D01*
X411001Y239208D01*
X411001Y239298D01*
X410993Y239356D01*
X410995Y239414D01*
X410973Y239496D01*
X410961Y239580D01*
X410938Y239633D01*
X410923Y239689D01*
X410880Y239762D01*
X410845Y239839D01*
X410807Y239884D01*
X410778Y239934D01*
X410716Y239992D01*
X410662Y240056D01*
X410613Y240088D01*
X410570Y240128D01*
X410495Y240167D01*
X410425Y240214D01*
X410369Y240231D01*
X410317Y240258D01*
X410249Y240269D01*
X410154Y240299D01*
X410054Y240302D01*
X409986Y240313D01*
X405832Y240313D01*
X402873Y243272D01*
X402873Y247456D01*
X405832Y250415D01*
X408217Y250415D01*
X408304Y250427D01*
X408391Y250430D01*
X408444Y250447D01*
X408499Y250455D01*
X408578Y250490D01*
X408662Y250517D01*
X408701Y250545D01*
X408758Y250571D01*
X408871Y250667D01*
X408935Y250712D01*
X413258Y255035D01*
X468630Y255035D01*
X472397Y251268D01*
X472467Y251216D01*
X472531Y251156D01*
X472580Y251130D01*
X472624Y251097D01*
X472706Y251066D01*
X472784Y251026D01*
X472831Y251018D01*
X472890Y250996D01*
X473037Y250984D01*
X473115Y250971D01*
X473563Y250971D01*
X473593Y250975D01*
X473622Y250972D01*
X473733Y250995D01*
X473845Y251011D01*
X473872Y251023D01*
X473900Y251028D01*
X474001Y251081D01*
X474104Y251127D01*
X474127Y251146D01*
X474153Y251159D01*
X474235Y251237D01*
X474321Y251310D01*
X474338Y251335D01*
X474359Y251355D01*
X474416Y251453D01*
X474479Y251547D01*
X474488Y251575D01*
X474503Y251600D01*
X474530Y251710D01*
X474565Y251818D01*
X474565Y251848D01*
X474573Y251876D01*
X474569Y251989D01*
X474572Y252102D01*
X474565Y252131D01*
X474564Y252160D01*
X474529Y252268D01*
X474500Y252377D01*
X474485Y252403D01*
X474476Y252431D01*
X474431Y252495D01*
X474355Y252622D01*
X474309Y252665D01*
X474281Y252704D01*
X472949Y254036D01*
X472949Y258220D01*
X474929Y260200D01*
X474947Y260224D01*
X474969Y260243D01*
X475032Y260337D01*
X475100Y260427D01*
X475111Y260455D01*
X475127Y260479D01*
X475161Y260587D01*
X475201Y260693D01*
X475204Y260722D01*
X475213Y260750D01*
X475216Y260864D01*
X475225Y260976D01*
X475219Y261005D01*
X475220Y261034D01*
X475191Y261144D01*
X475169Y261255D01*
X475156Y261281D01*
X475148Y261309D01*
X475090Y261407D01*
X475038Y261507D01*
X475018Y261529D01*
X475003Y261554D01*
X474920Y261631D01*
X474842Y261713D01*
X474817Y261728D01*
X474796Y261748D01*
X474695Y261800D01*
X474597Y261857D01*
X474569Y261864D01*
X474543Y261878D01*
X474465Y261891D01*
X474322Y261927D01*
X474259Y261925D01*
X474211Y261933D01*
X371497Y261933D01*
X371410Y261921D01*
X371323Y261918D01*
X371270Y261901D01*
X371215Y261893D01*
X371135Y261858D01*
X371052Y261831D01*
X371013Y261803D01*
X370956Y261777D01*
X370842Y261681D01*
X370779Y261636D01*
X369092Y259949D01*
X364908Y259949D01*
X361949Y262908D01*
X361949Y265934D01*
X361941Y265992D01*
X361943Y266050D01*
X361921Y266132D01*
X361909Y266216D01*
X361886Y266269D01*
X361871Y266325D01*
X361828Y266398D01*
X361793Y266475D01*
X361755Y266520D01*
X361726Y266570D01*
X361664Y266628D01*
X361610Y266692D01*
X361561Y266724D01*
X361518Y266764D01*
X361443Y266803D01*
X361373Y266850D01*
X361317Y266867D01*
X361265Y266894D01*
X361197Y266905D01*
X361102Y266935D01*
X361002Y266938D01*
X360934Y266949D01*
X356908Y266949D01*
X353949Y269908D01*
X353949Y274092D01*
X356908Y277051D01*
X359293Y277051D01*
X359380Y277063D01*
X359467Y277066D01*
X359520Y277083D01*
X359575Y277091D01*
X359654Y277126D01*
X359738Y277153D01*
X359777Y277181D01*
X359834Y277207D01*
X359947Y277303D01*
X360011Y277348D01*
X364730Y282067D01*
X546339Y282067D01*
X546369Y282071D01*
X546398Y282068D01*
X546509Y282091D01*
X546621Y282107D01*
X546648Y282119D01*
X546676Y282124D01*
X546777Y282177D01*
X546880Y282223D01*
X546903Y282242D01*
X546929Y282255D01*
X547011Y282333D01*
X547097Y282406D01*
X547114Y282431D01*
X547135Y282451D01*
X547192Y282549D01*
X547255Y282643D01*
X547264Y282671D01*
X547279Y282696D01*
X547306Y282806D01*
X547341Y282914D01*
X547341Y282944D01*
X547349Y282972D01*
X547345Y283085D01*
X547348Y283198D01*
X547341Y283227D01*
X547340Y283256D01*
X547305Y283364D01*
X547276Y283473D01*
X547261Y283499D01*
X547252Y283527D01*
X547207Y283590D01*
X547131Y283718D01*
X547085Y283761D01*
X547057Y283800D01*
X544949Y285908D01*
X544949Y290092D01*
X547908Y293051D01*
X552092Y293051D01*
X555051Y290092D01*
X555051Y285908D01*
X552943Y283800D01*
X552925Y283776D01*
X552903Y283757D01*
X552840Y283663D01*
X552772Y283573D01*
X552761Y283545D01*
X552745Y283521D01*
X552711Y283413D01*
X552671Y283307D01*
X552668Y283278D01*
X552659Y283250D01*
X552656Y283136D01*
X552647Y283024D01*
X552653Y282995D01*
X552652Y282966D01*
X552681Y282856D01*
X552703Y282745D01*
X552716Y282719D01*
X552724Y282691D01*
X552782Y282593D01*
X552834Y282493D01*
X552854Y282471D01*
X552869Y282446D01*
X552952Y282369D01*
X553030Y282287D01*
X553055Y282272D01*
X553076Y282252D01*
X553177Y282200D01*
X553275Y282143D01*
X553303Y282136D01*
X553329Y282122D01*
X553407Y282109D01*
X553550Y282073D01*
X553613Y282075D01*
X553661Y282067D01*
X642309Y282067D01*
X642396Y282079D01*
X642483Y282082D01*
X642536Y282099D01*
X642591Y282107D01*
X642670Y282142D01*
X642754Y282169D01*
X642793Y282197D01*
X642850Y282223D01*
X642963Y282319D01*
X643027Y282364D01*
X646652Y285989D01*
X646704Y286059D01*
X646764Y286123D01*
X646790Y286172D01*
X646823Y286216D01*
X646854Y286298D01*
X646894Y286376D01*
X646902Y286423D01*
X646924Y286482D01*
X646936Y286629D01*
X646949Y286707D01*
X646949Y289092D01*
X649908Y292051D01*
X654092Y292051D01*
X657051Y289092D01*
X657051Y284908D01*
X654092Y281949D01*
X651707Y281949D01*
X651620Y281937D01*
X651533Y281934D01*
X651480Y281917D01*
X651425Y281909D01*
X651346Y281874D01*
X651262Y281847D01*
X651223Y281819D01*
X651166Y281793D01*
X651053Y281697D01*
X650989Y281652D01*
X645270Y275933D01*
X597661Y275933D01*
X597631Y275929D01*
X597602Y275932D01*
X597491Y275909D01*
X597379Y275893D01*
X597352Y275881D01*
X597324Y275876D01*
X597223Y275823D01*
X597120Y275777D01*
X597097Y275758D01*
X597071Y275745D01*
X596989Y275667D01*
X596903Y275594D01*
X596886Y275569D01*
X596865Y275549D01*
X596808Y275451D01*
X596745Y275357D01*
X596736Y275329D01*
X596721Y275304D01*
X596694Y275194D01*
X596659Y275086D01*
X596659Y275056D01*
X596651Y275028D01*
X596655Y274915D01*
X596652Y274802D01*
X596659Y274773D01*
X596660Y274744D01*
X596695Y274636D01*
X596724Y274527D01*
X596739Y274501D01*
X596748Y274473D01*
X596793Y274409D01*
X596869Y274282D01*
X596915Y274239D01*
X596943Y274200D01*
X598051Y273092D01*
X598051Y268908D01*
X595092Y265949D01*
X592707Y265949D01*
X592620Y265937D01*
X592533Y265934D01*
X592480Y265917D01*
X592425Y265909D01*
X592346Y265874D01*
X592262Y265847D01*
X592223Y265819D01*
X592166Y265793D01*
X592053Y265697D01*
X591989Y265652D01*
X588270Y261933D01*
X481789Y261933D01*
X481759Y261929D01*
X481730Y261932D01*
X481619Y261909D01*
X481507Y261893D01*
X481480Y261881D01*
X481452Y261876D01*
X481351Y261823D01*
X481248Y261777D01*
X481225Y261758D01*
X481199Y261745D01*
X481117Y261667D01*
X481031Y261594D01*
X481014Y261569D01*
X480993Y261549D01*
X480936Y261451D01*
X480873Y261357D01*
X480864Y261329D01*
X480849Y261304D01*
X480822Y261194D01*
X480787Y261086D01*
X480787Y261056D01*
X480779Y261028D01*
X480783Y260915D01*
X480780Y260802D01*
X480787Y260773D01*
X480788Y260744D01*
X480823Y260636D01*
X480852Y260527D01*
X480867Y260501D01*
X480876Y260473D01*
X480921Y260410D01*
X480997Y260282D01*
X481043Y260239D01*
X481071Y260200D01*
X483051Y258220D01*
X483051Y254036D01*
X481719Y252704D01*
X481701Y252680D01*
X481679Y252661D01*
X481616Y252567D01*
X481548Y252477D01*
X481537Y252449D01*
X481521Y252425D01*
X481487Y252317D01*
X481447Y252211D01*
X481444Y252182D01*
X481435Y252154D01*
X481432Y252040D01*
X481423Y251928D01*
X481429Y251899D01*
X481428Y251870D01*
X481457Y251760D01*
X481479Y251649D01*
X481492Y251623D01*
X481500Y251595D01*
X481557Y251497D01*
X481610Y251397D01*
X481630Y251375D01*
X481645Y251350D01*
X481728Y251273D01*
X481806Y251191D01*
X481831Y251176D01*
X481852Y251156D01*
X481953Y251104D01*
X482051Y251047D01*
X482079Y251040D01*
X482105Y251026D01*
X482183Y251013D01*
X482326Y250977D01*
X482389Y250979D01*
X482437Y250971D01*
X560399Y250971D01*
X560486Y250983D01*
X560573Y250986D01*
X560626Y251003D01*
X560681Y251011D01*
X560761Y251046D01*
X560844Y251073D01*
X560883Y251101D01*
X560940Y251127D01*
X561054Y251223D01*
X561117Y251268D01*
X562804Y252955D01*
X566988Y252955D01*
X569947Y249996D01*
X569947Y245812D01*
X566988Y242853D01*
X566898Y242853D01*
X566840Y242845D01*
X566782Y242847D01*
X566700Y242825D01*
X566616Y242813D01*
X566563Y242790D01*
X566507Y242775D01*
X566434Y242732D01*
X566357Y242697D01*
X566312Y242659D01*
X566262Y242630D01*
X566204Y242568D01*
X566140Y242514D01*
X566108Y242465D01*
X566068Y242422D01*
X566029Y242347D01*
X565982Y242277D01*
X565965Y242221D01*
X565938Y242169D01*
X565927Y242101D01*
X565897Y242006D01*
X565894Y241906D01*
X565883Y241838D01*
X565883Y237684D01*
X562924Y234725D01*
X558740Y234725D01*
X557053Y236412D01*
X556984Y236464D01*
X556920Y236524D01*
X556870Y236550D01*
X556826Y236583D01*
X556744Y236614D01*
X556666Y236654D01*
X556619Y236662D01*
X556560Y236684D01*
X556413Y236696D01*
X556335Y236709D01*
X486532Y236709D01*
X484540Y238702D01*
X484470Y238754D01*
X484406Y238814D01*
X484357Y238840D01*
X484312Y238873D01*
X484231Y238904D01*
X484153Y238944D01*
X484105Y238952D01*
X484047Y238974D01*
X483899Y238986D01*
X483822Y238999D01*
X466340Y238999D01*
X461815Y243524D01*
X461745Y243576D01*
X461681Y243636D01*
X461632Y243662D01*
X461588Y243695D01*
X461506Y243726D01*
X461428Y243766D01*
X461381Y243774D01*
X461322Y243796D01*
X461175Y243808D01*
X461097Y243821D01*
X443773Y243821D01*
X443743Y243817D01*
X443714Y243820D01*
X443603Y243797D01*
X443491Y243781D01*
X443464Y243769D01*
X443436Y243764D01*
X443335Y243711D01*
X443232Y243665D01*
X443209Y243646D01*
X443183Y243633D01*
X443101Y243555D01*
X443015Y243482D01*
X442998Y243457D01*
X442977Y243437D01*
X442920Y243339D01*
X442857Y243245D01*
X442848Y243217D01*
X442833Y243192D01*
X442806Y243082D01*
X442771Y242974D01*
X442771Y242944D01*
X442763Y242916D01*
X442767Y242803D01*
X442764Y242690D01*
X442771Y242661D01*
X442772Y242632D01*
X442807Y242524D01*
X442836Y242415D01*
X442851Y242389D01*
X442860Y242361D01*
X442905Y242298D01*
X442981Y242170D01*
X443027Y242127D01*
X443055Y242088D01*
X445051Y240092D01*
X445051Y235908D01*
X443364Y234221D01*
X443312Y234152D01*
X443252Y234088D01*
X443226Y234038D01*
X443193Y233994D01*
X443162Y233912D01*
X443122Y233834D01*
X443114Y233787D01*
X443092Y233728D01*
X443080Y233581D01*
X443067Y233503D01*
X443067Y225691D01*
X443079Y225604D01*
X443082Y225517D01*
X443099Y225464D01*
X443107Y225409D01*
X443142Y225330D01*
X443169Y225246D01*
X443197Y225207D01*
X443223Y225150D01*
X443319Y225037D01*
X443364Y224973D01*
X452973Y215364D01*
X453043Y215312D01*
X453107Y215252D01*
X453156Y215226D01*
X453200Y215193D01*
X453282Y215162D01*
X453360Y215122D01*
X453407Y215114D01*
X453466Y215092D01*
X453613Y215080D01*
X453691Y215067D01*
X599503Y215067D01*
X599590Y215079D01*
X599677Y215082D01*
X599730Y215099D01*
X599785Y215107D01*
X599865Y215142D01*
X599948Y215169D01*
X599987Y215197D01*
X600044Y215223D01*
X600158Y215319D01*
X600221Y215364D01*
X601908Y217051D01*
X606092Y217051D01*
X609051Y214092D01*
X609051Y209908D01*
X606092Y206949D01*
X601908Y206949D01*
G37*
%LPD*%
%LPC*%
G36*
X1051088Y398499D02*
X1051088Y398499D01*
X1037735Y402077D01*
X1025764Y408989D01*
X1015989Y418764D01*
X1009077Y430735D01*
X1005499Y444088D01*
X1005499Y457912D01*
X1009077Y471265D01*
X1015989Y483236D01*
X1025764Y493011D01*
X1037735Y499923D01*
X1051088Y503501D01*
X1064912Y503501D01*
X1078265Y499923D01*
X1090236Y493011D01*
X1100011Y483236D01*
X1106923Y471265D01*
X1110501Y457912D01*
X1110501Y444088D01*
X1106923Y430735D01*
X1100011Y418764D01*
X1090236Y408989D01*
X1078265Y402077D01*
X1064912Y398499D01*
X1051088Y398499D01*
G37*
%LPD*%
%LPC*%
G36*
X367232Y58777D02*
X367232Y58777D01*
X365540Y60470D01*
X365470Y60522D01*
X365407Y60581D01*
X365357Y60607D01*
X365312Y60641D01*
X365231Y60672D01*
X365154Y60711D01*
X365106Y60719D01*
X365047Y60742D01*
X364900Y60754D01*
X364823Y60767D01*
X236001Y60933D01*
X236000Y60933D01*
X234727Y60933D01*
X233835Y61828D01*
X233834Y61829D01*
X228463Y67200D01*
X228463Y67464D01*
X228455Y67522D01*
X228457Y67580D01*
X228435Y67662D01*
X228423Y67746D01*
X228400Y67799D01*
X228385Y67855D01*
X228342Y67928D01*
X228307Y68005D01*
X228269Y68050D01*
X228240Y68100D01*
X228178Y68158D01*
X228124Y68222D01*
X228075Y68254D01*
X228032Y68294D01*
X227957Y68333D01*
X227887Y68380D01*
X227831Y68397D01*
X227779Y68424D01*
X227711Y68435D01*
X227616Y68465D01*
X227516Y68468D01*
X227448Y68479D01*
X145909Y68479D01*
X145611Y68777D01*
X145611Y91306D01*
X145608Y91331D01*
X145610Y91351D01*
X144178Y123586D01*
X144166Y123650D01*
X144164Y123715D01*
X144151Y123754D01*
X144151Y124166D01*
X144147Y124191D01*
X144150Y124211D01*
X144141Y124401D01*
X144276Y124536D01*
X144291Y124556D01*
X144307Y124568D01*
X144435Y124709D01*
X144626Y124709D01*
X144650Y124712D01*
X144671Y124710D01*
X145064Y124727D01*
X145071Y124725D01*
X145180Y124721D01*
X145252Y124709D01*
X274267Y124709D01*
X274565Y124411D01*
X274565Y84999D01*
X274577Y84912D01*
X274580Y84825D01*
X274597Y84772D01*
X274605Y84717D01*
X274640Y84637D01*
X274667Y84554D01*
X274695Y84515D01*
X274721Y84458D01*
X274817Y84344D01*
X274862Y84281D01*
X276051Y83092D01*
X276051Y78908D01*
X274862Y77719D01*
X274810Y77650D01*
X274750Y77586D01*
X274724Y77536D01*
X274691Y77492D01*
X274660Y77410D01*
X274620Y77332D01*
X274612Y77285D01*
X274590Y77226D01*
X274585Y77163D01*
X274579Y77144D01*
X274577Y77074D01*
X274565Y77001D01*
X274565Y68777D01*
X274537Y68749D01*
X274519Y68726D01*
X274498Y68708D01*
X274434Y68613D01*
X274366Y68522D01*
X274356Y68495D01*
X274340Y68471D01*
X274305Y68363D01*
X274265Y68256D01*
X274262Y68228D01*
X274254Y68200D01*
X274250Y68087D01*
X274241Y67973D01*
X274247Y67945D01*
X274246Y67916D01*
X274275Y67806D01*
X274297Y67694D01*
X274310Y67669D01*
X274317Y67641D01*
X274376Y67543D01*
X274428Y67442D01*
X274448Y67421D01*
X274462Y67397D01*
X274545Y67318D01*
X274624Y67236D01*
X274648Y67221D01*
X274669Y67202D01*
X274770Y67150D01*
X274869Y67092D01*
X274897Y67085D01*
X274922Y67072D01*
X274999Y67059D01*
X275144Y67022D01*
X275206Y67024D01*
X275253Y67016D01*
X364832Y66901D01*
X364919Y66913D01*
X365007Y66916D01*
X365059Y66932D01*
X365113Y66940D01*
X365194Y66976D01*
X365278Y67003D01*
X365317Y67031D01*
X365373Y67056D01*
X365487Y67152D01*
X365551Y67198D01*
X367232Y68879D01*
X371416Y68879D01*
X374375Y65920D01*
X374375Y61736D01*
X371416Y58777D01*
X367232Y58777D01*
G37*
%LPD*%
%LPC*%
G36*
X61684Y263237D02*
X61684Y263237D01*
X61237Y263684D01*
X61237Y342316D01*
X61684Y342763D01*
X110316Y342763D01*
X110763Y342316D01*
X110763Y320082D01*
X110771Y320024D01*
X110769Y319966D01*
X110791Y319884D01*
X110803Y319800D01*
X110826Y319747D01*
X110841Y319691D01*
X110884Y319618D01*
X110919Y319541D01*
X110957Y319496D01*
X110986Y319446D01*
X111048Y319388D01*
X111102Y319324D01*
X111151Y319292D01*
X111194Y319252D01*
X111269Y319213D01*
X111339Y319166D01*
X111395Y319149D01*
X111447Y319122D01*
X111515Y319111D01*
X111610Y319081D01*
X111710Y319078D01*
X111778Y319067D01*
X348309Y319067D01*
X348396Y319079D01*
X348483Y319082D01*
X348536Y319099D01*
X348591Y319107D01*
X348670Y319142D01*
X348754Y319169D01*
X348793Y319197D01*
X348850Y319223D01*
X348963Y319319D01*
X349027Y319364D01*
X354652Y324989D01*
X354681Y325027D01*
X354692Y325037D01*
X354712Y325067D01*
X354764Y325123D01*
X354790Y325172D01*
X354823Y325216D01*
X354838Y325256D01*
X354850Y325273D01*
X354863Y325315D01*
X354894Y325376D01*
X354902Y325423D01*
X354924Y325482D01*
X354927Y325518D01*
X354935Y325544D01*
X354938Y325638D01*
X354949Y325707D01*
X354949Y328092D01*
X357908Y331051D01*
X362092Y331051D01*
X365051Y328092D01*
X365051Y323908D01*
X362092Y320949D01*
X359707Y320949D01*
X359620Y320937D01*
X359533Y320934D01*
X359480Y320917D01*
X359425Y320909D01*
X359346Y320874D01*
X359262Y320847D01*
X359223Y320819D01*
X359166Y320793D01*
X359053Y320697D01*
X358989Y320652D01*
X353364Y315027D01*
X351137Y312800D01*
X351119Y312776D01*
X351097Y312757D01*
X351034Y312663D01*
X350966Y312573D01*
X350956Y312545D01*
X350939Y312521D01*
X350905Y312413D01*
X350865Y312307D01*
X350862Y312278D01*
X350853Y312250D01*
X350851Y312136D01*
X350841Y312024D01*
X350847Y311995D01*
X350846Y311966D01*
X350875Y311856D01*
X350897Y311745D01*
X350911Y311719D01*
X350918Y311691D01*
X350976Y311593D01*
X351028Y311493D01*
X351048Y311471D01*
X351063Y311446D01*
X351146Y311369D01*
X351224Y311287D01*
X351249Y311272D01*
X351271Y311252D01*
X351371Y311200D01*
X351469Y311143D01*
X351498Y311136D01*
X351524Y311122D01*
X351601Y311109D01*
X351745Y311073D01*
X351807Y311075D01*
X351855Y311067D01*
X353503Y311067D01*
X353590Y311079D01*
X353677Y311082D01*
X353730Y311099D01*
X353785Y311107D01*
X353865Y311142D01*
X353948Y311169D01*
X353987Y311197D01*
X354044Y311223D01*
X354158Y311319D01*
X354221Y311364D01*
X355908Y313051D01*
X360092Y313051D01*
X363051Y310092D01*
X363051Y308645D01*
X363055Y308615D01*
X363052Y308586D01*
X363075Y308475D01*
X363091Y308363D01*
X363103Y308336D01*
X363108Y308308D01*
X363161Y308207D01*
X363207Y308104D01*
X363226Y308081D01*
X363239Y308055D01*
X363317Y307973D01*
X363390Y307887D01*
X363415Y307870D01*
X363435Y307849D01*
X363533Y307792D01*
X363627Y307729D01*
X363655Y307720D01*
X363680Y307705D01*
X363790Y307678D01*
X363898Y307643D01*
X363928Y307643D01*
X363956Y307635D01*
X364069Y307639D01*
X364182Y307636D01*
X364211Y307643D01*
X364240Y307644D01*
X364348Y307679D01*
X364457Y307708D01*
X364483Y307723D01*
X364511Y307732D01*
X364575Y307777D01*
X364702Y307853D01*
X364745Y307899D01*
X364784Y307927D01*
X365908Y309051D01*
X370092Y309051D01*
X373051Y306092D01*
X373051Y301908D01*
X370092Y298949D01*
X365908Y298949D01*
X362949Y301908D01*
X362949Y303355D01*
X362945Y303385D01*
X362948Y303414D01*
X362925Y303525D01*
X362909Y303637D01*
X362897Y303664D01*
X362892Y303692D01*
X362839Y303793D01*
X362793Y303896D01*
X362774Y303919D01*
X362761Y303945D01*
X362683Y304027D01*
X362610Y304113D01*
X362585Y304130D01*
X362565Y304151D01*
X362467Y304208D01*
X362373Y304271D01*
X362345Y304280D01*
X362320Y304295D01*
X362210Y304322D01*
X362102Y304357D01*
X362072Y304357D01*
X362044Y304365D01*
X361931Y304361D01*
X361818Y304364D01*
X361789Y304357D01*
X361760Y304356D01*
X361652Y304321D01*
X361543Y304292D01*
X361517Y304277D01*
X361489Y304268D01*
X361425Y304223D01*
X361298Y304147D01*
X361255Y304101D01*
X361216Y304073D01*
X360092Y302949D01*
X355908Y302949D01*
X354221Y304636D01*
X354152Y304688D01*
X354088Y304748D01*
X354038Y304774D01*
X353994Y304807D01*
X353912Y304838D01*
X353834Y304878D01*
X353787Y304886D01*
X353728Y304908D01*
X353581Y304920D01*
X353503Y304933D01*
X131691Y304933D01*
X131604Y304921D01*
X131517Y304918D01*
X131464Y304901D01*
X131409Y304893D01*
X131330Y304858D01*
X131246Y304831D01*
X131207Y304803D01*
X131150Y304777D01*
X131037Y304681D01*
X130973Y304636D01*
X113270Y286933D01*
X111778Y286933D01*
X111720Y286925D01*
X111662Y286927D01*
X111580Y286905D01*
X111496Y286893D01*
X111443Y286870D01*
X111387Y286855D01*
X111314Y286812D01*
X111237Y286777D01*
X111192Y286739D01*
X111142Y286710D01*
X111084Y286648D01*
X111020Y286594D01*
X110988Y286545D01*
X110948Y286502D01*
X110909Y286427D01*
X110862Y286357D01*
X110845Y286301D01*
X110818Y286249D01*
X110807Y286181D01*
X110777Y286086D01*
X110774Y285986D01*
X110763Y285918D01*
X110763Y263684D01*
X110316Y263237D01*
X61684Y263237D01*
G37*
%LPD*%
%LPC*%
G36*
X305908Y474949D02*
X305908Y474949D01*
X305745Y475112D01*
X305676Y475164D01*
X305612Y475224D01*
X305562Y475250D01*
X305518Y475283D01*
X305436Y475314D01*
X305358Y475354D01*
X305311Y475362D01*
X305252Y475384D01*
X305105Y475396D01*
X305027Y475409D01*
X284098Y475409D01*
X283856Y475652D01*
X283786Y475704D01*
X283722Y475764D01*
X283673Y475790D01*
X283629Y475823D01*
X283547Y475854D01*
X283469Y475894D01*
X283422Y475902D01*
X283363Y475924D01*
X283215Y475936D01*
X283138Y475949D01*
X282908Y475949D01*
X279949Y478908D01*
X279949Y483092D01*
X282908Y486051D01*
X287092Y486051D01*
X288255Y484888D01*
X288324Y484836D01*
X288388Y484776D01*
X288438Y484750D01*
X288482Y484717D01*
X288564Y484686D01*
X288642Y484646D01*
X288689Y484638D01*
X288748Y484616D01*
X288895Y484604D01*
X288973Y484591D01*
X305027Y484591D01*
X305114Y484603D01*
X305201Y484606D01*
X305254Y484623D01*
X305309Y484631D01*
X305389Y484666D01*
X305472Y484693D01*
X305511Y484721D01*
X305568Y484747D01*
X305682Y484843D01*
X305745Y484888D01*
X305908Y485051D01*
X310092Y485051D01*
X310255Y484888D01*
X310324Y484836D01*
X310388Y484776D01*
X310438Y484750D01*
X310482Y484717D01*
X310564Y484686D01*
X310642Y484646D01*
X310689Y484638D01*
X310748Y484616D01*
X310895Y484604D01*
X310973Y484591D01*
X790027Y484591D01*
X790114Y484603D01*
X790201Y484606D01*
X790254Y484623D01*
X790309Y484631D01*
X790389Y484666D01*
X790472Y484693D01*
X790511Y484721D01*
X790568Y484747D01*
X790681Y484843D01*
X790745Y484888D01*
X790908Y485051D01*
X795092Y485051D01*
X795255Y484888D01*
X795325Y484836D01*
X795388Y484776D01*
X795438Y484750D01*
X795482Y484717D01*
X795564Y484686D01*
X795642Y484646D01*
X795689Y484638D01*
X795748Y484616D01*
X795895Y484604D01*
X795973Y484591D01*
X833027Y484591D01*
X833114Y484603D01*
X833201Y484606D01*
X833254Y484623D01*
X833309Y484631D01*
X833389Y484666D01*
X833472Y484693D01*
X833511Y484721D01*
X833568Y484747D01*
X833682Y484843D01*
X833745Y484888D01*
X833908Y485051D01*
X838092Y485051D01*
X841051Y482092D01*
X841051Y477908D01*
X838092Y474949D01*
X833908Y474949D01*
X833745Y475112D01*
X833676Y475164D01*
X833612Y475224D01*
X833562Y475250D01*
X833518Y475283D01*
X833436Y475314D01*
X833358Y475354D01*
X833311Y475362D01*
X833252Y475384D01*
X833105Y475396D01*
X833027Y475409D01*
X795973Y475409D01*
X795886Y475397D01*
X795799Y475394D01*
X795746Y475377D01*
X795691Y475369D01*
X795611Y475334D01*
X795528Y475307D01*
X795489Y475279D01*
X795432Y475253D01*
X795319Y475157D01*
X795255Y475112D01*
X795092Y474949D01*
X790908Y474949D01*
X790745Y475112D01*
X790675Y475164D01*
X790612Y475224D01*
X790562Y475250D01*
X790518Y475283D01*
X790436Y475314D01*
X790358Y475354D01*
X790311Y475362D01*
X790252Y475384D01*
X790105Y475396D01*
X790027Y475409D01*
X310973Y475409D01*
X310886Y475397D01*
X310799Y475394D01*
X310746Y475377D01*
X310691Y475369D01*
X310611Y475334D01*
X310528Y475307D01*
X310489Y475279D01*
X310432Y475253D01*
X310318Y475157D01*
X310255Y475112D01*
X310092Y474949D01*
X305908Y474949D01*
G37*
%LPD*%
%LPC*%
G36*
X721436Y18341D02*
X721436Y18341D01*
X720989Y18788D01*
X720989Y57164D01*
X721436Y57611D01*
X811596Y57611D01*
X812043Y57164D01*
X812043Y18788D01*
X811596Y18341D01*
X721436Y18341D01*
G37*
%LPD*%
%LPC*%
G36*
X97908Y382949D02*
X97908Y382949D01*
X94949Y385908D01*
X94949Y390092D01*
X97908Y393051D01*
X102092Y393051D01*
X103525Y391618D01*
X103594Y391566D01*
X103658Y391506D01*
X103708Y391480D01*
X103752Y391447D01*
X103834Y391416D01*
X103912Y391376D01*
X103959Y391368D01*
X104018Y391346D01*
X104165Y391334D01*
X104243Y391321D01*
X299757Y391321D01*
X299844Y391333D01*
X299931Y391336D01*
X299984Y391353D01*
X300039Y391361D01*
X300119Y391396D01*
X300202Y391423D01*
X300241Y391451D01*
X300298Y391477D01*
X300412Y391573D01*
X300475Y391618D01*
X301908Y393051D01*
X306092Y393051D01*
X307205Y391938D01*
X307274Y391886D01*
X307338Y391826D01*
X307388Y391800D01*
X307432Y391767D01*
X307514Y391736D01*
X307592Y391696D01*
X307639Y391688D01*
X307698Y391666D01*
X307845Y391654D01*
X307923Y391641D01*
X326757Y391641D01*
X326844Y391653D01*
X326931Y391656D01*
X326984Y391673D01*
X327039Y391681D01*
X327119Y391716D01*
X327202Y391743D01*
X327241Y391771D01*
X327298Y391797D01*
X327411Y391893D01*
X327475Y391938D01*
X328908Y393371D01*
X333092Y393371D01*
X334525Y391938D01*
X334595Y391886D01*
X334658Y391826D01*
X334708Y391800D01*
X334752Y391767D01*
X334834Y391736D01*
X334912Y391696D01*
X334959Y391688D01*
X335018Y391666D01*
X335165Y391654D01*
X335243Y391641D01*
X423757Y391641D01*
X423844Y391653D01*
X423931Y391656D01*
X423984Y391673D01*
X424039Y391681D01*
X424119Y391716D01*
X424202Y391743D01*
X424241Y391771D01*
X424298Y391797D01*
X424411Y391893D01*
X424475Y391938D01*
X425908Y393371D01*
X430092Y393371D01*
X431525Y391938D01*
X431595Y391886D01*
X431658Y391826D01*
X431708Y391800D01*
X431752Y391767D01*
X431834Y391736D01*
X431912Y391696D01*
X431959Y391688D01*
X432018Y391666D01*
X432165Y391654D01*
X432243Y391641D01*
X461757Y391641D01*
X461844Y391653D01*
X461931Y391656D01*
X461984Y391673D01*
X462039Y391681D01*
X462119Y391716D01*
X462202Y391743D01*
X462241Y391771D01*
X462298Y391797D01*
X462411Y391893D01*
X462475Y391938D01*
X463908Y393371D01*
X468092Y393371D01*
X469525Y391938D01*
X469595Y391886D01*
X469658Y391826D01*
X469708Y391800D01*
X469752Y391767D01*
X469834Y391736D01*
X469912Y391696D01*
X469959Y391688D01*
X470018Y391666D01*
X470165Y391654D01*
X470243Y391641D01*
X540077Y391641D01*
X540164Y391653D01*
X540251Y391656D01*
X540304Y391673D01*
X540359Y391681D01*
X540439Y391716D01*
X540522Y391743D01*
X540561Y391771D01*
X540618Y391797D01*
X540732Y391893D01*
X540795Y391938D01*
X541908Y393051D01*
X546092Y393051D01*
X549051Y390092D01*
X549051Y385908D01*
X546092Y382949D01*
X541908Y382949D01*
X540155Y384702D01*
X540086Y384754D01*
X540022Y384814D01*
X539972Y384840D01*
X539928Y384873D01*
X539846Y384904D01*
X539768Y384944D01*
X539721Y384952D01*
X539662Y384974D01*
X539515Y384986D01*
X539437Y384999D01*
X470243Y384999D01*
X470156Y384987D01*
X470069Y384984D01*
X470016Y384967D01*
X469961Y384959D01*
X469881Y384924D01*
X469798Y384897D01*
X469759Y384869D01*
X469702Y384843D01*
X469589Y384747D01*
X469525Y384702D01*
X468092Y383269D01*
X463908Y383269D01*
X462475Y384702D01*
X462405Y384754D01*
X462342Y384814D01*
X462292Y384840D01*
X462248Y384873D01*
X462166Y384904D01*
X462088Y384944D01*
X462041Y384952D01*
X461982Y384974D01*
X461835Y384986D01*
X461757Y384999D01*
X432243Y384999D01*
X432156Y384987D01*
X432069Y384984D01*
X432016Y384967D01*
X431961Y384959D01*
X431881Y384924D01*
X431798Y384897D01*
X431759Y384869D01*
X431702Y384843D01*
X431589Y384747D01*
X431525Y384702D01*
X430092Y383269D01*
X425908Y383269D01*
X424475Y384702D01*
X424405Y384754D01*
X424342Y384814D01*
X424292Y384840D01*
X424248Y384873D01*
X424166Y384904D01*
X424088Y384944D01*
X424041Y384952D01*
X423982Y384974D01*
X423835Y384986D01*
X423757Y384999D01*
X335243Y384999D01*
X335156Y384987D01*
X335069Y384984D01*
X335016Y384967D01*
X334961Y384959D01*
X334881Y384924D01*
X334798Y384897D01*
X334759Y384869D01*
X334702Y384843D01*
X334589Y384747D01*
X334525Y384702D01*
X333092Y383269D01*
X328908Y383269D01*
X327475Y384702D01*
X327405Y384754D01*
X327342Y384814D01*
X327292Y384840D01*
X327248Y384873D01*
X327166Y384904D01*
X327088Y384944D01*
X327041Y384952D01*
X326982Y384974D01*
X326835Y384986D01*
X326757Y384999D01*
X308563Y384999D01*
X308476Y384987D01*
X308389Y384984D01*
X308336Y384967D01*
X308281Y384959D01*
X308201Y384924D01*
X308118Y384897D01*
X308079Y384869D01*
X308022Y384843D01*
X307908Y384747D01*
X307845Y384702D01*
X306092Y382949D01*
X301908Y382949D01*
X300475Y384382D01*
X300406Y384434D01*
X300342Y384494D01*
X300292Y384520D01*
X300248Y384553D01*
X300166Y384584D01*
X300088Y384624D01*
X300041Y384632D01*
X299982Y384654D01*
X299835Y384666D01*
X299757Y384679D01*
X104243Y384679D01*
X104156Y384667D01*
X104069Y384664D01*
X104016Y384647D01*
X103961Y384639D01*
X103881Y384604D01*
X103798Y384577D01*
X103759Y384549D01*
X103702Y384523D01*
X103588Y384427D01*
X103525Y384382D01*
X102092Y382949D01*
X97908Y382949D01*
G37*
%LPD*%
%LPC*%
G36*
X453908Y369949D02*
X453908Y369949D01*
X450949Y372908D01*
X450949Y377092D01*
X453908Y380051D01*
X458092Y380051D01*
X459779Y378364D01*
X459848Y378312D01*
X459912Y378252D01*
X459962Y378226D01*
X460006Y378193D01*
X460088Y378162D01*
X460166Y378122D01*
X460213Y378114D01*
X460272Y378092D01*
X460419Y378080D01*
X460497Y378067D01*
X819567Y378067D01*
X819654Y378079D01*
X819741Y378082D01*
X819794Y378099D01*
X819849Y378107D01*
X819929Y378142D01*
X820012Y378169D01*
X820051Y378197D01*
X820108Y378223D01*
X820222Y378319D01*
X820285Y378364D01*
X821972Y380051D01*
X826156Y380051D01*
X829115Y377092D01*
X829115Y372908D01*
X826156Y369949D01*
X821972Y369949D01*
X820285Y371636D01*
X820216Y371688D01*
X820152Y371748D01*
X820102Y371774D01*
X820058Y371807D01*
X819976Y371838D01*
X819898Y371878D01*
X819851Y371886D01*
X819792Y371908D01*
X819645Y371920D01*
X819567Y371933D01*
X460497Y371933D01*
X460410Y371921D01*
X460323Y371918D01*
X460270Y371901D01*
X460215Y371893D01*
X460135Y371858D01*
X460052Y371831D01*
X460013Y371803D01*
X459956Y371777D01*
X459842Y371681D01*
X459779Y371636D01*
X458092Y369949D01*
X453908Y369949D01*
G37*
%LPD*%
%LPC*%
G36*
X760835Y383187D02*
X760835Y383187D01*
X758890Y385132D01*
X758402Y385620D01*
X758332Y385672D01*
X758269Y385732D01*
X758219Y385758D01*
X758175Y385791D01*
X758093Y385822D01*
X758015Y385862D01*
X757968Y385870D01*
X757909Y385892D01*
X757762Y385904D01*
X757684Y385917D01*
X605481Y385917D01*
X605394Y385905D01*
X605307Y385902D01*
X605254Y385885D01*
X605199Y385877D01*
X605119Y385842D01*
X605036Y385815D01*
X604997Y385787D01*
X604940Y385761D01*
X604826Y385665D01*
X604763Y385620D01*
X604092Y384949D01*
X599908Y384949D01*
X596949Y387908D01*
X596949Y392092D01*
X599908Y395051D01*
X604092Y395051D01*
X604763Y394380D01*
X604832Y394328D01*
X604896Y394268D01*
X604946Y394242D01*
X604990Y394209D01*
X605072Y394178D01*
X605150Y394138D01*
X605197Y394130D01*
X605256Y394108D01*
X605403Y394096D01*
X605481Y394083D01*
X743323Y394083D01*
X743353Y394087D01*
X743382Y394084D01*
X743493Y394107D01*
X743605Y394123D01*
X743632Y394135D01*
X743660Y394140D01*
X743761Y394193D01*
X743864Y394239D01*
X743887Y394258D01*
X743913Y394271D01*
X743995Y394349D01*
X744081Y394422D01*
X744098Y394447D01*
X744119Y394467D01*
X744176Y394565D01*
X744239Y394659D01*
X744248Y394687D01*
X744263Y394712D01*
X744290Y394822D01*
X744325Y394930D01*
X744325Y394960D01*
X744333Y394988D01*
X744329Y395101D01*
X744332Y395214D01*
X744325Y395243D01*
X744324Y395272D01*
X744289Y395380D01*
X744260Y395489D01*
X744245Y395515D01*
X744236Y395543D01*
X744191Y395606D01*
X744115Y395734D01*
X744069Y395777D01*
X744041Y395816D01*
X740949Y398908D01*
X740949Y403092D01*
X743908Y406051D01*
X748092Y406051D01*
X751051Y403092D01*
X751051Y398908D01*
X747959Y395816D01*
X747941Y395792D01*
X747919Y395773D01*
X747856Y395679D01*
X747788Y395589D01*
X747777Y395561D01*
X747761Y395537D01*
X747727Y395429D01*
X747687Y395323D01*
X747684Y395294D01*
X747675Y395266D01*
X747672Y395152D01*
X747663Y395040D01*
X747669Y395011D01*
X747668Y394982D01*
X747697Y394872D01*
X747719Y394761D01*
X747732Y394735D01*
X747740Y394707D01*
X747798Y394609D01*
X747850Y394509D01*
X747870Y394487D01*
X747885Y394462D01*
X747968Y394385D01*
X748046Y394303D01*
X748071Y394288D01*
X748092Y394268D01*
X748193Y394216D01*
X748291Y394159D01*
X748319Y394152D01*
X748345Y394138D01*
X748423Y394125D01*
X748566Y394089D01*
X748629Y394091D01*
X748677Y394083D01*
X754172Y394083D01*
X754230Y394091D01*
X754288Y394089D01*
X754370Y394111D01*
X754454Y394123D01*
X754507Y394146D01*
X754563Y394161D01*
X754636Y394204D01*
X754713Y394239D01*
X754758Y394277D01*
X754808Y394306D01*
X754866Y394368D01*
X754930Y394422D01*
X754962Y394471D01*
X755002Y394514D01*
X755041Y394589D01*
X755088Y394659D01*
X755105Y394715D01*
X755132Y394767D01*
X755143Y394835D01*
X755173Y394930D01*
X755176Y395030D01*
X755187Y395098D01*
X755187Y397165D01*
X770835Y412813D01*
X779165Y412813D01*
X784813Y407165D01*
X784813Y388835D01*
X779165Y383187D01*
X760835Y383187D01*
G37*
%LPD*%
G36*
X585396Y268079D02*
X585396Y268079D01*
X585483Y268082D01*
X585536Y268099D01*
X585591Y268107D01*
X585670Y268142D01*
X585754Y268169D01*
X585793Y268197D01*
X585850Y268223D01*
X585963Y268319D01*
X586027Y268364D01*
X587652Y269989D01*
X587704Y270059D01*
X587764Y270123D01*
X587790Y270172D01*
X587823Y270216D01*
X587854Y270298D01*
X587894Y270376D01*
X587902Y270423D01*
X587924Y270482D01*
X587936Y270629D01*
X587949Y270707D01*
X587949Y273092D01*
X589057Y274200D01*
X589075Y274224D01*
X589097Y274243D01*
X589160Y274337D01*
X589228Y274427D01*
X589239Y274455D01*
X589255Y274479D01*
X589289Y274587D01*
X589329Y274693D01*
X589332Y274722D01*
X589341Y274750D01*
X589344Y274864D01*
X589353Y274976D01*
X589347Y275005D01*
X589348Y275034D01*
X589319Y275144D01*
X589297Y275255D01*
X589284Y275281D01*
X589276Y275309D01*
X589219Y275407D01*
X589166Y275507D01*
X589146Y275529D01*
X589131Y275554D01*
X589048Y275631D01*
X588970Y275713D01*
X588945Y275728D01*
X588924Y275748D01*
X588823Y275800D01*
X588725Y275857D01*
X588697Y275864D01*
X588671Y275878D01*
X588593Y275891D01*
X588450Y275927D01*
X588387Y275925D01*
X588339Y275933D01*
X367691Y275933D01*
X367604Y275921D01*
X367517Y275918D01*
X367464Y275901D01*
X367409Y275893D01*
X367330Y275858D01*
X367246Y275831D01*
X367207Y275803D01*
X367150Y275777D01*
X367037Y275681D01*
X366973Y275636D01*
X364348Y273011D01*
X364296Y272941D01*
X364236Y272877D01*
X364210Y272828D01*
X364177Y272784D01*
X364146Y272702D01*
X364106Y272624D01*
X364098Y272577D01*
X364076Y272518D01*
X364064Y272371D01*
X364051Y272293D01*
X364051Y271066D01*
X364059Y271008D01*
X364057Y270950D01*
X364079Y270868D01*
X364091Y270784D01*
X364114Y270731D01*
X364129Y270675D01*
X364172Y270602D01*
X364207Y270525D01*
X364245Y270480D01*
X364274Y270430D01*
X364336Y270372D01*
X364390Y270308D01*
X364439Y270276D01*
X364482Y270236D01*
X364557Y270197D01*
X364627Y270150D01*
X364683Y270133D01*
X364735Y270106D01*
X364803Y270095D01*
X364898Y270065D01*
X364998Y270062D01*
X365066Y270051D01*
X369092Y270051D01*
X370779Y268364D01*
X370848Y268312D01*
X370912Y268252D01*
X370962Y268226D01*
X371006Y268193D01*
X371088Y268162D01*
X371166Y268122D01*
X371213Y268114D01*
X371272Y268092D01*
X371419Y268080D01*
X371497Y268067D01*
X585309Y268067D01*
X585396Y268079D01*
G37*
%LPC*%
G36*
X279060Y160949D02*
X279060Y160949D01*
X276101Y163908D01*
X276101Y168092D01*
X279060Y171051D01*
X283244Y171051D01*
X283407Y170888D01*
X283476Y170836D01*
X283540Y170776D01*
X283590Y170750D01*
X283634Y170717D01*
X283716Y170686D01*
X283794Y170646D01*
X283841Y170638D01*
X283900Y170616D01*
X284047Y170604D01*
X284125Y170591D01*
X343815Y170591D01*
X343845Y170595D01*
X343874Y170592D01*
X343985Y170615D01*
X344097Y170631D01*
X344124Y170643D01*
X344152Y170648D01*
X344253Y170701D01*
X344356Y170747D01*
X344379Y170766D01*
X344405Y170779D01*
X344487Y170857D01*
X344573Y170930D01*
X344590Y170955D01*
X344611Y170975D01*
X344668Y171073D01*
X344731Y171167D01*
X344740Y171195D01*
X344755Y171220D01*
X344782Y171330D01*
X344817Y171438D01*
X344817Y171468D01*
X344825Y171496D01*
X344821Y171609D01*
X344824Y171722D01*
X344817Y171751D01*
X344816Y171780D01*
X344781Y171888D01*
X344752Y171997D01*
X344737Y172023D01*
X344728Y172051D01*
X344683Y172114D01*
X344607Y172242D01*
X344561Y172285D01*
X344533Y172324D01*
X342949Y173908D01*
X342949Y178092D01*
X345908Y181051D01*
X350092Y181051D01*
X353051Y178092D01*
X353051Y173908D01*
X351467Y172324D01*
X351449Y172300D01*
X351427Y172281D01*
X351364Y172187D01*
X351296Y172097D01*
X351285Y172069D01*
X351269Y172045D01*
X351235Y171937D01*
X351195Y171831D01*
X351192Y171802D01*
X351183Y171774D01*
X351180Y171660D01*
X351171Y171548D01*
X351177Y171519D01*
X351176Y171490D01*
X351205Y171380D01*
X351227Y171269D01*
X351240Y171243D01*
X351248Y171215D01*
X351306Y171117D01*
X351358Y171017D01*
X351378Y170995D01*
X351393Y170970D01*
X351476Y170893D01*
X351554Y170811D01*
X351579Y170796D01*
X351600Y170776D01*
X351701Y170724D01*
X351799Y170667D01*
X351827Y170660D01*
X351853Y170646D01*
X351931Y170633D01*
X352074Y170597D01*
X352137Y170599D01*
X352185Y170591D01*
X429678Y170591D01*
X429765Y170603D01*
X429852Y170606D01*
X429905Y170623D01*
X429959Y170631D01*
X430039Y170666D01*
X430122Y170693D01*
X430162Y170721D01*
X430219Y170747D01*
X430332Y170843D01*
X430396Y170888D01*
X432652Y173144D01*
X432704Y173214D01*
X432764Y173278D01*
X432790Y173327D01*
X432823Y173371D01*
X432854Y173453D01*
X432894Y173531D01*
X432902Y173579D01*
X432924Y173637D01*
X432936Y173785D01*
X432949Y173862D01*
X432949Y174092D01*
X435908Y177051D01*
X440092Y177051D01*
X443051Y174092D01*
X443051Y169908D01*
X440092Y166949D01*
X439862Y166949D01*
X439775Y166937D01*
X439688Y166934D01*
X439635Y166917D01*
X439581Y166909D01*
X439501Y166874D01*
X439418Y166847D01*
X439378Y166819D01*
X439321Y166793D01*
X439208Y166697D01*
X439144Y166652D01*
X433902Y161409D01*
X284125Y161409D01*
X284038Y161397D01*
X283951Y161394D01*
X283898Y161377D01*
X283843Y161369D01*
X283763Y161334D01*
X283680Y161307D01*
X283641Y161279D01*
X283584Y161253D01*
X283470Y161157D01*
X283407Y161112D01*
X283244Y160949D01*
X279060Y160949D01*
G37*
%LPD*%
%LPC*%
G36*
X789908Y387949D02*
X789908Y387949D01*
X786949Y390908D01*
X786949Y395092D01*
X789908Y398051D01*
X794092Y398051D01*
X794255Y397888D01*
X794325Y397836D01*
X794388Y397776D01*
X794438Y397750D01*
X794482Y397717D01*
X794564Y397686D01*
X794642Y397646D01*
X794689Y397638D01*
X794748Y397616D01*
X794895Y397604D01*
X794973Y397591D01*
X923527Y397591D01*
X923614Y397603D01*
X923701Y397606D01*
X923754Y397623D01*
X923809Y397631D01*
X923889Y397666D01*
X923972Y397693D01*
X924011Y397721D01*
X924068Y397747D01*
X924182Y397843D01*
X924245Y397888D01*
X924408Y398051D01*
X928592Y398051D01*
X928755Y397888D01*
X928824Y397836D01*
X928888Y397776D01*
X928938Y397750D01*
X928982Y397717D01*
X929064Y397686D01*
X929142Y397646D01*
X929189Y397638D01*
X929248Y397616D01*
X929395Y397604D01*
X929473Y397591D01*
X948027Y397591D01*
X948114Y397603D01*
X948201Y397606D01*
X948254Y397623D01*
X948309Y397631D01*
X948389Y397666D01*
X948472Y397693D01*
X948511Y397721D01*
X948568Y397747D01*
X948682Y397843D01*
X948745Y397888D01*
X948908Y398051D01*
X953092Y398051D01*
X956051Y395092D01*
X956051Y390908D01*
X953092Y387949D01*
X948908Y387949D01*
X948745Y388112D01*
X948676Y388164D01*
X948612Y388224D01*
X948562Y388250D01*
X948518Y388283D01*
X948436Y388314D01*
X948358Y388354D01*
X948311Y388362D01*
X948252Y388384D01*
X948105Y388396D01*
X948027Y388409D01*
X929473Y388409D01*
X929386Y388397D01*
X929299Y388394D01*
X929246Y388377D01*
X929191Y388369D01*
X929111Y388334D01*
X929028Y388307D01*
X928989Y388279D01*
X928932Y388253D01*
X928818Y388157D01*
X928755Y388112D01*
X928592Y387949D01*
X924408Y387949D01*
X924245Y388112D01*
X924176Y388164D01*
X924112Y388224D01*
X924062Y388250D01*
X924018Y388283D01*
X923936Y388314D01*
X923858Y388354D01*
X923811Y388362D01*
X923752Y388384D01*
X923605Y388396D01*
X923527Y388409D01*
X794973Y388409D01*
X794886Y388397D01*
X794799Y388394D01*
X794746Y388377D01*
X794691Y388369D01*
X794611Y388334D01*
X794528Y388307D01*
X794489Y388279D01*
X794432Y388253D01*
X794319Y388157D01*
X794255Y388112D01*
X794092Y387949D01*
X789908Y387949D01*
G37*
%LPD*%
%LPC*%
G36*
X271908Y460949D02*
X271908Y460949D01*
X268949Y463908D01*
X268949Y468092D01*
X271908Y471051D01*
X276092Y471051D01*
X277779Y469364D01*
X277848Y469312D01*
X277912Y469252D01*
X277962Y469226D01*
X278006Y469193D01*
X278088Y469162D01*
X278166Y469122D01*
X278213Y469114D01*
X278272Y469092D01*
X278419Y469080D01*
X278497Y469067D01*
X407503Y469067D01*
X407590Y469079D01*
X407677Y469082D01*
X407730Y469099D01*
X407785Y469107D01*
X407865Y469142D01*
X407948Y469169D01*
X407987Y469197D01*
X408044Y469223D01*
X408158Y469319D01*
X408221Y469364D01*
X409908Y471051D01*
X414092Y471051D01*
X415779Y469364D01*
X415848Y469312D01*
X415912Y469252D01*
X415962Y469226D01*
X416006Y469193D01*
X416088Y469162D01*
X416166Y469122D01*
X416213Y469114D01*
X416272Y469092D01*
X416419Y469080D01*
X416497Y469067D01*
X487934Y469067D01*
X487992Y469075D01*
X488050Y469073D01*
X488132Y469095D01*
X488216Y469107D01*
X488269Y469130D01*
X488325Y469145D01*
X488398Y469188D01*
X488475Y469223D01*
X488520Y469261D01*
X488570Y469290D01*
X488628Y469352D01*
X488692Y469406D01*
X488724Y469455D01*
X488764Y469498D01*
X488803Y469573D01*
X488850Y469643D01*
X488867Y469699D01*
X488894Y469751D01*
X488905Y469819D01*
X488935Y469914D01*
X488938Y470014D01*
X488949Y470082D01*
X488949Y470092D01*
X491908Y473051D01*
X496092Y473051D01*
X499051Y470092D01*
X499051Y465908D01*
X496092Y462949D01*
X493707Y462949D01*
X493620Y462937D01*
X493533Y462934D01*
X493530Y462933D01*
X416497Y462933D01*
X416410Y462921D01*
X416323Y462918D01*
X416270Y462901D01*
X416215Y462893D01*
X416135Y462858D01*
X416052Y462831D01*
X416013Y462803D01*
X415956Y462777D01*
X415842Y462681D01*
X415779Y462636D01*
X414092Y460949D01*
X409908Y460949D01*
X408221Y462636D01*
X408152Y462688D01*
X408088Y462748D01*
X408038Y462774D01*
X407994Y462807D01*
X407912Y462838D01*
X407834Y462878D01*
X407787Y462886D01*
X407728Y462908D01*
X407581Y462920D01*
X407503Y462933D01*
X278497Y462933D01*
X278410Y462921D01*
X278323Y462918D01*
X278270Y462901D01*
X278215Y462893D01*
X278135Y462858D01*
X278052Y462831D01*
X278013Y462803D01*
X277956Y462777D01*
X277842Y462681D01*
X277779Y462636D01*
X276092Y460949D01*
X271908Y460949D01*
G37*
%LPD*%
%LPC*%
G36*
X626440Y101369D02*
X626440Y101369D01*
X625993Y101816D01*
X625993Y127588D01*
X626440Y128035D01*
X675452Y128035D01*
X675899Y127588D01*
X675899Y101816D01*
X675452Y101369D01*
X626440Y101369D01*
G37*
%LPD*%
%LPC*%
G36*
X851908Y583955D02*
X851908Y583955D01*
X848949Y586914D01*
X848949Y591098D01*
X851908Y594057D01*
X856092Y594057D01*
X856255Y593894D01*
X856324Y593842D01*
X856388Y593782D01*
X856438Y593756D01*
X856482Y593723D01*
X856564Y593692D01*
X856642Y593652D01*
X856689Y593644D01*
X856748Y593622D01*
X856895Y593610D01*
X856973Y593597D01*
X955224Y593597D01*
X955311Y593609D01*
X955398Y593612D01*
X955451Y593629D01*
X955505Y593637D01*
X955585Y593672D01*
X955668Y593699D01*
X955708Y593727D01*
X955765Y593753D01*
X955878Y593849D01*
X955942Y593894D01*
X961412Y599364D01*
X961464Y599434D01*
X961524Y599498D01*
X961550Y599547D01*
X961583Y599591D01*
X961614Y599673D01*
X961654Y599751D01*
X961662Y599799D01*
X961684Y599857D01*
X961696Y600005D01*
X961709Y600082D01*
X961709Y600312D01*
X964668Y603271D01*
X968852Y603271D01*
X971811Y600312D01*
X971811Y596128D01*
X968852Y593169D01*
X968622Y593169D01*
X968535Y593157D01*
X968448Y593154D01*
X968395Y593137D01*
X968341Y593129D01*
X968261Y593094D01*
X968178Y593067D01*
X968138Y593039D01*
X968081Y593013D01*
X967968Y592917D01*
X967904Y592872D01*
X959448Y584415D01*
X856973Y584415D01*
X856886Y584403D01*
X856799Y584400D01*
X856746Y584383D01*
X856691Y584375D01*
X856611Y584340D01*
X856528Y584313D01*
X856489Y584285D01*
X856432Y584259D01*
X856318Y584163D01*
X856255Y584118D01*
X856092Y583955D01*
X851908Y583955D01*
G37*
%LPD*%
%LPC*%
G36*
X255908Y242949D02*
X255908Y242949D01*
X252949Y245908D01*
X252949Y250092D01*
X255908Y253051D01*
X260092Y253051D01*
X261779Y251364D01*
X261849Y251312D01*
X261912Y251252D01*
X261962Y251226D01*
X262006Y251193D01*
X262088Y251162D01*
X262166Y251122D01*
X262213Y251114D01*
X262272Y251092D01*
X262419Y251080D01*
X262497Y251067D01*
X290339Y251067D01*
X290369Y251071D01*
X290398Y251068D01*
X290509Y251091D01*
X290621Y251107D01*
X290648Y251119D01*
X290676Y251124D01*
X290777Y251177D01*
X290880Y251223D01*
X290903Y251242D01*
X290929Y251255D01*
X291011Y251333D01*
X291097Y251406D01*
X291114Y251431D01*
X291135Y251451D01*
X291192Y251549D01*
X291255Y251643D01*
X291264Y251671D01*
X291279Y251696D01*
X291306Y251806D01*
X291341Y251914D01*
X291341Y251944D01*
X291349Y251972D01*
X291345Y252085D01*
X291348Y252198D01*
X291341Y252227D01*
X291340Y252256D01*
X291305Y252364D01*
X291276Y252473D01*
X291261Y252499D01*
X291252Y252527D01*
X291207Y252591D01*
X291131Y252718D01*
X291085Y252761D01*
X291057Y252800D01*
X289949Y253908D01*
X289949Y258092D01*
X292908Y261051D01*
X297092Y261051D01*
X298779Y259364D01*
X298848Y259312D01*
X298912Y259252D01*
X298962Y259226D01*
X299006Y259193D01*
X299088Y259162D01*
X299166Y259122D01*
X299213Y259114D01*
X299272Y259092D01*
X299419Y259080D01*
X299497Y259067D01*
X335503Y259067D01*
X335590Y259079D01*
X335677Y259082D01*
X335730Y259099D01*
X335785Y259107D01*
X335865Y259142D01*
X335948Y259169D01*
X335987Y259197D01*
X336044Y259223D01*
X336158Y259319D01*
X336221Y259364D01*
X337908Y261051D01*
X342092Y261051D01*
X345051Y258092D01*
X345051Y253908D01*
X342092Y250949D01*
X340066Y250949D01*
X340008Y250941D01*
X339950Y250943D01*
X339868Y250921D01*
X339784Y250909D01*
X339731Y250886D01*
X339675Y250871D01*
X339602Y250828D01*
X339525Y250793D01*
X339480Y250755D01*
X339430Y250726D01*
X339372Y250664D01*
X339308Y250610D01*
X339276Y250561D01*
X339236Y250518D01*
X339197Y250443D01*
X339150Y250373D01*
X339133Y250317D01*
X339106Y250265D01*
X339095Y250197D01*
X339065Y250102D01*
X339062Y250002D01*
X339051Y249934D01*
X339051Y245908D01*
X336092Y242949D01*
X331908Y242949D01*
X330221Y244636D01*
X330151Y244688D01*
X330088Y244748D01*
X330038Y244774D01*
X329994Y244807D01*
X329912Y244838D01*
X329834Y244878D01*
X329787Y244886D01*
X329728Y244908D01*
X329581Y244920D01*
X329503Y244933D01*
X262497Y244933D01*
X262410Y244921D01*
X262323Y244918D01*
X262270Y244901D01*
X262215Y244893D01*
X262135Y244858D01*
X262052Y244831D01*
X262013Y244803D01*
X261956Y244777D01*
X261843Y244681D01*
X261779Y244636D01*
X260092Y242949D01*
X255908Y242949D01*
G37*
%LPD*%
G36*
X810090Y517254D02*
X810090Y517254D01*
X810181Y517261D01*
X810211Y517273D01*
X810243Y517279D01*
X810323Y517321D01*
X810407Y517357D01*
X810439Y517383D01*
X810460Y517394D01*
X810482Y517417D01*
X810538Y517462D01*
X830038Y536962D01*
X830067Y537002D01*
X830103Y537036D01*
X830139Y537101D01*
X830182Y537161D01*
X830196Y537209D01*
X830220Y537252D01*
X830247Y537373D01*
X830254Y537397D01*
X830254Y537404D01*
X830257Y537416D01*
X831201Y545916D01*
X831198Y545978D01*
X831205Y546039D01*
X831192Y546100D01*
X831188Y546162D01*
X831166Y546219D01*
X831152Y546280D01*
X831121Y546333D01*
X831098Y546390D01*
X831058Y546438D01*
X831026Y546491D01*
X830979Y546531D01*
X830939Y546578D01*
X830886Y546611D01*
X830839Y546651D01*
X830782Y546674D01*
X830729Y546706D01*
X830669Y546720D01*
X830611Y546743D01*
X830521Y546753D01*
X830489Y546760D01*
X830472Y546758D01*
X830444Y546761D01*
X820000Y546761D01*
X819910Y546747D01*
X819819Y546739D01*
X819789Y546727D01*
X819757Y546722D01*
X819677Y546679D01*
X819593Y546643D01*
X819561Y546617D01*
X819540Y546606D01*
X819518Y546583D01*
X819462Y546538D01*
X805685Y532761D01*
X775643Y532761D01*
X775542Y532745D01*
X775440Y532734D01*
X775421Y532725D01*
X775400Y532722D01*
X775310Y532674D01*
X775216Y532631D01*
X775201Y532616D01*
X775183Y532606D01*
X775112Y532532D01*
X775038Y532462D01*
X775028Y532443D01*
X775013Y532428D01*
X774970Y532335D01*
X774922Y532245D01*
X774919Y532224D01*
X774910Y532205D01*
X774898Y532103D01*
X774882Y532002D01*
X774885Y531981D01*
X774883Y531961D01*
X774904Y531860D01*
X774921Y531759D01*
X774930Y531741D01*
X774935Y531720D01*
X774987Y531632D01*
X775035Y531542D01*
X775053Y531523D01*
X775061Y531509D01*
X775086Y531488D01*
X775150Y531420D01*
X791650Y517420D01*
X791702Y517388D01*
X791748Y517349D01*
X791807Y517325D01*
X791861Y517293D01*
X791920Y517280D01*
X791976Y517257D01*
X792070Y517247D01*
X792101Y517240D01*
X792117Y517242D01*
X792143Y517239D01*
X810000Y517239D01*
X810090Y517254D01*
G37*
%LPC*%
G36*
X663908Y446949D02*
X663908Y446949D01*
X660949Y449908D01*
X660949Y454092D01*
X663908Y457051D01*
X666293Y457051D01*
X666380Y457063D01*
X666467Y457066D01*
X666520Y457083D01*
X666575Y457091D01*
X666654Y457126D01*
X666738Y457153D01*
X666777Y457181D01*
X666834Y457207D01*
X666947Y457303D01*
X667011Y457348D01*
X670730Y461067D01*
X761503Y461067D01*
X761590Y461079D01*
X761677Y461082D01*
X761730Y461099D01*
X761785Y461107D01*
X761865Y461142D01*
X761948Y461169D01*
X761987Y461197D01*
X762044Y461223D01*
X762157Y461319D01*
X762221Y461364D01*
X763908Y463051D01*
X768092Y463051D01*
X771051Y460092D01*
X771051Y455908D01*
X768092Y452949D01*
X763908Y452949D01*
X762221Y454636D01*
X762151Y454688D01*
X762088Y454748D01*
X762038Y454774D01*
X761994Y454807D01*
X761912Y454838D01*
X761834Y454878D01*
X761787Y454886D01*
X761728Y454908D01*
X761581Y454920D01*
X761503Y454933D01*
X673691Y454933D01*
X673604Y454921D01*
X673517Y454918D01*
X673464Y454901D01*
X673409Y454893D01*
X673330Y454858D01*
X673246Y454831D01*
X673207Y454803D01*
X673150Y454777D01*
X673037Y454681D01*
X672973Y454636D01*
X671348Y453011D01*
X671296Y452941D01*
X671236Y452877D01*
X671210Y452828D01*
X671177Y452784D01*
X671146Y452702D01*
X671106Y452624D01*
X671098Y452577D01*
X671076Y452518D01*
X671064Y452371D01*
X671051Y452293D01*
X671051Y449908D01*
X668092Y446949D01*
X663908Y446949D01*
G37*
%LPD*%
%LPC*%
G36*
X1163654Y721179D02*
X1163654Y721179D01*
X1158766Y723204D01*
X1155024Y726946D01*
X1152999Y731834D01*
X1152999Y737126D01*
X1155024Y742014D01*
X1158766Y745756D01*
X1163654Y747781D01*
X1168946Y747781D01*
X1173834Y745756D01*
X1177576Y742014D01*
X1179601Y737126D01*
X1179601Y731834D01*
X1177576Y726946D01*
X1173834Y723204D01*
X1168946Y721179D01*
X1163654Y721179D01*
G37*
%LPD*%
%LPC*%
G36*
X1090654Y721179D02*
X1090654Y721179D01*
X1085766Y723204D01*
X1082024Y726946D01*
X1079999Y731834D01*
X1079999Y737126D01*
X1082024Y742014D01*
X1085766Y745756D01*
X1090654Y747781D01*
X1095946Y747781D01*
X1100834Y745756D01*
X1104576Y742014D01*
X1106601Y737126D01*
X1106601Y731834D01*
X1104576Y726946D01*
X1100834Y723204D01*
X1095946Y721179D01*
X1090654Y721179D01*
G37*
%LPD*%
G36*
X778090Y385254D02*
X778090Y385254D01*
X778181Y385261D01*
X778211Y385273D01*
X778243Y385279D01*
X778323Y385321D01*
X778407Y385357D01*
X778439Y385383D01*
X778460Y385394D01*
X778482Y385417D01*
X778538Y385462D01*
X782538Y389462D01*
X782591Y389536D01*
X782651Y389605D01*
X782663Y389635D01*
X782682Y389661D01*
X782709Y389748D01*
X782743Y389833D01*
X782747Y389874D01*
X782754Y389897D01*
X782753Y389929D01*
X782761Y390000D01*
X782761Y406000D01*
X782747Y406090D01*
X782739Y406181D01*
X782727Y406211D01*
X782722Y406243D01*
X782679Y406323D01*
X782643Y406407D01*
X782617Y406439D01*
X782606Y406460D01*
X782583Y406482D01*
X782538Y406538D01*
X778538Y410538D01*
X778464Y410591D01*
X778395Y410651D01*
X778365Y410663D01*
X778339Y410682D01*
X778252Y410709D01*
X778167Y410743D01*
X778126Y410747D01*
X778103Y410754D01*
X778071Y410753D01*
X778000Y410761D01*
X772000Y410761D01*
X771910Y410747D01*
X771819Y410739D01*
X771789Y410727D01*
X771757Y410722D01*
X771677Y410679D01*
X771593Y410643D01*
X771561Y410617D01*
X771540Y410606D01*
X771518Y410583D01*
X771462Y410538D01*
X757462Y396538D01*
X757409Y396464D01*
X757349Y396395D01*
X757337Y396365D01*
X757318Y396339D01*
X757291Y396252D01*
X757257Y396167D01*
X757253Y396126D01*
X757246Y396103D01*
X757247Y396071D01*
X757239Y396000D01*
X757239Y390000D01*
X757254Y389910D01*
X757261Y389819D01*
X757273Y389789D01*
X757279Y389757D01*
X757321Y389677D01*
X757357Y389593D01*
X757383Y389561D01*
X757394Y389540D01*
X757417Y389518D01*
X757462Y389462D01*
X761462Y385462D01*
X761536Y385409D01*
X761605Y385349D01*
X761635Y385337D01*
X761661Y385318D01*
X761748Y385291D01*
X761833Y385257D01*
X761874Y385253D01*
X761897Y385246D01*
X761929Y385247D01*
X762000Y385239D01*
X778000Y385239D01*
X778090Y385254D01*
G37*
%LPC*%
G36*
X1115508Y592357D02*
X1115508Y592357D01*
X1112549Y595316D01*
X1112549Y599500D01*
X1115508Y602459D01*
X1119692Y602459D01*
X1121379Y600772D01*
X1121449Y600720D01*
X1121512Y600660D01*
X1121562Y600634D01*
X1121606Y600601D01*
X1121688Y600570D01*
X1121766Y600530D01*
X1121813Y600522D01*
X1121872Y600500D01*
X1122019Y600488D01*
X1122097Y600475D01*
X1179143Y600475D01*
X1179230Y600487D01*
X1179317Y600490D01*
X1179370Y600507D01*
X1179425Y600515D01*
X1179505Y600550D01*
X1179588Y600577D01*
X1179627Y600605D01*
X1179684Y600631D01*
X1179797Y600727D01*
X1179861Y600772D01*
X1181548Y602459D01*
X1185732Y602459D01*
X1188691Y599500D01*
X1188691Y595316D01*
X1185732Y592357D01*
X1181548Y592357D01*
X1179861Y594044D01*
X1179791Y594096D01*
X1179728Y594156D01*
X1179678Y594182D01*
X1179634Y594215D01*
X1179552Y594246D01*
X1179474Y594286D01*
X1179427Y594294D01*
X1179368Y594316D01*
X1179221Y594328D01*
X1179143Y594341D01*
X1122097Y594341D01*
X1122010Y594329D01*
X1121923Y594326D01*
X1121870Y594309D01*
X1121815Y594301D01*
X1121735Y594266D01*
X1121652Y594239D01*
X1121613Y594211D01*
X1121556Y594185D01*
X1121443Y594089D01*
X1121379Y594044D01*
X1119692Y592357D01*
X1115508Y592357D01*
G37*
%LPD*%
%LPC*%
G36*
X956022Y624123D02*
X956022Y624123D01*
X951627Y625944D01*
X948264Y629307D01*
X946443Y633702D01*
X946443Y638458D01*
X948264Y642853D01*
X951627Y646216D01*
X956022Y648037D01*
X960778Y648037D01*
X965173Y646216D01*
X968536Y642853D01*
X970357Y638458D01*
X970357Y633702D01*
X968536Y629307D01*
X965173Y625944D01*
X960778Y624123D01*
X956022Y624123D01*
G37*
%LPD*%
%LPC*%
G36*
X651622Y26979D02*
X651622Y26979D01*
X647227Y28800D01*
X643864Y32163D01*
X642043Y36558D01*
X642043Y41314D01*
X643864Y45709D01*
X647227Y49072D01*
X651622Y50893D01*
X656378Y50893D01*
X660773Y49072D01*
X664136Y45709D01*
X665957Y41314D01*
X665957Y36558D01*
X664136Y32163D01*
X660773Y28800D01*
X656378Y26979D01*
X651622Y26979D01*
G37*
%LPD*%
%LPC*%
G36*
X115447Y679983D02*
X115447Y679983D01*
X111588Y681582D01*
X108634Y684536D01*
X107035Y688395D01*
X107035Y692573D01*
X108634Y696432D01*
X111588Y699386D01*
X115447Y700985D01*
X119625Y700985D01*
X123484Y699386D01*
X126438Y696432D01*
X128037Y692573D01*
X128037Y688395D01*
X126438Y684536D01*
X123484Y681582D01*
X119625Y679983D01*
X115447Y679983D01*
G37*
%LPD*%
%LPC*%
G36*
X240447Y749983D02*
X240447Y749983D01*
X236588Y751582D01*
X233634Y754536D01*
X232035Y758395D01*
X232035Y762573D01*
X233634Y766432D01*
X236588Y769386D01*
X240447Y770985D01*
X244625Y770985D01*
X248484Y769386D01*
X251438Y766432D01*
X253037Y762573D01*
X253037Y758395D01*
X251438Y754536D01*
X248484Y751582D01*
X244625Y749983D01*
X240447Y749983D01*
G37*
%LPD*%
%LPC*%
G36*
X615447Y679983D02*
X615447Y679983D01*
X611588Y681582D01*
X608634Y684536D01*
X607035Y688395D01*
X607035Y692573D01*
X608634Y696432D01*
X611588Y699386D01*
X615447Y700985D01*
X619625Y700985D01*
X623484Y699386D01*
X626438Y696432D01*
X628037Y692573D01*
X628037Y688395D01*
X626438Y684536D01*
X623484Y681582D01*
X619625Y679983D01*
X615447Y679983D01*
G37*
%LPD*%
%LPC*%
G36*
X490447Y679983D02*
X490447Y679983D01*
X486588Y681582D01*
X483634Y684536D01*
X482035Y688395D01*
X482035Y692573D01*
X483634Y696432D01*
X486588Y699386D01*
X490447Y700985D01*
X494625Y700985D01*
X498484Y699386D01*
X501438Y696432D01*
X503037Y692573D01*
X503037Y688395D01*
X501438Y684536D01*
X498484Y681582D01*
X494625Y679983D01*
X490447Y679983D01*
G37*
%LPD*%
%LPC*%
G36*
X115447Y749983D02*
X115447Y749983D01*
X111588Y751582D01*
X108634Y754536D01*
X107035Y758395D01*
X107035Y762573D01*
X108634Y766432D01*
X111588Y769386D01*
X115447Y770985D01*
X119625Y770985D01*
X123484Y769386D01*
X126438Y766432D01*
X128037Y762573D01*
X128037Y758395D01*
X126438Y754536D01*
X123484Y751582D01*
X119625Y749983D01*
X115447Y749983D01*
G37*
%LPD*%
%LPC*%
G36*
X490447Y749983D02*
X490447Y749983D01*
X486588Y751582D01*
X483634Y754536D01*
X482035Y758395D01*
X482035Y762573D01*
X483634Y766432D01*
X486588Y769386D01*
X490447Y770985D01*
X494625Y770985D01*
X498484Y769386D01*
X501438Y766432D01*
X503037Y762573D01*
X503037Y758395D01*
X501438Y754536D01*
X498484Y751582D01*
X494625Y749983D01*
X490447Y749983D01*
G37*
%LPD*%
%LPC*%
G36*
X740447Y749983D02*
X740447Y749983D01*
X736588Y751582D01*
X733634Y754536D01*
X732035Y758395D01*
X732035Y762573D01*
X733634Y766432D01*
X736588Y769386D01*
X740447Y770985D01*
X744625Y770985D01*
X748484Y769386D01*
X751438Y766432D01*
X753037Y762573D01*
X753037Y758395D01*
X751438Y754536D01*
X748484Y751582D01*
X744625Y749983D01*
X740447Y749983D01*
G37*
%LPD*%
%LPC*%
G36*
X615447Y749983D02*
X615447Y749983D01*
X611588Y751582D01*
X608634Y754536D01*
X607035Y758395D01*
X607035Y762573D01*
X608634Y766432D01*
X611588Y769386D01*
X615447Y770985D01*
X619625Y770985D01*
X623484Y769386D01*
X626438Y766432D01*
X628037Y762573D01*
X628037Y758395D01*
X626438Y754536D01*
X623484Y751582D01*
X619625Y749983D01*
X615447Y749983D01*
G37*
%LPD*%
%LPC*%
G36*
X865447Y749983D02*
X865447Y749983D01*
X861588Y751582D01*
X858634Y754536D01*
X857035Y758395D01*
X857035Y762573D01*
X858634Y766432D01*
X861588Y769386D01*
X865447Y770985D01*
X869625Y770985D01*
X873484Y769386D01*
X876438Y766432D01*
X878037Y762573D01*
X878037Y758395D01*
X876438Y754536D01*
X873484Y751582D01*
X869625Y749983D01*
X865447Y749983D01*
G37*
%LPD*%
%LPC*%
G36*
X240447Y679983D02*
X240447Y679983D01*
X236588Y681582D01*
X233634Y684536D01*
X232035Y688395D01*
X232035Y692573D01*
X233634Y696432D01*
X236588Y699386D01*
X240447Y700985D01*
X244625Y700985D01*
X248484Y699386D01*
X251438Y696432D01*
X253037Y692573D01*
X253037Y688395D01*
X251438Y684536D01*
X248484Y681582D01*
X244625Y679983D01*
X240447Y679983D01*
G37*
%LPD*%
%LPC*%
G36*
X365447Y749983D02*
X365447Y749983D01*
X361588Y751582D01*
X358634Y754536D01*
X357035Y758395D01*
X357035Y762573D01*
X358634Y766432D01*
X361588Y769386D01*
X365447Y770985D01*
X369625Y770985D01*
X373484Y769386D01*
X376438Y766432D01*
X378037Y762573D01*
X378037Y758395D01*
X376438Y754536D01*
X373484Y751582D01*
X369625Y749983D01*
X365447Y749983D01*
G37*
%LPD*%
%LPC*%
G36*
X740447Y679983D02*
X740447Y679983D01*
X736588Y681582D01*
X733634Y684536D01*
X732035Y688395D01*
X732035Y692573D01*
X733634Y696432D01*
X736588Y699386D01*
X740447Y700985D01*
X744625Y700985D01*
X748484Y699386D01*
X751438Y696432D01*
X753037Y692573D01*
X753037Y688395D01*
X751438Y684536D01*
X748484Y681582D01*
X744625Y679983D01*
X740447Y679983D01*
G37*
%LPD*%
%LPC*%
G36*
X865447Y679983D02*
X865447Y679983D01*
X861588Y681582D01*
X858634Y684536D01*
X857035Y688395D01*
X857035Y692573D01*
X858634Y696432D01*
X861588Y699386D01*
X865447Y700985D01*
X869625Y700985D01*
X873484Y699386D01*
X876438Y696432D01*
X878037Y692573D01*
X878037Y688395D01*
X876438Y684536D01*
X873484Y681582D01*
X869625Y679983D01*
X865447Y679983D01*
G37*
%LPD*%
%LPC*%
G36*
X365447Y679983D02*
X365447Y679983D01*
X361588Y681582D01*
X358634Y684536D01*
X357035Y688395D01*
X357035Y692573D01*
X358634Y696432D01*
X361588Y699386D01*
X365447Y700985D01*
X369625Y700985D01*
X373484Y699386D01*
X376438Y696432D01*
X378037Y692573D01*
X378037Y688395D01*
X376438Y684536D01*
X373484Y681582D01*
X369625Y679983D01*
X365447Y679983D01*
G37*
%LPD*%
%LPC*%
G36*
X954436Y527793D02*
X954436Y527793D01*
X951441Y529034D01*
X949150Y531325D01*
X947909Y534320D01*
X947909Y537560D01*
X949150Y540555D01*
X951441Y542846D01*
X954436Y544087D01*
X957676Y544087D01*
X960671Y542846D01*
X962962Y540555D01*
X964203Y537560D01*
X964203Y534320D01*
X962962Y531325D01*
X960671Y529034D01*
X957676Y527793D01*
X954436Y527793D01*
G37*
%LPD*%
G36*
X111781Y294545D02*
X111781Y294545D01*
X111894Y294542D01*
X111923Y294550D01*
X111952Y294551D01*
X112060Y294585D01*
X112169Y294614D01*
X112195Y294629D01*
X112223Y294638D01*
X112286Y294684D01*
X112414Y294759D01*
X112457Y294805D01*
X112496Y294833D01*
X128863Y311200D01*
X128881Y311224D01*
X128903Y311243D01*
X128966Y311337D01*
X129034Y311427D01*
X129044Y311455D01*
X129061Y311479D01*
X129095Y311587D01*
X129135Y311693D01*
X129138Y311722D01*
X129147Y311750D01*
X129149Y311864D01*
X129159Y311976D01*
X129153Y312005D01*
X129154Y312034D01*
X129125Y312144D01*
X129103Y312255D01*
X129089Y312281D01*
X129082Y312309D01*
X129024Y312407D01*
X128972Y312507D01*
X128952Y312529D01*
X128937Y312554D01*
X128854Y312631D01*
X128776Y312713D01*
X128751Y312728D01*
X128729Y312748D01*
X128629Y312800D01*
X128531Y312857D01*
X128502Y312864D01*
X128476Y312878D01*
X128399Y312891D01*
X128255Y312927D01*
X128193Y312925D01*
X128145Y312933D01*
X111778Y312933D01*
X111720Y312925D01*
X111662Y312927D01*
X111580Y312905D01*
X111496Y312893D01*
X111443Y312870D01*
X111387Y312855D01*
X111314Y312812D01*
X111237Y312777D01*
X111192Y312739D01*
X111142Y312710D01*
X111084Y312648D01*
X111020Y312594D01*
X110988Y312545D01*
X110948Y312502D01*
X110909Y312427D01*
X110862Y312357D01*
X110845Y312301D01*
X110818Y312249D01*
X110807Y312181D01*
X110777Y312086D01*
X110774Y311986D01*
X110763Y311918D01*
X110763Y295551D01*
X110767Y295522D01*
X110764Y295492D01*
X110787Y295381D01*
X110803Y295269D01*
X110815Y295243D01*
X110820Y295214D01*
X110872Y295113D01*
X110919Y295010D01*
X110938Y294987D01*
X110951Y294961D01*
X111029Y294879D01*
X111102Y294793D01*
X111127Y294777D01*
X111147Y294755D01*
X111245Y294698D01*
X111339Y294635D01*
X111367Y294626D01*
X111392Y294612D01*
X111502Y294584D01*
X111610Y294549D01*
X111640Y294549D01*
X111668Y294542D01*
X111781Y294545D01*
G37*
%LPC*%
G36*
X1145808Y746979D02*
X1145808Y746979D01*
X1143051Y748121D01*
X1140941Y750231D01*
X1139799Y752988D01*
X1139799Y755972D01*
X1140941Y758729D01*
X1143051Y760839D01*
X1145808Y761981D01*
X1148792Y761981D01*
X1151549Y760839D01*
X1153659Y758729D01*
X1154801Y755972D01*
X1154801Y752988D01*
X1153659Y750231D01*
X1151549Y748121D01*
X1148792Y746979D01*
X1145808Y746979D01*
G37*
%LPD*%
%LPC*%
G36*
X1110808Y746979D02*
X1110808Y746979D01*
X1108051Y748121D01*
X1105941Y750231D01*
X1104799Y752988D01*
X1104799Y755972D01*
X1105941Y758729D01*
X1108051Y760839D01*
X1110808Y761981D01*
X1113792Y761981D01*
X1116549Y760839D01*
X1118659Y758729D01*
X1119801Y755972D01*
X1119801Y752988D01*
X1118659Y750231D01*
X1116549Y748121D01*
X1113792Y746979D01*
X1110808Y746979D01*
G37*
%LPD*%
%LPC*%
G36*
X412436Y173765D02*
X412436Y173765D01*
X409477Y176724D01*
X409477Y176918D01*
X409469Y176976D01*
X409471Y177035D01*
X409449Y177116D01*
X409437Y177200D01*
X409414Y177253D01*
X409399Y177310D01*
X409356Y177382D01*
X409321Y177459D01*
X409283Y177504D01*
X409254Y177554D01*
X409192Y177612D01*
X409138Y177676D01*
X409089Y177709D01*
X409046Y177749D01*
X408971Y177787D01*
X408901Y177834D01*
X408845Y177851D01*
X408793Y177878D01*
X408725Y177889D01*
X408630Y177920D01*
X408530Y177922D01*
X408462Y177933D01*
X404204Y177933D01*
X401245Y180892D01*
X401245Y185076D01*
X404204Y188035D01*
X408388Y188035D01*
X411347Y185076D01*
X411347Y184882D01*
X411355Y184824D01*
X411353Y184766D01*
X411375Y184684D01*
X411386Y184600D01*
X411410Y184547D01*
X411425Y184491D01*
X411468Y184418D01*
X411503Y184341D01*
X411540Y184296D01*
X411570Y184246D01*
X411632Y184188D01*
X411686Y184124D01*
X411735Y184092D01*
X411778Y184052D01*
X411853Y184013D01*
X411923Y183966D01*
X411979Y183949D01*
X412031Y183922D01*
X412099Y183911D01*
X412194Y183881D01*
X412294Y183878D01*
X412362Y183867D01*
X416620Y183867D01*
X419579Y180908D01*
X419579Y176724D01*
X416620Y173765D01*
X412436Y173765D01*
G37*
%LPD*%
%LPC*%
G36*
X1012908Y538949D02*
X1012908Y538949D01*
X1009949Y541908D01*
X1009949Y546092D01*
X1012908Y549051D01*
X1017092Y549051D01*
X1018782Y547361D01*
X1018829Y547326D01*
X1018869Y547283D01*
X1018942Y547240D01*
X1019009Y547190D01*
X1019064Y547169D01*
X1019114Y547139D01*
X1019196Y547119D01*
X1019275Y547089D01*
X1019333Y547084D01*
X1019390Y547069D01*
X1019474Y547072D01*
X1019558Y547065D01*
X1019616Y547077D01*
X1019674Y547078D01*
X1019754Y547104D01*
X1019837Y547121D01*
X1019889Y547148D01*
X1019945Y547166D01*
X1020001Y547206D01*
X1020089Y547252D01*
X1020162Y547321D01*
X1020218Y547361D01*
X1021908Y549051D01*
X1026092Y549051D01*
X1029051Y546092D01*
X1029051Y541908D01*
X1026092Y538949D01*
X1021908Y538949D01*
X1020218Y540639D01*
X1020171Y540674D01*
X1020131Y540717D01*
X1020058Y540760D01*
X1019991Y540810D01*
X1019936Y540831D01*
X1019886Y540861D01*
X1019804Y540881D01*
X1019725Y540911D01*
X1019667Y540916D01*
X1019610Y540931D01*
X1019526Y540928D01*
X1019442Y540935D01*
X1019384Y540923D01*
X1019326Y540922D01*
X1019246Y540896D01*
X1019163Y540879D01*
X1019111Y540852D01*
X1019055Y540834D01*
X1018999Y540794D01*
X1018911Y540748D01*
X1018838Y540679D01*
X1018782Y540639D01*
X1017092Y538949D01*
X1012908Y538949D01*
G37*
%LPD*%
%LPC*%
G36*
X803844Y442757D02*
X803844Y442757D01*
X800885Y445716D01*
X800885Y449900D01*
X802139Y451154D01*
X802174Y451201D01*
X802217Y451241D01*
X802260Y451314D01*
X802310Y451381D01*
X802331Y451436D01*
X802361Y451486D01*
X802381Y451568D01*
X802411Y451647D01*
X802416Y451705D01*
X802431Y451762D01*
X802428Y451846D01*
X802435Y451930D01*
X802423Y451988D01*
X802422Y452046D01*
X802396Y452126D01*
X802379Y452209D01*
X802352Y452261D01*
X802334Y452317D01*
X802294Y452373D01*
X802248Y452461D01*
X802179Y452534D01*
X802139Y452590D01*
X800885Y453844D01*
X800885Y458028D01*
X803844Y460987D01*
X808028Y460987D01*
X810987Y458028D01*
X810987Y453844D01*
X809733Y452590D01*
X809698Y452543D01*
X809655Y452503D01*
X809612Y452430D01*
X809562Y452363D01*
X809541Y452308D01*
X809511Y452258D01*
X809491Y452176D01*
X809461Y452097D01*
X809456Y452039D01*
X809441Y451982D01*
X809444Y451898D01*
X809437Y451814D01*
X809449Y451756D01*
X809450Y451698D01*
X809476Y451618D01*
X809493Y451535D01*
X809520Y451483D01*
X809538Y451427D01*
X809578Y451371D01*
X809624Y451283D01*
X809693Y451210D01*
X809733Y451154D01*
X810987Y449900D01*
X810987Y445716D01*
X808028Y442757D01*
X803844Y442757D01*
G37*
%LPD*%
%LPC*%
G36*
X1027672Y698397D02*
X1027672Y698397D01*
X1024713Y701356D01*
X1024713Y705540D01*
X1027672Y708499D01*
X1031856Y708499D01*
X1034815Y705540D01*
X1034815Y701356D01*
X1031856Y698397D01*
X1027672Y698397D01*
G37*
%LPD*%
%LPC*%
G36*
X448268Y417229D02*
X448268Y417229D01*
X445309Y420188D01*
X445309Y424372D01*
X448268Y427331D01*
X452452Y427331D01*
X455411Y424372D01*
X455411Y420188D01*
X452452Y417229D01*
X448268Y417229D01*
G37*
%LPD*%
%LPC*%
G36*
X376908Y415949D02*
X376908Y415949D01*
X373949Y418908D01*
X373949Y423092D01*
X376908Y426051D01*
X381092Y426051D01*
X384051Y423092D01*
X384051Y418908D01*
X381092Y415949D01*
X376908Y415949D01*
G37*
%LPD*%
%LPC*%
G36*
X649908Y411949D02*
X649908Y411949D01*
X646949Y414908D01*
X646949Y419092D01*
X649908Y422051D01*
X654092Y422051D01*
X657051Y419092D01*
X657051Y414908D01*
X654092Y411949D01*
X649908Y411949D01*
G37*
%LPD*%
%LPC*%
G36*
X401908Y296949D02*
X401908Y296949D01*
X398949Y299908D01*
X398949Y304092D01*
X401908Y307051D01*
X406092Y307051D01*
X409051Y304092D01*
X409051Y299908D01*
X406092Y296949D01*
X401908Y296949D01*
G37*
%LPD*%
%LPC*%
G36*
X591908Y456949D02*
X591908Y456949D01*
X588949Y459908D01*
X588949Y464092D01*
X591908Y467051D01*
X596092Y467051D01*
X599051Y464092D01*
X599051Y459908D01*
X596092Y456949D01*
X591908Y456949D01*
G37*
%LPD*%
%LPC*%
G36*
X1046676Y510949D02*
X1046676Y510949D01*
X1043717Y513908D01*
X1043717Y518092D01*
X1046676Y521051D01*
X1050860Y521051D01*
X1053819Y518092D01*
X1053819Y513908D01*
X1050860Y510949D01*
X1046676Y510949D01*
G37*
%LPD*%
%LPC*%
G36*
X255908Y536949D02*
X255908Y536949D01*
X252949Y539908D01*
X252949Y544092D01*
X255908Y547051D01*
X260092Y547051D01*
X263051Y544092D01*
X263051Y539908D01*
X260092Y536949D01*
X255908Y536949D01*
G37*
%LPD*%
%LPC*%
G36*
X1131764Y637061D02*
X1131764Y637061D01*
X1128805Y640020D01*
X1128805Y644204D01*
X1131764Y647163D01*
X1135948Y647163D01*
X1138907Y644204D01*
X1138907Y640020D01*
X1135948Y637061D01*
X1131764Y637061D01*
G37*
%LPD*%
%LPC*%
G36*
X518100Y222533D02*
X518100Y222533D01*
X515141Y225492D01*
X515141Y229676D01*
X518100Y232635D01*
X522284Y232635D01*
X525243Y229676D01*
X525243Y225492D01*
X522284Y222533D01*
X518100Y222533D01*
G37*
%LPD*%
%LPC*%
G36*
X383908Y536949D02*
X383908Y536949D01*
X380949Y539908D01*
X380949Y544092D01*
X383908Y547051D01*
X388092Y547051D01*
X391051Y544092D01*
X391051Y539908D01*
X388092Y536949D01*
X383908Y536949D01*
G37*
%LPD*%
%LPC*%
G36*
X837908Y369949D02*
X837908Y369949D01*
X834949Y372908D01*
X834949Y377092D01*
X837908Y380051D01*
X842092Y380051D01*
X845051Y377092D01*
X845051Y372908D01*
X842092Y369949D01*
X837908Y369949D01*
G37*
%LPD*%
%LPC*%
G36*
X534356Y222533D02*
X534356Y222533D01*
X531397Y225492D01*
X531397Y229676D01*
X534356Y232635D01*
X538540Y232635D01*
X541499Y229676D01*
X541499Y225492D01*
X538540Y222533D01*
X534356Y222533D01*
G37*
%LPD*%
%LPC*%
G36*
X755908Y536949D02*
X755908Y536949D01*
X752949Y539908D01*
X752949Y544092D01*
X755908Y547051D01*
X760092Y547051D01*
X763051Y544092D01*
X763051Y539908D01*
X760092Y536949D01*
X755908Y536949D01*
G37*
%LPD*%
%LPC*%
G36*
X283060Y229949D02*
X283060Y229949D01*
X280101Y232908D01*
X280101Y237092D01*
X283060Y240051D01*
X287244Y240051D01*
X290203Y237092D01*
X290203Y232908D01*
X287244Y229949D01*
X283060Y229949D01*
G37*
%LPD*%
%LPC*%
G36*
X318908Y261949D02*
X318908Y261949D01*
X315949Y264908D01*
X315949Y269092D01*
X318908Y272051D01*
X323092Y272051D01*
X326051Y269092D01*
X326051Y264908D01*
X323092Y261949D01*
X318908Y261949D01*
G37*
%LPD*%
%LPC*%
G36*
X601908Y346949D02*
X601908Y346949D01*
X598949Y349908D01*
X598949Y354092D01*
X601908Y357051D01*
X606092Y357051D01*
X609051Y354092D01*
X609051Y349908D01*
X606092Y346949D01*
X601908Y346949D01*
G37*
%LPD*%
%LPC*%
G36*
X626908Y284949D02*
X626908Y284949D01*
X623949Y287908D01*
X623949Y292092D01*
X626908Y295051D01*
X631092Y295051D01*
X634051Y292092D01*
X634051Y287908D01*
X631092Y284949D01*
X626908Y284949D01*
G37*
%LPD*%
%LPC*%
G36*
X1148528Y537239D02*
X1148528Y537239D01*
X1145569Y540198D01*
X1145569Y544382D01*
X1148528Y547341D01*
X1152712Y547341D01*
X1155671Y544382D01*
X1155671Y540198D01*
X1152712Y537239D01*
X1148528Y537239D01*
G37*
%LPD*%
%LPC*%
G36*
X729908Y272949D02*
X729908Y272949D01*
X726949Y275908D01*
X726949Y280092D01*
X729908Y283051D01*
X734092Y283051D01*
X737051Y280092D01*
X737051Y275908D01*
X734092Y272949D01*
X729908Y272949D01*
G37*
%LPD*%
%LPC*%
G36*
X910530Y157509D02*
X910530Y157509D01*
X907571Y160468D01*
X907571Y164652D01*
X910530Y167611D01*
X914714Y167611D01*
X917673Y164652D01*
X917673Y160468D01*
X914714Y157509D01*
X910530Y157509D01*
G37*
%LPD*%
%LPC*%
G36*
X985460Y157509D02*
X985460Y157509D01*
X982501Y160468D01*
X982501Y164652D01*
X985460Y167611D01*
X989644Y167611D01*
X992603Y164652D01*
X992603Y160468D01*
X989644Y157509D01*
X985460Y157509D01*
G37*
%LPD*%
%LPC*%
G36*
X1068772Y155477D02*
X1068772Y155477D01*
X1065813Y158436D01*
X1065813Y162620D01*
X1068772Y165579D01*
X1072956Y165579D01*
X1075915Y162620D01*
X1075915Y158436D01*
X1072956Y155477D01*
X1068772Y155477D01*
G37*
%LPD*%
%LPC*%
G36*
X463908Y154949D02*
X463908Y154949D01*
X460949Y157908D01*
X460949Y162092D01*
X463908Y165051D01*
X468092Y165051D01*
X471051Y162092D01*
X471051Y157908D01*
X468092Y154949D01*
X463908Y154949D01*
G37*
%LPD*%
%LPC*%
G36*
X1143328Y708609D02*
X1143328Y708609D01*
X1140369Y711568D01*
X1140369Y715752D01*
X1143328Y718711D01*
X1147512Y718711D01*
X1150471Y715752D01*
X1150471Y711568D01*
X1147512Y708609D01*
X1143328Y708609D01*
G37*
%LPD*%
%LPC*%
G36*
X269908Y425949D02*
X269908Y425949D01*
X266949Y428908D01*
X266949Y433092D01*
X269908Y436051D01*
X274092Y436051D01*
X277051Y433092D01*
X277051Y428908D01*
X274092Y425949D01*
X269908Y425949D01*
G37*
%LPD*%
%LPC*%
G36*
X893916Y108525D02*
X893916Y108525D01*
X890957Y111484D01*
X890957Y115668D01*
X893916Y118627D01*
X898100Y118627D01*
X901059Y115668D01*
X901059Y111484D01*
X898100Y108525D01*
X893916Y108525D01*
G37*
%LPD*%
%LPC*%
G36*
X279060Y47065D02*
X279060Y47065D01*
X276101Y50024D01*
X276101Y54208D01*
X279060Y57167D01*
X283244Y57167D01*
X286203Y54208D01*
X286203Y50024D01*
X283244Y47065D01*
X279060Y47065D01*
G37*
%LPD*%
G36*
X1102150Y318079D02*
X1102150Y318079D01*
X1102238Y318082D01*
X1102290Y318099D01*
X1102345Y318107D01*
X1102425Y318142D01*
X1102508Y318169D01*
X1102548Y318197D01*
X1102605Y318223D01*
X1102718Y318319D01*
X1102782Y318364D01*
X1127921Y343504D01*
X1127974Y343573D01*
X1128034Y343637D01*
X1128059Y343687D01*
X1128092Y343731D01*
X1128123Y343813D01*
X1128163Y343890D01*
X1128171Y343938D01*
X1128193Y343996D01*
X1128206Y344144D01*
X1128219Y344222D01*
X1128219Y344431D01*
X1128214Y344460D01*
X1128217Y344489D01*
X1128195Y344600D01*
X1128179Y344712D01*
X1128167Y344739D01*
X1128161Y344768D01*
X1128109Y344868D01*
X1128062Y344971D01*
X1128044Y344994D01*
X1128030Y345020D01*
X1127952Y345102D01*
X1127879Y345188D01*
X1127854Y345205D01*
X1127834Y345226D01*
X1127737Y345283D01*
X1127642Y345346D01*
X1127614Y345355D01*
X1127589Y345370D01*
X1127479Y345398D01*
X1127371Y345432D01*
X1127342Y345433D01*
X1127313Y345440D01*
X1127200Y345436D01*
X1127087Y345439D01*
X1127059Y345432D01*
X1127029Y345431D01*
X1126921Y345396D01*
X1126812Y345367D01*
X1126787Y345352D01*
X1126759Y345343D01*
X1126695Y345298D01*
X1126568Y345222D01*
X1126525Y345176D01*
X1126485Y345148D01*
X1101364Y320027D01*
X1101137Y319800D01*
X1101119Y319776D01*
X1101097Y319757D01*
X1101034Y319663D01*
X1100966Y319573D01*
X1100956Y319545D01*
X1100939Y319521D01*
X1100905Y319413D01*
X1100865Y319307D01*
X1100862Y319278D01*
X1100853Y319250D01*
X1100851Y319137D01*
X1100841Y319024D01*
X1100847Y318995D01*
X1100846Y318966D01*
X1100875Y318856D01*
X1100897Y318745D01*
X1100911Y318719D01*
X1100918Y318691D01*
X1100976Y318594D01*
X1101028Y318493D01*
X1101048Y318471D01*
X1101063Y318446D01*
X1101146Y318369D01*
X1101224Y318287D01*
X1101249Y318272D01*
X1101271Y318252D01*
X1101372Y318200D01*
X1101469Y318143D01*
X1101498Y318136D01*
X1101524Y318122D01*
X1101601Y318109D01*
X1101745Y318073D01*
X1101807Y318075D01*
X1101855Y318067D01*
X1102064Y318067D01*
X1102150Y318079D01*
G37*
G36*
X1093396Y331079D02*
X1093396Y331079D01*
X1093483Y331082D01*
X1093536Y331099D01*
X1093591Y331107D01*
X1093670Y331142D01*
X1093754Y331169D01*
X1093793Y331197D01*
X1093850Y331223D01*
X1093963Y331319D01*
X1094027Y331364D01*
X1114652Y351989D01*
X1114704Y352059D01*
X1114764Y352123D01*
X1114790Y352172D01*
X1114823Y352216D01*
X1114854Y352298D01*
X1114894Y352376D01*
X1114902Y352423D01*
X1114924Y352482D01*
X1114936Y352629D01*
X1114949Y352707D01*
X1114949Y353161D01*
X1114945Y353190D01*
X1114948Y353220D01*
X1114925Y353331D01*
X1114909Y353443D01*
X1114897Y353469D01*
X1114892Y353498D01*
X1114840Y353599D01*
X1114793Y353702D01*
X1114774Y353725D01*
X1114761Y353751D01*
X1114683Y353833D01*
X1114610Y353919D01*
X1114585Y353935D01*
X1114565Y353957D01*
X1114467Y354014D01*
X1114373Y354077D01*
X1114345Y354086D01*
X1114320Y354100D01*
X1114210Y354128D01*
X1114102Y354163D01*
X1114072Y354163D01*
X1114044Y354170D01*
X1113931Y354167D01*
X1113818Y354170D01*
X1113789Y354162D01*
X1113760Y354161D01*
X1113652Y354127D01*
X1113543Y354098D01*
X1113517Y354083D01*
X1113489Y354074D01*
X1113426Y354028D01*
X1113298Y353953D01*
X1113255Y353907D01*
X1113216Y353879D01*
X1093364Y334027D01*
X1092137Y332800D01*
X1092119Y332776D01*
X1092097Y332757D01*
X1092034Y332663D01*
X1091966Y332573D01*
X1091956Y332545D01*
X1091939Y332521D01*
X1091905Y332413D01*
X1091865Y332307D01*
X1091862Y332278D01*
X1091853Y332250D01*
X1091851Y332136D01*
X1091841Y332024D01*
X1091847Y331995D01*
X1091846Y331966D01*
X1091875Y331856D01*
X1091897Y331745D01*
X1091911Y331719D01*
X1091918Y331691D01*
X1091976Y331593D01*
X1092028Y331493D01*
X1092048Y331471D01*
X1092063Y331446D01*
X1092146Y331369D01*
X1092224Y331287D01*
X1092249Y331272D01*
X1092271Y331252D01*
X1092371Y331200D01*
X1092469Y331143D01*
X1092498Y331136D01*
X1092524Y331122D01*
X1092601Y331109D01*
X1092745Y331073D01*
X1092807Y331075D01*
X1092855Y331067D01*
X1093309Y331067D01*
X1093396Y331079D01*
G37*
%LPC*%
G36*
X1065751Y371111D02*
X1065751Y371111D01*
X1065751Y380813D01*
X1066508Y380694D01*
X1068291Y380114D01*
X1069961Y379264D01*
X1071477Y378162D01*
X1072802Y376837D01*
X1073904Y375321D01*
X1074754Y373651D01*
X1075334Y371868D01*
X1075453Y371111D01*
X1065751Y371111D01*
G37*
%LPD*%
%LPC*%
G36*
X191711Y436111D02*
X191711Y436111D01*
X191711Y445813D01*
X192468Y445694D01*
X194251Y445114D01*
X195921Y444264D01*
X197437Y443162D01*
X198762Y441837D01*
X199864Y440321D01*
X200714Y438651D01*
X201294Y436868D01*
X201413Y436111D01*
X191711Y436111D01*
G37*
%LPD*%
%LPC*%
G36*
X191711Y432049D02*
X191711Y432049D01*
X201413Y432049D01*
X201294Y431292D01*
X200714Y429509D01*
X199864Y427839D01*
X198762Y426323D01*
X197437Y424998D01*
X195921Y423896D01*
X194251Y423046D01*
X192468Y422466D01*
X191711Y422347D01*
X191711Y432049D01*
G37*
%LPD*%
%LPC*%
G36*
X1051987Y371111D02*
X1051987Y371111D01*
X1052106Y371868D01*
X1052686Y373651D01*
X1053536Y375321D01*
X1054638Y376837D01*
X1055963Y378162D01*
X1057479Y379264D01*
X1059149Y380114D01*
X1060932Y380694D01*
X1061689Y380813D01*
X1061689Y371111D01*
X1051987Y371111D01*
G37*
%LPD*%
%LPC*%
G36*
X177947Y436111D02*
X177947Y436111D01*
X178066Y436868D01*
X178646Y438651D01*
X179496Y440321D01*
X180598Y441837D01*
X181923Y443162D01*
X183439Y444264D01*
X185109Y445114D01*
X186892Y445694D01*
X187649Y445813D01*
X187649Y436111D01*
X177947Y436111D01*
G37*
%LPD*%
%LPC*%
G36*
X1065751Y367049D02*
X1065751Y367049D01*
X1075453Y367049D01*
X1075334Y366292D01*
X1074754Y364509D01*
X1073904Y362839D01*
X1072802Y361323D01*
X1071477Y359998D01*
X1069961Y358896D01*
X1068291Y358046D01*
X1066508Y357466D01*
X1065751Y357347D01*
X1065751Y367049D01*
G37*
%LPD*%
%LPC*%
G36*
X186892Y422466D02*
X186892Y422466D01*
X185109Y423046D01*
X183439Y423896D01*
X181923Y424998D01*
X180598Y426323D01*
X179496Y427839D01*
X178646Y429509D01*
X178066Y431292D01*
X177947Y432049D01*
X187649Y432049D01*
X187649Y422347D01*
X186892Y422466D01*
G37*
%LPD*%
%LPC*%
G36*
X1060932Y357466D02*
X1060932Y357466D01*
X1059149Y358046D01*
X1057479Y358896D01*
X1055963Y359998D01*
X1054638Y361323D01*
X1053536Y362839D01*
X1052686Y364509D01*
X1052106Y366292D01*
X1051987Y367049D01*
X1061689Y367049D01*
X1061689Y357347D01*
X1060932Y357466D01*
G37*
%LPD*%
%LPC*%
G36*
X958087Y559309D02*
X958087Y559309D01*
X963907Y559309D01*
X963842Y558978D01*
X963231Y557505D01*
X962345Y556178D01*
X961218Y555051D01*
X959891Y554165D01*
X958418Y553554D01*
X958087Y553489D01*
X958087Y559309D01*
G37*
%LPD*%
%LPC*%
G36*
X948205Y563371D02*
X948205Y563371D01*
X948270Y563702D01*
X948881Y565175D01*
X949767Y566502D01*
X950894Y567629D01*
X952221Y568515D01*
X953694Y569126D01*
X954025Y569191D01*
X954025Y563371D01*
X948205Y563371D01*
G37*
%LPD*%
%LPC*%
G36*
X953694Y553554D02*
X953694Y553554D01*
X952221Y554165D01*
X950894Y555051D01*
X949767Y556178D01*
X948881Y557505D01*
X948270Y558978D01*
X948205Y559309D01*
X954025Y559309D01*
X954025Y553489D01*
X953694Y553554D01*
G37*
%LPD*%
G36*
X416432Y246363D02*
X416432Y246363D01*
X416519Y246366D01*
X416572Y246383D01*
X416627Y246391D01*
X416706Y246426D01*
X416790Y246453D01*
X416829Y246481D01*
X416886Y246507D01*
X416999Y246603D01*
X417063Y246648D01*
X417583Y247168D01*
X417601Y247192D01*
X417623Y247211D01*
X417686Y247305D01*
X417754Y247395D01*
X417764Y247423D01*
X417781Y247447D01*
X417815Y247555D01*
X417855Y247661D01*
X417858Y247690D01*
X417867Y247718D01*
X417869Y247831D01*
X417879Y247944D01*
X417873Y247973D01*
X417874Y248002D01*
X417845Y248112D01*
X417823Y248223D01*
X417809Y248249D01*
X417802Y248277D01*
X417744Y248375D01*
X417692Y248475D01*
X417672Y248497D01*
X417657Y248522D01*
X417574Y248599D01*
X417496Y248681D01*
X417471Y248696D01*
X417449Y248716D01*
X417349Y248768D01*
X417251Y248825D01*
X417222Y248832D01*
X417196Y248846D01*
X417119Y248859D01*
X416975Y248895D01*
X416913Y248893D01*
X416865Y248901D01*
X416219Y248901D01*
X416132Y248889D01*
X416045Y248886D01*
X415992Y248869D01*
X415937Y248861D01*
X415858Y248826D01*
X415774Y248799D01*
X415735Y248771D01*
X415678Y248745D01*
X415565Y248649D01*
X415501Y248604D01*
X414981Y248084D01*
X414963Y248060D01*
X414941Y248041D01*
X414878Y247947D01*
X414810Y247857D01*
X414800Y247829D01*
X414783Y247805D01*
X414749Y247697D01*
X414709Y247591D01*
X414706Y247562D01*
X414697Y247534D01*
X414695Y247421D01*
X414685Y247308D01*
X414691Y247279D01*
X414690Y247250D01*
X414719Y247140D01*
X414741Y247029D01*
X414755Y247003D01*
X414762Y246975D01*
X414820Y246877D01*
X414872Y246777D01*
X414892Y246755D01*
X414907Y246730D01*
X414990Y246653D01*
X415068Y246571D01*
X415093Y246556D01*
X415115Y246536D01*
X415215Y246484D01*
X415313Y246427D01*
X415342Y246420D01*
X415368Y246406D01*
X415445Y246393D01*
X415589Y246357D01*
X415651Y246359D01*
X415699Y246351D01*
X416345Y246351D01*
X416432Y246363D01*
G37*
%LPC*%
G36*
X956055Y561339D02*
X956055Y561339D01*
X956055Y561341D01*
X956057Y561341D01*
X956057Y561339D01*
X956055Y561339D01*
G37*
%LPD*%
%LPC*%
G36*
X189679Y434079D02*
X189679Y434079D01*
X189679Y434081D01*
X189681Y434081D01*
X189681Y434079D01*
X189679Y434079D01*
G37*
%LPD*%
%LPC*%
G36*
X1063719Y369079D02*
X1063719Y369079D01*
X1063719Y369081D01*
X1063721Y369081D01*
X1063721Y369079D01*
X1063719Y369079D01*
G37*
%LPD*%
D10*
X1066600Y87630D03*
X1066600Y138430D03*
X1066600Y62230D03*
X1066600Y113030D03*
X1013300Y87630D03*
X1013300Y138430D03*
X1013300Y62230D03*
X1013300Y113030D03*
X960000Y87630D03*
X960000Y138430D03*
X960000Y62230D03*
X960000Y113030D03*
D11*
X1166300Y787480D03*
X1093300Y787480D03*
X1093300Y734480D03*
X1166300Y734480D03*
D10*
X1173200Y87630D03*
X1173200Y138430D03*
X1173200Y62230D03*
X1173200Y113030D03*
X1119900Y87630D03*
X1119900Y138430D03*
X1119900Y62230D03*
X1119900Y113030D03*
D12*
X1063720Y369080D03*
X189680Y434080D03*
D13*
X256930Y106700D03*
X256930Y81300D03*
X231530Y106700D03*
X231530Y81300D03*
X206130Y106700D03*
X206130Y81300D03*
X180730Y106700D03*
X180730Y81300D03*
X155330Y106700D03*
X155330Y81300D03*
D12*
X897260Y556920D03*
X958400Y636080D03*
D10*
X74300Y328400D03*
X74300Y303000D03*
X74300Y277600D03*
X99700Y328400D03*
X99700Y303000D03*
X99700Y277600D03*
D12*
X654000Y38936D03*
D10*
X639600Y115480D03*
X665000Y115480D03*
D14*
X956056Y561340D03*
X956056Y535940D03*
D15*
X766600Y165024D03*
X719610Y165024D03*
X813590Y165024D03*
X741200Y38024D03*
X792000Y38024D03*
D16*
X967792Y723228D03*
X809088Y206660D03*
X852728Y201930D03*
X930008Y190660D03*
X974648Y201930D03*
X1015288Y203200D03*
X1056944Y203200D03*
X1019436Y501780D03*
X1076720Y559928D03*
X1145192Y584040D03*
X1025208Y633696D03*
X1039528Y678016D03*
X1098328Y632016D03*
X1060896Y646620D03*
X1151604Y627696D03*
X1215200Y586976D03*
X1153416Y521272D03*
X1099820Y697484D03*
X1186688Y716788D03*
X1176020Y693420D03*
X1173288Y650812D03*
X1100328Y653796D03*
X1181608Y763444D03*
X1114552Y712216D03*
X1143000Y554736D03*
X837916Y253682D03*
X1155160Y709580D03*
X1072896Y602488D03*
X892050Y18160D03*
X948250Y18160D03*
X1065370Y18160D03*
X984190Y75720D03*
X1083310Y45720D03*
X1159510Y45720D03*
X1213930Y18860D03*
X1215930Y80010D03*
X1215930Y197390D03*
X1215930Y133350D03*
X982980Y290830D03*
X953580Y278670D03*
X915924Y272542D03*
X1038860Y296926D03*
X1089660Y257810D03*
X1081960Y293530D03*
X1121140Y314690D03*
X1155684Y417664D03*
X1154688Y481968D03*
X1215930Y269240D03*
X1215930Y326390D03*
X1213930Y447770D03*
X1213930Y516890D03*
X1215930Y379730D03*
X1211930Y698150D03*
X1211930Y777270D03*
X1213930Y632110D03*
X1169700Y314040D03*
X892556Y203112D03*
X1186148Y581088D03*
X873760Y266700D03*
X615000Y516000D03*
X274000Y546000D03*
X530000Y548000D03*
X650000Y548000D03*
X780000Y548000D03*
X401050Y547050D03*
X40000Y538000D03*
X812000Y576000D03*
X454000Y290000D03*
X340000Y380000D03*
X498952Y38000D03*
X310000Y148000D03*
X388000Y192000D03*
X382000Y226000D03*
X300000Y238000D03*
X304000Y198000D03*
X338000Y216000D03*
X144000Y548000D03*
X429620Y149048D03*
X638000Y342000D03*
X400000Y428000D03*
X274000Y454000D03*
X616000Y444000D03*
X340000Y282000D03*
X362000Y288000D03*
X526000Y288000D03*
X469000Y453000D03*
X471000Y514000D03*
X394000Y516000D03*
X378000Y134128D03*
X406000Y126128D03*
X405616Y108128D03*
X488128Y106668D03*
X452000Y124128D03*
X348000Y102128D03*
X312000Y74000D03*
X620952Y18000D03*
X807000Y297000D03*
X780000Y288000D03*
X581000Y293000D03*
X614000Y271000D03*
X719000Y271000D03*
X883000Y405000D03*
X889000Y375000D03*
X490000Y382000D03*
X532000Y382000D03*
X612000Y382000D03*
X690000Y382000D03*
X739000Y382000D03*
X320000Y324000D03*
X918000Y580000D03*
X870000Y580000D03*
X968224Y581556D03*
X1024000Y580000D03*
X739000Y294000D03*
X590000Y548000D03*
X708000Y548000D03*
X842000Y636000D03*
X838000Y654000D03*
X852000Y786000D03*
X838000Y730000D03*
X918000Y784000D03*
X980000Y784000D03*
X1068000Y784000D03*
X948000Y750000D03*
X1048000Y748000D03*
X682000Y292000D03*
X668000Y212000D03*
X776000Y212000D03*
X502000Y156000D03*
X550000Y176000D03*
X610000Y176000D03*
X668000Y176000D03*
X744000Y106000D03*
X390256Y153016D03*
X784000Y76000D03*
X845904Y131840D03*
X546896Y505680D03*
X893296Y448784D03*
X370000Y18000D03*
X312000Y18000D03*
X250000Y18000D03*
X190000Y18000D03*
X130000Y18000D03*
X70000Y18000D03*
X38000Y24000D03*
X32000Y76000D03*
X32000Y140000D03*
X32000Y200000D03*
X32000Y260000D03*
X32000Y320000D03*
X32000Y380000D03*
X32000Y440000D03*
X34000Y500000D03*
X98000Y50000D03*
X98000Y114000D03*
X98000Y174000D03*
X160000Y138000D03*
X160000Y198000D03*
X160000Y258000D03*
X224000Y164000D03*
X224000Y224000D03*
X224000Y284000D03*
X104000Y442000D03*
X90000Y364000D03*
X164000Y352000D03*
X164000Y412000D03*
X164000Y472000D03*
X914000Y130000D03*
X642356Y62348D03*
X498000Y82000D03*
X405008Y81652D03*
X926000Y76000D03*
X856000Y76000D03*
X1000000Y18000D03*
X1146000Y18000D03*
X1036000Y76000D03*
X1092000Y74000D03*
X1146000Y76000D03*
X1098000Y204000D03*
X1178000Y202000D03*
X1138000Y206000D03*
X512000Y402000D03*
X576000Y402000D03*
X546000Y468000D03*
X544000Y430000D03*
X692000Y398000D03*
X712000Y468000D03*
X800000Y350000D03*
X820000Y342000D03*
X880000Y344000D03*
X930000Y344000D03*
X950000Y344000D03*
X1012000Y344000D03*
X1084000Y344000D03*
X1148000Y342000D03*
X958000Y382000D03*
X930000Y434000D03*
X965428Y509700D03*
X920348Y541620D03*
X1108000Y378000D03*
X1103000Y494000D03*
X1108000Y522000D03*
X1009000Y382000D03*
X434000Y272000D03*
X399936Y258540D03*
X401680Y200384D03*
X456508Y238476D03*
X460000Y140128D03*
X574832Y204000D03*
X426540Y238000D03*
X492144Y227872D03*
X364000Y346000D03*
X324000Y444000D03*
X260000Y514000D03*
X152000Y514000D03*
X947000Y519000D03*
X947000Y461000D03*
X947000Y409000D03*
X987000Y555000D03*
X528156Y219688D03*
X532000Y154000D03*
D17*
X456000Y375000D02*
X824064Y375000D01*
D16*
X456000Y375000D03*
X823998Y639934D03*
X824064Y375000D03*
X781000Y619000D03*
X731000Y662000D03*
X719000Y630000D03*
X773000Y690000D03*
X739000Y728000D03*
X725000Y780000D03*
X779000Y780000D03*
X713000Y712000D03*
X778000Y728000D03*
D17*
X1095000Y328000D02*
X427000Y328000D01*
X400000Y355000D01*
X1095000Y328000D02*
X1120000Y353000D01*
D16*
X1120000Y353000D03*
X400000Y355000D03*
D17*
X1103755Y315000D02*
X1133269Y344515D01*
D16*
X1133269Y344515D03*
X408000Y315000D03*
D17*
X1103755Y315000D01*
D16*
X1133856Y642112D03*
X1048768Y516000D03*
X1145420Y713660D03*
D17*
X1134000Y357000D02*
X1098000Y321000D01*
D16*
X1134000Y357000D03*
X440000Y321066D03*
D17*
X440066Y321000D01*
X1098000Y321000D01*
D16*
X1029764Y703448D03*
X966760Y598220D03*
X793000Y480000D03*
D18*
X308000Y480000D02*
X286000Y480000D01*
D19*
X285000Y481000D01*
D18*
X793000Y480000D02*
X836000Y480000D01*
D16*
X308000Y480000D03*
D18*
X793000Y480000D01*
X957546Y589006D02*
X966760Y598220D01*
X957546Y589006D02*
X854000Y589006D01*
D16*
X285000Y481000D03*
X285152Y235000D03*
X281152Y52116D03*
X281152Y166000D03*
D18*
X432000Y166000D01*
X438000Y172000D01*
D16*
X438000Y172000D03*
X854000Y589006D03*
X836000Y480000D03*
X987552Y162560D03*
X896008Y113576D03*
X912622Y162560D03*
D17*
X1117000Y362000D02*
X1117000Y364000D01*
X1117000Y362000D02*
X1090000Y335000D01*
D16*
X1117000Y364000D03*
X432000Y358000D03*
D17*
X432000Y344000D01*
X441000Y335000D01*
X1090000Y335000D01*
D16*
X544000Y388000D03*
D20*
X543680Y388320D01*
X466000Y388320D01*
D16*
X304000Y388000D03*
D20*
X428000Y388320D02*
X466000Y388320D01*
X428000Y388320D02*
X331000Y388320D01*
X304320Y388320D01*
X304000Y388000D01*
D16*
X321000Y267000D03*
X331000Y388320D03*
D20*
X304000Y388000D02*
X100000Y388000D01*
D16*
X100000Y388000D03*
X466000Y160000D03*
X466000Y388320D03*
X550000Y288000D03*
X428000Y388320D03*
X1070864Y160528D03*
X274000Y466000D03*
D17*
X412000Y466000D01*
D16*
X494000Y468000D03*
D17*
X492000Y466000D02*
X412000Y466000D01*
X492000Y466000D02*
X494000Y468000D01*
D16*
X412000Y466000D03*
X515000Y304000D03*
D17*
X1147740Y308000D02*
X1151740Y304000D01*
X1147740Y308000D02*
X519000Y308000D01*
X515000Y304000D01*
D16*
X1151740Y304000D03*
X272000Y431000D03*
D17*
X271000Y81000D02*
X257230Y81000D01*
X256930Y81300D01*
D16*
X271000Y81000D03*
X369324Y63828D03*
D17*
X236000Y64000D01*
X231530Y68470D01*
X231530Y81300D01*
D19*
X960000Y87630D02*
X1013300Y87630D01*
X1066600Y87630D02*
X1119900Y87630D01*
X1173200Y87630D01*
D21*
X736000Y530000D02*
X614000Y530000D01*
X492000Y530000D01*
X494000Y528000D02*
X476000Y528000D01*
X384000Y528000D01*
X368000Y528000D01*
X364000Y528000D01*
X238000Y528000D01*
X113000Y528000D01*
X107000Y522000D01*
D19*
X940000Y570000D02*
X940000Y570176D01*
X946912Y577088D01*
X959104Y577088D01*
X967232Y568960D01*
X1204000Y570000D01*
D16*
X107000Y522000D03*
X1204000Y570000D03*
X940000Y570000D03*
D17*
X232000Y536000D02*
X232000Y534000D01*
X238000Y528000D01*
D16*
X232000Y536000D03*
D21*
X362066Y533934D02*
X368000Y528000D01*
X362066Y533934D02*
X362066Y538000D01*
D16*
X362066Y538000D03*
D17*
X488066Y537000D02*
X488066Y533934D01*
X492000Y530000D02*
X494000Y528000D01*
X492000Y530000D02*
X488066Y533934D01*
D16*
X488066Y537000D03*
X611000Y537000D03*
D17*
X732066Y533934D02*
X736000Y530000D01*
X732066Y533934D02*
X732066Y537000D01*
D16*
X732066Y537000D03*
X806000Y528000D03*
X776000Y406000D03*
D21*
X776000Y404000D01*
X762000Y390000D01*
X602000Y390000D01*
D16*
X348000Y176000D03*
X354000Y518000D03*
D21*
X364000Y528000D01*
D16*
X378000Y516000D03*
D21*
X378000Y522000D01*
X384000Y528000D01*
D17*
X472000Y528000D02*
X476000Y528000D01*
D21*
X472000Y528000D02*
X462000Y518000D01*
D16*
X462000Y518000D03*
D19*
X1013300Y87630D02*
X1066600Y87630D01*
D16*
X786000Y528000D03*
X826000Y541000D03*
D22*
X611000Y537000D02*
X611000Y533000D01*
X614000Y530000D01*
D16*
X778000Y390000D03*
X762000Y394000D03*
X602000Y390000D03*
D20*
X784000Y530000D02*
X786000Y528000D01*
D21*
X784000Y530000D02*
X736000Y530000D01*
D19*
X939800Y570000D02*
X940000Y570000D01*
X939800Y570000D02*
X926720Y556920D01*
X897260Y556920D01*
X831760Y556920D01*
X826000Y551160D01*
X826000Y541000D01*
D16*
X1183640Y597408D03*
X1117600Y597408D03*
D17*
X1183640Y597408D01*
D16*
X1150620Y542290D03*
X450360Y422280D03*
X450000Y308066D03*
X379000Y421000D03*
X404000Y302000D03*
X655000Y619000D03*
X603000Y788000D03*
X647000Y784000D03*
X585000Y732000D03*
X619000Y712000D03*
X645000Y692000D03*
X603000Y658000D03*
X593000Y628000D03*
X652000Y732000D03*
X530000Y619000D03*
X469000Y628000D03*
X481000Y658000D03*
X523000Y688000D03*
X493000Y714000D03*
X461000Y728000D03*
X523000Y782000D03*
X477000Y788000D03*
X526000Y728000D03*
X405000Y620000D03*
X351000Y786000D03*
X401000Y786000D03*
X343000Y728000D03*
X367000Y714000D03*
X397000Y686000D03*
X355000Y658000D03*
X345000Y628000D03*
X400000Y728000D03*
X278000Y618000D03*
X227000Y786000D03*
X269000Y784000D03*
X215000Y716000D03*
X241000Y728000D03*
X269000Y690000D03*
X220000Y638000D03*
X230000Y660000D03*
X274000Y730000D03*
X86000Y726000D03*
X155000Y619000D03*
X92000Y628000D03*
X103000Y658000D03*
X145000Y694000D03*
X115000Y722000D03*
X103000Y788000D03*
X147000Y782000D03*
X150000Y728000D03*
X792000Y393000D03*
D18*
X926500Y393000D01*
D16*
X926500Y393000D03*
D18*
X951000Y393000D01*
D16*
X951000Y393000D03*
X1024000Y544000D03*
X1015000Y544000D03*
X652000Y417000D03*
X652000Y287000D03*
D17*
X644000Y279000D01*
X366000Y279000D01*
X359000Y272000D01*
D16*
X359000Y272000D03*
X358000Y308000D03*
D17*
X112000Y290000D02*
X86700Y290000D01*
X74300Y277600D01*
X130000Y308000D02*
X358000Y308000D01*
X130000Y308000D02*
X112000Y290000D01*
D16*
X360000Y326000D03*
D17*
X86700Y316000D02*
X74300Y328400D01*
X350000Y316000D02*
X360000Y326000D01*
X350000Y316000D02*
X86700Y316000D01*
D16*
X758000Y542000D03*
X732000Y278000D03*
X629000Y540000D03*
X629000Y290000D03*
X514000Y540000D03*
X478000Y256128D03*
X386000Y542000D03*
X368000Y304000D03*
X258000Y542000D03*
D17*
X295000Y256000D02*
X340000Y256000D01*
D16*
X340000Y256000D03*
X295000Y256000D03*
X158000Y539000D03*
X258000Y248000D03*
X334000Y248000D03*
D17*
X258000Y248000D01*
D16*
X746000Y401000D03*
D17*
X753000Y189000D02*
X425000Y189000D01*
X424000Y190000D01*
D16*
X424000Y190000D03*
X753000Y189000D03*
X594000Y462000D03*
X593000Y271000D03*
D17*
X587000Y265000D01*
X367000Y265000D01*
D16*
X367000Y265000D03*
X604000Y352000D03*
X604000Y212000D03*
D17*
X452000Y212000D01*
X440000Y224000D01*
X440000Y238000D01*
D16*
X440000Y238000D03*
X560832Y239776D03*
D17*
X487803Y239776D01*
X485513Y242066D01*
X467610Y242066D02*
X462788Y246888D01*
X467610Y242066D02*
X485513Y242066D01*
X462788Y246888D02*
X421640Y246888D01*
X416052Y241300D01*
D16*
X416052Y241300D03*
X564896Y247904D03*
D17*
X471424Y247904D01*
X467360Y251968D01*
X414528Y251968D01*
X407924Y245364D01*
D16*
X407924Y245364D03*
X406296Y182984D03*
X520192Y227584D03*
X414528Y178816D03*
X536448Y227584D03*
X766000Y458000D03*
D17*
X672000Y458000D01*
X666000Y452000D01*
D16*
X666000Y452000D03*
X805936Y455936D03*
X805936Y447808D03*
X432000Y200000D03*
D17*
X436000Y196000D01*
X791000Y196000D01*
X795000Y200000D01*
D16*
X795000Y200000D03*
X840000Y375000D03*
M02*
