G04 EAGLE Gerber RS-274X export*
G75*
%MOMM*%
%FSLAX34Y34*%
%LPD*%
%IN*%
%IPPOS*%
%AMOC8*
5,1,8,0,0,1.08239X$1,22.5*%
G01*
%ADD10C,0.254000*%


D10*
X0Y12700D02*
X12700Y0D01*
X510000Y0D01*
X520000Y10000D01*
X520000Y130000D01*
X530000Y140000D01*
X600000Y140000D01*
X610000Y130000D01*
X610000Y10000D01*
X620000Y0D01*
X1231900Y0D01*
X1244600Y12700D01*
X1244600Y791130D01*
X1231900Y803830D01*
X12700Y803830D01*
X0Y791130D01*
X0Y12700D01*
X1108000Y450018D02*
X1107923Y448056D01*
X1107769Y446098D01*
X1107538Y444148D01*
X1107231Y442209D01*
X1106848Y440282D01*
X1106389Y438373D01*
X1105856Y436483D01*
X1105249Y434615D01*
X1104570Y432773D01*
X1103818Y430959D01*
X1102996Y429175D01*
X1102105Y427426D01*
X1101145Y425712D01*
X1100119Y424038D01*
X1099028Y422405D01*
X1097874Y420816D01*
X1096658Y419274D01*
X1095383Y417781D01*
X1094050Y416339D01*
X1092661Y414950D01*
X1091219Y413617D01*
X1089726Y412342D01*
X1088184Y411126D01*
X1086595Y409972D01*
X1084962Y408881D01*
X1083288Y407855D01*
X1081574Y406895D01*
X1079825Y406004D01*
X1078041Y405182D01*
X1076227Y404430D01*
X1074385Y403751D01*
X1072517Y403144D01*
X1070627Y402611D01*
X1068718Y402152D01*
X1066792Y401769D01*
X1064852Y401462D01*
X1062902Y401231D01*
X1060944Y401077D01*
X1058982Y401000D01*
X1057018Y401000D01*
X1055056Y401077D01*
X1053098Y401231D01*
X1051148Y401462D01*
X1049209Y401769D01*
X1047282Y402152D01*
X1045373Y402611D01*
X1043483Y403144D01*
X1041615Y403751D01*
X1039773Y404430D01*
X1037959Y405182D01*
X1036175Y406004D01*
X1034426Y406895D01*
X1032712Y407855D01*
X1031038Y408881D01*
X1029405Y409972D01*
X1027816Y411126D01*
X1026274Y412342D01*
X1024781Y413617D01*
X1023339Y414950D01*
X1021950Y416339D01*
X1020617Y417781D01*
X1019342Y419274D01*
X1018126Y420816D01*
X1016972Y422405D01*
X1015881Y424038D01*
X1014855Y425712D01*
X1013895Y427426D01*
X1013004Y429175D01*
X1012182Y430959D01*
X1011430Y432773D01*
X1010751Y434615D01*
X1010144Y436483D01*
X1009611Y438373D01*
X1009152Y440282D01*
X1008769Y442209D01*
X1008462Y444148D01*
X1008231Y446098D01*
X1008077Y448056D01*
X1008000Y450018D01*
X1008000Y451982D01*
X1008077Y453944D01*
X1008231Y455902D01*
X1008462Y457852D01*
X1008769Y459792D01*
X1009152Y461718D01*
X1009611Y463627D01*
X1010144Y465517D01*
X1010751Y467385D01*
X1011430Y469227D01*
X1012182Y471041D01*
X1013004Y472825D01*
X1013895Y474574D01*
X1014855Y476288D01*
X1015881Y477962D01*
X1016972Y479595D01*
X1018126Y481184D01*
X1019342Y482726D01*
X1020617Y484219D01*
X1021950Y485661D01*
X1023339Y487050D01*
X1024781Y488383D01*
X1026274Y489658D01*
X1027816Y490874D01*
X1029405Y492028D01*
X1031038Y493119D01*
X1032712Y494145D01*
X1034426Y495105D01*
X1036175Y495996D01*
X1037959Y496818D01*
X1039773Y497570D01*
X1041615Y498249D01*
X1043483Y498856D01*
X1045373Y499389D01*
X1047282Y499848D01*
X1049209Y500231D01*
X1051148Y500538D01*
X1053098Y500769D01*
X1055056Y500923D01*
X1057018Y501000D01*
X1058982Y501000D01*
X1060944Y500923D01*
X1062902Y500769D01*
X1064852Y500538D01*
X1066792Y500231D01*
X1068718Y499848D01*
X1070627Y499389D01*
X1072517Y498856D01*
X1074385Y498249D01*
X1076227Y497570D01*
X1078041Y496818D01*
X1079825Y495996D01*
X1081574Y495105D01*
X1083288Y494145D01*
X1084962Y493119D01*
X1086595Y492028D01*
X1088184Y490874D01*
X1089726Y489658D01*
X1091219Y488383D01*
X1092661Y487050D01*
X1094050Y485661D01*
X1095383Y484219D01*
X1096658Y482726D01*
X1097874Y481184D01*
X1099028Y479595D01*
X1100119Y477962D01*
X1101145Y476288D01*
X1102105Y474574D01*
X1102996Y472825D01*
X1103818Y471041D01*
X1104570Y469227D01*
X1105249Y467385D01*
X1105856Y465517D01*
X1106389Y463627D01*
X1106848Y461718D01*
X1107231Y459792D01*
X1107538Y457852D01*
X1107769Y455902D01*
X1107923Y453944D01*
X1108000Y451982D01*
X1108000Y450018D01*
X1142300Y754761D02*
X1142363Y755319D01*
X1142488Y755866D01*
X1142673Y756396D01*
X1142917Y756902D01*
X1143216Y757378D01*
X1143566Y757817D01*
X1143963Y758214D01*
X1144402Y758564D01*
X1144878Y758863D01*
X1145384Y759107D01*
X1145914Y759292D01*
X1146461Y759417D01*
X1147019Y759480D01*
X1147581Y759480D01*
X1148139Y759417D01*
X1148686Y759292D01*
X1149216Y759107D01*
X1149722Y758863D01*
X1150198Y758564D01*
X1150637Y758214D01*
X1151034Y757817D01*
X1151384Y757378D01*
X1151683Y756902D01*
X1151927Y756396D01*
X1152112Y755866D01*
X1152237Y755319D01*
X1152300Y754761D01*
X1152300Y754199D01*
X1152237Y753641D01*
X1152112Y753094D01*
X1151927Y752564D01*
X1151683Y752058D01*
X1151384Y751582D01*
X1151034Y751143D01*
X1150637Y750746D01*
X1150198Y750396D01*
X1149722Y750097D01*
X1149216Y749853D01*
X1148686Y749668D01*
X1148139Y749543D01*
X1147581Y749480D01*
X1147019Y749480D01*
X1146461Y749543D01*
X1145914Y749668D01*
X1145384Y749853D01*
X1144878Y750097D01*
X1144402Y750396D01*
X1143963Y750746D01*
X1143566Y751143D01*
X1143216Y751582D01*
X1142917Y752058D01*
X1142673Y752564D01*
X1142488Y753094D01*
X1142363Y753641D01*
X1142300Y754199D01*
X1142300Y754761D01*
X1107300Y754761D02*
X1107363Y755319D01*
X1107488Y755866D01*
X1107673Y756396D01*
X1107917Y756902D01*
X1108216Y757378D01*
X1108566Y757817D01*
X1108963Y758214D01*
X1109402Y758564D01*
X1109878Y758863D01*
X1110384Y759107D01*
X1110914Y759292D01*
X1111461Y759417D01*
X1112019Y759480D01*
X1112581Y759480D01*
X1113139Y759417D01*
X1113686Y759292D01*
X1114216Y759107D01*
X1114722Y758863D01*
X1115198Y758564D01*
X1115637Y758214D01*
X1116034Y757817D01*
X1116384Y757378D01*
X1116683Y756902D01*
X1116927Y756396D01*
X1117112Y755866D01*
X1117237Y755319D01*
X1117300Y754761D01*
X1117300Y754199D01*
X1117237Y753641D01*
X1117112Y753094D01*
X1116927Y752564D01*
X1116683Y752058D01*
X1116384Y751582D01*
X1116034Y751143D01*
X1115637Y750746D01*
X1115198Y750396D01*
X1114722Y750097D01*
X1114216Y749853D01*
X1113686Y749668D01*
X1113139Y749543D01*
X1112581Y749480D01*
X1112019Y749480D01*
X1111461Y749543D01*
X1110914Y749668D01*
X1110384Y749853D01*
X1109878Y750097D01*
X1109402Y750396D01*
X1108963Y750746D01*
X1108566Y751143D01*
X1108216Y751582D01*
X1107917Y752058D01*
X1107673Y752564D01*
X1107488Y753094D01*
X1107363Y753641D01*
X1107300Y754199D01*
X1107300Y754761D01*
X617143Y752484D02*
X616361Y752561D01*
X615590Y752714D01*
X614838Y752943D01*
X614111Y753243D01*
X613418Y753614D01*
X612765Y754051D01*
X612157Y754549D01*
X611601Y755105D01*
X611103Y755713D01*
X610666Y756366D01*
X610295Y757059D01*
X609995Y757786D01*
X609766Y758538D01*
X609613Y759309D01*
X609536Y760091D01*
X609536Y760877D01*
X609613Y761659D01*
X609766Y762430D01*
X609995Y763182D01*
X610295Y763909D01*
X610666Y764602D01*
X611103Y765255D01*
X611601Y765863D01*
X612157Y766419D01*
X612765Y766917D01*
X613418Y767354D01*
X614111Y767725D01*
X614838Y768025D01*
X615590Y768254D01*
X616361Y768407D01*
X617143Y768484D01*
X617929Y768484D01*
X618711Y768407D01*
X619482Y768254D01*
X620234Y768025D01*
X620961Y767725D01*
X621654Y767354D01*
X622307Y766917D01*
X622915Y766419D01*
X623471Y765863D01*
X623969Y765255D01*
X624406Y764602D01*
X624777Y763909D01*
X625077Y763182D01*
X625306Y762430D01*
X625459Y761659D01*
X625536Y760877D01*
X625536Y760091D01*
X625459Y759309D01*
X625306Y758538D01*
X625077Y757786D01*
X624777Y757059D01*
X624406Y756366D01*
X623969Y755713D01*
X623471Y755105D01*
X622915Y754549D01*
X622307Y754051D01*
X621654Y753614D01*
X620961Y753243D01*
X620234Y752943D01*
X619482Y752714D01*
X618711Y752561D01*
X617929Y752484D01*
X617143Y752484D01*
X617143Y682484D02*
X616361Y682561D01*
X615590Y682714D01*
X614838Y682943D01*
X614111Y683243D01*
X613418Y683614D01*
X612765Y684051D01*
X612157Y684549D01*
X611601Y685105D01*
X611103Y685713D01*
X610666Y686366D01*
X610295Y687059D01*
X609995Y687786D01*
X609766Y688538D01*
X609613Y689309D01*
X609536Y690091D01*
X609536Y690877D01*
X609613Y691659D01*
X609766Y692430D01*
X609995Y693182D01*
X610295Y693909D01*
X610666Y694602D01*
X611103Y695255D01*
X611601Y695863D01*
X612157Y696419D01*
X612765Y696917D01*
X613418Y697354D01*
X614111Y697725D01*
X614838Y698025D01*
X615590Y698254D01*
X616361Y698407D01*
X617143Y698484D01*
X617929Y698484D01*
X618711Y698407D01*
X619482Y698254D01*
X620234Y698025D01*
X620961Y697725D01*
X621654Y697354D01*
X622307Y696917D01*
X622915Y696419D01*
X623471Y695863D01*
X623969Y695255D01*
X624406Y694602D01*
X624777Y693909D01*
X625077Y693182D01*
X625306Y692430D01*
X625459Y691659D01*
X625536Y690877D01*
X625536Y690091D01*
X625459Y689309D01*
X625306Y688538D01*
X625077Y687786D01*
X624777Y687059D01*
X624406Y686366D01*
X623969Y685713D01*
X623471Y685105D01*
X622915Y684549D01*
X622307Y684051D01*
X621654Y683614D01*
X620961Y683243D01*
X620234Y682943D01*
X619482Y682714D01*
X618711Y682561D01*
X617929Y682484D01*
X617143Y682484D01*
X492143Y752484D02*
X491361Y752561D01*
X490590Y752714D01*
X489838Y752943D01*
X489111Y753243D01*
X488418Y753614D01*
X487765Y754051D01*
X487157Y754549D01*
X486601Y755105D01*
X486103Y755713D01*
X485666Y756366D01*
X485295Y757059D01*
X484995Y757786D01*
X484766Y758538D01*
X484613Y759309D01*
X484536Y760091D01*
X484536Y760877D01*
X484613Y761659D01*
X484766Y762430D01*
X484995Y763182D01*
X485295Y763909D01*
X485666Y764602D01*
X486103Y765255D01*
X486601Y765863D01*
X487157Y766419D01*
X487765Y766917D01*
X488418Y767354D01*
X489111Y767725D01*
X489838Y768025D01*
X490590Y768254D01*
X491361Y768407D01*
X492143Y768484D01*
X492929Y768484D01*
X493711Y768407D01*
X494482Y768254D01*
X495234Y768025D01*
X495961Y767725D01*
X496654Y767354D01*
X497307Y766917D01*
X497915Y766419D01*
X498471Y765863D01*
X498969Y765255D01*
X499406Y764602D01*
X499777Y763909D01*
X500077Y763182D01*
X500306Y762430D01*
X500459Y761659D01*
X500536Y760877D01*
X500536Y760091D01*
X500459Y759309D01*
X500306Y758538D01*
X500077Y757786D01*
X499777Y757059D01*
X499406Y756366D01*
X498969Y755713D01*
X498471Y755105D01*
X497915Y754549D01*
X497307Y754051D01*
X496654Y753614D01*
X495961Y753243D01*
X495234Y752943D01*
X494482Y752714D01*
X493711Y752561D01*
X492929Y752484D01*
X492143Y752484D01*
X492143Y682484D02*
X491361Y682561D01*
X490590Y682714D01*
X489838Y682943D01*
X489111Y683243D01*
X488418Y683614D01*
X487765Y684051D01*
X487157Y684549D01*
X486601Y685105D01*
X486103Y685713D01*
X485666Y686366D01*
X485295Y687059D01*
X484995Y687786D01*
X484766Y688538D01*
X484613Y689309D01*
X484536Y690091D01*
X484536Y690877D01*
X484613Y691659D01*
X484766Y692430D01*
X484995Y693182D01*
X485295Y693909D01*
X485666Y694602D01*
X486103Y695255D01*
X486601Y695863D01*
X487157Y696419D01*
X487765Y696917D01*
X488418Y697354D01*
X489111Y697725D01*
X489838Y698025D01*
X490590Y698254D01*
X491361Y698407D01*
X492143Y698484D01*
X492929Y698484D01*
X493711Y698407D01*
X494482Y698254D01*
X495234Y698025D01*
X495961Y697725D01*
X496654Y697354D01*
X497307Y696917D01*
X497915Y696419D01*
X498471Y695863D01*
X498969Y695255D01*
X499406Y694602D01*
X499777Y693909D01*
X500077Y693182D01*
X500306Y692430D01*
X500459Y691659D01*
X500536Y690877D01*
X500536Y690091D01*
X500459Y689309D01*
X500306Y688538D01*
X500077Y687786D01*
X499777Y687059D01*
X499406Y686366D01*
X498969Y685713D01*
X498471Y685105D01*
X497915Y684549D01*
X497307Y684051D01*
X496654Y683614D01*
X495961Y683243D01*
X495234Y682943D01*
X494482Y682714D01*
X493711Y682561D01*
X492929Y682484D01*
X492143Y682484D01*
X367143Y752484D02*
X366361Y752561D01*
X365590Y752714D01*
X364838Y752943D01*
X364111Y753243D01*
X363418Y753614D01*
X362765Y754051D01*
X362157Y754549D01*
X361601Y755105D01*
X361103Y755713D01*
X360666Y756366D01*
X360295Y757059D01*
X359995Y757786D01*
X359766Y758538D01*
X359613Y759309D01*
X359536Y760091D01*
X359536Y760877D01*
X359613Y761659D01*
X359766Y762430D01*
X359995Y763182D01*
X360295Y763909D01*
X360666Y764602D01*
X361103Y765255D01*
X361601Y765863D01*
X362157Y766419D01*
X362765Y766917D01*
X363418Y767354D01*
X364111Y767725D01*
X364838Y768025D01*
X365590Y768254D01*
X366361Y768407D01*
X367143Y768484D01*
X367929Y768484D01*
X368711Y768407D01*
X369482Y768254D01*
X370234Y768025D01*
X370961Y767725D01*
X371654Y767354D01*
X372307Y766917D01*
X372915Y766419D01*
X373471Y765863D01*
X373969Y765255D01*
X374406Y764602D01*
X374777Y763909D01*
X375077Y763182D01*
X375306Y762430D01*
X375459Y761659D01*
X375536Y760877D01*
X375536Y760091D01*
X375459Y759309D01*
X375306Y758538D01*
X375077Y757786D01*
X374777Y757059D01*
X374406Y756366D01*
X373969Y755713D01*
X373471Y755105D01*
X372915Y754549D01*
X372307Y754051D01*
X371654Y753614D01*
X370961Y753243D01*
X370234Y752943D01*
X369482Y752714D01*
X368711Y752561D01*
X367929Y752484D01*
X367143Y752484D01*
X367143Y682484D02*
X366361Y682561D01*
X365590Y682714D01*
X364838Y682943D01*
X364111Y683243D01*
X363418Y683614D01*
X362765Y684051D01*
X362157Y684549D01*
X361601Y685105D01*
X361103Y685713D01*
X360666Y686366D01*
X360295Y687059D01*
X359995Y687786D01*
X359766Y688538D01*
X359613Y689309D01*
X359536Y690091D01*
X359536Y690877D01*
X359613Y691659D01*
X359766Y692430D01*
X359995Y693182D01*
X360295Y693909D01*
X360666Y694602D01*
X361103Y695255D01*
X361601Y695863D01*
X362157Y696419D01*
X362765Y696917D01*
X363418Y697354D01*
X364111Y697725D01*
X364838Y698025D01*
X365590Y698254D01*
X366361Y698407D01*
X367143Y698484D01*
X367929Y698484D01*
X368711Y698407D01*
X369482Y698254D01*
X370234Y698025D01*
X370961Y697725D01*
X371654Y697354D01*
X372307Y696917D01*
X372915Y696419D01*
X373471Y695863D01*
X373969Y695255D01*
X374406Y694602D01*
X374777Y693909D01*
X375077Y693182D01*
X375306Y692430D01*
X375459Y691659D01*
X375536Y690877D01*
X375536Y690091D01*
X375459Y689309D01*
X375306Y688538D01*
X375077Y687786D01*
X374777Y687059D01*
X374406Y686366D01*
X373969Y685713D01*
X373471Y685105D01*
X372915Y684549D01*
X372307Y684051D01*
X371654Y683614D01*
X370961Y683243D01*
X370234Y682943D01*
X369482Y682714D01*
X368711Y682561D01*
X367929Y682484D01*
X367143Y682484D01*
X242143Y752484D02*
X241361Y752561D01*
X240590Y752714D01*
X239838Y752943D01*
X239111Y753243D01*
X238418Y753614D01*
X237765Y754051D01*
X237157Y754549D01*
X236601Y755105D01*
X236103Y755713D01*
X235666Y756366D01*
X235295Y757059D01*
X234995Y757786D01*
X234766Y758538D01*
X234613Y759309D01*
X234536Y760091D01*
X234536Y760877D01*
X234613Y761659D01*
X234766Y762430D01*
X234995Y763182D01*
X235295Y763909D01*
X235666Y764602D01*
X236103Y765255D01*
X236601Y765863D01*
X237157Y766419D01*
X237765Y766917D01*
X238418Y767354D01*
X239111Y767725D01*
X239838Y768025D01*
X240590Y768254D01*
X241361Y768407D01*
X242143Y768484D01*
X242929Y768484D01*
X243711Y768407D01*
X244482Y768254D01*
X245234Y768025D01*
X245961Y767725D01*
X246654Y767354D01*
X247307Y766917D01*
X247915Y766419D01*
X248471Y765863D01*
X248969Y765255D01*
X249406Y764602D01*
X249777Y763909D01*
X250077Y763182D01*
X250306Y762430D01*
X250459Y761659D01*
X250536Y760877D01*
X250536Y760091D01*
X250459Y759309D01*
X250306Y758538D01*
X250077Y757786D01*
X249777Y757059D01*
X249406Y756366D01*
X248969Y755713D01*
X248471Y755105D01*
X247915Y754549D01*
X247307Y754051D01*
X246654Y753614D01*
X245961Y753243D01*
X245234Y752943D01*
X244482Y752714D01*
X243711Y752561D01*
X242929Y752484D01*
X242143Y752484D01*
X242143Y682484D02*
X241361Y682561D01*
X240590Y682714D01*
X239838Y682943D01*
X239111Y683243D01*
X238418Y683614D01*
X237765Y684051D01*
X237157Y684549D01*
X236601Y685105D01*
X236103Y685713D01*
X235666Y686366D01*
X235295Y687059D01*
X234995Y687786D01*
X234766Y688538D01*
X234613Y689309D01*
X234536Y690091D01*
X234536Y690877D01*
X234613Y691659D01*
X234766Y692430D01*
X234995Y693182D01*
X235295Y693909D01*
X235666Y694602D01*
X236103Y695255D01*
X236601Y695863D01*
X237157Y696419D01*
X237765Y696917D01*
X238418Y697354D01*
X239111Y697725D01*
X239838Y698025D01*
X240590Y698254D01*
X241361Y698407D01*
X242143Y698484D01*
X242929Y698484D01*
X243711Y698407D01*
X244482Y698254D01*
X245234Y698025D01*
X245961Y697725D01*
X246654Y697354D01*
X247307Y696917D01*
X247915Y696419D01*
X248471Y695863D01*
X248969Y695255D01*
X249406Y694602D01*
X249777Y693909D01*
X250077Y693182D01*
X250306Y692430D01*
X250459Y691659D01*
X250536Y690877D01*
X250536Y690091D01*
X250459Y689309D01*
X250306Y688538D01*
X250077Y687786D01*
X249777Y687059D01*
X249406Y686366D01*
X248969Y685713D01*
X248471Y685105D01*
X247915Y684549D01*
X247307Y684051D01*
X246654Y683614D01*
X245961Y683243D01*
X245234Y682943D01*
X244482Y682714D01*
X243711Y682561D01*
X242929Y682484D01*
X242143Y682484D01*
X117143Y752484D02*
X116361Y752561D01*
X115590Y752714D01*
X114838Y752943D01*
X114111Y753243D01*
X113418Y753614D01*
X112765Y754051D01*
X112157Y754549D01*
X111601Y755105D01*
X111103Y755713D01*
X110666Y756366D01*
X110295Y757059D01*
X109995Y757786D01*
X109766Y758538D01*
X109613Y759309D01*
X109536Y760091D01*
X109536Y760877D01*
X109613Y761659D01*
X109766Y762430D01*
X109995Y763182D01*
X110295Y763909D01*
X110666Y764602D01*
X111103Y765255D01*
X111601Y765863D01*
X112157Y766419D01*
X112765Y766917D01*
X113418Y767354D01*
X114111Y767725D01*
X114838Y768025D01*
X115590Y768254D01*
X116361Y768407D01*
X117143Y768484D01*
X117929Y768484D01*
X118711Y768407D01*
X119482Y768254D01*
X120234Y768025D01*
X120961Y767725D01*
X121654Y767354D01*
X122307Y766917D01*
X122915Y766419D01*
X123471Y765863D01*
X123969Y765255D01*
X124406Y764602D01*
X124777Y763909D01*
X125077Y763182D01*
X125306Y762430D01*
X125459Y761659D01*
X125536Y760877D01*
X125536Y760091D01*
X125459Y759309D01*
X125306Y758538D01*
X125077Y757786D01*
X124777Y757059D01*
X124406Y756366D01*
X123969Y755713D01*
X123471Y755105D01*
X122915Y754549D01*
X122307Y754051D01*
X121654Y753614D01*
X120961Y753243D01*
X120234Y752943D01*
X119482Y752714D01*
X118711Y752561D01*
X117929Y752484D01*
X117143Y752484D01*
X117143Y682484D02*
X116361Y682561D01*
X115590Y682714D01*
X114838Y682943D01*
X114111Y683243D01*
X113418Y683614D01*
X112765Y684051D01*
X112157Y684549D01*
X111601Y685105D01*
X111103Y685713D01*
X110666Y686366D01*
X110295Y687059D01*
X109995Y687786D01*
X109766Y688538D01*
X109613Y689309D01*
X109536Y690091D01*
X109536Y690877D01*
X109613Y691659D01*
X109766Y692430D01*
X109995Y693182D01*
X110295Y693909D01*
X110666Y694602D01*
X111103Y695255D01*
X111601Y695863D01*
X112157Y696419D01*
X112765Y696917D01*
X113418Y697354D01*
X114111Y697725D01*
X114838Y698025D01*
X115590Y698254D01*
X116361Y698407D01*
X117143Y698484D01*
X117929Y698484D01*
X118711Y698407D01*
X119482Y698254D01*
X120234Y698025D01*
X120961Y697725D01*
X121654Y697354D01*
X122307Y696917D01*
X122915Y696419D01*
X123471Y695863D01*
X123969Y695255D01*
X124406Y694602D01*
X124777Y693909D01*
X125077Y693182D01*
X125306Y692430D01*
X125459Y691659D01*
X125536Y690877D01*
X125536Y690091D01*
X125459Y689309D01*
X125306Y688538D01*
X125077Y687786D01*
X124777Y687059D01*
X124406Y686366D01*
X123969Y685713D01*
X123471Y685105D01*
X122915Y684549D01*
X122307Y684051D01*
X121654Y683614D01*
X120961Y683243D01*
X120234Y682943D01*
X119482Y682714D01*
X118711Y682561D01*
X117929Y682484D01*
X117143Y682484D01*
X867143Y752484D02*
X866361Y752561D01*
X865590Y752714D01*
X864838Y752943D01*
X864111Y753243D01*
X863418Y753614D01*
X862765Y754051D01*
X862157Y754549D01*
X861601Y755105D01*
X861103Y755713D01*
X860666Y756366D01*
X860295Y757059D01*
X859995Y757786D01*
X859766Y758538D01*
X859613Y759309D01*
X859536Y760091D01*
X859536Y760877D01*
X859613Y761659D01*
X859766Y762430D01*
X859995Y763182D01*
X860295Y763909D01*
X860666Y764602D01*
X861103Y765255D01*
X861601Y765863D01*
X862157Y766419D01*
X862765Y766917D01*
X863418Y767354D01*
X864111Y767725D01*
X864838Y768025D01*
X865590Y768254D01*
X866361Y768407D01*
X867143Y768484D01*
X867929Y768484D01*
X868711Y768407D01*
X869482Y768254D01*
X870234Y768025D01*
X870961Y767725D01*
X871654Y767354D01*
X872307Y766917D01*
X872915Y766419D01*
X873471Y765863D01*
X873969Y765255D01*
X874406Y764602D01*
X874777Y763909D01*
X875077Y763182D01*
X875306Y762430D01*
X875459Y761659D01*
X875536Y760877D01*
X875536Y760091D01*
X875459Y759309D01*
X875306Y758538D01*
X875077Y757786D01*
X874777Y757059D01*
X874406Y756366D01*
X873969Y755713D01*
X873471Y755105D01*
X872915Y754549D01*
X872307Y754051D01*
X871654Y753614D01*
X870961Y753243D01*
X870234Y752943D01*
X869482Y752714D01*
X868711Y752561D01*
X867929Y752484D01*
X867143Y752484D01*
X867143Y682484D02*
X866361Y682561D01*
X865590Y682714D01*
X864838Y682943D01*
X864111Y683243D01*
X863418Y683614D01*
X862765Y684051D01*
X862157Y684549D01*
X861601Y685105D01*
X861103Y685713D01*
X860666Y686366D01*
X860295Y687059D01*
X859995Y687786D01*
X859766Y688538D01*
X859613Y689309D01*
X859536Y690091D01*
X859536Y690877D01*
X859613Y691659D01*
X859766Y692430D01*
X859995Y693182D01*
X860295Y693909D01*
X860666Y694602D01*
X861103Y695255D01*
X861601Y695863D01*
X862157Y696419D01*
X862765Y696917D01*
X863418Y697354D01*
X864111Y697725D01*
X864838Y698025D01*
X865590Y698254D01*
X866361Y698407D01*
X867143Y698484D01*
X867929Y698484D01*
X868711Y698407D01*
X869482Y698254D01*
X870234Y698025D01*
X870961Y697725D01*
X871654Y697354D01*
X872307Y696917D01*
X872915Y696419D01*
X873471Y695863D01*
X873969Y695255D01*
X874406Y694602D01*
X874777Y693909D01*
X875077Y693182D01*
X875306Y692430D01*
X875459Y691659D01*
X875536Y690877D01*
X875536Y690091D01*
X875459Y689309D01*
X875306Y688538D01*
X875077Y687786D01*
X874777Y687059D01*
X874406Y686366D01*
X873969Y685713D01*
X873471Y685105D01*
X872915Y684549D01*
X872307Y684051D01*
X871654Y683614D01*
X870961Y683243D01*
X870234Y682943D01*
X869482Y682714D01*
X868711Y682561D01*
X867929Y682484D01*
X867143Y682484D01*
X742143Y752484D02*
X741361Y752561D01*
X740590Y752714D01*
X739838Y752943D01*
X739111Y753243D01*
X738418Y753614D01*
X737765Y754051D01*
X737157Y754549D01*
X736601Y755105D01*
X736103Y755713D01*
X735666Y756366D01*
X735295Y757059D01*
X734995Y757786D01*
X734766Y758538D01*
X734613Y759309D01*
X734536Y760091D01*
X734536Y760877D01*
X734613Y761659D01*
X734766Y762430D01*
X734995Y763182D01*
X735295Y763909D01*
X735666Y764602D01*
X736103Y765255D01*
X736601Y765863D01*
X737157Y766419D01*
X737765Y766917D01*
X738418Y767354D01*
X739111Y767725D01*
X739838Y768025D01*
X740590Y768254D01*
X741361Y768407D01*
X742143Y768484D01*
X742929Y768484D01*
X743711Y768407D01*
X744482Y768254D01*
X745234Y768025D01*
X745961Y767725D01*
X746654Y767354D01*
X747307Y766917D01*
X747915Y766419D01*
X748471Y765863D01*
X748969Y765255D01*
X749406Y764602D01*
X749777Y763909D01*
X750077Y763182D01*
X750306Y762430D01*
X750459Y761659D01*
X750536Y760877D01*
X750536Y760091D01*
X750459Y759309D01*
X750306Y758538D01*
X750077Y757786D01*
X749777Y757059D01*
X749406Y756366D01*
X748969Y755713D01*
X748471Y755105D01*
X747915Y754549D01*
X747307Y754051D01*
X746654Y753614D01*
X745961Y753243D01*
X745234Y752943D01*
X744482Y752714D01*
X743711Y752561D01*
X742929Y752484D01*
X742143Y752484D01*
X742143Y682484D02*
X741361Y682561D01*
X740590Y682714D01*
X739838Y682943D01*
X739111Y683243D01*
X738418Y683614D01*
X737765Y684051D01*
X737157Y684549D01*
X736601Y685105D01*
X736103Y685713D01*
X735666Y686366D01*
X735295Y687059D01*
X734995Y687786D01*
X734766Y688538D01*
X734613Y689309D01*
X734536Y690091D01*
X734536Y690877D01*
X734613Y691659D01*
X734766Y692430D01*
X734995Y693182D01*
X735295Y693909D01*
X735666Y694602D01*
X736103Y695255D01*
X736601Y695863D01*
X737157Y696419D01*
X737765Y696917D01*
X738418Y697354D01*
X739111Y697725D01*
X739838Y698025D01*
X740590Y698254D01*
X741361Y698407D01*
X742143Y698484D01*
X742929Y698484D01*
X743711Y698407D01*
X744482Y698254D01*
X745234Y698025D01*
X745961Y697725D01*
X746654Y697354D01*
X747307Y696917D01*
X747915Y696419D01*
X748471Y695863D01*
X748969Y695255D01*
X749406Y694602D01*
X749777Y693909D01*
X750077Y693182D01*
X750306Y692430D01*
X750459Y691659D01*
X750536Y690877D01*
X750536Y690091D01*
X750459Y689309D01*
X750306Y688538D01*
X750077Y687786D01*
X749777Y687059D01*
X749406Y686366D01*
X748969Y685713D01*
X748471Y685105D01*
X747915Y684549D01*
X747307Y684051D01*
X746654Y683614D01*
X745961Y683243D01*
X745234Y682943D01*
X744482Y682714D01*
X743711Y682561D01*
X742929Y682484D01*
X742143Y682484D01*
M02*
