G04 EAGLE Gerber RS-274X export*
G75*
%MOMM*%
%FSLAX34Y34*%
%LPD*%
%INSolderpaste Top*%
%IPPOS*%
%AMOC8*
5,1,8,0,0,1.08239X$1,22.5*%
G01*
%ADD10R,0.700000X0.900000*%
%ADD11R,0.900000X0.700000*%
%ADD12R,1.500000X1.300000*%
%ADD13R,0.600000X2.000000*%
%ADD14R,0.500000X2.000000*%
%ADD15R,1.000000X1.400000*%
%ADD16R,1.000000X1.100000*%
%ADD17R,1.408000X0.600000*%
%ADD18R,1.500000X0.400000*%
%ADD19R,0.690000X0.990000*%
%ADD20R,2.550000X2.400000*%
%ADD21R,2.750000X2.900000*%
%ADD22R,0.550000X1.550000*%
%ADD23R,1.550000X0.550000*%
%ADD24R,0.900000X1.100000*%
%ADD25R,0.600000X1.000000*%
%ADD26R,0.700000X1.700000*%
%ADD27R,1.550000X1.100000*%
%ADD28R,0.700000X0.400000*%
%ADD29R,1.400000X1.000000*%
%ADD30R,1.800000X3.200000*%

G36*
X108866Y603872D02*
X108866Y603872D01*
X108873Y603877D01*
X108877Y603873D01*
X109136Y603935D01*
X109140Y603940D01*
X109144Y603937D01*
X109391Y604039D01*
X109394Y604045D01*
X109398Y604043D01*
X109625Y604183D01*
X109627Y604188D01*
X109631Y604188D01*
X109834Y604361D01*
X109835Y604366D01*
X109840Y604366D01*
X110013Y604569D01*
X110013Y604575D01*
X110017Y604575D01*
X110157Y604802D01*
X110156Y604808D01*
X110161Y604809D01*
X110263Y605056D01*
X110261Y605062D01*
X110265Y605064D01*
X110327Y605323D01*
X110325Y605328D01*
X110328Y605330D01*
X110349Y605596D01*
X110347Y605599D01*
X110349Y605600D01*
X110349Y622900D01*
X110347Y622902D01*
X110349Y622904D01*
X110328Y623170D01*
X110324Y623174D01*
X110327Y623177D01*
X110265Y623436D01*
X110260Y623440D01*
X110263Y623444D01*
X110161Y623691D01*
X110155Y623694D01*
X110157Y623698D01*
X110017Y623925D01*
X110012Y623927D01*
X110013Y623931D01*
X109840Y624134D01*
X109834Y624135D01*
X109834Y624140D01*
X109631Y624313D01*
X109625Y624313D01*
X109625Y624317D01*
X109398Y624457D01*
X109392Y624456D01*
X109391Y624461D01*
X109144Y624563D01*
X109138Y624561D01*
X109136Y624565D01*
X108877Y624627D01*
X108872Y624625D01*
X108870Y624628D01*
X108604Y624649D01*
X108601Y624647D01*
X108600Y624649D01*
X105034Y624628D01*
X105027Y624623D01*
X105023Y624627D01*
X104764Y624565D01*
X104760Y624560D01*
X104756Y624563D01*
X104509Y624461D01*
X104506Y624455D01*
X104502Y624457D01*
X104275Y624317D01*
X104273Y624312D01*
X104269Y624313D01*
X104066Y624140D01*
X104065Y624134D01*
X104061Y624134D01*
X103888Y623931D01*
X103887Y623925D01*
X103883Y623925D01*
X103743Y623698D01*
X103744Y623692D01*
X103739Y623691D01*
X103637Y623444D01*
X103639Y623438D01*
X103635Y623436D01*
X103573Y623177D01*
X103575Y623172D01*
X103572Y623170D01*
X103551Y622904D01*
X103553Y622901D01*
X103551Y622900D01*
X103551Y605600D01*
X103553Y605598D01*
X103551Y605596D01*
X103572Y605330D01*
X103576Y605326D01*
X103573Y605323D01*
X103635Y605064D01*
X103640Y605060D01*
X103637Y605056D01*
X103739Y604809D01*
X103745Y604806D01*
X103743Y604802D01*
X103883Y604575D01*
X103888Y604573D01*
X103888Y604569D01*
X104061Y604366D01*
X104066Y604365D01*
X104066Y604361D01*
X104269Y604188D01*
X104275Y604187D01*
X104275Y604183D01*
X104502Y604043D01*
X104508Y604044D01*
X104509Y604039D01*
X104756Y603937D01*
X104762Y603939D01*
X104764Y603935D01*
X105023Y603873D01*
X105028Y603875D01*
X105030Y603872D01*
X105296Y603851D01*
X105299Y603853D01*
X105300Y603851D01*
X108866Y603872D01*
G37*
G36*
X497566Y603872D02*
X497566Y603872D01*
X497573Y603877D01*
X497577Y603873D01*
X497836Y603935D01*
X497840Y603940D01*
X497844Y603937D01*
X498091Y604039D01*
X498094Y604045D01*
X498098Y604043D01*
X498325Y604183D01*
X498327Y604188D01*
X498331Y604188D01*
X498534Y604361D01*
X498535Y604366D01*
X498540Y604366D01*
X498713Y604569D01*
X498713Y604575D01*
X498717Y604575D01*
X498857Y604802D01*
X498856Y604808D01*
X498861Y604809D01*
X498963Y605056D01*
X498961Y605062D01*
X498965Y605064D01*
X499027Y605323D01*
X499025Y605328D01*
X499028Y605330D01*
X499049Y605596D01*
X499047Y605599D01*
X499049Y605600D01*
X499049Y622900D01*
X499047Y622902D01*
X499049Y622904D01*
X499028Y623170D01*
X499024Y623174D01*
X499027Y623177D01*
X498965Y623436D01*
X498960Y623440D01*
X498963Y623444D01*
X498861Y623691D01*
X498855Y623694D01*
X498857Y623698D01*
X498717Y623925D01*
X498712Y623927D01*
X498713Y623931D01*
X498540Y624134D01*
X498534Y624135D01*
X498534Y624140D01*
X498331Y624313D01*
X498325Y624313D01*
X498325Y624317D01*
X498098Y624457D01*
X498092Y624456D01*
X498091Y624461D01*
X497844Y624563D01*
X497838Y624561D01*
X497836Y624565D01*
X497577Y624627D01*
X497572Y624625D01*
X497570Y624628D01*
X497304Y624649D01*
X497301Y624647D01*
X497300Y624649D01*
X493734Y624628D01*
X493727Y624623D01*
X493723Y624627D01*
X493464Y624565D01*
X493460Y624560D01*
X493456Y624563D01*
X493209Y624461D01*
X493206Y624455D01*
X493202Y624457D01*
X492975Y624317D01*
X492973Y624312D01*
X492969Y624313D01*
X492766Y624140D01*
X492765Y624134D01*
X492761Y624134D01*
X492588Y623931D01*
X492587Y623925D01*
X492583Y623925D01*
X492443Y623698D01*
X492444Y623692D01*
X492439Y623691D01*
X492337Y623444D01*
X492339Y623438D01*
X492335Y623436D01*
X492273Y623177D01*
X492275Y623172D01*
X492272Y623170D01*
X492251Y622904D01*
X492253Y622901D01*
X492251Y622900D01*
X492251Y605600D01*
X492253Y605598D01*
X492251Y605596D01*
X492272Y605330D01*
X492276Y605326D01*
X492273Y605323D01*
X492335Y605064D01*
X492340Y605060D01*
X492337Y605056D01*
X492439Y604809D01*
X492445Y604806D01*
X492443Y604802D01*
X492583Y604575D01*
X492588Y604573D01*
X492588Y604569D01*
X492761Y604366D01*
X492766Y604365D01*
X492766Y604361D01*
X492969Y604188D01*
X492975Y604187D01*
X492975Y604183D01*
X493202Y604043D01*
X493208Y604044D01*
X493209Y604039D01*
X493456Y603937D01*
X493462Y603939D01*
X493464Y603935D01*
X493723Y603873D01*
X493728Y603875D01*
X493730Y603872D01*
X493996Y603851D01*
X493999Y603853D01*
X494000Y603851D01*
X497566Y603872D01*
G37*
G36*
X358866Y603872D02*
X358866Y603872D01*
X358873Y603877D01*
X358877Y603873D01*
X359136Y603935D01*
X359140Y603940D01*
X359144Y603937D01*
X359391Y604039D01*
X359394Y604045D01*
X359398Y604043D01*
X359625Y604183D01*
X359627Y604188D01*
X359631Y604188D01*
X359834Y604361D01*
X359835Y604366D01*
X359840Y604366D01*
X360013Y604569D01*
X360013Y604575D01*
X360017Y604575D01*
X360157Y604802D01*
X360156Y604808D01*
X360161Y604809D01*
X360263Y605056D01*
X360261Y605062D01*
X360265Y605064D01*
X360327Y605323D01*
X360325Y605328D01*
X360328Y605330D01*
X360349Y605596D01*
X360347Y605599D01*
X360349Y605600D01*
X360349Y622900D01*
X360347Y622902D01*
X360349Y622904D01*
X360328Y623170D01*
X360324Y623174D01*
X360327Y623177D01*
X360265Y623436D01*
X360260Y623440D01*
X360263Y623444D01*
X360161Y623691D01*
X360155Y623694D01*
X360157Y623698D01*
X360017Y623925D01*
X360012Y623927D01*
X360013Y623931D01*
X359840Y624134D01*
X359834Y624135D01*
X359834Y624140D01*
X359631Y624313D01*
X359625Y624313D01*
X359625Y624317D01*
X359398Y624457D01*
X359392Y624456D01*
X359391Y624461D01*
X359144Y624563D01*
X359138Y624561D01*
X359136Y624565D01*
X358877Y624627D01*
X358872Y624625D01*
X358870Y624628D01*
X358604Y624649D01*
X358601Y624647D01*
X358600Y624649D01*
X355034Y624628D01*
X355027Y624623D01*
X355023Y624627D01*
X354764Y624565D01*
X354760Y624560D01*
X354756Y624563D01*
X354509Y624461D01*
X354506Y624455D01*
X354502Y624457D01*
X354275Y624317D01*
X354273Y624312D01*
X354269Y624313D01*
X354066Y624140D01*
X354065Y624134D01*
X354061Y624134D01*
X353888Y623931D01*
X353887Y623925D01*
X353883Y623925D01*
X353743Y623698D01*
X353744Y623692D01*
X353739Y623691D01*
X353637Y623444D01*
X353639Y623438D01*
X353635Y623436D01*
X353573Y623177D01*
X353575Y623172D01*
X353572Y623170D01*
X353551Y622904D01*
X353553Y622901D01*
X353551Y622900D01*
X353551Y605600D01*
X353553Y605598D01*
X353551Y605596D01*
X353572Y605330D01*
X353576Y605326D01*
X353573Y605323D01*
X353635Y605064D01*
X353640Y605060D01*
X353637Y605056D01*
X353739Y604809D01*
X353745Y604806D01*
X353743Y604802D01*
X353883Y604575D01*
X353888Y604573D01*
X353888Y604569D01*
X354061Y604366D01*
X354066Y604365D01*
X354066Y604361D01*
X354269Y604188D01*
X354275Y604187D01*
X354275Y604183D01*
X354502Y604043D01*
X354508Y604044D01*
X354509Y604039D01*
X354756Y603937D01*
X354762Y603939D01*
X354764Y603935D01*
X355023Y603873D01*
X355028Y603875D01*
X355030Y603872D01*
X355296Y603851D01*
X355299Y603853D01*
X355300Y603851D01*
X358866Y603872D01*
G37*
G36*
X484866Y603872D02*
X484866Y603872D01*
X484873Y603877D01*
X484877Y603873D01*
X485136Y603935D01*
X485140Y603940D01*
X485144Y603937D01*
X485391Y604039D01*
X485394Y604045D01*
X485398Y604043D01*
X485625Y604183D01*
X485627Y604188D01*
X485631Y604188D01*
X485834Y604361D01*
X485835Y604366D01*
X485840Y604366D01*
X486013Y604569D01*
X486013Y604575D01*
X486017Y604575D01*
X486157Y604802D01*
X486156Y604808D01*
X486161Y604809D01*
X486263Y605056D01*
X486261Y605062D01*
X486265Y605064D01*
X486327Y605323D01*
X486325Y605328D01*
X486328Y605330D01*
X486349Y605596D01*
X486347Y605599D01*
X486349Y605600D01*
X486349Y622900D01*
X486347Y622902D01*
X486349Y622904D01*
X486328Y623170D01*
X486324Y623174D01*
X486327Y623177D01*
X486265Y623436D01*
X486260Y623440D01*
X486263Y623444D01*
X486161Y623691D01*
X486155Y623694D01*
X486157Y623698D01*
X486017Y623925D01*
X486012Y623927D01*
X486013Y623931D01*
X485840Y624134D01*
X485834Y624135D01*
X485834Y624140D01*
X485631Y624313D01*
X485625Y624313D01*
X485625Y624317D01*
X485398Y624457D01*
X485392Y624456D01*
X485391Y624461D01*
X485144Y624563D01*
X485138Y624561D01*
X485136Y624565D01*
X484877Y624627D01*
X484872Y624625D01*
X484870Y624628D01*
X484604Y624649D01*
X484601Y624647D01*
X484600Y624649D01*
X481034Y624628D01*
X481027Y624623D01*
X481023Y624627D01*
X480764Y624565D01*
X480760Y624560D01*
X480756Y624563D01*
X480509Y624461D01*
X480506Y624455D01*
X480502Y624457D01*
X480275Y624317D01*
X480273Y624312D01*
X480269Y624313D01*
X480066Y624140D01*
X480065Y624134D01*
X480061Y624134D01*
X479888Y623931D01*
X479887Y623925D01*
X479883Y623925D01*
X479743Y623698D01*
X479744Y623692D01*
X479739Y623691D01*
X479637Y623444D01*
X479639Y623438D01*
X479635Y623436D01*
X479573Y623177D01*
X479575Y623172D01*
X479572Y623170D01*
X479551Y622904D01*
X479553Y622901D01*
X479551Y622900D01*
X479551Y605600D01*
X479553Y605598D01*
X479551Y605596D01*
X479572Y605330D01*
X479576Y605326D01*
X479573Y605323D01*
X479635Y605064D01*
X479640Y605060D01*
X479637Y605056D01*
X479739Y604809D01*
X479745Y604806D01*
X479743Y604802D01*
X479883Y604575D01*
X479888Y604573D01*
X479888Y604569D01*
X480061Y604366D01*
X480066Y604365D01*
X480066Y604361D01*
X480269Y604188D01*
X480275Y604187D01*
X480275Y604183D01*
X480502Y604043D01*
X480508Y604044D01*
X480509Y604039D01*
X480756Y603937D01*
X480762Y603939D01*
X480764Y603935D01*
X481023Y603873D01*
X481028Y603875D01*
X481030Y603872D01*
X481296Y603851D01*
X481299Y603853D01*
X481300Y603851D01*
X484866Y603872D01*
G37*
G36*
X371566Y603872D02*
X371566Y603872D01*
X371573Y603877D01*
X371577Y603873D01*
X371836Y603935D01*
X371840Y603940D01*
X371844Y603937D01*
X372091Y604039D01*
X372094Y604045D01*
X372098Y604043D01*
X372325Y604183D01*
X372327Y604188D01*
X372331Y604188D01*
X372534Y604361D01*
X372535Y604366D01*
X372540Y604366D01*
X372713Y604569D01*
X372713Y604575D01*
X372717Y604575D01*
X372857Y604802D01*
X372856Y604808D01*
X372861Y604809D01*
X372963Y605056D01*
X372961Y605062D01*
X372965Y605064D01*
X373027Y605323D01*
X373025Y605328D01*
X373028Y605330D01*
X373049Y605596D01*
X373047Y605599D01*
X373049Y605600D01*
X373049Y622900D01*
X373047Y622902D01*
X373049Y622904D01*
X373028Y623170D01*
X373024Y623174D01*
X373027Y623177D01*
X372965Y623436D01*
X372960Y623440D01*
X372963Y623444D01*
X372861Y623691D01*
X372855Y623694D01*
X372857Y623698D01*
X372717Y623925D01*
X372712Y623927D01*
X372713Y623931D01*
X372540Y624134D01*
X372534Y624135D01*
X372534Y624140D01*
X372331Y624313D01*
X372325Y624313D01*
X372325Y624317D01*
X372098Y624457D01*
X372092Y624456D01*
X372091Y624461D01*
X371844Y624563D01*
X371838Y624561D01*
X371836Y624565D01*
X371577Y624627D01*
X371572Y624625D01*
X371570Y624628D01*
X371304Y624649D01*
X371301Y624647D01*
X371300Y624649D01*
X367734Y624628D01*
X367727Y624623D01*
X367723Y624627D01*
X367464Y624565D01*
X367460Y624560D01*
X367456Y624563D01*
X367209Y624461D01*
X367206Y624455D01*
X367202Y624457D01*
X366975Y624317D01*
X366973Y624312D01*
X366969Y624313D01*
X366766Y624140D01*
X366765Y624134D01*
X366761Y624134D01*
X366588Y623931D01*
X366587Y623925D01*
X366583Y623925D01*
X366443Y623698D01*
X366444Y623692D01*
X366439Y623691D01*
X366337Y623444D01*
X366339Y623438D01*
X366335Y623436D01*
X366273Y623177D01*
X366275Y623172D01*
X366272Y623170D01*
X366251Y622904D01*
X366253Y622901D01*
X366251Y622900D01*
X366251Y605600D01*
X366253Y605598D01*
X366251Y605596D01*
X366272Y605330D01*
X366276Y605326D01*
X366273Y605323D01*
X366335Y605064D01*
X366340Y605060D01*
X366337Y605056D01*
X366439Y604809D01*
X366445Y604806D01*
X366443Y604802D01*
X366583Y604575D01*
X366588Y604573D01*
X366588Y604569D01*
X366761Y604366D01*
X366766Y604365D01*
X366766Y604361D01*
X366969Y604188D01*
X366975Y604187D01*
X366975Y604183D01*
X367202Y604043D01*
X367208Y604044D01*
X367209Y604039D01*
X367456Y603937D01*
X367462Y603939D01*
X367464Y603935D01*
X367723Y603873D01*
X367728Y603875D01*
X367730Y603872D01*
X367996Y603851D01*
X367999Y603853D01*
X368000Y603851D01*
X371566Y603872D01*
G37*
G36*
X621566Y603872D02*
X621566Y603872D01*
X621573Y603877D01*
X621577Y603873D01*
X621836Y603935D01*
X621840Y603940D01*
X621844Y603937D01*
X622091Y604039D01*
X622094Y604045D01*
X622098Y604043D01*
X622325Y604183D01*
X622327Y604188D01*
X622331Y604188D01*
X622534Y604361D01*
X622535Y604366D01*
X622540Y604366D01*
X622713Y604569D01*
X622713Y604575D01*
X622717Y604575D01*
X622857Y604802D01*
X622856Y604808D01*
X622861Y604809D01*
X622963Y605056D01*
X622961Y605062D01*
X622965Y605064D01*
X623027Y605323D01*
X623025Y605328D01*
X623028Y605330D01*
X623049Y605596D01*
X623047Y605599D01*
X623049Y605600D01*
X623049Y622900D01*
X623047Y622902D01*
X623049Y622904D01*
X623028Y623170D01*
X623024Y623174D01*
X623027Y623177D01*
X622965Y623436D01*
X622960Y623440D01*
X622963Y623444D01*
X622861Y623691D01*
X622855Y623694D01*
X622857Y623698D01*
X622717Y623925D01*
X622712Y623927D01*
X622713Y623931D01*
X622540Y624134D01*
X622534Y624135D01*
X622534Y624140D01*
X622331Y624313D01*
X622325Y624313D01*
X622325Y624317D01*
X622098Y624457D01*
X622092Y624456D01*
X622091Y624461D01*
X621844Y624563D01*
X621838Y624561D01*
X621836Y624565D01*
X621577Y624627D01*
X621572Y624625D01*
X621570Y624628D01*
X621304Y624649D01*
X621301Y624647D01*
X621300Y624649D01*
X617734Y624628D01*
X617727Y624623D01*
X617723Y624627D01*
X617464Y624565D01*
X617460Y624560D01*
X617456Y624563D01*
X617209Y624461D01*
X617206Y624455D01*
X617202Y624457D01*
X616975Y624317D01*
X616973Y624312D01*
X616969Y624313D01*
X616766Y624140D01*
X616765Y624134D01*
X616761Y624134D01*
X616588Y623931D01*
X616587Y623925D01*
X616583Y623925D01*
X616443Y623698D01*
X616444Y623692D01*
X616439Y623691D01*
X616337Y623444D01*
X616339Y623438D01*
X616335Y623436D01*
X616273Y623177D01*
X616275Y623172D01*
X616272Y623170D01*
X616251Y622904D01*
X616253Y622901D01*
X616251Y622900D01*
X616251Y605600D01*
X616253Y605598D01*
X616251Y605596D01*
X616272Y605330D01*
X616276Y605326D01*
X616273Y605323D01*
X616335Y605064D01*
X616340Y605060D01*
X616337Y605056D01*
X616439Y604809D01*
X616445Y604806D01*
X616443Y604802D01*
X616583Y604575D01*
X616588Y604573D01*
X616588Y604569D01*
X616761Y604366D01*
X616766Y604365D01*
X616766Y604361D01*
X616969Y604188D01*
X616975Y604187D01*
X616975Y604183D01*
X617202Y604043D01*
X617208Y604044D01*
X617209Y604039D01*
X617456Y603937D01*
X617462Y603939D01*
X617464Y603935D01*
X617723Y603873D01*
X617728Y603875D01*
X617730Y603872D01*
X617996Y603851D01*
X617999Y603853D01*
X618000Y603851D01*
X621566Y603872D01*
G37*
G36*
X608866Y603872D02*
X608866Y603872D01*
X608873Y603877D01*
X608877Y603873D01*
X609136Y603935D01*
X609140Y603940D01*
X609144Y603937D01*
X609391Y604039D01*
X609394Y604045D01*
X609398Y604043D01*
X609625Y604183D01*
X609627Y604188D01*
X609631Y604188D01*
X609834Y604361D01*
X609835Y604366D01*
X609840Y604366D01*
X610013Y604569D01*
X610013Y604575D01*
X610017Y604575D01*
X610157Y604802D01*
X610156Y604808D01*
X610161Y604809D01*
X610263Y605056D01*
X610261Y605062D01*
X610265Y605064D01*
X610327Y605323D01*
X610325Y605328D01*
X610328Y605330D01*
X610349Y605596D01*
X610347Y605599D01*
X610349Y605600D01*
X610349Y622900D01*
X610347Y622902D01*
X610349Y622904D01*
X610328Y623170D01*
X610324Y623174D01*
X610327Y623177D01*
X610265Y623436D01*
X610260Y623440D01*
X610263Y623444D01*
X610161Y623691D01*
X610155Y623694D01*
X610157Y623698D01*
X610017Y623925D01*
X610012Y623927D01*
X610013Y623931D01*
X609840Y624134D01*
X609834Y624135D01*
X609834Y624140D01*
X609631Y624313D01*
X609625Y624313D01*
X609625Y624317D01*
X609398Y624457D01*
X609392Y624456D01*
X609391Y624461D01*
X609144Y624563D01*
X609138Y624561D01*
X609136Y624565D01*
X608877Y624627D01*
X608872Y624625D01*
X608870Y624628D01*
X608604Y624649D01*
X608601Y624647D01*
X608600Y624649D01*
X605034Y624628D01*
X605027Y624623D01*
X605023Y624627D01*
X604764Y624565D01*
X604760Y624560D01*
X604756Y624563D01*
X604509Y624461D01*
X604506Y624455D01*
X604502Y624457D01*
X604275Y624317D01*
X604273Y624312D01*
X604269Y624313D01*
X604066Y624140D01*
X604065Y624134D01*
X604061Y624134D01*
X603888Y623931D01*
X603887Y623925D01*
X603883Y623925D01*
X603743Y623698D01*
X603744Y623692D01*
X603739Y623691D01*
X603637Y623444D01*
X603639Y623438D01*
X603635Y623436D01*
X603573Y623177D01*
X603575Y623172D01*
X603572Y623170D01*
X603551Y622904D01*
X603553Y622901D01*
X603551Y622900D01*
X603551Y605600D01*
X603553Y605598D01*
X603551Y605596D01*
X603572Y605330D01*
X603576Y605326D01*
X603573Y605323D01*
X603635Y605064D01*
X603640Y605060D01*
X603637Y605056D01*
X603739Y604809D01*
X603745Y604806D01*
X603743Y604802D01*
X603883Y604575D01*
X603888Y604573D01*
X603888Y604569D01*
X604061Y604366D01*
X604066Y604365D01*
X604066Y604361D01*
X604269Y604188D01*
X604275Y604187D01*
X604275Y604183D01*
X604502Y604043D01*
X604508Y604044D01*
X604509Y604039D01*
X604756Y603937D01*
X604762Y603939D01*
X604764Y603935D01*
X605023Y603873D01*
X605028Y603875D01*
X605030Y603872D01*
X605296Y603851D01*
X605299Y603853D01*
X605300Y603851D01*
X608866Y603872D01*
G37*
G36*
X134266Y603872D02*
X134266Y603872D01*
X134273Y603877D01*
X134277Y603873D01*
X134536Y603935D01*
X134540Y603940D01*
X134544Y603937D01*
X134791Y604039D01*
X134794Y604045D01*
X134798Y604043D01*
X135025Y604183D01*
X135027Y604188D01*
X135031Y604188D01*
X135234Y604361D01*
X135235Y604366D01*
X135240Y604366D01*
X135413Y604569D01*
X135413Y604575D01*
X135417Y604575D01*
X135557Y604802D01*
X135556Y604808D01*
X135561Y604809D01*
X135663Y605056D01*
X135661Y605062D01*
X135665Y605064D01*
X135727Y605323D01*
X135725Y605328D01*
X135728Y605330D01*
X135749Y605596D01*
X135747Y605599D01*
X135749Y605600D01*
X135749Y622900D01*
X135747Y622902D01*
X135749Y622904D01*
X135728Y623170D01*
X135724Y623174D01*
X135727Y623177D01*
X135665Y623436D01*
X135660Y623440D01*
X135663Y623444D01*
X135561Y623691D01*
X135555Y623694D01*
X135557Y623698D01*
X135417Y623925D01*
X135412Y623927D01*
X135413Y623931D01*
X135240Y624134D01*
X135234Y624135D01*
X135234Y624140D01*
X135031Y624313D01*
X135025Y624313D01*
X135025Y624317D01*
X134798Y624457D01*
X134792Y624456D01*
X134791Y624461D01*
X134544Y624563D01*
X134538Y624561D01*
X134536Y624565D01*
X134277Y624627D01*
X134272Y624625D01*
X134270Y624628D01*
X134004Y624649D01*
X134001Y624647D01*
X134000Y624649D01*
X130434Y624628D01*
X130427Y624623D01*
X130423Y624627D01*
X130164Y624565D01*
X130160Y624560D01*
X130156Y624563D01*
X129909Y624461D01*
X129906Y624455D01*
X129902Y624457D01*
X129675Y624317D01*
X129673Y624312D01*
X129669Y624313D01*
X129466Y624140D01*
X129465Y624134D01*
X129461Y624134D01*
X129288Y623931D01*
X129287Y623925D01*
X129283Y623925D01*
X129143Y623698D01*
X129144Y623692D01*
X129139Y623691D01*
X129037Y623444D01*
X129039Y623438D01*
X129035Y623436D01*
X128973Y623177D01*
X128975Y623172D01*
X128972Y623170D01*
X128951Y622904D01*
X128953Y622901D01*
X128951Y622900D01*
X128951Y605600D01*
X128953Y605598D01*
X128951Y605596D01*
X128972Y605330D01*
X128976Y605326D01*
X128973Y605323D01*
X129035Y605064D01*
X129040Y605060D01*
X129037Y605056D01*
X129139Y604809D01*
X129145Y604806D01*
X129143Y604802D01*
X129283Y604575D01*
X129288Y604573D01*
X129288Y604569D01*
X129461Y604366D01*
X129466Y604365D01*
X129466Y604361D01*
X129669Y604188D01*
X129675Y604187D01*
X129675Y604183D01*
X129902Y604043D01*
X129908Y604044D01*
X129909Y604039D01*
X130156Y603937D01*
X130162Y603939D01*
X130164Y603935D01*
X130423Y603873D01*
X130428Y603875D01*
X130430Y603872D01*
X130696Y603851D01*
X130699Y603853D01*
X130700Y603851D01*
X134266Y603872D01*
G37*
G36*
X232866Y603872D02*
X232866Y603872D01*
X232873Y603877D01*
X232877Y603873D01*
X233136Y603935D01*
X233140Y603940D01*
X233144Y603937D01*
X233391Y604039D01*
X233394Y604045D01*
X233398Y604043D01*
X233625Y604183D01*
X233627Y604188D01*
X233631Y604188D01*
X233834Y604361D01*
X233835Y604366D01*
X233840Y604366D01*
X234013Y604569D01*
X234013Y604575D01*
X234017Y604575D01*
X234157Y604802D01*
X234156Y604808D01*
X234161Y604809D01*
X234263Y605056D01*
X234261Y605062D01*
X234265Y605064D01*
X234327Y605323D01*
X234325Y605328D01*
X234328Y605330D01*
X234349Y605596D01*
X234347Y605599D01*
X234349Y605600D01*
X234349Y622900D01*
X234347Y622902D01*
X234349Y622904D01*
X234328Y623170D01*
X234324Y623174D01*
X234327Y623177D01*
X234265Y623436D01*
X234260Y623440D01*
X234263Y623444D01*
X234161Y623691D01*
X234155Y623694D01*
X234157Y623698D01*
X234017Y623925D01*
X234012Y623927D01*
X234013Y623931D01*
X233840Y624134D01*
X233834Y624135D01*
X233834Y624140D01*
X233631Y624313D01*
X233625Y624313D01*
X233625Y624317D01*
X233398Y624457D01*
X233392Y624456D01*
X233391Y624461D01*
X233144Y624563D01*
X233138Y624561D01*
X233136Y624565D01*
X232877Y624627D01*
X232872Y624625D01*
X232870Y624628D01*
X232604Y624649D01*
X232601Y624647D01*
X232600Y624649D01*
X229034Y624628D01*
X229027Y624623D01*
X229023Y624627D01*
X228764Y624565D01*
X228760Y624560D01*
X228756Y624563D01*
X228509Y624461D01*
X228506Y624455D01*
X228502Y624457D01*
X228275Y624317D01*
X228273Y624312D01*
X228269Y624313D01*
X228066Y624140D01*
X228065Y624134D01*
X228061Y624134D01*
X227888Y623931D01*
X227887Y623925D01*
X227883Y623925D01*
X227743Y623698D01*
X227744Y623692D01*
X227739Y623691D01*
X227637Y623444D01*
X227639Y623438D01*
X227635Y623436D01*
X227573Y623177D01*
X227575Y623172D01*
X227572Y623170D01*
X227551Y622904D01*
X227553Y622901D01*
X227551Y622900D01*
X227551Y605600D01*
X227553Y605598D01*
X227551Y605596D01*
X227572Y605330D01*
X227576Y605326D01*
X227573Y605323D01*
X227635Y605064D01*
X227640Y605060D01*
X227637Y605056D01*
X227739Y604809D01*
X227745Y604806D01*
X227743Y604802D01*
X227883Y604575D01*
X227888Y604573D01*
X227888Y604569D01*
X228061Y604366D01*
X228066Y604365D01*
X228066Y604361D01*
X228269Y604188D01*
X228275Y604187D01*
X228275Y604183D01*
X228502Y604043D01*
X228508Y604044D01*
X228509Y604039D01*
X228756Y603937D01*
X228762Y603939D01*
X228764Y603935D01*
X229023Y603873D01*
X229028Y603875D01*
X229030Y603872D01*
X229296Y603851D01*
X229299Y603853D01*
X229300Y603851D01*
X232866Y603872D01*
G37*
G36*
X121566Y603872D02*
X121566Y603872D01*
X121573Y603877D01*
X121577Y603873D01*
X121836Y603935D01*
X121840Y603940D01*
X121844Y603937D01*
X122091Y604039D01*
X122094Y604045D01*
X122098Y604043D01*
X122325Y604183D01*
X122327Y604188D01*
X122331Y604188D01*
X122534Y604361D01*
X122535Y604366D01*
X122540Y604366D01*
X122713Y604569D01*
X122713Y604575D01*
X122717Y604575D01*
X122857Y604802D01*
X122856Y604808D01*
X122861Y604809D01*
X122963Y605056D01*
X122961Y605062D01*
X122965Y605064D01*
X123027Y605323D01*
X123025Y605328D01*
X123028Y605330D01*
X123049Y605596D01*
X123047Y605599D01*
X123049Y605600D01*
X123049Y622900D01*
X123047Y622902D01*
X123049Y622904D01*
X123028Y623170D01*
X123024Y623174D01*
X123027Y623177D01*
X122965Y623436D01*
X122960Y623440D01*
X122963Y623444D01*
X122861Y623691D01*
X122855Y623694D01*
X122857Y623698D01*
X122717Y623925D01*
X122712Y623927D01*
X122713Y623931D01*
X122540Y624134D01*
X122534Y624135D01*
X122534Y624140D01*
X122331Y624313D01*
X122325Y624313D01*
X122325Y624317D01*
X122098Y624457D01*
X122092Y624456D01*
X122091Y624461D01*
X121844Y624563D01*
X121838Y624561D01*
X121836Y624565D01*
X121577Y624627D01*
X121572Y624625D01*
X121570Y624628D01*
X121304Y624649D01*
X121301Y624647D01*
X121300Y624649D01*
X117734Y624628D01*
X117727Y624623D01*
X117723Y624627D01*
X117464Y624565D01*
X117460Y624560D01*
X117456Y624563D01*
X117209Y624461D01*
X117206Y624455D01*
X117202Y624457D01*
X116975Y624317D01*
X116973Y624312D01*
X116969Y624313D01*
X116766Y624140D01*
X116765Y624134D01*
X116761Y624134D01*
X116588Y623931D01*
X116587Y623925D01*
X116583Y623925D01*
X116443Y623698D01*
X116444Y623692D01*
X116439Y623691D01*
X116337Y623444D01*
X116339Y623438D01*
X116335Y623436D01*
X116273Y623177D01*
X116275Y623172D01*
X116272Y623170D01*
X116251Y622904D01*
X116253Y622901D01*
X116251Y622900D01*
X116251Y605600D01*
X116253Y605598D01*
X116251Y605596D01*
X116272Y605330D01*
X116276Y605326D01*
X116273Y605323D01*
X116335Y605064D01*
X116340Y605060D01*
X116337Y605056D01*
X116439Y604809D01*
X116445Y604806D01*
X116443Y604802D01*
X116583Y604575D01*
X116588Y604573D01*
X116588Y604569D01*
X116761Y604366D01*
X116766Y604365D01*
X116766Y604361D01*
X116969Y604188D01*
X116975Y604187D01*
X116975Y604183D01*
X117202Y604043D01*
X117208Y604044D01*
X117209Y604039D01*
X117456Y603937D01*
X117462Y603939D01*
X117464Y603935D01*
X117723Y603873D01*
X117728Y603875D01*
X117730Y603872D01*
X117996Y603851D01*
X117999Y603853D01*
X118000Y603851D01*
X121566Y603872D01*
G37*
G36*
X747566Y603872D02*
X747566Y603872D01*
X747573Y603877D01*
X747577Y603873D01*
X747836Y603935D01*
X747840Y603940D01*
X747844Y603937D01*
X748091Y604039D01*
X748094Y604045D01*
X748098Y604043D01*
X748325Y604183D01*
X748327Y604188D01*
X748331Y604188D01*
X748534Y604361D01*
X748535Y604366D01*
X748540Y604366D01*
X748713Y604569D01*
X748713Y604575D01*
X748717Y604575D01*
X748857Y604802D01*
X748856Y604808D01*
X748861Y604809D01*
X748963Y605056D01*
X748961Y605062D01*
X748965Y605064D01*
X749027Y605323D01*
X749025Y605328D01*
X749028Y605330D01*
X749049Y605596D01*
X749047Y605599D01*
X749049Y605600D01*
X749049Y622900D01*
X749047Y622902D01*
X749049Y622904D01*
X749028Y623170D01*
X749024Y623174D01*
X749027Y623177D01*
X748965Y623436D01*
X748960Y623440D01*
X748963Y623444D01*
X748861Y623691D01*
X748855Y623694D01*
X748857Y623698D01*
X748717Y623925D01*
X748712Y623927D01*
X748713Y623931D01*
X748540Y624134D01*
X748534Y624135D01*
X748534Y624140D01*
X748331Y624313D01*
X748325Y624313D01*
X748325Y624317D01*
X748098Y624457D01*
X748092Y624456D01*
X748091Y624461D01*
X747844Y624563D01*
X747838Y624561D01*
X747836Y624565D01*
X747577Y624627D01*
X747572Y624625D01*
X747570Y624628D01*
X747304Y624649D01*
X747301Y624647D01*
X747300Y624649D01*
X743734Y624628D01*
X743727Y624623D01*
X743723Y624627D01*
X743464Y624565D01*
X743460Y624560D01*
X743456Y624563D01*
X743209Y624461D01*
X743206Y624455D01*
X743202Y624457D01*
X742975Y624317D01*
X742973Y624312D01*
X742969Y624313D01*
X742766Y624140D01*
X742765Y624134D01*
X742761Y624134D01*
X742588Y623931D01*
X742587Y623925D01*
X742583Y623925D01*
X742443Y623698D01*
X742444Y623692D01*
X742439Y623691D01*
X742337Y623444D01*
X742339Y623438D01*
X742335Y623436D01*
X742273Y623177D01*
X742275Y623172D01*
X742272Y623170D01*
X742251Y622904D01*
X742253Y622901D01*
X742251Y622900D01*
X742251Y605600D01*
X742253Y605598D01*
X742251Y605596D01*
X742272Y605330D01*
X742276Y605326D01*
X742273Y605323D01*
X742335Y605064D01*
X742340Y605060D01*
X742337Y605056D01*
X742439Y604809D01*
X742445Y604806D01*
X742443Y604802D01*
X742583Y604575D01*
X742588Y604573D01*
X742588Y604569D01*
X742761Y604366D01*
X742766Y604365D01*
X742766Y604361D01*
X742969Y604188D01*
X742975Y604187D01*
X742975Y604183D01*
X743202Y604043D01*
X743208Y604044D01*
X743209Y604039D01*
X743456Y603937D01*
X743462Y603939D01*
X743464Y603935D01*
X743723Y603873D01*
X743728Y603875D01*
X743730Y603872D01*
X743996Y603851D01*
X743999Y603853D01*
X744000Y603851D01*
X747566Y603872D01*
G37*
G36*
X146966Y603872D02*
X146966Y603872D01*
X146973Y603877D01*
X146977Y603873D01*
X147236Y603935D01*
X147240Y603940D01*
X147244Y603937D01*
X147491Y604039D01*
X147494Y604045D01*
X147498Y604043D01*
X147725Y604183D01*
X147727Y604188D01*
X147731Y604188D01*
X147934Y604361D01*
X147935Y604366D01*
X147940Y604366D01*
X148113Y604569D01*
X148113Y604575D01*
X148117Y604575D01*
X148257Y604802D01*
X148256Y604808D01*
X148261Y604809D01*
X148363Y605056D01*
X148361Y605062D01*
X148365Y605064D01*
X148427Y605323D01*
X148425Y605328D01*
X148428Y605330D01*
X148449Y605596D01*
X148447Y605599D01*
X148449Y605600D01*
X148449Y622900D01*
X148447Y622902D01*
X148449Y622904D01*
X148428Y623170D01*
X148424Y623174D01*
X148427Y623177D01*
X148365Y623436D01*
X148360Y623440D01*
X148363Y623444D01*
X148261Y623691D01*
X148255Y623694D01*
X148257Y623698D01*
X148117Y623925D01*
X148112Y623927D01*
X148113Y623931D01*
X147940Y624134D01*
X147934Y624135D01*
X147934Y624140D01*
X147731Y624313D01*
X147725Y624313D01*
X147725Y624317D01*
X147498Y624457D01*
X147492Y624456D01*
X147491Y624461D01*
X147244Y624563D01*
X147238Y624561D01*
X147236Y624565D01*
X146977Y624627D01*
X146972Y624625D01*
X146970Y624628D01*
X146704Y624649D01*
X146701Y624647D01*
X146700Y624649D01*
X143134Y624628D01*
X143127Y624623D01*
X143123Y624627D01*
X142864Y624565D01*
X142860Y624560D01*
X142856Y624563D01*
X142609Y624461D01*
X142606Y624455D01*
X142602Y624457D01*
X142375Y624317D01*
X142373Y624312D01*
X142369Y624313D01*
X142166Y624140D01*
X142165Y624134D01*
X142161Y624134D01*
X141988Y623931D01*
X141987Y623925D01*
X141983Y623925D01*
X141843Y623698D01*
X141844Y623692D01*
X141839Y623691D01*
X141737Y623444D01*
X141739Y623438D01*
X141735Y623436D01*
X141673Y623177D01*
X141675Y623172D01*
X141672Y623170D01*
X141651Y622904D01*
X141653Y622901D01*
X141651Y622900D01*
X141651Y605600D01*
X141653Y605598D01*
X141651Y605596D01*
X141672Y605330D01*
X141676Y605326D01*
X141673Y605323D01*
X141735Y605064D01*
X141740Y605060D01*
X141737Y605056D01*
X141839Y604809D01*
X141845Y604806D01*
X141843Y604802D01*
X141983Y604575D01*
X141988Y604573D01*
X141988Y604569D01*
X142161Y604366D01*
X142166Y604365D01*
X142166Y604361D01*
X142369Y604188D01*
X142375Y604187D01*
X142375Y604183D01*
X142602Y604043D01*
X142608Y604044D01*
X142609Y604039D01*
X142856Y603937D01*
X142862Y603939D01*
X142864Y603935D01*
X143123Y603873D01*
X143128Y603875D01*
X143130Y603872D01*
X143396Y603851D01*
X143399Y603853D01*
X143400Y603851D01*
X146966Y603872D01*
G37*
G36*
X384266Y603872D02*
X384266Y603872D01*
X384273Y603877D01*
X384277Y603873D01*
X384536Y603935D01*
X384540Y603940D01*
X384544Y603937D01*
X384791Y604039D01*
X384794Y604045D01*
X384798Y604043D01*
X385025Y604183D01*
X385027Y604188D01*
X385031Y604188D01*
X385234Y604361D01*
X385235Y604366D01*
X385240Y604366D01*
X385413Y604569D01*
X385413Y604575D01*
X385417Y604575D01*
X385557Y604802D01*
X385556Y604808D01*
X385561Y604809D01*
X385663Y605056D01*
X385661Y605062D01*
X385665Y605064D01*
X385727Y605323D01*
X385725Y605328D01*
X385728Y605330D01*
X385749Y605596D01*
X385747Y605599D01*
X385749Y605600D01*
X385749Y622900D01*
X385747Y622902D01*
X385749Y622904D01*
X385728Y623170D01*
X385724Y623174D01*
X385727Y623177D01*
X385665Y623436D01*
X385660Y623440D01*
X385663Y623444D01*
X385561Y623691D01*
X385555Y623694D01*
X385557Y623698D01*
X385417Y623925D01*
X385412Y623927D01*
X385413Y623931D01*
X385240Y624134D01*
X385234Y624135D01*
X385234Y624140D01*
X385031Y624313D01*
X385025Y624313D01*
X385025Y624317D01*
X384798Y624457D01*
X384792Y624456D01*
X384791Y624461D01*
X384544Y624563D01*
X384538Y624561D01*
X384536Y624565D01*
X384277Y624627D01*
X384272Y624625D01*
X384270Y624628D01*
X384004Y624649D01*
X384001Y624647D01*
X384000Y624649D01*
X380434Y624628D01*
X380427Y624623D01*
X380423Y624627D01*
X380164Y624565D01*
X380160Y624560D01*
X380156Y624563D01*
X379909Y624461D01*
X379906Y624455D01*
X379902Y624457D01*
X379675Y624317D01*
X379673Y624312D01*
X379669Y624313D01*
X379466Y624140D01*
X379465Y624134D01*
X379461Y624134D01*
X379288Y623931D01*
X379287Y623925D01*
X379283Y623925D01*
X379143Y623698D01*
X379144Y623692D01*
X379139Y623691D01*
X379037Y623444D01*
X379039Y623438D01*
X379035Y623436D01*
X378973Y623177D01*
X378975Y623172D01*
X378972Y623170D01*
X378951Y622904D01*
X378953Y622901D01*
X378951Y622900D01*
X378951Y605600D01*
X378953Y605598D01*
X378951Y605596D01*
X378972Y605330D01*
X378976Y605326D01*
X378973Y605323D01*
X379035Y605064D01*
X379040Y605060D01*
X379037Y605056D01*
X379139Y604809D01*
X379145Y604806D01*
X379143Y604802D01*
X379283Y604575D01*
X379288Y604573D01*
X379288Y604569D01*
X379461Y604366D01*
X379466Y604365D01*
X379466Y604361D01*
X379669Y604188D01*
X379675Y604187D01*
X379675Y604183D01*
X379902Y604043D01*
X379908Y604044D01*
X379909Y604039D01*
X380156Y603937D01*
X380162Y603939D01*
X380164Y603935D01*
X380423Y603873D01*
X380428Y603875D01*
X380430Y603872D01*
X380696Y603851D01*
X380699Y603853D01*
X380700Y603851D01*
X384266Y603872D01*
G37*
G36*
X734866Y603872D02*
X734866Y603872D01*
X734873Y603877D01*
X734877Y603873D01*
X735136Y603935D01*
X735140Y603940D01*
X735144Y603937D01*
X735391Y604039D01*
X735394Y604045D01*
X735398Y604043D01*
X735625Y604183D01*
X735627Y604188D01*
X735631Y604188D01*
X735834Y604361D01*
X735835Y604366D01*
X735840Y604366D01*
X736013Y604569D01*
X736013Y604575D01*
X736017Y604575D01*
X736157Y604802D01*
X736156Y604808D01*
X736161Y604809D01*
X736263Y605056D01*
X736261Y605062D01*
X736265Y605064D01*
X736327Y605323D01*
X736325Y605328D01*
X736328Y605330D01*
X736349Y605596D01*
X736347Y605599D01*
X736349Y605600D01*
X736349Y622900D01*
X736347Y622902D01*
X736349Y622904D01*
X736328Y623170D01*
X736324Y623174D01*
X736327Y623177D01*
X736265Y623436D01*
X736260Y623440D01*
X736263Y623444D01*
X736161Y623691D01*
X736155Y623694D01*
X736157Y623698D01*
X736017Y623925D01*
X736012Y623927D01*
X736013Y623931D01*
X735840Y624134D01*
X735834Y624135D01*
X735834Y624140D01*
X735631Y624313D01*
X735625Y624313D01*
X735625Y624317D01*
X735398Y624457D01*
X735392Y624456D01*
X735391Y624461D01*
X735144Y624563D01*
X735138Y624561D01*
X735136Y624565D01*
X734877Y624627D01*
X734872Y624625D01*
X734870Y624628D01*
X734604Y624649D01*
X734601Y624647D01*
X734600Y624649D01*
X731034Y624628D01*
X731027Y624623D01*
X731023Y624627D01*
X730764Y624565D01*
X730760Y624560D01*
X730756Y624563D01*
X730509Y624461D01*
X730506Y624455D01*
X730502Y624457D01*
X730275Y624317D01*
X730273Y624312D01*
X730269Y624313D01*
X730066Y624140D01*
X730065Y624134D01*
X730061Y624134D01*
X729888Y623931D01*
X729887Y623925D01*
X729883Y623925D01*
X729743Y623698D01*
X729744Y623692D01*
X729739Y623691D01*
X729637Y623444D01*
X729639Y623438D01*
X729635Y623436D01*
X729573Y623177D01*
X729575Y623172D01*
X729572Y623170D01*
X729551Y622904D01*
X729553Y622901D01*
X729551Y622900D01*
X729551Y605600D01*
X729553Y605598D01*
X729551Y605596D01*
X729572Y605330D01*
X729576Y605326D01*
X729573Y605323D01*
X729635Y605064D01*
X729640Y605060D01*
X729637Y605056D01*
X729739Y604809D01*
X729745Y604806D01*
X729743Y604802D01*
X729883Y604575D01*
X729888Y604573D01*
X729888Y604569D01*
X730061Y604366D01*
X730066Y604365D01*
X730066Y604361D01*
X730269Y604188D01*
X730275Y604187D01*
X730275Y604183D01*
X730502Y604043D01*
X730508Y604044D01*
X730509Y604039D01*
X730756Y603937D01*
X730762Y603939D01*
X730764Y603935D01*
X731023Y603873D01*
X731028Y603875D01*
X731030Y603872D01*
X731296Y603851D01*
X731299Y603853D01*
X731300Y603851D01*
X734866Y603872D01*
G37*
G36*
X760266Y603872D02*
X760266Y603872D01*
X760273Y603877D01*
X760277Y603873D01*
X760536Y603935D01*
X760540Y603940D01*
X760544Y603937D01*
X760791Y604039D01*
X760794Y604045D01*
X760798Y604043D01*
X761025Y604183D01*
X761027Y604188D01*
X761031Y604188D01*
X761234Y604361D01*
X761235Y604366D01*
X761240Y604366D01*
X761413Y604569D01*
X761413Y604575D01*
X761417Y604575D01*
X761557Y604802D01*
X761556Y604808D01*
X761561Y604809D01*
X761663Y605056D01*
X761661Y605062D01*
X761665Y605064D01*
X761727Y605323D01*
X761725Y605328D01*
X761728Y605330D01*
X761749Y605596D01*
X761747Y605599D01*
X761749Y605600D01*
X761749Y622900D01*
X761747Y622902D01*
X761749Y622904D01*
X761728Y623170D01*
X761724Y623174D01*
X761727Y623177D01*
X761665Y623436D01*
X761660Y623440D01*
X761663Y623444D01*
X761561Y623691D01*
X761555Y623694D01*
X761557Y623698D01*
X761417Y623925D01*
X761412Y623927D01*
X761413Y623931D01*
X761240Y624134D01*
X761234Y624135D01*
X761234Y624140D01*
X761031Y624313D01*
X761025Y624313D01*
X761025Y624317D01*
X760798Y624457D01*
X760792Y624456D01*
X760791Y624461D01*
X760544Y624563D01*
X760538Y624561D01*
X760536Y624565D01*
X760277Y624627D01*
X760272Y624625D01*
X760270Y624628D01*
X760004Y624649D01*
X760001Y624647D01*
X760000Y624649D01*
X756434Y624628D01*
X756427Y624623D01*
X756423Y624627D01*
X756164Y624565D01*
X756160Y624560D01*
X756156Y624563D01*
X755909Y624461D01*
X755906Y624455D01*
X755902Y624457D01*
X755675Y624317D01*
X755673Y624312D01*
X755669Y624313D01*
X755466Y624140D01*
X755465Y624134D01*
X755461Y624134D01*
X755288Y623931D01*
X755287Y623925D01*
X755283Y623925D01*
X755143Y623698D01*
X755144Y623692D01*
X755139Y623691D01*
X755037Y623444D01*
X755039Y623438D01*
X755035Y623436D01*
X754973Y623177D01*
X754975Y623172D01*
X754972Y623170D01*
X754951Y622904D01*
X754953Y622901D01*
X754951Y622900D01*
X754951Y605600D01*
X754953Y605598D01*
X754951Y605596D01*
X754972Y605330D01*
X754976Y605326D01*
X754973Y605323D01*
X755035Y605064D01*
X755040Y605060D01*
X755037Y605056D01*
X755139Y604809D01*
X755145Y604806D01*
X755143Y604802D01*
X755283Y604575D01*
X755288Y604573D01*
X755288Y604569D01*
X755461Y604366D01*
X755466Y604365D01*
X755466Y604361D01*
X755669Y604188D01*
X755675Y604187D01*
X755675Y604183D01*
X755902Y604043D01*
X755908Y604044D01*
X755909Y604039D01*
X756156Y603937D01*
X756162Y603939D01*
X756164Y603935D01*
X756423Y603873D01*
X756428Y603875D01*
X756430Y603872D01*
X756696Y603851D01*
X756699Y603853D01*
X756700Y603851D01*
X760266Y603872D01*
G37*
G36*
X396966Y603872D02*
X396966Y603872D01*
X396973Y603877D01*
X396977Y603873D01*
X397236Y603935D01*
X397240Y603940D01*
X397244Y603937D01*
X397491Y604039D01*
X397494Y604045D01*
X397498Y604043D01*
X397725Y604183D01*
X397727Y604188D01*
X397731Y604188D01*
X397934Y604361D01*
X397935Y604366D01*
X397940Y604366D01*
X398113Y604569D01*
X398113Y604575D01*
X398117Y604575D01*
X398257Y604802D01*
X398256Y604808D01*
X398261Y604809D01*
X398363Y605056D01*
X398361Y605062D01*
X398365Y605064D01*
X398427Y605323D01*
X398425Y605328D01*
X398428Y605330D01*
X398449Y605596D01*
X398447Y605599D01*
X398449Y605600D01*
X398449Y622900D01*
X398447Y622902D01*
X398449Y622904D01*
X398428Y623170D01*
X398424Y623174D01*
X398427Y623177D01*
X398365Y623436D01*
X398360Y623440D01*
X398363Y623444D01*
X398261Y623691D01*
X398255Y623694D01*
X398257Y623698D01*
X398117Y623925D01*
X398112Y623927D01*
X398113Y623931D01*
X397940Y624134D01*
X397934Y624135D01*
X397934Y624140D01*
X397731Y624313D01*
X397725Y624313D01*
X397725Y624317D01*
X397498Y624457D01*
X397492Y624456D01*
X397491Y624461D01*
X397244Y624563D01*
X397238Y624561D01*
X397236Y624565D01*
X396977Y624627D01*
X396972Y624625D01*
X396970Y624628D01*
X396704Y624649D01*
X396701Y624647D01*
X396700Y624649D01*
X393134Y624628D01*
X393127Y624623D01*
X393123Y624627D01*
X392864Y624565D01*
X392860Y624560D01*
X392856Y624563D01*
X392609Y624461D01*
X392606Y624455D01*
X392602Y624457D01*
X392375Y624317D01*
X392373Y624312D01*
X392369Y624313D01*
X392166Y624140D01*
X392165Y624134D01*
X392161Y624134D01*
X391988Y623931D01*
X391987Y623925D01*
X391983Y623925D01*
X391843Y623698D01*
X391844Y623692D01*
X391839Y623691D01*
X391737Y623444D01*
X391739Y623438D01*
X391735Y623436D01*
X391673Y623177D01*
X391675Y623172D01*
X391672Y623170D01*
X391651Y622904D01*
X391653Y622901D01*
X391651Y622900D01*
X391651Y605600D01*
X391653Y605598D01*
X391651Y605596D01*
X391672Y605330D01*
X391676Y605326D01*
X391673Y605323D01*
X391735Y605064D01*
X391740Y605060D01*
X391737Y605056D01*
X391839Y604809D01*
X391845Y604806D01*
X391843Y604802D01*
X391983Y604575D01*
X391988Y604573D01*
X391988Y604569D01*
X392161Y604366D01*
X392166Y604365D01*
X392166Y604361D01*
X392369Y604188D01*
X392375Y604187D01*
X392375Y604183D01*
X392602Y604043D01*
X392608Y604044D01*
X392609Y604039D01*
X392856Y603937D01*
X392862Y603939D01*
X392864Y603935D01*
X393123Y603873D01*
X393128Y603875D01*
X393130Y603872D01*
X393396Y603851D01*
X393399Y603853D01*
X393400Y603851D01*
X396966Y603872D01*
G37*
G36*
X270966Y603872D02*
X270966Y603872D01*
X270973Y603877D01*
X270977Y603873D01*
X271236Y603935D01*
X271240Y603940D01*
X271244Y603937D01*
X271491Y604039D01*
X271494Y604045D01*
X271498Y604043D01*
X271725Y604183D01*
X271727Y604188D01*
X271731Y604188D01*
X271934Y604361D01*
X271935Y604366D01*
X271940Y604366D01*
X272113Y604569D01*
X272113Y604575D01*
X272117Y604575D01*
X272257Y604802D01*
X272256Y604808D01*
X272261Y604809D01*
X272363Y605056D01*
X272361Y605062D01*
X272365Y605064D01*
X272427Y605323D01*
X272425Y605328D01*
X272428Y605330D01*
X272449Y605596D01*
X272447Y605599D01*
X272449Y605600D01*
X272449Y622900D01*
X272447Y622902D01*
X272449Y622904D01*
X272428Y623170D01*
X272424Y623174D01*
X272427Y623177D01*
X272365Y623436D01*
X272360Y623440D01*
X272363Y623444D01*
X272261Y623691D01*
X272255Y623694D01*
X272257Y623698D01*
X272117Y623925D01*
X272112Y623927D01*
X272113Y623931D01*
X271940Y624134D01*
X271934Y624135D01*
X271934Y624140D01*
X271731Y624313D01*
X271725Y624313D01*
X271725Y624317D01*
X271498Y624457D01*
X271492Y624456D01*
X271491Y624461D01*
X271244Y624563D01*
X271238Y624561D01*
X271236Y624565D01*
X270977Y624627D01*
X270972Y624625D01*
X270970Y624628D01*
X270704Y624649D01*
X270701Y624647D01*
X270700Y624649D01*
X267134Y624628D01*
X267127Y624623D01*
X267123Y624627D01*
X266864Y624565D01*
X266860Y624560D01*
X266856Y624563D01*
X266609Y624461D01*
X266606Y624455D01*
X266602Y624457D01*
X266375Y624317D01*
X266373Y624312D01*
X266369Y624313D01*
X266166Y624140D01*
X266165Y624134D01*
X266161Y624134D01*
X265988Y623931D01*
X265987Y623925D01*
X265983Y623925D01*
X265843Y623698D01*
X265844Y623692D01*
X265839Y623691D01*
X265737Y623444D01*
X265739Y623438D01*
X265735Y623436D01*
X265673Y623177D01*
X265675Y623172D01*
X265672Y623170D01*
X265651Y622904D01*
X265653Y622901D01*
X265651Y622900D01*
X265651Y605600D01*
X265653Y605598D01*
X265651Y605596D01*
X265672Y605330D01*
X265676Y605326D01*
X265673Y605323D01*
X265735Y605064D01*
X265740Y605060D01*
X265737Y605056D01*
X265839Y604809D01*
X265845Y604806D01*
X265843Y604802D01*
X265983Y604575D01*
X265988Y604573D01*
X265988Y604569D01*
X266161Y604366D01*
X266166Y604365D01*
X266166Y604361D01*
X266369Y604188D01*
X266375Y604187D01*
X266375Y604183D01*
X266602Y604043D01*
X266608Y604044D01*
X266609Y604039D01*
X266856Y603937D01*
X266862Y603939D01*
X266864Y603935D01*
X267123Y603873D01*
X267128Y603875D01*
X267130Y603872D01*
X267396Y603851D01*
X267399Y603853D01*
X267400Y603851D01*
X270966Y603872D01*
G37*
G36*
X258266Y603872D02*
X258266Y603872D01*
X258273Y603877D01*
X258277Y603873D01*
X258536Y603935D01*
X258540Y603940D01*
X258544Y603937D01*
X258791Y604039D01*
X258794Y604045D01*
X258798Y604043D01*
X259025Y604183D01*
X259027Y604188D01*
X259031Y604188D01*
X259234Y604361D01*
X259235Y604366D01*
X259240Y604366D01*
X259413Y604569D01*
X259413Y604575D01*
X259417Y604575D01*
X259557Y604802D01*
X259556Y604808D01*
X259561Y604809D01*
X259663Y605056D01*
X259661Y605062D01*
X259665Y605064D01*
X259727Y605323D01*
X259725Y605328D01*
X259728Y605330D01*
X259749Y605596D01*
X259747Y605599D01*
X259749Y605600D01*
X259749Y622900D01*
X259747Y622902D01*
X259749Y622904D01*
X259728Y623170D01*
X259724Y623174D01*
X259727Y623177D01*
X259665Y623436D01*
X259660Y623440D01*
X259663Y623444D01*
X259561Y623691D01*
X259555Y623694D01*
X259557Y623698D01*
X259417Y623925D01*
X259412Y623927D01*
X259413Y623931D01*
X259240Y624134D01*
X259234Y624135D01*
X259234Y624140D01*
X259031Y624313D01*
X259025Y624313D01*
X259025Y624317D01*
X258798Y624457D01*
X258792Y624456D01*
X258791Y624461D01*
X258544Y624563D01*
X258538Y624561D01*
X258536Y624565D01*
X258277Y624627D01*
X258272Y624625D01*
X258270Y624628D01*
X258004Y624649D01*
X258001Y624647D01*
X258000Y624649D01*
X254434Y624628D01*
X254427Y624623D01*
X254423Y624627D01*
X254164Y624565D01*
X254160Y624560D01*
X254156Y624563D01*
X253909Y624461D01*
X253906Y624455D01*
X253902Y624457D01*
X253675Y624317D01*
X253673Y624312D01*
X253669Y624313D01*
X253466Y624140D01*
X253465Y624134D01*
X253461Y624134D01*
X253288Y623931D01*
X253287Y623925D01*
X253283Y623925D01*
X253143Y623698D01*
X253144Y623692D01*
X253139Y623691D01*
X253037Y623444D01*
X253039Y623438D01*
X253035Y623436D01*
X252973Y623177D01*
X252975Y623172D01*
X252972Y623170D01*
X252951Y622904D01*
X252953Y622901D01*
X252951Y622900D01*
X252951Y605600D01*
X252953Y605598D01*
X252951Y605596D01*
X252972Y605330D01*
X252976Y605326D01*
X252973Y605323D01*
X253035Y605064D01*
X253040Y605060D01*
X253037Y605056D01*
X253139Y604809D01*
X253145Y604806D01*
X253143Y604802D01*
X253283Y604575D01*
X253288Y604573D01*
X253288Y604569D01*
X253461Y604366D01*
X253466Y604365D01*
X253466Y604361D01*
X253669Y604188D01*
X253675Y604187D01*
X253675Y604183D01*
X253902Y604043D01*
X253908Y604044D01*
X253909Y604039D01*
X254156Y603937D01*
X254162Y603939D01*
X254164Y603935D01*
X254423Y603873D01*
X254428Y603875D01*
X254430Y603872D01*
X254696Y603851D01*
X254699Y603853D01*
X254700Y603851D01*
X258266Y603872D01*
G37*
G36*
X772966Y603872D02*
X772966Y603872D01*
X772973Y603877D01*
X772977Y603873D01*
X773236Y603935D01*
X773240Y603940D01*
X773244Y603937D01*
X773491Y604039D01*
X773494Y604045D01*
X773498Y604043D01*
X773725Y604183D01*
X773727Y604188D01*
X773731Y604188D01*
X773934Y604361D01*
X773935Y604366D01*
X773940Y604366D01*
X774113Y604569D01*
X774113Y604575D01*
X774117Y604575D01*
X774257Y604802D01*
X774256Y604808D01*
X774261Y604809D01*
X774363Y605056D01*
X774361Y605062D01*
X774365Y605064D01*
X774427Y605323D01*
X774425Y605328D01*
X774428Y605330D01*
X774449Y605596D01*
X774447Y605599D01*
X774449Y605600D01*
X774449Y622900D01*
X774447Y622902D01*
X774449Y622904D01*
X774428Y623170D01*
X774424Y623174D01*
X774427Y623177D01*
X774365Y623436D01*
X774360Y623440D01*
X774363Y623444D01*
X774261Y623691D01*
X774255Y623694D01*
X774257Y623698D01*
X774117Y623925D01*
X774112Y623927D01*
X774113Y623931D01*
X773940Y624134D01*
X773934Y624135D01*
X773934Y624140D01*
X773731Y624313D01*
X773725Y624313D01*
X773725Y624317D01*
X773498Y624457D01*
X773492Y624456D01*
X773491Y624461D01*
X773244Y624563D01*
X773238Y624561D01*
X773236Y624565D01*
X772977Y624627D01*
X772972Y624625D01*
X772970Y624628D01*
X772704Y624649D01*
X772701Y624647D01*
X772700Y624649D01*
X769134Y624628D01*
X769127Y624623D01*
X769123Y624627D01*
X768864Y624565D01*
X768860Y624560D01*
X768856Y624563D01*
X768609Y624461D01*
X768606Y624455D01*
X768602Y624457D01*
X768375Y624317D01*
X768373Y624312D01*
X768369Y624313D01*
X768166Y624140D01*
X768165Y624134D01*
X768161Y624134D01*
X767988Y623931D01*
X767987Y623925D01*
X767983Y623925D01*
X767843Y623698D01*
X767844Y623692D01*
X767839Y623691D01*
X767737Y623444D01*
X767739Y623438D01*
X767735Y623436D01*
X767673Y623177D01*
X767675Y623172D01*
X767672Y623170D01*
X767651Y622904D01*
X767653Y622901D01*
X767651Y622900D01*
X767651Y605600D01*
X767653Y605598D01*
X767651Y605596D01*
X767672Y605330D01*
X767676Y605326D01*
X767673Y605323D01*
X767735Y605064D01*
X767740Y605060D01*
X767737Y605056D01*
X767839Y604809D01*
X767845Y604806D01*
X767843Y604802D01*
X767983Y604575D01*
X767988Y604573D01*
X767988Y604569D01*
X768161Y604366D01*
X768166Y604365D01*
X768166Y604361D01*
X768369Y604188D01*
X768375Y604187D01*
X768375Y604183D01*
X768602Y604043D01*
X768608Y604044D01*
X768609Y604039D01*
X768856Y603937D01*
X768862Y603939D01*
X768864Y603935D01*
X769123Y603873D01*
X769128Y603875D01*
X769130Y603872D01*
X769396Y603851D01*
X769399Y603853D01*
X769400Y603851D01*
X772966Y603872D01*
G37*
G36*
X510266Y603872D02*
X510266Y603872D01*
X510273Y603877D01*
X510277Y603873D01*
X510536Y603935D01*
X510540Y603940D01*
X510544Y603937D01*
X510791Y604039D01*
X510794Y604045D01*
X510798Y604043D01*
X511025Y604183D01*
X511027Y604188D01*
X511031Y604188D01*
X511234Y604361D01*
X511235Y604366D01*
X511240Y604366D01*
X511413Y604569D01*
X511413Y604575D01*
X511417Y604575D01*
X511557Y604802D01*
X511556Y604808D01*
X511561Y604809D01*
X511663Y605056D01*
X511661Y605062D01*
X511665Y605064D01*
X511727Y605323D01*
X511725Y605328D01*
X511728Y605330D01*
X511749Y605596D01*
X511747Y605599D01*
X511749Y605600D01*
X511749Y622900D01*
X511747Y622902D01*
X511749Y622904D01*
X511728Y623170D01*
X511724Y623174D01*
X511727Y623177D01*
X511665Y623436D01*
X511660Y623440D01*
X511663Y623444D01*
X511561Y623691D01*
X511555Y623694D01*
X511557Y623698D01*
X511417Y623925D01*
X511412Y623927D01*
X511413Y623931D01*
X511240Y624134D01*
X511234Y624135D01*
X511234Y624140D01*
X511031Y624313D01*
X511025Y624313D01*
X511025Y624317D01*
X510798Y624457D01*
X510792Y624456D01*
X510791Y624461D01*
X510544Y624563D01*
X510538Y624561D01*
X510536Y624565D01*
X510277Y624627D01*
X510272Y624625D01*
X510270Y624628D01*
X510004Y624649D01*
X510001Y624647D01*
X510000Y624649D01*
X506434Y624628D01*
X506427Y624623D01*
X506423Y624627D01*
X506164Y624565D01*
X506160Y624560D01*
X506156Y624563D01*
X505909Y624461D01*
X505906Y624455D01*
X505902Y624457D01*
X505675Y624317D01*
X505673Y624312D01*
X505669Y624313D01*
X505466Y624140D01*
X505465Y624134D01*
X505461Y624134D01*
X505288Y623931D01*
X505287Y623925D01*
X505283Y623925D01*
X505143Y623698D01*
X505144Y623692D01*
X505139Y623691D01*
X505037Y623444D01*
X505039Y623438D01*
X505035Y623436D01*
X504973Y623177D01*
X504975Y623172D01*
X504972Y623170D01*
X504951Y622904D01*
X504953Y622901D01*
X504951Y622900D01*
X504951Y605600D01*
X504953Y605598D01*
X504951Y605596D01*
X504972Y605330D01*
X504976Y605326D01*
X504973Y605323D01*
X505035Y605064D01*
X505040Y605060D01*
X505037Y605056D01*
X505139Y604809D01*
X505145Y604806D01*
X505143Y604802D01*
X505283Y604575D01*
X505288Y604573D01*
X505288Y604569D01*
X505461Y604366D01*
X505466Y604365D01*
X505466Y604361D01*
X505669Y604188D01*
X505675Y604187D01*
X505675Y604183D01*
X505902Y604043D01*
X505908Y604044D01*
X505909Y604039D01*
X506156Y603937D01*
X506162Y603939D01*
X506164Y603935D01*
X506423Y603873D01*
X506428Y603875D01*
X506430Y603872D01*
X506696Y603851D01*
X506699Y603853D01*
X506700Y603851D01*
X510266Y603872D01*
G37*
G36*
X634266Y603872D02*
X634266Y603872D01*
X634273Y603877D01*
X634277Y603873D01*
X634536Y603935D01*
X634540Y603940D01*
X634544Y603937D01*
X634791Y604039D01*
X634794Y604045D01*
X634798Y604043D01*
X635025Y604183D01*
X635027Y604188D01*
X635031Y604188D01*
X635234Y604361D01*
X635235Y604366D01*
X635240Y604366D01*
X635413Y604569D01*
X635413Y604575D01*
X635417Y604575D01*
X635557Y604802D01*
X635556Y604808D01*
X635561Y604809D01*
X635663Y605056D01*
X635661Y605062D01*
X635665Y605064D01*
X635727Y605323D01*
X635725Y605328D01*
X635728Y605330D01*
X635749Y605596D01*
X635747Y605599D01*
X635749Y605600D01*
X635749Y622900D01*
X635747Y622902D01*
X635749Y622904D01*
X635728Y623170D01*
X635724Y623174D01*
X635727Y623177D01*
X635665Y623436D01*
X635660Y623440D01*
X635663Y623444D01*
X635561Y623691D01*
X635555Y623694D01*
X635557Y623698D01*
X635417Y623925D01*
X635412Y623927D01*
X635413Y623931D01*
X635240Y624134D01*
X635234Y624135D01*
X635234Y624140D01*
X635031Y624313D01*
X635025Y624313D01*
X635025Y624317D01*
X634798Y624457D01*
X634792Y624456D01*
X634791Y624461D01*
X634544Y624563D01*
X634538Y624561D01*
X634536Y624565D01*
X634277Y624627D01*
X634272Y624625D01*
X634270Y624628D01*
X634004Y624649D01*
X634001Y624647D01*
X634000Y624649D01*
X630434Y624628D01*
X630427Y624623D01*
X630423Y624627D01*
X630164Y624565D01*
X630160Y624560D01*
X630156Y624563D01*
X629909Y624461D01*
X629906Y624455D01*
X629902Y624457D01*
X629675Y624317D01*
X629673Y624312D01*
X629669Y624313D01*
X629466Y624140D01*
X629465Y624134D01*
X629461Y624134D01*
X629288Y623931D01*
X629287Y623925D01*
X629283Y623925D01*
X629143Y623698D01*
X629144Y623692D01*
X629139Y623691D01*
X629037Y623444D01*
X629039Y623438D01*
X629035Y623436D01*
X628973Y623177D01*
X628975Y623172D01*
X628972Y623170D01*
X628951Y622904D01*
X628953Y622901D01*
X628951Y622900D01*
X628951Y605600D01*
X628953Y605598D01*
X628951Y605596D01*
X628972Y605330D01*
X628976Y605326D01*
X628973Y605323D01*
X629035Y605064D01*
X629040Y605060D01*
X629037Y605056D01*
X629139Y604809D01*
X629145Y604806D01*
X629143Y604802D01*
X629283Y604575D01*
X629288Y604573D01*
X629288Y604569D01*
X629461Y604366D01*
X629466Y604365D01*
X629466Y604361D01*
X629669Y604188D01*
X629675Y604187D01*
X629675Y604183D01*
X629902Y604043D01*
X629908Y604044D01*
X629909Y604039D01*
X630156Y603937D01*
X630162Y603939D01*
X630164Y603935D01*
X630423Y603873D01*
X630428Y603875D01*
X630430Y603872D01*
X630696Y603851D01*
X630699Y603853D01*
X630700Y603851D01*
X634266Y603872D01*
G37*
G36*
X646966Y603872D02*
X646966Y603872D01*
X646973Y603877D01*
X646977Y603873D01*
X647236Y603935D01*
X647240Y603940D01*
X647244Y603937D01*
X647491Y604039D01*
X647494Y604045D01*
X647498Y604043D01*
X647725Y604183D01*
X647727Y604188D01*
X647731Y604188D01*
X647934Y604361D01*
X647935Y604366D01*
X647940Y604366D01*
X648113Y604569D01*
X648113Y604575D01*
X648117Y604575D01*
X648257Y604802D01*
X648256Y604808D01*
X648261Y604809D01*
X648363Y605056D01*
X648361Y605062D01*
X648365Y605064D01*
X648427Y605323D01*
X648425Y605328D01*
X648428Y605330D01*
X648449Y605596D01*
X648447Y605599D01*
X648449Y605600D01*
X648449Y622900D01*
X648447Y622902D01*
X648449Y622904D01*
X648428Y623170D01*
X648424Y623174D01*
X648427Y623177D01*
X648365Y623436D01*
X648360Y623440D01*
X648363Y623444D01*
X648261Y623691D01*
X648255Y623694D01*
X648257Y623698D01*
X648117Y623925D01*
X648112Y623927D01*
X648113Y623931D01*
X647940Y624134D01*
X647934Y624135D01*
X647934Y624140D01*
X647731Y624313D01*
X647725Y624313D01*
X647725Y624317D01*
X647498Y624457D01*
X647492Y624456D01*
X647491Y624461D01*
X647244Y624563D01*
X647238Y624561D01*
X647236Y624565D01*
X646977Y624627D01*
X646972Y624625D01*
X646970Y624628D01*
X646704Y624649D01*
X646701Y624647D01*
X646700Y624649D01*
X643134Y624628D01*
X643127Y624623D01*
X643123Y624627D01*
X642864Y624565D01*
X642860Y624560D01*
X642856Y624563D01*
X642609Y624461D01*
X642606Y624455D01*
X642602Y624457D01*
X642375Y624317D01*
X642373Y624312D01*
X642369Y624313D01*
X642166Y624140D01*
X642165Y624134D01*
X642161Y624134D01*
X641988Y623931D01*
X641987Y623925D01*
X641983Y623925D01*
X641843Y623698D01*
X641844Y623692D01*
X641839Y623691D01*
X641737Y623444D01*
X641739Y623438D01*
X641735Y623436D01*
X641673Y623177D01*
X641675Y623172D01*
X641672Y623170D01*
X641651Y622904D01*
X641653Y622901D01*
X641651Y622900D01*
X641651Y605600D01*
X641653Y605598D01*
X641651Y605596D01*
X641672Y605330D01*
X641676Y605326D01*
X641673Y605323D01*
X641735Y605064D01*
X641740Y605060D01*
X641737Y605056D01*
X641839Y604809D01*
X641845Y604806D01*
X641843Y604802D01*
X641983Y604575D01*
X641988Y604573D01*
X641988Y604569D01*
X642161Y604366D01*
X642166Y604365D01*
X642166Y604361D01*
X642369Y604188D01*
X642375Y604187D01*
X642375Y604183D01*
X642602Y604043D01*
X642608Y604044D01*
X642609Y604039D01*
X642856Y603937D01*
X642862Y603939D01*
X642864Y603935D01*
X643123Y603873D01*
X643128Y603875D01*
X643130Y603872D01*
X643396Y603851D01*
X643399Y603853D01*
X643400Y603851D01*
X646966Y603872D01*
G37*
G36*
X245566Y603872D02*
X245566Y603872D01*
X245573Y603877D01*
X245577Y603873D01*
X245836Y603935D01*
X245840Y603940D01*
X245844Y603937D01*
X246091Y604039D01*
X246094Y604045D01*
X246098Y604043D01*
X246325Y604183D01*
X246327Y604188D01*
X246331Y604188D01*
X246534Y604361D01*
X246535Y604366D01*
X246540Y604366D01*
X246713Y604569D01*
X246713Y604575D01*
X246717Y604575D01*
X246857Y604802D01*
X246856Y604808D01*
X246861Y604809D01*
X246963Y605056D01*
X246961Y605062D01*
X246965Y605064D01*
X247027Y605323D01*
X247025Y605328D01*
X247028Y605330D01*
X247049Y605596D01*
X247047Y605599D01*
X247049Y605600D01*
X247049Y622900D01*
X247047Y622902D01*
X247049Y622904D01*
X247028Y623170D01*
X247024Y623174D01*
X247027Y623177D01*
X246965Y623436D01*
X246960Y623440D01*
X246963Y623444D01*
X246861Y623691D01*
X246855Y623694D01*
X246857Y623698D01*
X246717Y623925D01*
X246712Y623927D01*
X246713Y623931D01*
X246540Y624134D01*
X246534Y624135D01*
X246534Y624140D01*
X246331Y624313D01*
X246325Y624313D01*
X246325Y624317D01*
X246098Y624457D01*
X246092Y624456D01*
X246091Y624461D01*
X245844Y624563D01*
X245838Y624561D01*
X245836Y624565D01*
X245577Y624627D01*
X245572Y624625D01*
X245570Y624628D01*
X245304Y624649D01*
X245301Y624647D01*
X245300Y624649D01*
X241734Y624628D01*
X241727Y624623D01*
X241723Y624627D01*
X241464Y624565D01*
X241460Y624560D01*
X241456Y624563D01*
X241209Y624461D01*
X241206Y624455D01*
X241202Y624457D01*
X240975Y624317D01*
X240973Y624312D01*
X240969Y624313D01*
X240766Y624140D01*
X240765Y624134D01*
X240761Y624134D01*
X240588Y623931D01*
X240587Y623925D01*
X240583Y623925D01*
X240443Y623698D01*
X240444Y623692D01*
X240439Y623691D01*
X240337Y623444D01*
X240339Y623438D01*
X240335Y623436D01*
X240273Y623177D01*
X240275Y623172D01*
X240272Y623170D01*
X240251Y622904D01*
X240253Y622901D01*
X240251Y622900D01*
X240251Y605600D01*
X240253Y605598D01*
X240251Y605596D01*
X240272Y605330D01*
X240276Y605326D01*
X240273Y605323D01*
X240335Y605064D01*
X240340Y605060D01*
X240337Y605056D01*
X240439Y604809D01*
X240445Y604806D01*
X240443Y604802D01*
X240583Y604575D01*
X240588Y604573D01*
X240588Y604569D01*
X240761Y604366D01*
X240766Y604365D01*
X240766Y604361D01*
X240969Y604188D01*
X240975Y604187D01*
X240975Y604183D01*
X241202Y604043D01*
X241208Y604044D01*
X241209Y604039D01*
X241456Y603937D01*
X241462Y603939D01*
X241464Y603935D01*
X241723Y603873D01*
X241728Y603875D01*
X241730Y603872D01*
X241996Y603851D01*
X241999Y603853D01*
X242000Y603851D01*
X245566Y603872D01*
G37*
G36*
X522966Y603872D02*
X522966Y603872D01*
X522973Y603877D01*
X522977Y603873D01*
X523236Y603935D01*
X523240Y603940D01*
X523244Y603937D01*
X523491Y604039D01*
X523494Y604045D01*
X523498Y604043D01*
X523725Y604183D01*
X523727Y604188D01*
X523731Y604188D01*
X523934Y604361D01*
X523935Y604366D01*
X523940Y604366D01*
X524113Y604569D01*
X524113Y604575D01*
X524117Y604575D01*
X524257Y604802D01*
X524256Y604808D01*
X524261Y604809D01*
X524363Y605056D01*
X524361Y605062D01*
X524365Y605064D01*
X524427Y605323D01*
X524425Y605328D01*
X524428Y605330D01*
X524449Y605596D01*
X524447Y605599D01*
X524449Y605600D01*
X524449Y622900D01*
X524447Y622902D01*
X524449Y622904D01*
X524428Y623170D01*
X524424Y623174D01*
X524427Y623177D01*
X524365Y623436D01*
X524360Y623440D01*
X524363Y623444D01*
X524261Y623691D01*
X524255Y623694D01*
X524257Y623698D01*
X524117Y623925D01*
X524112Y623927D01*
X524113Y623931D01*
X523940Y624134D01*
X523934Y624135D01*
X523934Y624140D01*
X523731Y624313D01*
X523725Y624313D01*
X523725Y624317D01*
X523498Y624457D01*
X523492Y624456D01*
X523491Y624461D01*
X523244Y624563D01*
X523238Y624561D01*
X523236Y624565D01*
X522977Y624627D01*
X522972Y624625D01*
X522970Y624628D01*
X522704Y624649D01*
X522701Y624647D01*
X522700Y624649D01*
X519134Y624628D01*
X519127Y624623D01*
X519123Y624627D01*
X518864Y624565D01*
X518860Y624560D01*
X518856Y624563D01*
X518609Y624461D01*
X518606Y624455D01*
X518602Y624457D01*
X518375Y624317D01*
X518373Y624312D01*
X518369Y624313D01*
X518166Y624140D01*
X518165Y624134D01*
X518161Y624134D01*
X517988Y623931D01*
X517987Y623925D01*
X517983Y623925D01*
X517843Y623698D01*
X517844Y623692D01*
X517839Y623691D01*
X517737Y623444D01*
X517739Y623438D01*
X517735Y623436D01*
X517673Y623177D01*
X517675Y623172D01*
X517672Y623170D01*
X517651Y622904D01*
X517653Y622901D01*
X517651Y622900D01*
X517651Y605600D01*
X517653Y605598D01*
X517651Y605596D01*
X517672Y605330D01*
X517676Y605326D01*
X517673Y605323D01*
X517735Y605064D01*
X517740Y605060D01*
X517737Y605056D01*
X517839Y604809D01*
X517845Y604806D01*
X517843Y604802D01*
X517983Y604575D01*
X517988Y604573D01*
X517988Y604569D01*
X518161Y604366D01*
X518166Y604365D01*
X518166Y604361D01*
X518369Y604188D01*
X518375Y604187D01*
X518375Y604183D01*
X518602Y604043D01*
X518608Y604044D01*
X518609Y604039D01*
X518856Y603937D01*
X518862Y603939D01*
X518864Y603935D01*
X519123Y603873D01*
X519128Y603875D01*
X519130Y603872D01*
X519396Y603851D01*
X519399Y603853D01*
X519400Y603851D01*
X522966Y603872D01*
G37*
G36*
X760266Y555372D02*
X760266Y555372D01*
X760273Y555377D01*
X760277Y555373D01*
X760536Y555435D01*
X760540Y555440D01*
X760544Y555437D01*
X760791Y555539D01*
X760794Y555545D01*
X760798Y555543D01*
X761025Y555683D01*
X761027Y555688D01*
X761031Y555688D01*
X761234Y555861D01*
X761235Y555866D01*
X761240Y555866D01*
X761413Y556069D01*
X761413Y556075D01*
X761417Y556075D01*
X761557Y556302D01*
X761556Y556308D01*
X761561Y556309D01*
X761663Y556556D01*
X761661Y556562D01*
X761665Y556564D01*
X761727Y556823D01*
X761725Y556828D01*
X761728Y556830D01*
X761749Y557096D01*
X761747Y557099D01*
X761749Y557100D01*
X761749Y574400D01*
X761747Y574402D01*
X761749Y574404D01*
X761728Y574670D01*
X761724Y574674D01*
X761727Y574677D01*
X761665Y574936D01*
X761660Y574940D01*
X761663Y574944D01*
X761561Y575191D01*
X761555Y575194D01*
X761557Y575198D01*
X761417Y575425D01*
X761412Y575427D01*
X761413Y575431D01*
X761240Y575634D01*
X761234Y575635D01*
X761234Y575640D01*
X761031Y575813D01*
X761025Y575813D01*
X761025Y575817D01*
X760798Y575957D01*
X760792Y575956D01*
X760791Y575961D01*
X760544Y576063D01*
X760538Y576061D01*
X760536Y576065D01*
X760277Y576127D01*
X760272Y576125D01*
X760270Y576128D01*
X760004Y576149D01*
X760001Y576147D01*
X760000Y576149D01*
X756434Y576128D01*
X756427Y576123D01*
X756423Y576127D01*
X756164Y576065D01*
X756160Y576060D01*
X756156Y576063D01*
X755909Y575961D01*
X755906Y575955D01*
X755902Y575957D01*
X755675Y575817D01*
X755673Y575812D01*
X755669Y575813D01*
X755466Y575640D01*
X755465Y575634D01*
X755461Y575634D01*
X755288Y575431D01*
X755287Y575425D01*
X755283Y575425D01*
X755143Y575198D01*
X755144Y575192D01*
X755139Y575191D01*
X755037Y574944D01*
X755039Y574938D01*
X755035Y574936D01*
X754973Y574677D01*
X754975Y574672D01*
X754972Y574670D01*
X754951Y574404D01*
X754953Y574401D01*
X754951Y574400D01*
X754951Y557100D01*
X754953Y557098D01*
X754951Y557096D01*
X754972Y556830D01*
X754976Y556826D01*
X754973Y556823D01*
X755035Y556564D01*
X755040Y556560D01*
X755037Y556556D01*
X755139Y556309D01*
X755145Y556306D01*
X755143Y556302D01*
X755283Y556075D01*
X755288Y556073D01*
X755288Y556069D01*
X755461Y555866D01*
X755466Y555865D01*
X755466Y555861D01*
X755669Y555688D01*
X755675Y555687D01*
X755675Y555683D01*
X755902Y555543D01*
X755908Y555544D01*
X755909Y555539D01*
X756156Y555437D01*
X756162Y555439D01*
X756164Y555435D01*
X756423Y555373D01*
X756428Y555375D01*
X756430Y555372D01*
X756696Y555351D01*
X756699Y555353D01*
X756700Y555351D01*
X760266Y555372D01*
G37*
G36*
X484866Y555372D02*
X484866Y555372D01*
X484873Y555377D01*
X484877Y555373D01*
X485136Y555435D01*
X485140Y555440D01*
X485144Y555437D01*
X485391Y555539D01*
X485394Y555545D01*
X485398Y555543D01*
X485625Y555683D01*
X485627Y555688D01*
X485631Y555688D01*
X485834Y555861D01*
X485835Y555866D01*
X485840Y555866D01*
X486013Y556069D01*
X486013Y556075D01*
X486017Y556075D01*
X486157Y556302D01*
X486156Y556308D01*
X486161Y556309D01*
X486263Y556556D01*
X486261Y556562D01*
X486265Y556564D01*
X486327Y556823D01*
X486325Y556828D01*
X486328Y556830D01*
X486349Y557096D01*
X486347Y557099D01*
X486349Y557100D01*
X486349Y574400D01*
X486347Y574402D01*
X486349Y574404D01*
X486328Y574670D01*
X486324Y574674D01*
X486327Y574677D01*
X486265Y574936D01*
X486260Y574940D01*
X486263Y574944D01*
X486161Y575191D01*
X486155Y575194D01*
X486157Y575198D01*
X486017Y575425D01*
X486012Y575427D01*
X486013Y575431D01*
X485840Y575634D01*
X485834Y575635D01*
X485834Y575640D01*
X485631Y575813D01*
X485625Y575813D01*
X485625Y575817D01*
X485398Y575957D01*
X485392Y575956D01*
X485391Y575961D01*
X485144Y576063D01*
X485138Y576061D01*
X485136Y576065D01*
X484877Y576127D01*
X484872Y576125D01*
X484870Y576128D01*
X484604Y576149D01*
X484601Y576147D01*
X484600Y576149D01*
X481034Y576128D01*
X481027Y576123D01*
X481023Y576127D01*
X480764Y576065D01*
X480760Y576060D01*
X480756Y576063D01*
X480509Y575961D01*
X480506Y575955D01*
X480502Y575957D01*
X480275Y575817D01*
X480273Y575812D01*
X480269Y575813D01*
X480066Y575640D01*
X480065Y575634D01*
X480061Y575634D01*
X479888Y575431D01*
X479887Y575425D01*
X479883Y575425D01*
X479743Y575198D01*
X479744Y575192D01*
X479739Y575191D01*
X479637Y574944D01*
X479639Y574938D01*
X479635Y574936D01*
X479573Y574677D01*
X479575Y574672D01*
X479572Y574670D01*
X479551Y574404D01*
X479553Y574401D01*
X479551Y574400D01*
X479551Y557100D01*
X479553Y557098D01*
X479551Y557096D01*
X479572Y556830D01*
X479576Y556826D01*
X479573Y556823D01*
X479635Y556564D01*
X479640Y556560D01*
X479637Y556556D01*
X479739Y556309D01*
X479745Y556306D01*
X479743Y556302D01*
X479883Y556075D01*
X479888Y556073D01*
X479888Y556069D01*
X480061Y555866D01*
X480066Y555865D01*
X480066Y555861D01*
X480269Y555688D01*
X480275Y555687D01*
X480275Y555683D01*
X480502Y555543D01*
X480508Y555544D01*
X480509Y555539D01*
X480756Y555437D01*
X480762Y555439D01*
X480764Y555435D01*
X481023Y555373D01*
X481028Y555375D01*
X481030Y555372D01*
X481296Y555351D01*
X481299Y555353D01*
X481300Y555351D01*
X484866Y555372D01*
G37*
G36*
X146966Y555372D02*
X146966Y555372D01*
X146973Y555377D01*
X146977Y555373D01*
X147236Y555435D01*
X147240Y555440D01*
X147244Y555437D01*
X147491Y555539D01*
X147494Y555545D01*
X147498Y555543D01*
X147725Y555683D01*
X147727Y555688D01*
X147731Y555688D01*
X147934Y555861D01*
X147935Y555866D01*
X147940Y555866D01*
X148113Y556069D01*
X148113Y556075D01*
X148117Y556075D01*
X148257Y556302D01*
X148256Y556308D01*
X148261Y556309D01*
X148363Y556556D01*
X148361Y556562D01*
X148365Y556564D01*
X148427Y556823D01*
X148425Y556828D01*
X148428Y556830D01*
X148449Y557096D01*
X148447Y557099D01*
X148449Y557100D01*
X148449Y574400D01*
X148447Y574402D01*
X148449Y574404D01*
X148428Y574670D01*
X148424Y574674D01*
X148427Y574677D01*
X148365Y574936D01*
X148360Y574940D01*
X148363Y574944D01*
X148261Y575191D01*
X148255Y575194D01*
X148257Y575198D01*
X148117Y575425D01*
X148112Y575427D01*
X148113Y575431D01*
X147940Y575634D01*
X147934Y575635D01*
X147934Y575640D01*
X147731Y575813D01*
X147725Y575813D01*
X147725Y575817D01*
X147498Y575957D01*
X147492Y575956D01*
X147491Y575961D01*
X147244Y576063D01*
X147238Y576061D01*
X147236Y576065D01*
X146977Y576127D01*
X146972Y576125D01*
X146970Y576128D01*
X146704Y576149D01*
X146701Y576147D01*
X146700Y576149D01*
X143134Y576128D01*
X143127Y576123D01*
X143123Y576127D01*
X142864Y576065D01*
X142860Y576060D01*
X142856Y576063D01*
X142609Y575961D01*
X142606Y575955D01*
X142602Y575957D01*
X142375Y575817D01*
X142373Y575812D01*
X142369Y575813D01*
X142166Y575640D01*
X142165Y575634D01*
X142161Y575634D01*
X141988Y575431D01*
X141987Y575425D01*
X141983Y575425D01*
X141843Y575198D01*
X141844Y575192D01*
X141839Y575191D01*
X141737Y574944D01*
X141739Y574938D01*
X141735Y574936D01*
X141673Y574677D01*
X141675Y574672D01*
X141672Y574670D01*
X141651Y574404D01*
X141653Y574401D01*
X141651Y574400D01*
X141651Y557100D01*
X141653Y557098D01*
X141651Y557096D01*
X141672Y556830D01*
X141676Y556826D01*
X141673Y556823D01*
X141735Y556564D01*
X141740Y556560D01*
X141737Y556556D01*
X141839Y556309D01*
X141845Y556306D01*
X141843Y556302D01*
X141983Y556075D01*
X141988Y556073D01*
X141988Y556069D01*
X142161Y555866D01*
X142166Y555865D01*
X142166Y555861D01*
X142369Y555688D01*
X142375Y555687D01*
X142375Y555683D01*
X142602Y555543D01*
X142608Y555544D01*
X142609Y555539D01*
X142856Y555437D01*
X142862Y555439D01*
X142864Y555435D01*
X143123Y555373D01*
X143128Y555375D01*
X143130Y555372D01*
X143396Y555351D01*
X143399Y555353D01*
X143400Y555351D01*
X146966Y555372D01*
G37*
G36*
X497566Y555372D02*
X497566Y555372D01*
X497573Y555377D01*
X497577Y555373D01*
X497836Y555435D01*
X497840Y555440D01*
X497844Y555437D01*
X498091Y555539D01*
X498094Y555545D01*
X498098Y555543D01*
X498325Y555683D01*
X498327Y555688D01*
X498331Y555688D01*
X498534Y555861D01*
X498535Y555866D01*
X498540Y555866D01*
X498713Y556069D01*
X498713Y556075D01*
X498717Y556075D01*
X498857Y556302D01*
X498856Y556308D01*
X498861Y556309D01*
X498963Y556556D01*
X498961Y556562D01*
X498965Y556564D01*
X499027Y556823D01*
X499025Y556828D01*
X499028Y556830D01*
X499049Y557096D01*
X499047Y557099D01*
X499049Y557100D01*
X499049Y574400D01*
X499047Y574402D01*
X499049Y574404D01*
X499028Y574670D01*
X499024Y574674D01*
X499027Y574677D01*
X498965Y574936D01*
X498960Y574940D01*
X498963Y574944D01*
X498861Y575191D01*
X498855Y575194D01*
X498857Y575198D01*
X498717Y575425D01*
X498712Y575427D01*
X498713Y575431D01*
X498540Y575634D01*
X498534Y575635D01*
X498534Y575640D01*
X498331Y575813D01*
X498325Y575813D01*
X498325Y575817D01*
X498098Y575957D01*
X498092Y575956D01*
X498091Y575961D01*
X497844Y576063D01*
X497838Y576061D01*
X497836Y576065D01*
X497577Y576127D01*
X497572Y576125D01*
X497570Y576128D01*
X497304Y576149D01*
X497301Y576147D01*
X497300Y576149D01*
X493734Y576128D01*
X493727Y576123D01*
X493723Y576127D01*
X493464Y576065D01*
X493460Y576060D01*
X493456Y576063D01*
X493209Y575961D01*
X493206Y575955D01*
X493202Y575957D01*
X492975Y575817D01*
X492973Y575812D01*
X492969Y575813D01*
X492766Y575640D01*
X492765Y575634D01*
X492761Y575634D01*
X492588Y575431D01*
X492587Y575425D01*
X492583Y575425D01*
X492443Y575198D01*
X492444Y575192D01*
X492439Y575191D01*
X492337Y574944D01*
X492339Y574938D01*
X492335Y574936D01*
X492273Y574677D01*
X492275Y574672D01*
X492272Y574670D01*
X492251Y574404D01*
X492253Y574401D01*
X492251Y574400D01*
X492251Y557100D01*
X492253Y557098D01*
X492251Y557096D01*
X492272Y556830D01*
X492276Y556826D01*
X492273Y556823D01*
X492335Y556564D01*
X492340Y556560D01*
X492337Y556556D01*
X492439Y556309D01*
X492445Y556306D01*
X492443Y556302D01*
X492583Y556075D01*
X492588Y556073D01*
X492588Y556069D01*
X492761Y555866D01*
X492766Y555865D01*
X492766Y555861D01*
X492969Y555688D01*
X492975Y555687D01*
X492975Y555683D01*
X493202Y555543D01*
X493208Y555544D01*
X493209Y555539D01*
X493456Y555437D01*
X493462Y555439D01*
X493464Y555435D01*
X493723Y555373D01*
X493728Y555375D01*
X493730Y555372D01*
X493996Y555351D01*
X493999Y555353D01*
X494000Y555351D01*
X497566Y555372D01*
G37*
G36*
X108866Y555372D02*
X108866Y555372D01*
X108873Y555377D01*
X108877Y555373D01*
X109136Y555435D01*
X109140Y555440D01*
X109144Y555437D01*
X109391Y555539D01*
X109394Y555545D01*
X109398Y555543D01*
X109625Y555683D01*
X109627Y555688D01*
X109631Y555688D01*
X109834Y555861D01*
X109835Y555866D01*
X109840Y555866D01*
X110013Y556069D01*
X110013Y556075D01*
X110017Y556075D01*
X110157Y556302D01*
X110156Y556308D01*
X110161Y556309D01*
X110263Y556556D01*
X110261Y556562D01*
X110265Y556564D01*
X110327Y556823D01*
X110325Y556828D01*
X110328Y556830D01*
X110349Y557096D01*
X110347Y557099D01*
X110349Y557100D01*
X110349Y574400D01*
X110347Y574402D01*
X110349Y574404D01*
X110328Y574670D01*
X110324Y574674D01*
X110327Y574677D01*
X110265Y574936D01*
X110260Y574940D01*
X110263Y574944D01*
X110161Y575191D01*
X110155Y575194D01*
X110157Y575198D01*
X110017Y575425D01*
X110012Y575427D01*
X110013Y575431D01*
X109840Y575634D01*
X109834Y575635D01*
X109834Y575640D01*
X109631Y575813D01*
X109625Y575813D01*
X109625Y575817D01*
X109398Y575957D01*
X109392Y575956D01*
X109391Y575961D01*
X109144Y576063D01*
X109138Y576061D01*
X109136Y576065D01*
X108877Y576127D01*
X108872Y576125D01*
X108870Y576128D01*
X108604Y576149D01*
X108601Y576147D01*
X108600Y576149D01*
X105034Y576128D01*
X105027Y576123D01*
X105023Y576127D01*
X104764Y576065D01*
X104760Y576060D01*
X104756Y576063D01*
X104509Y575961D01*
X104506Y575955D01*
X104502Y575957D01*
X104275Y575817D01*
X104273Y575812D01*
X104269Y575813D01*
X104066Y575640D01*
X104065Y575634D01*
X104061Y575634D01*
X103888Y575431D01*
X103887Y575425D01*
X103883Y575425D01*
X103743Y575198D01*
X103744Y575192D01*
X103739Y575191D01*
X103637Y574944D01*
X103639Y574938D01*
X103635Y574936D01*
X103573Y574677D01*
X103575Y574672D01*
X103572Y574670D01*
X103551Y574404D01*
X103553Y574401D01*
X103551Y574400D01*
X103551Y557100D01*
X103553Y557098D01*
X103551Y557096D01*
X103572Y556830D01*
X103576Y556826D01*
X103573Y556823D01*
X103635Y556564D01*
X103640Y556560D01*
X103637Y556556D01*
X103739Y556309D01*
X103745Y556306D01*
X103743Y556302D01*
X103883Y556075D01*
X103888Y556073D01*
X103888Y556069D01*
X104061Y555866D01*
X104066Y555865D01*
X104066Y555861D01*
X104269Y555688D01*
X104275Y555687D01*
X104275Y555683D01*
X104502Y555543D01*
X104508Y555544D01*
X104509Y555539D01*
X104756Y555437D01*
X104762Y555439D01*
X104764Y555435D01*
X105023Y555373D01*
X105028Y555375D01*
X105030Y555372D01*
X105296Y555351D01*
X105299Y555353D01*
X105300Y555351D01*
X108866Y555372D01*
G37*
G36*
X522966Y555372D02*
X522966Y555372D01*
X522973Y555377D01*
X522977Y555373D01*
X523236Y555435D01*
X523240Y555440D01*
X523244Y555437D01*
X523491Y555539D01*
X523494Y555545D01*
X523498Y555543D01*
X523725Y555683D01*
X523727Y555688D01*
X523731Y555688D01*
X523934Y555861D01*
X523935Y555866D01*
X523940Y555866D01*
X524113Y556069D01*
X524113Y556075D01*
X524117Y556075D01*
X524257Y556302D01*
X524256Y556308D01*
X524261Y556309D01*
X524363Y556556D01*
X524361Y556562D01*
X524365Y556564D01*
X524427Y556823D01*
X524425Y556828D01*
X524428Y556830D01*
X524449Y557096D01*
X524447Y557099D01*
X524449Y557100D01*
X524449Y574400D01*
X524447Y574402D01*
X524449Y574404D01*
X524428Y574670D01*
X524424Y574674D01*
X524427Y574677D01*
X524365Y574936D01*
X524360Y574940D01*
X524363Y574944D01*
X524261Y575191D01*
X524255Y575194D01*
X524257Y575198D01*
X524117Y575425D01*
X524112Y575427D01*
X524113Y575431D01*
X523940Y575634D01*
X523934Y575635D01*
X523934Y575640D01*
X523731Y575813D01*
X523725Y575813D01*
X523725Y575817D01*
X523498Y575957D01*
X523492Y575956D01*
X523491Y575961D01*
X523244Y576063D01*
X523238Y576061D01*
X523236Y576065D01*
X522977Y576127D01*
X522972Y576125D01*
X522970Y576128D01*
X522704Y576149D01*
X522701Y576147D01*
X522700Y576149D01*
X519134Y576128D01*
X519127Y576123D01*
X519123Y576127D01*
X518864Y576065D01*
X518860Y576060D01*
X518856Y576063D01*
X518609Y575961D01*
X518606Y575955D01*
X518602Y575957D01*
X518375Y575817D01*
X518373Y575812D01*
X518369Y575813D01*
X518166Y575640D01*
X518165Y575634D01*
X518161Y575634D01*
X517988Y575431D01*
X517987Y575425D01*
X517983Y575425D01*
X517843Y575198D01*
X517844Y575192D01*
X517839Y575191D01*
X517737Y574944D01*
X517739Y574938D01*
X517735Y574936D01*
X517673Y574677D01*
X517675Y574672D01*
X517672Y574670D01*
X517651Y574404D01*
X517653Y574401D01*
X517651Y574400D01*
X517651Y557100D01*
X517653Y557098D01*
X517651Y557096D01*
X517672Y556830D01*
X517676Y556826D01*
X517673Y556823D01*
X517735Y556564D01*
X517740Y556560D01*
X517737Y556556D01*
X517839Y556309D01*
X517845Y556306D01*
X517843Y556302D01*
X517983Y556075D01*
X517988Y556073D01*
X517988Y556069D01*
X518161Y555866D01*
X518166Y555865D01*
X518166Y555861D01*
X518369Y555688D01*
X518375Y555687D01*
X518375Y555683D01*
X518602Y555543D01*
X518608Y555544D01*
X518609Y555539D01*
X518856Y555437D01*
X518862Y555439D01*
X518864Y555435D01*
X519123Y555373D01*
X519128Y555375D01*
X519130Y555372D01*
X519396Y555351D01*
X519399Y555353D01*
X519400Y555351D01*
X522966Y555372D01*
G37*
G36*
X621566Y555372D02*
X621566Y555372D01*
X621573Y555377D01*
X621577Y555373D01*
X621836Y555435D01*
X621840Y555440D01*
X621844Y555437D01*
X622091Y555539D01*
X622094Y555545D01*
X622098Y555543D01*
X622325Y555683D01*
X622327Y555688D01*
X622331Y555688D01*
X622534Y555861D01*
X622535Y555866D01*
X622540Y555866D01*
X622713Y556069D01*
X622713Y556075D01*
X622717Y556075D01*
X622857Y556302D01*
X622856Y556308D01*
X622861Y556309D01*
X622963Y556556D01*
X622961Y556562D01*
X622965Y556564D01*
X623027Y556823D01*
X623025Y556828D01*
X623028Y556830D01*
X623049Y557096D01*
X623047Y557099D01*
X623049Y557100D01*
X623049Y574400D01*
X623047Y574402D01*
X623049Y574404D01*
X623028Y574670D01*
X623024Y574674D01*
X623027Y574677D01*
X622965Y574936D01*
X622960Y574940D01*
X622963Y574944D01*
X622861Y575191D01*
X622855Y575194D01*
X622857Y575198D01*
X622717Y575425D01*
X622712Y575427D01*
X622713Y575431D01*
X622540Y575634D01*
X622534Y575635D01*
X622534Y575640D01*
X622331Y575813D01*
X622325Y575813D01*
X622325Y575817D01*
X622098Y575957D01*
X622092Y575956D01*
X622091Y575961D01*
X621844Y576063D01*
X621838Y576061D01*
X621836Y576065D01*
X621577Y576127D01*
X621572Y576125D01*
X621570Y576128D01*
X621304Y576149D01*
X621301Y576147D01*
X621300Y576149D01*
X617734Y576128D01*
X617727Y576123D01*
X617723Y576127D01*
X617464Y576065D01*
X617460Y576060D01*
X617456Y576063D01*
X617209Y575961D01*
X617206Y575955D01*
X617202Y575957D01*
X616975Y575817D01*
X616973Y575812D01*
X616969Y575813D01*
X616766Y575640D01*
X616765Y575634D01*
X616761Y575634D01*
X616588Y575431D01*
X616587Y575425D01*
X616583Y575425D01*
X616443Y575198D01*
X616444Y575192D01*
X616439Y575191D01*
X616337Y574944D01*
X616339Y574938D01*
X616335Y574936D01*
X616273Y574677D01*
X616275Y574672D01*
X616272Y574670D01*
X616251Y574404D01*
X616253Y574401D01*
X616251Y574400D01*
X616251Y557100D01*
X616253Y557098D01*
X616251Y557096D01*
X616272Y556830D01*
X616276Y556826D01*
X616273Y556823D01*
X616335Y556564D01*
X616340Y556560D01*
X616337Y556556D01*
X616439Y556309D01*
X616445Y556306D01*
X616443Y556302D01*
X616583Y556075D01*
X616588Y556073D01*
X616588Y556069D01*
X616761Y555866D01*
X616766Y555865D01*
X616766Y555861D01*
X616969Y555688D01*
X616975Y555687D01*
X616975Y555683D01*
X617202Y555543D01*
X617208Y555544D01*
X617209Y555539D01*
X617456Y555437D01*
X617462Y555439D01*
X617464Y555435D01*
X617723Y555373D01*
X617728Y555375D01*
X617730Y555372D01*
X617996Y555351D01*
X617999Y555353D01*
X618000Y555351D01*
X621566Y555372D01*
G37*
G36*
X646966Y555372D02*
X646966Y555372D01*
X646973Y555377D01*
X646977Y555373D01*
X647236Y555435D01*
X647240Y555440D01*
X647244Y555437D01*
X647491Y555539D01*
X647494Y555545D01*
X647498Y555543D01*
X647725Y555683D01*
X647727Y555688D01*
X647731Y555688D01*
X647934Y555861D01*
X647935Y555866D01*
X647940Y555866D01*
X648113Y556069D01*
X648113Y556075D01*
X648117Y556075D01*
X648257Y556302D01*
X648256Y556308D01*
X648261Y556309D01*
X648363Y556556D01*
X648361Y556562D01*
X648365Y556564D01*
X648427Y556823D01*
X648425Y556828D01*
X648428Y556830D01*
X648449Y557096D01*
X648447Y557099D01*
X648449Y557100D01*
X648449Y574400D01*
X648447Y574402D01*
X648449Y574404D01*
X648428Y574670D01*
X648424Y574674D01*
X648427Y574677D01*
X648365Y574936D01*
X648360Y574940D01*
X648363Y574944D01*
X648261Y575191D01*
X648255Y575194D01*
X648257Y575198D01*
X648117Y575425D01*
X648112Y575427D01*
X648113Y575431D01*
X647940Y575634D01*
X647934Y575635D01*
X647934Y575640D01*
X647731Y575813D01*
X647725Y575813D01*
X647725Y575817D01*
X647498Y575957D01*
X647492Y575956D01*
X647491Y575961D01*
X647244Y576063D01*
X647238Y576061D01*
X647236Y576065D01*
X646977Y576127D01*
X646972Y576125D01*
X646970Y576128D01*
X646704Y576149D01*
X646701Y576147D01*
X646700Y576149D01*
X643134Y576128D01*
X643127Y576123D01*
X643123Y576127D01*
X642864Y576065D01*
X642860Y576060D01*
X642856Y576063D01*
X642609Y575961D01*
X642606Y575955D01*
X642602Y575957D01*
X642375Y575817D01*
X642373Y575812D01*
X642369Y575813D01*
X642166Y575640D01*
X642165Y575634D01*
X642161Y575634D01*
X641988Y575431D01*
X641987Y575425D01*
X641983Y575425D01*
X641843Y575198D01*
X641844Y575192D01*
X641839Y575191D01*
X641737Y574944D01*
X641739Y574938D01*
X641735Y574936D01*
X641673Y574677D01*
X641675Y574672D01*
X641672Y574670D01*
X641651Y574404D01*
X641653Y574401D01*
X641651Y574400D01*
X641651Y557100D01*
X641653Y557098D01*
X641651Y557096D01*
X641672Y556830D01*
X641676Y556826D01*
X641673Y556823D01*
X641735Y556564D01*
X641740Y556560D01*
X641737Y556556D01*
X641839Y556309D01*
X641845Y556306D01*
X641843Y556302D01*
X641983Y556075D01*
X641988Y556073D01*
X641988Y556069D01*
X642161Y555866D01*
X642166Y555865D01*
X642166Y555861D01*
X642369Y555688D01*
X642375Y555687D01*
X642375Y555683D01*
X642602Y555543D01*
X642608Y555544D01*
X642609Y555539D01*
X642856Y555437D01*
X642862Y555439D01*
X642864Y555435D01*
X643123Y555373D01*
X643128Y555375D01*
X643130Y555372D01*
X643396Y555351D01*
X643399Y555353D01*
X643400Y555351D01*
X646966Y555372D01*
G37*
G36*
X371566Y555372D02*
X371566Y555372D01*
X371573Y555377D01*
X371577Y555373D01*
X371836Y555435D01*
X371840Y555440D01*
X371844Y555437D01*
X372091Y555539D01*
X372094Y555545D01*
X372098Y555543D01*
X372325Y555683D01*
X372327Y555688D01*
X372331Y555688D01*
X372534Y555861D01*
X372535Y555866D01*
X372540Y555866D01*
X372713Y556069D01*
X372713Y556075D01*
X372717Y556075D01*
X372857Y556302D01*
X372856Y556308D01*
X372861Y556309D01*
X372963Y556556D01*
X372961Y556562D01*
X372965Y556564D01*
X373027Y556823D01*
X373025Y556828D01*
X373028Y556830D01*
X373049Y557096D01*
X373047Y557099D01*
X373049Y557100D01*
X373049Y574400D01*
X373047Y574402D01*
X373049Y574404D01*
X373028Y574670D01*
X373024Y574674D01*
X373027Y574677D01*
X372965Y574936D01*
X372960Y574940D01*
X372963Y574944D01*
X372861Y575191D01*
X372855Y575194D01*
X372857Y575198D01*
X372717Y575425D01*
X372712Y575427D01*
X372713Y575431D01*
X372540Y575634D01*
X372534Y575635D01*
X372534Y575640D01*
X372331Y575813D01*
X372325Y575813D01*
X372325Y575817D01*
X372098Y575957D01*
X372092Y575956D01*
X372091Y575961D01*
X371844Y576063D01*
X371838Y576061D01*
X371836Y576065D01*
X371577Y576127D01*
X371572Y576125D01*
X371570Y576128D01*
X371304Y576149D01*
X371301Y576147D01*
X371300Y576149D01*
X367734Y576128D01*
X367727Y576123D01*
X367723Y576127D01*
X367464Y576065D01*
X367460Y576060D01*
X367456Y576063D01*
X367209Y575961D01*
X367206Y575955D01*
X367202Y575957D01*
X366975Y575817D01*
X366973Y575812D01*
X366969Y575813D01*
X366766Y575640D01*
X366765Y575634D01*
X366761Y575634D01*
X366588Y575431D01*
X366587Y575425D01*
X366583Y575425D01*
X366443Y575198D01*
X366444Y575192D01*
X366439Y575191D01*
X366337Y574944D01*
X366339Y574938D01*
X366335Y574936D01*
X366273Y574677D01*
X366275Y574672D01*
X366272Y574670D01*
X366251Y574404D01*
X366253Y574401D01*
X366251Y574400D01*
X366251Y557100D01*
X366253Y557098D01*
X366251Y557096D01*
X366272Y556830D01*
X366276Y556826D01*
X366273Y556823D01*
X366335Y556564D01*
X366340Y556560D01*
X366337Y556556D01*
X366439Y556309D01*
X366445Y556306D01*
X366443Y556302D01*
X366583Y556075D01*
X366588Y556073D01*
X366588Y556069D01*
X366761Y555866D01*
X366766Y555865D01*
X366766Y555861D01*
X366969Y555688D01*
X366975Y555687D01*
X366975Y555683D01*
X367202Y555543D01*
X367208Y555544D01*
X367209Y555539D01*
X367456Y555437D01*
X367462Y555439D01*
X367464Y555435D01*
X367723Y555373D01*
X367728Y555375D01*
X367730Y555372D01*
X367996Y555351D01*
X367999Y555353D01*
X368000Y555351D01*
X371566Y555372D01*
G37*
G36*
X772966Y555372D02*
X772966Y555372D01*
X772973Y555377D01*
X772977Y555373D01*
X773236Y555435D01*
X773240Y555440D01*
X773244Y555437D01*
X773491Y555539D01*
X773494Y555545D01*
X773498Y555543D01*
X773725Y555683D01*
X773727Y555688D01*
X773731Y555688D01*
X773934Y555861D01*
X773935Y555866D01*
X773940Y555866D01*
X774113Y556069D01*
X774113Y556075D01*
X774117Y556075D01*
X774257Y556302D01*
X774256Y556308D01*
X774261Y556309D01*
X774363Y556556D01*
X774361Y556562D01*
X774365Y556564D01*
X774427Y556823D01*
X774425Y556828D01*
X774428Y556830D01*
X774449Y557096D01*
X774447Y557099D01*
X774449Y557100D01*
X774449Y574400D01*
X774447Y574402D01*
X774449Y574404D01*
X774428Y574670D01*
X774424Y574674D01*
X774427Y574677D01*
X774365Y574936D01*
X774360Y574940D01*
X774363Y574944D01*
X774261Y575191D01*
X774255Y575194D01*
X774257Y575198D01*
X774117Y575425D01*
X774112Y575427D01*
X774113Y575431D01*
X773940Y575634D01*
X773934Y575635D01*
X773934Y575640D01*
X773731Y575813D01*
X773725Y575813D01*
X773725Y575817D01*
X773498Y575957D01*
X773492Y575956D01*
X773491Y575961D01*
X773244Y576063D01*
X773238Y576061D01*
X773236Y576065D01*
X772977Y576127D01*
X772972Y576125D01*
X772970Y576128D01*
X772704Y576149D01*
X772701Y576147D01*
X772700Y576149D01*
X769134Y576128D01*
X769127Y576123D01*
X769123Y576127D01*
X768864Y576065D01*
X768860Y576060D01*
X768856Y576063D01*
X768609Y575961D01*
X768606Y575955D01*
X768602Y575957D01*
X768375Y575817D01*
X768373Y575812D01*
X768369Y575813D01*
X768166Y575640D01*
X768165Y575634D01*
X768161Y575634D01*
X767988Y575431D01*
X767987Y575425D01*
X767983Y575425D01*
X767843Y575198D01*
X767844Y575192D01*
X767839Y575191D01*
X767737Y574944D01*
X767739Y574938D01*
X767735Y574936D01*
X767673Y574677D01*
X767675Y574672D01*
X767672Y574670D01*
X767651Y574404D01*
X767653Y574401D01*
X767651Y574400D01*
X767651Y557100D01*
X767653Y557098D01*
X767651Y557096D01*
X767672Y556830D01*
X767676Y556826D01*
X767673Y556823D01*
X767735Y556564D01*
X767740Y556560D01*
X767737Y556556D01*
X767839Y556309D01*
X767845Y556306D01*
X767843Y556302D01*
X767983Y556075D01*
X767988Y556073D01*
X767988Y556069D01*
X768161Y555866D01*
X768166Y555865D01*
X768166Y555861D01*
X768369Y555688D01*
X768375Y555687D01*
X768375Y555683D01*
X768602Y555543D01*
X768608Y555544D01*
X768609Y555539D01*
X768856Y555437D01*
X768862Y555439D01*
X768864Y555435D01*
X769123Y555373D01*
X769128Y555375D01*
X769130Y555372D01*
X769396Y555351D01*
X769399Y555353D01*
X769400Y555351D01*
X772966Y555372D01*
G37*
G36*
X358866Y555372D02*
X358866Y555372D01*
X358873Y555377D01*
X358877Y555373D01*
X359136Y555435D01*
X359140Y555440D01*
X359144Y555437D01*
X359391Y555539D01*
X359394Y555545D01*
X359398Y555543D01*
X359625Y555683D01*
X359627Y555688D01*
X359631Y555688D01*
X359834Y555861D01*
X359835Y555866D01*
X359840Y555866D01*
X360013Y556069D01*
X360013Y556075D01*
X360017Y556075D01*
X360157Y556302D01*
X360156Y556308D01*
X360161Y556309D01*
X360263Y556556D01*
X360261Y556562D01*
X360265Y556564D01*
X360327Y556823D01*
X360325Y556828D01*
X360328Y556830D01*
X360349Y557096D01*
X360347Y557099D01*
X360349Y557100D01*
X360349Y574400D01*
X360347Y574402D01*
X360349Y574404D01*
X360328Y574670D01*
X360324Y574674D01*
X360327Y574677D01*
X360265Y574936D01*
X360260Y574940D01*
X360263Y574944D01*
X360161Y575191D01*
X360155Y575194D01*
X360157Y575198D01*
X360017Y575425D01*
X360012Y575427D01*
X360013Y575431D01*
X359840Y575634D01*
X359834Y575635D01*
X359834Y575640D01*
X359631Y575813D01*
X359625Y575813D01*
X359625Y575817D01*
X359398Y575957D01*
X359392Y575956D01*
X359391Y575961D01*
X359144Y576063D01*
X359138Y576061D01*
X359136Y576065D01*
X358877Y576127D01*
X358872Y576125D01*
X358870Y576128D01*
X358604Y576149D01*
X358601Y576147D01*
X358600Y576149D01*
X355034Y576128D01*
X355027Y576123D01*
X355023Y576127D01*
X354764Y576065D01*
X354760Y576060D01*
X354756Y576063D01*
X354509Y575961D01*
X354506Y575955D01*
X354502Y575957D01*
X354275Y575817D01*
X354273Y575812D01*
X354269Y575813D01*
X354066Y575640D01*
X354065Y575634D01*
X354061Y575634D01*
X353888Y575431D01*
X353887Y575425D01*
X353883Y575425D01*
X353743Y575198D01*
X353744Y575192D01*
X353739Y575191D01*
X353637Y574944D01*
X353639Y574938D01*
X353635Y574936D01*
X353573Y574677D01*
X353575Y574672D01*
X353572Y574670D01*
X353551Y574404D01*
X353553Y574401D01*
X353551Y574400D01*
X353551Y557100D01*
X353553Y557098D01*
X353551Y557096D01*
X353572Y556830D01*
X353576Y556826D01*
X353573Y556823D01*
X353635Y556564D01*
X353640Y556560D01*
X353637Y556556D01*
X353739Y556309D01*
X353745Y556306D01*
X353743Y556302D01*
X353883Y556075D01*
X353888Y556073D01*
X353888Y556069D01*
X354061Y555866D01*
X354066Y555865D01*
X354066Y555861D01*
X354269Y555688D01*
X354275Y555687D01*
X354275Y555683D01*
X354502Y555543D01*
X354508Y555544D01*
X354509Y555539D01*
X354756Y555437D01*
X354762Y555439D01*
X354764Y555435D01*
X355023Y555373D01*
X355028Y555375D01*
X355030Y555372D01*
X355296Y555351D01*
X355299Y555353D01*
X355300Y555351D01*
X358866Y555372D01*
G37*
G36*
X608866Y555372D02*
X608866Y555372D01*
X608873Y555377D01*
X608877Y555373D01*
X609136Y555435D01*
X609140Y555440D01*
X609144Y555437D01*
X609391Y555539D01*
X609394Y555545D01*
X609398Y555543D01*
X609625Y555683D01*
X609627Y555688D01*
X609631Y555688D01*
X609834Y555861D01*
X609835Y555866D01*
X609840Y555866D01*
X610013Y556069D01*
X610013Y556075D01*
X610017Y556075D01*
X610157Y556302D01*
X610156Y556308D01*
X610161Y556309D01*
X610263Y556556D01*
X610261Y556562D01*
X610265Y556564D01*
X610327Y556823D01*
X610325Y556828D01*
X610328Y556830D01*
X610349Y557096D01*
X610347Y557099D01*
X610349Y557100D01*
X610349Y574400D01*
X610347Y574402D01*
X610349Y574404D01*
X610328Y574670D01*
X610324Y574674D01*
X610327Y574677D01*
X610265Y574936D01*
X610260Y574940D01*
X610263Y574944D01*
X610161Y575191D01*
X610155Y575194D01*
X610157Y575198D01*
X610017Y575425D01*
X610012Y575427D01*
X610013Y575431D01*
X609840Y575634D01*
X609834Y575635D01*
X609834Y575640D01*
X609631Y575813D01*
X609625Y575813D01*
X609625Y575817D01*
X609398Y575957D01*
X609392Y575956D01*
X609391Y575961D01*
X609144Y576063D01*
X609138Y576061D01*
X609136Y576065D01*
X608877Y576127D01*
X608872Y576125D01*
X608870Y576128D01*
X608604Y576149D01*
X608601Y576147D01*
X608600Y576149D01*
X605034Y576128D01*
X605027Y576123D01*
X605023Y576127D01*
X604764Y576065D01*
X604760Y576060D01*
X604756Y576063D01*
X604509Y575961D01*
X604506Y575955D01*
X604502Y575957D01*
X604275Y575817D01*
X604273Y575812D01*
X604269Y575813D01*
X604066Y575640D01*
X604065Y575634D01*
X604061Y575634D01*
X603888Y575431D01*
X603887Y575425D01*
X603883Y575425D01*
X603743Y575198D01*
X603744Y575192D01*
X603739Y575191D01*
X603637Y574944D01*
X603639Y574938D01*
X603635Y574936D01*
X603573Y574677D01*
X603575Y574672D01*
X603572Y574670D01*
X603551Y574404D01*
X603553Y574401D01*
X603551Y574400D01*
X603551Y557100D01*
X603553Y557098D01*
X603551Y557096D01*
X603572Y556830D01*
X603576Y556826D01*
X603573Y556823D01*
X603635Y556564D01*
X603640Y556560D01*
X603637Y556556D01*
X603739Y556309D01*
X603745Y556306D01*
X603743Y556302D01*
X603883Y556075D01*
X603888Y556073D01*
X603888Y556069D01*
X604061Y555866D01*
X604066Y555865D01*
X604066Y555861D01*
X604269Y555688D01*
X604275Y555687D01*
X604275Y555683D01*
X604502Y555543D01*
X604508Y555544D01*
X604509Y555539D01*
X604756Y555437D01*
X604762Y555439D01*
X604764Y555435D01*
X605023Y555373D01*
X605028Y555375D01*
X605030Y555372D01*
X605296Y555351D01*
X605299Y555353D01*
X605300Y555351D01*
X608866Y555372D01*
G37*
G36*
X258266Y555372D02*
X258266Y555372D01*
X258273Y555377D01*
X258277Y555373D01*
X258536Y555435D01*
X258540Y555440D01*
X258544Y555437D01*
X258791Y555539D01*
X258794Y555545D01*
X258798Y555543D01*
X259025Y555683D01*
X259027Y555688D01*
X259031Y555688D01*
X259234Y555861D01*
X259235Y555866D01*
X259240Y555866D01*
X259413Y556069D01*
X259413Y556075D01*
X259417Y556075D01*
X259557Y556302D01*
X259556Y556308D01*
X259561Y556309D01*
X259663Y556556D01*
X259661Y556562D01*
X259665Y556564D01*
X259727Y556823D01*
X259725Y556828D01*
X259728Y556830D01*
X259749Y557096D01*
X259747Y557099D01*
X259749Y557100D01*
X259749Y574400D01*
X259747Y574402D01*
X259749Y574404D01*
X259728Y574670D01*
X259724Y574674D01*
X259727Y574677D01*
X259665Y574936D01*
X259660Y574940D01*
X259663Y574944D01*
X259561Y575191D01*
X259555Y575194D01*
X259557Y575198D01*
X259417Y575425D01*
X259412Y575427D01*
X259413Y575431D01*
X259240Y575634D01*
X259234Y575635D01*
X259234Y575640D01*
X259031Y575813D01*
X259025Y575813D01*
X259025Y575817D01*
X258798Y575957D01*
X258792Y575956D01*
X258791Y575961D01*
X258544Y576063D01*
X258538Y576061D01*
X258536Y576065D01*
X258277Y576127D01*
X258272Y576125D01*
X258270Y576128D01*
X258004Y576149D01*
X258001Y576147D01*
X258000Y576149D01*
X254434Y576128D01*
X254427Y576123D01*
X254423Y576127D01*
X254164Y576065D01*
X254160Y576060D01*
X254156Y576063D01*
X253909Y575961D01*
X253906Y575955D01*
X253902Y575957D01*
X253675Y575817D01*
X253673Y575812D01*
X253669Y575813D01*
X253466Y575640D01*
X253465Y575634D01*
X253461Y575634D01*
X253288Y575431D01*
X253287Y575425D01*
X253283Y575425D01*
X253143Y575198D01*
X253144Y575192D01*
X253139Y575191D01*
X253037Y574944D01*
X253039Y574938D01*
X253035Y574936D01*
X252973Y574677D01*
X252975Y574672D01*
X252972Y574670D01*
X252951Y574404D01*
X252953Y574401D01*
X252951Y574400D01*
X252951Y557100D01*
X252953Y557098D01*
X252951Y557096D01*
X252972Y556830D01*
X252976Y556826D01*
X252973Y556823D01*
X253035Y556564D01*
X253040Y556560D01*
X253037Y556556D01*
X253139Y556309D01*
X253145Y556306D01*
X253143Y556302D01*
X253283Y556075D01*
X253288Y556073D01*
X253288Y556069D01*
X253461Y555866D01*
X253466Y555865D01*
X253466Y555861D01*
X253669Y555688D01*
X253675Y555687D01*
X253675Y555683D01*
X253902Y555543D01*
X253908Y555544D01*
X253909Y555539D01*
X254156Y555437D01*
X254162Y555439D01*
X254164Y555435D01*
X254423Y555373D01*
X254428Y555375D01*
X254430Y555372D01*
X254696Y555351D01*
X254699Y555353D01*
X254700Y555351D01*
X258266Y555372D01*
G37*
G36*
X384266Y555372D02*
X384266Y555372D01*
X384273Y555377D01*
X384277Y555373D01*
X384536Y555435D01*
X384540Y555440D01*
X384544Y555437D01*
X384791Y555539D01*
X384794Y555545D01*
X384798Y555543D01*
X385025Y555683D01*
X385027Y555688D01*
X385031Y555688D01*
X385234Y555861D01*
X385235Y555866D01*
X385240Y555866D01*
X385413Y556069D01*
X385413Y556075D01*
X385417Y556075D01*
X385557Y556302D01*
X385556Y556308D01*
X385561Y556309D01*
X385663Y556556D01*
X385661Y556562D01*
X385665Y556564D01*
X385727Y556823D01*
X385725Y556828D01*
X385728Y556830D01*
X385749Y557096D01*
X385747Y557099D01*
X385749Y557100D01*
X385749Y574400D01*
X385747Y574402D01*
X385749Y574404D01*
X385728Y574670D01*
X385724Y574674D01*
X385727Y574677D01*
X385665Y574936D01*
X385660Y574940D01*
X385663Y574944D01*
X385561Y575191D01*
X385555Y575194D01*
X385557Y575198D01*
X385417Y575425D01*
X385412Y575427D01*
X385413Y575431D01*
X385240Y575634D01*
X385234Y575635D01*
X385234Y575640D01*
X385031Y575813D01*
X385025Y575813D01*
X385025Y575817D01*
X384798Y575957D01*
X384792Y575956D01*
X384791Y575961D01*
X384544Y576063D01*
X384538Y576061D01*
X384536Y576065D01*
X384277Y576127D01*
X384272Y576125D01*
X384270Y576128D01*
X384004Y576149D01*
X384001Y576147D01*
X384000Y576149D01*
X380434Y576128D01*
X380427Y576123D01*
X380423Y576127D01*
X380164Y576065D01*
X380160Y576060D01*
X380156Y576063D01*
X379909Y575961D01*
X379906Y575955D01*
X379902Y575957D01*
X379675Y575817D01*
X379673Y575812D01*
X379669Y575813D01*
X379466Y575640D01*
X379465Y575634D01*
X379461Y575634D01*
X379288Y575431D01*
X379287Y575425D01*
X379283Y575425D01*
X379143Y575198D01*
X379144Y575192D01*
X379139Y575191D01*
X379037Y574944D01*
X379039Y574938D01*
X379035Y574936D01*
X378973Y574677D01*
X378975Y574672D01*
X378972Y574670D01*
X378951Y574404D01*
X378953Y574401D01*
X378951Y574400D01*
X378951Y557100D01*
X378953Y557098D01*
X378951Y557096D01*
X378972Y556830D01*
X378976Y556826D01*
X378973Y556823D01*
X379035Y556564D01*
X379040Y556560D01*
X379037Y556556D01*
X379139Y556309D01*
X379145Y556306D01*
X379143Y556302D01*
X379283Y556075D01*
X379288Y556073D01*
X379288Y556069D01*
X379461Y555866D01*
X379466Y555865D01*
X379466Y555861D01*
X379669Y555688D01*
X379675Y555687D01*
X379675Y555683D01*
X379902Y555543D01*
X379908Y555544D01*
X379909Y555539D01*
X380156Y555437D01*
X380162Y555439D01*
X380164Y555435D01*
X380423Y555373D01*
X380428Y555375D01*
X380430Y555372D01*
X380696Y555351D01*
X380699Y555353D01*
X380700Y555351D01*
X384266Y555372D01*
G37*
G36*
X270966Y555372D02*
X270966Y555372D01*
X270973Y555377D01*
X270977Y555373D01*
X271236Y555435D01*
X271240Y555440D01*
X271244Y555437D01*
X271491Y555539D01*
X271494Y555545D01*
X271498Y555543D01*
X271725Y555683D01*
X271727Y555688D01*
X271731Y555688D01*
X271934Y555861D01*
X271935Y555866D01*
X271940Y555866D01*
X272113Y556069D01*
X272113Y556075D01*
X272117Y556075D01*
X272257Y556302D01*
X272256Y556308D01*
X272261Y556309D01*
X272363Y556556D01*
X272361Y556562D01*
X272365Y556564D01*
X272427Y556823D01*
X272425Y556828D01*
X272428Y556830D01*
X272449Y557096D01*
X272447Y557099D01*
X272449Y557100D01*
X272449Y574400D01*
X272447Y574402D01*
X272449Y574404D01*
X272428Y574670D01*
X272424Y574674D01*
X272427Y574677D01*
X272365Y574936D01*
X272360Y574940D01*
X272363Y574944D01*
X272261Y575191D01*
X272255Y575194D01*
X272257Y575198D01*
X272117Y575425D01*
X272112Y575427D01*
X272113Y575431D01*
X271940Y575634D01*
X271934Y575635D01*
X271934Y575640D01*
X271731Y575813D01*
X271725Y575813D01*
X271725Y575817D01*
X271498Y575957D01*
X271492Y575956D01*
X271491Y575961D01*
X271244Y576063D01*
X271238Y576061D01*
X271236Y576065D01*
X270977Y576127D01*
X270972Y576125D01*
X270970Y576128D01*
X270704Y576149D01*
X270701Y576147D01*
X270700Y576149D01*
X267134Y576128D01*
X267127Y576123D01*
X267123Y576127D01*
X266864Y576065D01*
X266860Y576060D01*
X266856Y576063D01*
X266609Y575961D01*
X266606Y575955D01*
X266602Y575957D01*
X266375Y575817D01*
X266373Y575812D01*
X266369Y575813D01*
X266166Y575640D01*
X266165Y575634D01*
X266161Y575634D01*
X265988Y575431D01*
X265987Y575425D01*
X265983Y575425D01*
X265843Y575198D01*
X265844Y575192D01*
X265839Y575191D01*
X265737Y574944D01*
X265739Y574938D01*
X265735Y574936D01*
X265673Y574677D01*
X265675Y574672D01*
X265672Y574670D01*
X265651Y574404D01*
X265653Y574401D01*
X265651Y574400D01*
X265651Y557100D01*
X265653Y557098D01*
X265651Y557096D01*
X265672Y556830D01*
X265676Y556826D01*
X265673Y556823D01*
X265735Y556564D01*
X265740Y556560D01*
X265737Y556556D01*
X265839Y556309D01*
X265845Y556306D01*
X265843Y556302D01*
X265983Y556075D01*
X265988Y556073D01*
X265988Y556069D01*
X266161Y555866D01*
X266166Y555865D01*
X266166Y555861D01*
X266369Y555688D01*
X266375Y555687D01*
X266375Y555683D01*
X266602Y555543D01*
X266608Y555544D01*
X266609Y555539D01*
X266856Y555437D01*
X266862Y555439D01*
X266864Y555435D01*
X267123Y555373D01*
X267128Y555375D01*
X267130Y555372D01*
X267396Y555351D01*
X267399Y555353D01*
X267400Y555351D01*
X270966Y555372D01*
G37*
G36*
X510266Y555372D02*
X510266Y555372D01*
X510273Y555377D01*
X510277Y555373D01*
X510536Y555435D01*
X510540Y555440D01*
X510544Y555437D01*
X510791Y555539D01*
X510794Y555545D01*
X510798Y555543D01*
X511025Y555683D01*
X511027Y555688D01*
X511031Y555688D01*
X511234Y555861D01*
X511235Y555866D01*
X511240Y555866D01*
X511413Y556069D01*
X511413Y556075D01*
X511417Y556075D01*
X511557Y556302D01*
X511556Y556308D01*
X511561Y556309D01*
X511663Y556556D01*
X511661Y556562D01*
X511665Y556564D01*
X511727Y556823D01*
X511725Y556828D01*
X511728Y556830D01*
X511749Y557096D01*
X511747Y557099D01*
X511749Y557100D01*
X511749Y574400D01*
X511747Y574402D01*
X511749Y574404D01*
X511728Y574670D01*
X511724Y574674D01*
X511727Y574677D01*
X511665Y574936D01*
X511660Y574940D01*
X511663Y574944D01*
X511561Y575191D01*
X511555Y575194D01*
X511557Y575198D01*
X511417Y575425D01*
X511412Y575427D01*
X511413Y575431D01*
X511240Y575634D01*
X511234Y575635D01*
X511234Y575640D01*
X511031Y575813D01*
X511025Y575813D01*
X511025Y575817D01*
X510798Y575957D01*
X510792Y575956D01*
X510791Y575961D01*
X510544Y576063D01*
X510538Y576061D01*
X510536Y576065D01*
X510277Y576127D01*
X510272Y576125D01*
X510270Y576128D01*
X510004Y576149D01*
X510001Y576147D01*
X510000Y576149D01*
X506434Y576128D01*
X506427Y576123D01*
X506423Y576127D01*
X506164Y576065D01*
X506160Y576060D01*
X506156Y576063D01*
X505909Y575961D01*
X505906Y575955D01*
X505902Y575957D01*
X505675Y575817D01*
X505673Y575812D01*
X505669Y575813D01*
X505466Y575640D01*
X505465Y575634D01*
X505461Y575634D01*
X505288Y575431D01*
X505287Y575425D01*
X505283Y575425D01*
X505143Y575198D01*
X505144Y575192D01*
X505139Y575191D01*
X505037Y574944D01*
X505039Y574938D01*
X505035Y574936D01*
X504973Y574677D01*
X504975Y574672D01*
X504972Y574670D01*
X504951Y574404D01*
X504953Y574401D01*
X504951Y574400D01*
X504951Y557100D01*
X504953Y557098D01*
X504951Y557096D01*
X504972Y556830D01*
X504976Y556826D01*
X504973Y556823D01*
X505035Y556564D01*
X505040Y556560D01*
X505037Y556556D01*
X505139Y556309D01*
X505145Y556306D01*
X505143Y556302D01*
X505283Y556075D01*
X505288Y556073D01*
X505288Y556069D01*
X505461Y555866D01*
X505466Y555865D01*
X505466Y555861D01*
X505669Y555688D01*
X505675Y555687D01*
X505675Y555683D01*
X505902Y555543D01*
X505908Y555544D01*
X505909Y555539D01*
X506156Y555437D01*
X506162Y555439D01*
X506164Y555435D01*
X506423Y555373D01*
X506428Y555375D01*
X506430Y555372D01*
X506696Y555351D01*
X506699Y555353D01*
X506700Y555351D01*
X510266Y555372D01*
G37*
G36*
X747566Y555372D02*
X747566Y555372D01*
X747573Y555377D01*
X747577Y555373D01*
X747836Y555435D01*
X747840Y555440D01*
X747844Y555437D01*
X748091Y555539D01*
X748094Y555545D01*
X748098Y555543D01*
X748325Y555683D01*
X748327Y555688D01*
X748331Y555688D01*
X748534Y555861D01*
X748535Y555866D01*
X748540Y555866D01*
X748713Y556069D01*
X748713Y556075D01*
X748717Y556075D01*
X748857Y556302D01*
X748856Y556308D01*
X748861Y556309D01*
X748963Y556556D01*
X748961Y556562D01*
X748965Y556564D01*
X749027Y556823D01*
X749025Y556828D01*
X749028Y556830D01*
X749049Y557096D01*
X749047Y557099D01*
X749049Y557100D01*
X749049Y574400D01*
X749047Y574402D01*
X749049Y574404D01*
X749028Y574670D01*
X749024Y574674D01*
X749027Y574677D01*
X748965Y574936D01*
X748960Y574940D01*
X748963Y574944D01*
X748861Y575191D01*
X748855Y575194D01*
X748857Y575198D01*
X748717Y575425D01*
X748712Y575427D01*
X748713Y575431D01*
X748540Y575634D01*
X748534Y575635D01*
X748534Y575640D01*
X748331Y575813D01*
X748325Y575813D01*
X748325Y575817D01*
X748098Y575957D01*
X748092Y575956D01*
X748091Y575961D01*
X747844Y576063D01*
X747838Y576061D01*
X747836Y576065D01*
X747577Y576127D01*
X747572Y576125D01*
X747570Y576128D01*
X747304Y576149D01*
X747301Y576147D01*
X747300Y576149D01*
X743734Y576128D01*
X743727Y576123D01*
X743723Y576127D01*
X743464Y576065D01*
X743460Y576060D01*
X743456Y576063D01*
X743209Y575961D01*
X743206Y575955D01*
X743202Y575957D01*
X742975Y575817D01*
X742973Y575812D01*
X742969Y575813D01*
X742766Y575640D01*
X742765Y575634D01*
X742761Y575634D01*
X742588Y575431D01*
X742587Y575425D01*
X742583Y575425D01*
X742443Y575198D01*
X742444Y575192D01*
X742439Y575191D01*
X742337Y574944D01*
X742339Y574938D01*
X742335Y574936D01*
X742273Y574677D01*
X742275Y574672D01*
X742272Y574670D01*
X742251Y574404D01*
X742253Y574401D01*
X742251Y574400D01*
X742251Y557100D01*
X742253Y557098D01*
X742251Y557096D01*
X742272Y556830D01*
X742276Y556826D01*
X742273Y556823D01*
X742335Y556564D01*
X742340Y556560D01*
X742337Y556556D01*
X742439Y556309D01*
X742445Y556306D01*
X742443Y556302D01*
X742583Y556075D01*
X742588Y556073D01*
X742588Y556069D01*
X742761Y555866D01*
X742766Y555865D01*
X742766Y555861D01*
X742969Y555688D01*
X742975Y555687D01*
X742975Y555683D01*
X743202Y555543D01*
X743208Y555544D01*
X743209Y555539D01*
X743456Y555437D01*
X743462Y555439D01*
X743464Y555435D01*
X743723Y555373D01*
X743728Y555375D01*
X743730Y555372D01*
X743996Y555351D01*
X743999Y555353D01*
X744000Y555351D01*
X747566Y555372D01*
G37*
G36*
X634266Y555372D02*
X634266Y555372D01*
X634273Y555377D01*
X634277Y555373D01*
X634536Y555435D01*
X634540Y555440D01*
X634544Y555437D01*
X634791Y555539D01*
X634794Y555545D01*
X634798Y555543D01*
X635025Y555683D01*
X635027Y555688D01*
X635031Y555688D01*
X635234Y555861D01*
X635235Y555866D01*
X635240Y555866D01*
X635413Y556069D01*
X635413Y556075D01*
X635417Y556075D01*
X635557Y556302D01*
X635556Y556308D01*
X635561Y556309D01*
X635663Y556556D01*
X635661Y556562D01*
X635665Y556564D01*
X635727Y556823D01*
X635725Y556828D01*
X635728Y556830D01*
X635749Y557096D01*
X635747Y557099D01*
X635749Y557100D01*
X635749Y574400D01*
X635747Y574402D01*
X635749Y574404D01*
X635728Y574670D01*
X635724Y574674D01*
X635727Y574677D01*
X635665Y574936D01*
X635660Y574940D01*
X635663Y574944D01*
X635561Y575191D01*
X635555Y575194D01*
X635557Y575198D01*
X635417Y575425D01*
X635412Y575427D01*
X635413Y575431D01*
X635240Y575634D01*
X635234Y575635D01*
X635234Y575640D01*
X635031Y575813D01*
X635025Y575813D01*
X635025Y575817D01*
X634798Y575957D01*
X634792Y575956D01*
X634791Y575961D01*
X634544Y576063D01*
X634538Y576061D01*
X634536Y576065D01*
X634277Y576127D01*
X634272Y576125D01*
X634270Y576128D01*
X634004Y576149D01*
X634001Y576147D01*
X634000Y576149D01*
X630434Y576128D01*
X630427Y576123D01*
X630423Y576127D01*
X630164Y576065D01*
X630160Y576060D01*
X630156Y576063D01*
X629909Y575961D01*
X629906Y575955D01*
X629902Y575957D01*
X629675Y575817D01*
X629673Y575812D01*
X629669Y575813D01*
X629466Y575640D01*
X629465Y575634D01*
X629461Y575634D01*
X629288Y575431D01*
X629287Y575425D01*
X629283Y575425D01*
X629143Y575198D01*
X629144Y575192D01*
X629139Y575191D01*
X629037Y574944D01*
X629039Y574938D01*
X629035Y574936D01*
X628973Y574677D01*
X628975Y574672D01*
X628972Y574670D01*
X628951Y574404D01*
X628953Y574401D01*
X628951Y574400D01*
X628951Y557100D01*
X628953Y557098D01*
X628951Y557096D01*
X628972Y556830D01*
X628976Y556826D01*
X628973Y556823D01*
X629035Y556564D01*
X629040Y556560D01*
X629037Y556556D01*
X629139Y556309D01*
X629145Y556306D01*
X629143Y556302D01*
X629283Y556075D01*
X629288Y556073D01*
X629288Y556069D01*
X629461Y555866D01*
X629466Y555865D01*
X629466Y555861D01*
X629669Y555688D01*
X629675Y555687D01*
X629675Y555683D01*
X629902Y555543D01*
X629908Y555544D01*
X629909Y555539D01*
X630156Y555437D01*
X630162Y555439D01*
X630164Y555435D01*
X630423Y555373D01*
X630428Y555375D01*
X630430Y555372D01*
X630696Y555351D01*
X630699Y555353D01*
X630700Y555351D01*
X634266Y555372D01*
G37*
G36*
X396966Y555372D02*
X396966Y555372D01*
X396973Y555377D01*
X396977Y555373D01*
X397236Y555435D01*
X397240Y555440D01*
X397244Y555437D01*
X397491Y555539D01*
X397494Y555545D01*
X397498Y555543D01*
X397725Y555683D01*
X397727Y555688D01*
X397731Y555688D01*
X397934Y555861D01*
X397935Y555866D01*
X397940Y555866D01*
X398113Y556069D01*
X398113Y556075D01*
X398117Y556075D01*
X398257Y556302D01*
X398256Y556308D01*
X398261Y556309D01*
X398363Y556556D01*
X398361Y556562D01*
X398365Y556564D01*
X398427Y556823D01*
X398425Y556828D01*
X398428Y556830D01*
X398449Y557096D01*
X398447Y557099D01*
X398449Y557100D01*
X398449Y574400D01*
X398447Y574402D01*
X398449Y574404D01*
X398428Y574670D01*
X398424Y574674D01*
X398427Y574677D01*
X398365Y574936D01*
X398360Y574940D01*
X398363Y574944D01*
X398261Y575191D01*
X398255Y575194D01*
X398257Y575198D01*
X398117Y575425D01*
X398112Y575427D01*
X398113Y575431D01*
X397940Y575634D01*
X397934Y575635D01*
X397934Y575640D01*
X397731Y575813D01*
X397725Y575813D01*
X397725Y575817D01*
X397498Y575957D01*
X397492Y575956D01*
X397491Y575961D01*
X397244Y576063D01*
X397238Y576061D01*
X397236Y576065D01*
X396977Y576127D01*
X396972Y576125D01*
X396970Y576128D01*
X396704Y576149D01*
X396701Y576147D01*
X396700Y576149D01*
X393134Y576128D01*
X393127Y576123D01*
X393123Y576127D01*
X392864Y576065D01*
X392860Y576060D01*
X392856Y576063D01*
X392609Y575961D01*
X392606Y575955D01*
X392602Y575957D01*
X392375Y575817D01*
X392373Y575812D01*
X392369Y575813D01*
X392166Y575640D01*
X392165Y575634D01*
X392161Y575634D01*
X391988Y575431D01*
X391987Y575425D01*
X391983Y575425D01*
X391843Y575198D01*
X391844Y575192D01*
X391839Y575191D01*
X391737Y574944D01*
X391739Y574938D01*
X391735Y574936D01*
X391673Y574677D01*
X391675Y574672D01*
X391672Y574670D01*
X391651Y574404D01*
X391653Y574401D01*
X391651Y574400D01*
X391651Y557100D01*
X391653Y557098D01*
X391651Y557096D01*
X391672Y556830D01*
X391676Y556826D01*
X391673Y556823D01*
X391735Y556564D01*
X391740Y556560D01*
X391737Y556556D01*
X391839Y556309D01*
X391845Y556306D01*
X391843Y556302D01*
X391983Y556075D01*
X391988Y556073D01*
X391988Y556069D01*
X392161Y555866D01*
X392166Y555865D01*
X392166Y555861D01*
X392369Y555688D01*
X392375Y555687D01*
X392375Y555683D01*
X392602Y555543D01*
X392608Y555544D01*
X392609Y555539D01*
X392856Y555437D01*
X392862Y555439D01*
X392864Y555435D01*
X393123Y555373D01*
X393128Y555375D01*
X393130Y555372D01*
X393396Y555351D01*
X393399Y555353D01*
X393400Y555351D01*
X396966Y555372D01*
G37*
G36*
X245566Y555372D02*
X245566Y555372D01*
X245573Y555377D01*
X245577Y555373D01*
X245836Y555435D01*
X245840Y555440D01*
X245844Y555437D01*
X246091Y555539D01*
X246094Y555545D01*
X246098Y555543D01*
X246325Y555683D01*
X246327Y555688D01*
X246331Y555688D01*
X246534Y555861D01*
X246535Y555866D01*
X246540Y555866D01*
X246713Y556069D01*
X246713Y556075D01*
X246717Y556075D01*
X246857Y556302D01*
X246856Y556308D01*
X246861Y556309D01*
X246963Y556556D01*
X246961Y556562D01*
X246965Y556564D01*
X247027Y556823D01*
X247025Y556828D01*
X247028Y556830D01*
X247049Y557096D01*
X247047Y557099D01*
X247049Y557100D01*
X247049Y574400D01*
X247047Y574402D01*
X247049Y574404D01*
X247028Y574670D01*
X247024Y574674D01*
X247027Y574677D01*
X246965Y574936D01*
X246960Y574940D01*
X246963Y574944D01*
X246861Y575191D01*
X246855Y575194D01*
X246857Y575198D01*
X246717Y575425D01*
X246712Y575427D01*
X246713Y575431D01*
X246540Y575634D01*
X246534Y575635D01*
X246534Y575640D01*
X246331Y575813D01*
X246325Y575813D01*
X246325Y575817D01*
X246098Y575957D01*
X246092Y575956D01*
X246091Y575961D01*
X245844Y576063D01*
X245838Y576061D01*
X245836Y576065D01*
X245577Y576127D01*
X245572Y576125D01*
X245570Y576128D01*
X245304Y576149D01*
X245301Y576147D01*
X245300Y576149D01*
X241734Y576128D01*
X241727Y576123D01*
X241723Y576127D01*
X241464Y576065D01*
X241460Y576060D01*
X241456Y576063D01*
X241209Y575961D01*
X241206Y575955D01*
X241202Y575957D01*
X240975Y575817D01*
X240973Y575812D01*
X240969Y575813D01*
X240766Y575640D01*
X240765Y575634D01*
X240761Y575634D01*
X240588Y575431D01*
X240587Y575425D01*
X240583Y575425D01*
X240443Y575198D01*
X240444Y575192D01*
X240439Y575191D01*
X240337Y574944D01*
X240339Y574938D01*
X240335Y574936D01*
X240273Y574677D01*
X240275Y574672D01*
X240272Y574670D01*
X240251Y574404D01*
X240253Y574401D01*
X240251Y574400D01*
X240251Y557100D01*
X240253Y557098D01*
X240251Y557096D01*
X240272Y556830D01*
X240276Y556826D01*
X240273Y556823D01*
X240335Y556564D01*
X240340Y556560D01*
X240337Y556556D01*
X240439Y556309D01*
X240445Y556306D01*
X240443Y556302D01*
X240583Y556075D01*
X240588Y556073D01*
X240588Y556069D01*
X240761Y555866D01*
X240766Y555865D01*
X240766Y555861D01*
X240969Y555688D01*
X240975Y555687D01*
X240975Y555683D01*
X241202Y555543D01*
X241208Y555544D01*
X241209Y555539D01*
X241456Y555437D01*
X241462Y555439D01*
X241464Y555435D01*
X241723Y555373D01*
X241728Y555375D01*
X241730Y555372D01*
X241996Y555351D01*
X241999Y555353D01*
X242000Y555351D01*
X245566Y555372D01*
G37*
G36*
X121566Y555372D02*
X121566Y555372D01*
X121573Y555377D01*
X121577Y555373D01*
X121836Y555435D01*
X121840Y555440D01*
X121844Y555437D01*
X122091Y555539D01*
X122094Y555545D01*
X122098Y555543D01*
X122325Y555683D01*
X122327Y555688D01*
X122331Y555688D01*
X122534Y555861D01*
X122535Y555866D01*
X122540Y555866D01*
X122713Y556069D01*
X122713Y556075D01*
X122717Y556075D01*
X122857Y556302D01*
X122856Y556308D01*
X122861Y556309D01*
X122963Y556556D01*
X122961Y556562D01*
X122965Y556564D01*
X123027Y556823D01*
X123025Y556828D01*
X123028Y556830D01*
X123049Y557096D01*
X123047Y557099D01*
X123049Y557100D01*
X123049Y574400D01*
X123047Y574402D01*
X123049Y574404D01*
X123028Y574670D01*
X123024Y574674D01*
X123027Y574677D01*
X122965Y574936D01*
X122960Y574940D01*
X122963Y574944D01*
X122861Y575191D01*
X122855Y575194D01*
X122857Y575198D01*
X122717Y575425D01*
X122712Y575427D01*
X122713Y575431D01*
X122540Y575634D01*
X122534Y575635D01*
X122534Y575640D01*
X122331Y575813D01*
X122325Y575813D01*
X122325Y575817D01*
X122098Y575957D01*
X122092Y575956D01*
X122091Y575961D01*
X121844Y576063D01*
X121838Y576061D01*
X121836Y576065D01*
X121577Y576127D01*
X121572Y576125D01*
X121570Y576128D01*
X121304Y576149D01*
X121301Y576147D01*
X121300Y576149D01*
X117734Y576128D01*
X117727Y576123D01*
X117723Y576127D01*
X117464Y576065D01*
X117460Y576060D01*
X117456Y576063D01*
X117209Y575961D01*
X117206Y575955D01*
X117202Y575957D01*
X116975Y575817D01*
X116973Y575812D01*
X116969Y575813D01*
X116766Y575640D01*
X116765Y575634D01*
X116761Y575634D01*
X116588Y575431D01*
X116587Y575425D01*
X116583Y575425D01*
X116443Y575198D01*
X116444Y575192D01*
X116439Y575191D01*
X116337Y574944D01*
X116339Y574938D01*
X116335Y574936D01*
X116273Y574677D01*
X116275Y574672D01*
X116272Y574670D01*
X116251Y574404D01*
X116253Y574401D01*
X116251Y574400D01*
X116251Y557100D01*
X116253Y557098D01*
X116251Y557096D01*
X116272Y556830D01*
X116276Y556826D01*
X116273Y556823D01*
X116335Y556564D01*
X116340Y556560D01*
X116337Y556556D01*
X116439Y556309D01*
X116445Y556306D01*
X116443Y556302D01*
X116583Y556075D01*
X116588Y556073D01*
X116588Y556069D01*
X116761Y555866D01*
X116766Y555865D01*
X116766Y555861D01*
X116969Y555688D01*
X116975Y555687D01*
X116975Y555683D01*
X117202Y555543D01*
X117208Y555544D01*
X117209Y555539D01*
X117456Y555437D01*
X117462Y555439D01*
X117464Y555435D01*
X117723Y555373D01*
X117728Y555375D01*
X117730Y555372D01*
X117996Y555351D01*
X117999Y555353D01*
X118000Y555351D01*
X121566Y555372D01*
G37*
G36*
X734866Y555372D02*
X734866Y555372D01*
X734873Y555377D01*
X734877Y555373D01*
X735136Y555435D01*
X735140Y555440D01*
X735144Y555437D01*
X735391Y555539D01*
X735394Y555545D01*
X735398Y555543D01*
X735625Y555683D01*
X735627Y555688D01*
X735631Y555688D01*
X735834Y555861D01*
X735835Y555866D01*
X735840Y555866D01*
X736013Y556069D01*
X736013Y556075D01*
X736017Y556075D01*
X736157Y556302D01*
X736156Y556308D01*
X736161Y556309D01*
X736263Y556556D01*
X736261Y556562D01*
X736265Y556564D01*
X736327Y556823D01*
X736325Y556828D01*
X736328Y556830D01*
X736349Y557096D01*
X736347Y557099D01*
X736349Y557100D01*
X736349Y574400D01*
X736347Y574402D01*
X736349Y574404D01*
X736328Y574670D01*
X736324Y574674D01*
X736327Y574677D01*
X736265Y574936D01*
X736260Y574940D01*
X736263Y574944D01*
X736161Y575191D01*
X736155Y575194D01*
X736157Y575198D01*
X736017Y575425D01*
X736012Y575427D01*
X736013Y575431D01*
X735840Y575634D01*
X735834Y575635D01*
X735834Y575640D01*
X735631Y575813D01*
X735625Y575813D01*
X735625Y575817D01*
X735398Y575957D01*
X735392Y575956D01*
X735391Y575961D01*
X735144Y576063D01*
X735138Y576061D01*
X735136Y576065D01*
X734877Y576127D01*
X734872Y576125D01*
X734870Y576128D01*
X734604Y576149D01*
X734601Y576147D01*
X734600Y576149D01*
X731034Y576128D01*
X731027Y576123D01*
X731023Y576127D01*
X730764Y576065D01*
X730760Y576060D01*
X730756Y576063D01*
X730509Y575961D01*
X730506Y575955D01*
X730502Y575957D01*
X730275Y575817D01*
X730273Y575812D01*
X730269Y575813D01*
X730066Y575640D01*
X730065Y575634D01*
X730061Y575634D01*
X729888Y575431D01*
X729887Y575425D01*
X729883Y575425D01*
X729743Y575198D01*
X729744Y575192D01*
X729739Y575191D01*
X729637Y574944D01*
X729639Y574938D01*
X729635Y574936D01*
X729573Y574677D01*
X729575Y574672D01*
X729572Y574670D01*
X729551Y574404D01*
X729553Y574401D01*
X729551Y574400D01*
X729551Y557100D01*
X729553Y557098D01*
X729551Y557096D01*
X729572Y556830D01*
X729576Y556826D01*
X729573Y556823D01*
X729635Y556564D01*
X729640Y556560D01*
X729637Y556556D01*
X729739Y556309D01*
X729745Y556306D01*
X729743Y556302D01*
X729883Y556075D01*
X729888Y556073D01*
X729888Y556069D01*
X730061Y555866D01*
X730066Y555865D01*
X730066Y555861D01*
X730269Y555688D01*
X730275Y555687D01*
X730275Y555683D01*
X730502Y555543D01*
X730508Y555544D01*
X730509Y555539D01*
X730756Y555437D01*
X730762Y555439D01*
X730764Y555435D01*
X731023Y555373D01*
X731028Y555375D01*
X731030Y555372D01*
X731296Y555351D01*
X731299Y555353D01*
X731300Y555351D01*
X734866Y555372D01*
G37*
G36*
X134266Y555372D02*
X134266Y555372D01*
X134273Y555377D01*
X134277Y555373D01*
X134536Y555435D01*
X134540Y555440D01*
X134544Y555437D01*
X134791Y555539D01*
X134794Y555545D01*
X134798Y555543D01*
X135025Y555683D01*
X135027Y555688D01*
X135031Y555688D01*
X135234Y555861D01*
X135235Y555866D01*
X135240Y555866D01*
X135413Y556069D01*
X135413Y556075D01*
X135417Y556075D01*
X135557Y556302D01*
X135556Y556308D01*
X135561Y556309D01*
X135663Y556556D01*
X135661Y556562D01*
X135665Y556564D01*
X135727Y556823D01*
X135725Y556828D01*
X135728Y556830D01*
X135749Y557096D01*
X135747Y557099D01*
X135749Y557100D01*
X135749Y574400D01*
X135747Y574402D01*
X135749Y574404D01*
X135728Y574670D01*
X135724Y574674D01*
X135727Y574677D01*
X135665Y574936D01*
X135660Y574940D01*
X135663Y574944D01*
X135561Y575191D01*
X135555Y575194D01*
X135557Y575198D01*
X135417Y575425D01*
X135412Y575427D01*
X135413Y575431D01*
X135240Y575634D01*
X135234Y575635D01*
X135234Y575640D01*
X135031Y575813D01*
X135025Y575813D01*
X135025Y575817D01*
X134798Y575957D01*
X134792Y575956D01*
X134791Y575961D01*
X134544Y576063D01*
X134538Y576061D01*
X134536Y576065D01*
X134277Y576127D01*
X134272Y576125D01*
X134270Y576128D01*
X134004Y576149D01*
X134001Y576147D01*
X134000Y576149D01*
X130434Y576128D01*
X130427Y576123D01*
X130423Y576127D01*
X130164Y576065D01*
X130160Y576060D01*
X130156Y576063D01*
X129909Y575961D01*
X129906Y575955D01*
X129902Y575957D01*
X129675Y575817D01*
X129673Y575812D01*
X129669Y575813D01*
X129466Y575640D01*
X129465Y575634D01*
X129461Y575634D01*
X129288Y575431D01*
X129287Y575425D01*
X129283Y575425D01*
X129143Y575198D01*
X129144Y575192D01*
X129139Y575191D01*
X129037Y574944D01*
X129039Y574938D01*
X129035Y574936D01*
X128973Y574677D01*
X128975Y574672D01*
X128972Y574670D01*
X128951Y574404D01*
X128953Y574401D01*
X128951Y574400D01*
X128951Y557100D01*
X128953Y557098D01*
X128951Y557096D01*
X128972Y556830D01*
X128976Y556826D01*
X128973Y556823D01*
X129035Y556564D01*
X129040Y556560D01*
X129037Y556556D01*
X129139Y556309D01*
X129145Y556306D01*
X129143Y556302D01*
X129283Y556075D01*
X129288Y556073D01*
X129288Y556069D01*
X129461Y555866D01*
X129466Y555865D01*
X129466Y555861D01*
X129669Y555688D01*
X129675Y555687D01*
X129675Y555683D01*
X129902Y555543D01*
X129908Y555544D01*
X129909Y555539D01*
X130156Y555437D01*
X130162Y555439D01*
X130164Y555435D01*
X130423Y555373D01*
X130428Y555375D01*
X130430Y555372D01*
X130696Y555351D01*
X130699Y555353D01*
X130700Y555351D01*
X134266Y555372D01*
G37*
G36*
X232866Y555372D02*
X232866Y555372D01*
X232873Y555377D01*
X232877Y555373D01*
X233136Y555435D01*
X233140Y555440D01*
X233144Y555437D01*
X233391Y555539D01*
X233394Y555545D01*
X233398Y555543D01*
X233625Y555683D01*
X233627Y555688D01*
X233631Y555688D01*
X233834Y555861D01*
X233835Y555866D01*
X233840Y555866D01*
X234013Y556069D01*
X234013Y556075D01*
X234017Y556075D01*
X234157Y556302D01*
X234156Y556308D01*
X234161Y556309D01*
X234263Y556556D01*
X234261Y556562D01*
X234265Y556564D01*
X234327Y556823D01*
X234325Y556828D01*
X234328Y556830D01*
X234349Y557096D01*
X234347Y557099D01*
X234349Y557100D01*
X234349Y574400D01*
X234347Y574402D01*
X234349Y574404D01*
X234328Y574670D01*
X234324Y574674D01*
X234327Y574677D01*
X234265Y574936D01*
X234260Y574940D01*
X234263Y574944D01*
X234161Y575191D01*
X234155Y575194D01*
X234157Y575198D01*
X234017Y575425D01*
X234012Y575427D01*
X234013Y575431D01*
X233840Y575634D01*
X233834Y575635D01*
X233834Y575640D01*
X233631Y575813D01*
X233625Y575813D01*
X233625Y575817D01*
X233398Y575957D01*
X233392Y575956D01*
X233391Y575961D01*
X233144Y576063D01*
X233138Y576061D01*
X233136Y576065D01*
X232877Y576127D01*
X232872Y576125D01*
X232870Y576128D01*
X232604Y576149D01*
X232601Y576147D01*
X232600Y576149D01*
X229034Y576128D01*
X229027Y576123D01*
X229023Y576127D01*
X228764Y576065D01*
X228760Y576060D01*
X228756Y576063D01*
X228509Y575961D01*
X228506Y575955D01*
X228502Y575957D01*
X228275Y575817D01*
X228273Y575812D01*
X228269Y575813D01*
X228066Y575640D01*
X228065Y575634D01*
X228061Y575634D01*
X227888Y575431D01*
X227887Y575425D01*
X227883Y575425D01*
X227743Y575198D01*
X227744Y575192D01*
X227739Y575191D01*
X227637Y574944D01*
X227639Y574938D01*
X227635Y574936D01*
X227573Y574677D01*
X227575Y574672D01*
X227572Y574670D01*
X227551Y574404D01*
X227553Y574401D01*
X227551Y574400D01*
X227551Y557100D01*
X227553Y557098D01*
X227551Y557096D01*
X227572Y556830D01*
X227576Y556826D01*
X227573Y556823D01*
X227635Y556564D01*
X227640Y556560D01*
X227637Y556556D01*
X227739Y556309D01*
X227745Y556306D01*
X227743Y556302D01*
X227883Y556075D01*
X227888Y556073D01*
X227888Y556069D01*
X228061Y555866D01*
X228066Y555865D01*
X228066Y555861D01*
X228269Y555688D01*
X228275Y555687D01*
X228275Y555683D01*
X228502Y555543D01*
X228508Y555544D01*
X228509Y555539D01*
X228756Y555437D01*
X228762Y555439D01*
X228764Y555435D01*
X229023Y555373D01*
X229028Y555375D01*
X229030Y555372D01*
X229296Y555351D01*
X229299Y555353D01*
X229300Y555351D01*
X232866Y555372D01*
G37*
G36*
X742866Y463872D02*
X742866Y463872D01*
X742873Y463877D01*
X742877Y463873D01*
X743136Y463935D01*
X743140Y463940D01*
X743144Y463937D01*
X743391Y464039D01*
X743394Y464045D01*
X743398Y464043D01*
X743625Y464183D01*
X743627Y464188D01*
X743631Y464188D01*
X743834Y464361D01*
X743835Y464366D01*
X743840Y464366D01*
X744013Y464569D01*
X744013Y464575D01*
X744017Y464575D01*
X744157Y464802D01*
X744156Y464808D01*
X744161Y464809D01*
X744263Y465056D01*
X744261Y465062D01*
X744265Y465064D01*
X744327Y465323D01*
X744325Y465328D01*
X744328Y465330D01*
X744349Y465596D01*
X744347Y465599D01*
X744349Y465600D01*
X744349Y482900D01*
X744347Y482902D01*
X744349Y482904D01*
X744328Y483170D01*
X744324Y483174D01*
X744327Y483177D01*
X744265Y483436D01*
X744260Y483440D01*
X744263Y483444D01*
X744161Y483691D01*
X744155Y483694D01*
X744157Y483698D01*
X744017Y483925D01*
X744012Y483927D01*
X744013Y483931D01*
X743840Y484134D01*
X743834Y484135D01*
X743834Y484140D01*
X743631Y484313D01*
X743625Y484313D01*
X743625Y484317D01*
X743398Y484457D01*
X743392Y484456D01*
X743391Y484461D01*
X743144Y484563D01*
X743138Y484561D01*
X743136Y484565D01*
X742877Y484627D01*
X742872Y484625D01*
X742870Y484628D01*
X742604Y484649D01*
X742601Y484647D01*
X742600Y484649D01*
X739034Y484628D01*
X739027Y484623D01*
X739023Y484627D01*
X738764Y484565D01*
X738760Y484560D01*
X738756Y484563D01*
X738509Y484461D01*
X738506Y484455D01*
X738502Y484457D01*
X738275Y484317D01*
X738273Y484312D01*
X738269Y484313D01*
X738066Y484140D01*
X738065Y484134D01*
X738061Y484134D01*
X737888Y483931D01*
X737887Y483925D01*
X737883Y483925D01*
X737743Y483698D01*
X737744Y483692D01*
X737739Y483691D01*
X737637Y483444D01*
X737639Y483438D01*
X737635Y483436D01*
X737573Y483177D01*
X737575Y483172D01*
X737572Y483170D01*
X737551Y482904D01*
X737553Y482901D01*
X737551Y482900D01*
X737551Y465600D01*
X737553Y465598D01*
X737551Y465596D01*
X737572Y465330D01*
X737576Y465326D01*
X737573Y465323D01*
X737635Y465064D01*
X737640Y465060D01*
X737637Y465056D01*
X737739Y464809D01*
X737745Y464806D01*
X737743Y464802D01*
X737883Y464575D01*
X737888Y464573D01*
X737888Y464569D01*
X738061Y464366D01*
X738066Y464365D01*
X738066Y464361D01*
X738269Y464188D01*
X738275Y464187D01*
X738275Y464183D01*
X738502Y464043D01*
X738508Y464044D01*
X738509Y464039D01*
X738756Y463937D01*
X738762Y463939D01*
X738764Y463935D01*
X739023Y463873D01*
X739028Y463875D01*
X739030Y463872D01*
X739296Y463851D01*
X739299Y463853D01*
X739300Y463851D01*
X742866Y463872D01*
G37*
G36*
X780966Y463872D02*
X780966Y463872D01*
X780973Y463877D01*
X780977Y463873D01*
X781236Y463935D01*
X781240Y463940D01*
X781244Y463937D01*
X781491Y464039D01*
X781494Y464045D01*
X781498Y464043D01*
X781725Y464183D01*
X781727Y464188D01*
X781731Y464188D01*
X781934Y464361D01*
X781935Y464366D01*
X781940Y464366D01*
X782113Y464569D01*
X782113Y464575D01*
X782117Y464575D01*
X782257Y464802D01*
X782256Y464808D01*
X782261Y464809D01*
X782363Y465056D01*
X782361Y465062D01*
X782365Y465064D01*
X782427Y465323D01*
X782425Y465328D01*
X782428Y465330D01*
X782449Y465596D01*
X782447Y465599D01*
X782449Y465600D01*
X782449Y482900D01*
X782447Y482902D01*
X782449Y482904D01*
X782428Y483170D01*
X782424Y483174D01*
X782427Y483177D01*
X782365Y483436D01*
X782360Y483440D01*
X782363Y483444D01*
X782261Y483691D01*
X782255Y483694D01*
X782257Y483698D01*
X782117Y483925D01*
X782112Y483927D01*
X782113Y483931D01*
X781940Y484134D01*
X781934Y484135D01*
X781934Y484140D01*
X781731Y484313D01*
X781725Y484313D01*
X781725Y484317D01*
X781498Y484457D01*
X781492Y484456D01*
X781491Y484461D01*
X781244Y484563D01*
X781238Y484561D01*
X781236Y484565D01*
X780977Y484627D01*
X780972Y484625D01*
X780970Y484628D01*
X780704Y484649D01*
X780701Y484647D01*
X780700Y484649D01*
X777134Y484628D01*
X777127Y484623D01*
X777123Y484627D01*
X776864Y484565D01*
X776860Y484560D01*
X776856Y484563D01*
X776609Y484461D01*
X776606Y484455D01*
X776602Y484457D01*
X776375Y484317D01*
X776373Y484312D01*
X776369Y484313D01*
X776166Y484140D01*
X776165Y484134D01*
X776161Y484134D01*
X775988Y483931D01*
X775987Y483925D01*
X775983Y483925D01*
X775843Y483698D01*
X775844Y483692D01*
X775839Y483691D01*
X775737Y483444D01*
X775739Y483438D01*
X775735Y483436D01*
X775673Y483177D01*
X775675Y483172D01*
X775672Y483170D01*
X775651Y482904D01*
X775653Y482901D01*
X775651Y482900D01*
X775651Y465600D01*
X775653Y465598D01*
X775651Y465596D01*
X775672Y465330D01*
X775676Y465326D01*
X775673Y465323D01*
X775735Y465064D01*
X775740Y465060D01*
X775737Y465056D01*
X775839Y464809D01*
X775845Y464806D01*
X775843Y464802D01*
X775983Y464575D01*
X775988Y464573D01*
X775988Y464569D01*
X776161Y464366D01*
X776166Y464365D01*
X776166Y464361D01*
X776369Y464188D01*
X776375Y464187D01*
X776375Y464183D01*
X776602Y464043D01*
X776608Y464044D01*
X776609Y464039D01*
X776856Y463937D01*
X776862Y463939D01*
X776864Y463935D01*
X777123Y463873D01*
X777128Y463875D01*
X777130Y463872D01*
X777396Y463851D01*
X777399Y463853D01*
X777400Y463851D01*
X780966Y463872D01*
G37*
G36*
X768266Y463872D02*
X768266Y463872D01*
X768273Y463877D01*
X768277Y463873D01*
X768536Y463935D01*
X768540Y463940D01*
X768544Y463937D01*
X768791Y464039D01*
X768794Y464045D01*
X768798Y464043D01*
X769025Y464183D01*
X769027Y464188D01*
X769031Y464188D01*
X769234Y464361D01*
X769235Y464366D01*
X769240Y464366D01*
X769413Y464569D01*
X769413Y464575D01*
X769417Y464575D01*
X769557Y464802D01*
X769556Y464808D01*
X769561Y464809D01*
X769663Y465056D01*
X769661Y465062D01*
X769665Y465064D01*
X769727Y465323D01*
X769725Y465328D01*
X769728Y465330D01*
X769749Y465596D01*
X769747Y465599D01*
X769749Y465600D01*
X769749Y482900D01*
X769747Y482902D01*
X769749Y482904D01*
X769728Y483170D01*
X769724Y483174D01*
X769727Y483177D01*
X769665Y483436D01*
X769660Y483440D01*
X769663Y483444D01*
X769561Y483691D01*
X769555Y483694D01*
X769557Y483698D01*
X769417Y483925D01*
X769412Y483927D01*
X769413Y483931D01*
X769240Y484134D01*
X769234Y484135D01*
X769234Y484140D01*
X769031Y484313D01*
X769025Y484313D01*
X769025Y484317D01*
X768798Y484457D01*
X768792Y484456D01*
X768791Y484461D01*
X768544Y484563D01*
X768538Y484561D01*
X768536Y484565D01*
X768277Y484627D01*
X768272Y484625D01*
X768270Y484628D01*
X768004Y484649D01*
X768001Y484647D01*
X768000Y484649D01*
X764434Y484628D01*
X764427Y484623D01*
X764423Y484627D01*
X764164Y484565D01*
X764160Y484560D01*
X764156Y484563D01*
X763909Y484461D01*
X763906Y484455D01*
X763902Y484457D01*
X763675Y484317D01*
X763673Y484312D01*
X763669Y484313D01*
X763466Y484140D01*
X763465Y484134D01*
X763461Y484134D01*
X763288Y483931D01*
X763287Y483925D01*
X763283Y483925D01*
X763143Y483698D01*
X763144Y483692D01*
X763139Y483691D01*
X763037Y483444D01*
X763039Y483438D01*
X763035Y483436D01*
X762973Y483177D01*
X762975Y483172D01*
X762972Y483170D01*
X762951Y482904D01*
X762953Y482901D01*
X762951Y482900D01*
X762951Y465600D01*
X762953Y465598D01*
X762951Y465596D01*
X762972Y465330D01*
X762976Y465326D01*
X762973Y465323D01*
X763035Y465064D01*
X763040Y465060D01*
X763037Y465056D01*
X763139Y464809D01*
X763145Y464806D01*
X763143Y464802D01*
X763283Y464575D01*
X763288Y464573D01*
X763288Y464569D01*
X763461Y464366D01*
X763466Y464365D01*
X763466Y464361D01*
X763669Y464188D01*
X763675Y464187D01*
X763675Y464183D01*
X763902Y464043D01*
X763908Y464044D01*
X763909Y464039D01*
X764156Y463937D01*
X764162Y463939D01*
X764164Y463935D01*
X764423Y463873D01*
X764428Y463875D01*
X764430Y463872D01*
X764696Y463851D01*
X764699Y463853D01*
X764700Y463851D01*
X768266Y463872D01*
G37*
G36*
X755566Y463872D02*
X755566Y463872D01*
X755573Y463877D01*
X755577Y463873D01*
X755836Y463935D01*
X755840Y463940D01*
X755844Y463937D01*
X756091Y464039D01*
X756094Y464045D01*
X756098Y464043D01*
X756325Y464183D01*
X756327Y464188D01*
X756331Y464188D01*
X756534Y464361D01*
X756535Y464366D01*
X756540Y464366D01*
X756713Y464569D01*
X756713Y464575D01*
X756717Y464575D01*
X756857Y464802D01*
X756856Y464808D01*
X756861Y464809D01*
X756963Y465056D01*
X756961Y465062D01*
X756965Y465064D01*
X757027Y465323D01*
X757025Y465328D01*
X757028Y465330D01*
X757049Y465596D01*
X757047Y465599D01*
X757049Y465600D01*
X757049Y482900D01*
X757047Y482902D01*
X757049Y482904D01*
X757028Y483170D01*
X757024Y483174D01*
X757027Y483177D01*
X756965Y483436D01*
X756960Y483440D01*
X756963Y483444D01*
X756861Y483691D01*
X756855Y483694D01*
X756857Y483698D01*
X756717Y483925D01*
X756712Y483927D01*
X756713Y483931D01*
X756540Y484134D01*
X756534Y484135D01*
X756534Y484140D01*
X756331Y484313D01*
X756325Y484313D01*
X756325Y484317D01*
X756098Y484457D01*
X756092Y484456D01*
X756091Y484461D01*
X755844Y484563D01*
X755838Y484561D01*
X755836Y484565D01*
X755577Y484627D01*
X755572Y484625D01*
X755570Y484628D01*
X755304Y484649D01*
X755301Y484647D01*
X755300Y484649D01*
X751734Y484628D01*
X751727Y484623D01*
X751723Y484627D01*
X751464Y484565D01*
X751460Y484560D01*
X751456Y484563D01*
X751209Y484461D01*
X751206Y484455D01*
X751202Y484457D01*
X750975Y484317D01*
X750973Y484312D01*
X750969Y484313D01*
X750766Y484140D01*
X750765Y484134D01*
X750761Y484134D01*
X750588Y483931D01*
X750587Y483925D01*
X750583Y483925D01*
X750443Y483698D01*
X750444Y483692D01*
X750439Y483691D01*
X750337Y483444D01*
X750339Y483438D01*
X750335Y483436D01*
X750273Y483177D01*
X750275Y483172D01*
X750272Y483170D01*
X750251Y482904D01*
X750253Y482901D01*
X750251Y482900D01*
X750251Y465600D01*
X750253Y465598D01*
X750251Y465596D01*
X750272Y465330D01*
X750276Y465326D01*
X750273Y465323D01*
X750335Y465064D01*
X750340Y465060D01*
X750337Y465056D01*
X750439Y464809D01*
X750445Y464806D01*
X750443Y464802D01*
X750583Y464575D01*
X750588Y464573D01*
X750588Y464569D01*
X750761Y464366D01*
X750766Y464365D01*
X750766Y464361D01*
X750969Y464188D01*
X750975Y464187D01*
X750975Y464183D01*
X751202Y464043D01*
X751208Y464044D01*
X751209Y464039D01*
X751456Y463937D01*
X751462Y463939D01*
X751464Y463935D01*
X751723Y463873D01*
X751728Y463875D01*
X751730Y463872D01*
X751996Y463851D01*
X751999Y463853D01*
X752000Y463851D01*
X755566Y463872D01*
G37*
G36*
X780966Y415372D02*
X780966Y415372D01*
X780973Y415377D01*
X780977Y415373D01*
X781236Y415435D01*
X781240Y415440D01*
X781244Y415437D01*
X781491Y415539D01*
X781494Y415545D01*
X781498Y415543D01*
X781725Y415683D01*
X781727Y415688D01*
X781731Y415688D01*
X781934Y415861D01*
X781935Y415866D01*
X781940Y415866D01*
X782113Y416069D01*
X782113Y416075D01*
X782117Y416075D01*
X782257Y416302D01*
X782256Y416308D01*
X782261Y416309D01*
X782363Y416556D01*
X782361Y416562D01*
X782365Y416564D01*
X782427Y416823D01*
X782425Y416828D01*
X782428Y416830D01*
X782449Y417096D01*
X782447Y417099D01*
X782449Y417100D01*
X782449Y434400D01*
X782447Y434402D01*
X782449Y434404D01*
X782428Y434670D01*
X782424Y434674D01*
X782427Y434677D01*
X782365Y434936D01*
X782360Y434940D01*
X782363Y434944D01*
X782261Y435191D01*
X782255Y435194D01*
X782257Y435198D01*
X782117Y435425D01*
X782112Y435427D01*
X782113Y435431D01*
X781940Y435634D01*
X781934Y435635D01*
X781934Y435640D01*
X781731Y435813D01*
X781725Y435813D01*
X781725Y435817D01*
X781498Y435957D01*
X781492Y435956D01*
X781491Y435961D01*
X781244Y436063D01*
X781238Y436061D01*
X781236Y436065D01*
X780977Y436127D01*
X780972Y436125D01*
X780970Y436128D01*
X780704Y436149D01*
X780701Y436147D01*
X780700Y436149D01*
X777134Y436128D01*
X777127Y436123D01*
X777123Y436127D01*
X776864Y436065D01*
X776860Y436060D01*
X776856Y436063D01*
X776609Y435961D01*
X776606Y435955D01*
X776602Y435957D01*
X776375Y435817D01*
X776373Y435812D01*
X776369Y435813D01*
X776166Y435640D01*
X776165Y435634D01*
X776161Y435634D01*
X775988Y435431D01*
X775987Y435425D01*
X775983Y435425D01*
X775843Y435198D01*
X775844Y435192D01*
X775839Y435191D01*
X775737Y434944D01*
X775739Y434938D01*
X775735Y434936D01*
X775673Y434677D01*
X775675Y434672D01*
X775672Y434670D01*
X775651Y434404D01*
X775653Y434401D01*
X775651Y434400D01*
X775651Y417100D01*
X775653Y417098D01*
X775651Y417096D01*
X775672Y416830D01*
X775676Y416826D01*
X775673Y416823D01*
X775735Y416564D01*
X775740Y416560D01*
X775737Y416556D01*
X775839Y416309D01*
X775845Y416306D01*
X775843Y416302D01*
X775983Y416075D01*
X775988Y416073D01*
X775988Y416069D01*
X776161Y415866D01*
X776166Y415865D01*
X776166Y415861D01*
X776369Y415688D01*
X776375Y415687D01*
X776375Y415683D01*
X776602Y415543D01*
X776608Y415544D01*
X776609Y415539D01*
X776856Y415437D01*
X776862Y415439D01*
X776864Y415435D01*
X777123Y415373D01*
X777128Y415375D01*
X777130Y415372D01*
X777396Y415351D01*
X777399Y415353D01*
X777400Y415351D01*
X780966Y415372D01*
G37*
G36*
X768266Y415372D02*
X768266Y415372D01*
X768273Y415377D01*
X768277Y415373D01*
X768536Y415435D01*
X768540Y415440D01*
X768544Y415437D01*
X768791Y415539D01*
X768794Y415545D01*
X768798Y415543D01*
X769025Y415683D01*
X769027Y415688D01*
X769031Y415688D01*
X769234Y415861D01*
X769235Y415866D01*
X769240Y415866D01*
X769413Y416069D01*
X769413Y416075D01*
X769417Y416075D01*
X769557Y416302D01*
X769556Y416308D01*
X769561Y416309D01*
X769663Y416556D01*
X769661Y416562D01*
X769665Y416564D01*
X769727Y416823D01*
X769725Y416828D01*
X769728Y416830D01*
X769749Y417096D01*
X769747Y417099D01*
X769749Y417100D01*
X769749Y434400D01*
X769747Y434402D01*
X769749Y434404D01*
X769728Y434670D01*
X769724Y434674D01*
X769727Y434677D01*
X769665Y434936D01*
X769660Y434940D01*
X769663Y434944D01*
X769561Y435191D01*
X769555Y435194D01*
X769557Y435198D01*
X769417Y435425D01*
X769412Y435427D01*
X769413Y435431D01*
X769240Y435634D01*
X769234Y435635D01*
X769234Y435640D01*
X769031Y435813D01*
X769025Y435813D01*
X769025Y435817D01*
X768798Y435957D01*
X768792Y435956D01*
X768791Y435961D01*
X768544Y436063D01*
X768538Y436061D01*
X768536Y436065D01*
X768277Y436127D01*
X768272Y436125D01*
X768270Y436128D01*
X768004Y436149D01*
X768001Y436147D01*
X768000Y436149D01*
X764434Y436128D01*
X764427Y436123D01*
X764423Y436127D01*
X764164Y436065D01*
X764160Y436060D01*
X764156Y436063D01*
X763909Y435961D01*
X763906Y435955D01*
X763902Y435957D01*
X763675Y435817D01*
X763673Y435812D01*
X763669Y435813D01*
X763466Y435640D01*
X763465Y435634D01*
X763461Y435634D01*
X763288Y435431D01*
X763287Y435425D01*
X763283Y435425D01*
X763143Y435198D01*
X763144Y435192D01*
X763139Y435191D01*
X763037Y434944D01*
X763039Y434938D01*
X763035Y434936D01*
X762973Y434677D01*
X762975Y434672D01*
X762972Y434670D01*
X762951Y434404D01*
X762953Y434401D01*
X762951Y434400D01*
X762951Y417100D01*
X762953Y417098D01*
X762951Y417096D01*
X762972Y416830D01*
X762976Y416826D01*
X762973Y416823D01*
X763035Y416564D01*
X763040Y416560D01*
X763037Y416556D01*
X763139Y416309D01*
X763145Y416306D01*
X763143Y416302D01*
X763283Y416075D01*
X763288Y416073D01*
X763288Y416069D01*
X763461Y415866D01*
X763466Y415865D01*
X763466Y415861D01*
X763669Y415688D01*
X763675Y415687D01*
X763675Y415683D01*
X763902Y415543D01*
X763908Y415544D01*
X763909Y415539D01*
X764156Y415437D01*
X764162Y415439D01*
X764164Y415435D01*
X764423Y415373D01*
X764428Y415375D01*
X764430Y415372D01*
X764696Y415351D01*
X764699Y415353D01*
X764700Y415351D01*
X768266Y415372D01*
G37*
G36*
X755566Y415372D02*
X755566Y415372D01*
X755573Y415377D01*
X755577Y415373D01*
X755836Y415435D01*
X755840Y415440D01*
X755844Y415437D01*
X756091Y415539D01*
X756094Y415545D01*
X756098Y415543D01*
X756325Y415683D01*
X756327Y415688D01*
X756331Y415688D01*
X756534Y415861D01*
X756535Y415866D01*
X756540Y415866D01*
X756713Y416069D01*
X756713Y416075D01*
X756717Y416075D01*
X756857Y416302D01*
X756856Y416308D01*
X756861Y416309D01*
X756963Y416556D01*
X756961Y416562D01*
X756965Y416564D01*
X757027Y416823D01*
X757025Y416828D01*
X757028Y416830D01*
X757049Y417096D01*
X757047Y417099D01*
X757049Y417100D01*
X757049Y434400D01*
X757047Y434402D01*
X757049Y434404D01*
X757028Y434670D01*
X757024Y434674D01*
X757027Y434677D01*
X756965Y434936D01*
X756960Y434940D01*
X756963Y434944D01*
X756861Y435191D01*
X756855Y435194D01*
X756857Y435198D01*
X756717Y435425D01*
X756712Y435427D01*
X756713Y435431D01*
X756540Y435634D01*
X756534Y435635D01*
X756534Y435640D01*
X756331Y435813D01*
X756325Y435813D01*
X756325Y435817D01*
X756098Y435957D01*
X756092Y435956D01*
X756091Y435961D01*
X755844Y436063D01*
X755838Y436061D01*
X755836Y436065D01*
X755577Y436127D01*
X755572Y436125D01*
X755570Y436128D01*
X755304Y436149D01*
X755301Y436147D01*
X755300Y436149D01*
X751734Y436128D01*
X751727Y436123D01*
X751723Y436127D01*
X751464Y436065D01*
X751460Y436060D01*
X751456Y436063D01*
X751209Y435961D01*
X751206Y435955D01*
X751202Y435957D01*
X750975Y435817D01*
X750973Y435812D01*
X750969Y435813D01*
X750766Y435640D01*
X750765Y435634D01*
X750761Y435634D01*
X750588Y435431D01*
X750587Y435425D01*
X750583Y435425D01*
X750443Y435198D01*
X750444Y435192D01*
X750439Y435191D01*
X750337Y434944D01*
X750339Y434938D01*
X750335Y434936D01*
X750273Y434677D01*
X750275Y434672D01*
X750272Y434670D01*
X750251Y434404D01*
X750253Y434401D01*
X750251Y434400D01*
X750251Y417100D01*
X750253Y417098D01*
X750251Y417096D01*
X750272Y416830D01*
X750276Y416826D01*
X750273Y416823D01*
X750335Y416564D01*
X750340Y416560D01*
X750337Y416556D01*
X750439Y416309D01*
X750445Y416306D01*
X750443Y416302D01*
X750583Y416075D01*
X750588Y416073D01*
X750588Y416069D01*
X750761Y415866D01*
X750766Y415865D01*
X750766Y415861D01*
X750969Y415688D01*
X750975Y415687D01*
X750975Y415683D01*
X751202Y415543D01*
X751208Y415544D01*
X751209Y415539D01*
X751456Y415437D01*
X751462Y415439D01*
X751464Y415435D01*
X751723Y415373D01*
X751728Y415375D01*
X751730Y415372D01*
X751996Y415351D01*
X751999Y415353D01*
X752000Y415351D01*
X755566Y415372D01*
G37*
G36*
X742866Y415372D02*
X742866Y415372D01*
X742873Y415377D01*
X742877Y415373D01*
X743136Y415435D01*
X743140Y415440D01*
X743144Y415437D01*
X743391Y415539D01*
X743394Y415545D01*
X743398Y415543D01*
X743625Y415683D01*
X743627Y415688D01*
X743631Y415688D01*
X743834Y415861D01*
X743835Y415866D01*
X743840Y415866D01*
X744013Y416069D01*
X744013Y416075D01*
X744017Y416075D01*
X744157Y416302D01*
X744156Y416308D01*
X744161Y416309D01*
X744263Y416556D01*
X744261Y416562D01*
X744265Y416564D01*
X744327Y416823D01*
X744325Y416828D01*
X744328Y416830D01*
X744349Y417096D01*
X744347Y417099D01*
X744349Y417100D01*
X744349Y434400D01*
X744347Y434402D01*
X744349Y434404D01*
X744328Y434670D01*
X744324Y434674D01*
X744327Y434677D01*
X744265Y434936D01*
X744260Y434940D01*
X744263Y434944D01*
X744161Y435191D01*
X744155Y435194D01*
X744157Y435198D01*
X744017Y435425D01*
X744012Y435427D01*
X744013Y435431D01*
X743840Y435634D01*
X743834Y435635D01*
X743834Y435640D01*
X743631Y435813D01*
X743625Y435813D01*
X743625Y435817D01*
X743398Y435957D01*
X743392Y435956D01*
X743391Y435961D01*
X743144Y436063D01*
X743138Y436061D01*
X743136Y436065D01*
X742877Y436127D01*
X742872Y436125D01*
X742870Y436128D01*
X742604Y436149D01*
X742601Y436147D01*
X742600Y436149D01*
X739034Y436128D01*
X739027Y436123D01*
X739023Y436127D01*
X738764Y436065D01*
X738760Y436060D01*
X738756Y436063D01*
X738509Y435961D01*
X738506Y435955D01*
X738502Y435957D01*
X738275Y435817D01*
X738273Y435812D01*
X738269Y435813D01*
X738066Y435640D01*
X738065Y435634D01*
X738061Y435634D01*
X737888Y435431D01*
X737887Y435425D01*
X737883Y435425D01*
X737743Y435198D01*
X737744Y435192D01*
X737739Y435191D01*
X737637Y434944D01*
X737639Y434938D01*
X737635Y434936D01*
X737573Y434677D01*
X737575Y434672D01*
X737572Y434670D01*
X737551Y434404D01*
X737553Y434401D01*
X737551Y434400D01*
X737551Y417100D01*
X737553Y417098D01*
X737551Y417096D01*
X737572Y416830D01*
X737576Y416826D01*
X737573Y416823D01*
X737635Y416564D01*
X737640Y416560D01*
X737637Y416556D01*
X737739Y416309D01*
X737745Y416306D01*
X737743Y416302D01*
X737883Y416075D01*
X737888Y416073D01*
X737888Y416069D01*
X738061Y415866D01*
X738066Y415865D01*
X738066Y415861D01*
X738269Y415688D01*
X738275Y415687D01*
X738275Y415683D01*
X738502Y415543D01*
X738508Y415544D01*
X738509Y415539D01*
X738756Y415437D01*
X738762Y415439D01*
X738764Y415435D01*
X739023Y415373D01*
X739028Y415375D01*
X739030Y415372D01*
X739296Y415351D01*
X739299Y415353D01*
X739300Y415351D01*
X742866Y415372D01*
G37*
D10*
X719500Y537000D03*
X706500Y537000D03*
D11*
X705000Y614500D03*
X705000Y627500D03*
X1072896Y615292D03*
X1072896Y628292D03*
X1072896Y591716D03*
X1072896Y578716D03*
D10*
X1198476Y558800D03*
X1211476Y558800D03*
D11*
X1072896Y532140D03*
X1072896Y545140D03*
X1101344Y668124D03*
X1101344Y681124D03*
X1170432Y668124D03*
X1170432Y681124D03*
D12*
X1044512Y550012D03*
X1044512Y531012D03*
D11*
X1198880Y734084D03*
X1198880Y747084D03*
D13*
X1143356Y690124D03*
X1133856Y690124D03*
X1124356Y690124D03*
X1124356Y659124D03*
X1133856Y659124D03*
X1143356Y659124D03*
D14*
X1145800Y731980D03*
X1137800Y731980D03*
X1129800Y731980D03*
X1121800Y731980D03*
X1113800Y731980D03*
D11*
X1198880Y787724D03*
X1198880Y774724D03*
D15*
X832408Y196264D03*
X822908Y218264D03*
X841908Y218264D03*
D10*
X825908Y239776D03*
X838908Y239776D03*
X879548Y132620D03*
X866548Y132620D03*
D15*
X873048Y196264D03*
X863548Y218264D03*
X882548Y218264D03*
D10*
X866548Y239776D03*
X879548Y239776D03*
X866548Y174752D03*
X879548Y174752D03*
D15*
X913688Y196264D03*
X904188Y218264D03*
X923188Y218264D03*
D10*
X907188Y239776D03*
X920188Y239776D03*
X907188Y174752D03*
X920188Y174752D03*
D15*
X954328Y196264D03*
X944828Y218264D03*
X963828Y218264D03*
D10*
X947828Y239776D03*
X960828Y239776D03*
X947828Y174752D03*
X960828Y174752D03*
D15*
X994968Y196264D03*
X985468Y218264D03*
X1004468Y218264D03*
D10*
X988468Y239776D03*
X1001468Y239776D03*
X988468Y174752D03*
X1001468Y174752D03*
D15*
X1035608Y196264D03*
X1026108Y218264D03*
X1045108Y218264D03*
D10*
X1029108Y239776D03*
X1042108Y239776D03*
X1029108Y174752D03*
X1042108Y174752D03*
D11*
X936940Y663292D03*
X936940Y650292D03*
D10*
X951708Y684604D03*
X938708Y684604D03*
D16*
X948108Y715432D03*
X948108Y732432D03*
D17*
X1002660Y713728D03*
X1002660Y723228D03*
X1002660Y732728D03*
X974580Y732728D03*
X974580Y713728D03*
D16*
X1030424Y715432D03*
X1030424Y732432D03*
X893008Y599448D03*
X893008Y616448D03*
D17*
X943624Y598448D03*
X943624Y607948D03*
X943624Y617448D03*
X915544Y617448D03*
X915544Y598448D03*
D16*
X1006224Y597448D03*
X1006224Y614448D03*
D11*
X863624Y601448D03*
X863624Y614448D03*
D15*
X1076960Y196264D03*
X1067460Y218264D03*
X1086460Y218264D03*
D10*
X1070460Y239776D03*
X1083460Y239776D03*
X1070460Y174752D03*
X1083460Y174752D03*
D15*
X1117600Y196264D03*
X1108100Y218264D03*
X1127100Y218264D03*
D10*
X1111100Y239776D03*
X1124100Y239776D03*
X1111100Y174752D03*
X1124100Y174752D03*
D15*
X1158240Y196264D03*
X1148740Y218264D03*
X1167740Y218264D03*
D10*
X1151740Y239776D03*
X1164740Y239776D03*
X1151740Y174752D03*
X1164740Y174752D03*
D15*
X1198880Y196264D03*
X1189380Y218264D03*
X1208380Y218264D03*
D10*
X1192380Y239776D03*
X1205380Y239776D03*
X1192380Y174752D03*
X1205380Y174752D03*
X348500Y161586D03*
X361500Y161586D03*
D11*
X1198372Y583796D03*
X1198372Y596796D03*
D18*
X1170106Y538902D03*
X1170106Y545402D03*
X1170106Y551902D03*
X1170106Y558402D03*
X1170106Y564902D03*
X1170106Y571402D03*
X1170106Y577902D03*
X1170106Y584402D03*
X1170106Y590902D03*
X1170106Y597402D03*
X1170106Y603902D03*
X1170106Y610402D03*
X1170106Y616902D03*
X1170106Y623402D03*
X1097606Y623402D03*
X1097606Y616902D03*
X1097606Y610402D03*
X1097606Y603902D03*
X1097606Y597402D03*
X1097606Y590902D03*
X1097606Y584402D03*
X1097606Y577902D03*
X1097606Y571402D03*
X1097606Y564902D03*
X1097606Y558402D03*
X1097606Y551902D03*
X1097606Y545402D03*
X1097606Y538902D03*
D19*
X347820Y115308D03*
X357320Y115308D03*
X366820Y115308D03*
X366820Y141208D03*
X347820Y141208D03*
D10*
X357440Y92696D03*
X370440Y92696D03*
D19*
X460020Y439380D03*
X469520Y439380D03*
X479020Y439380D03*
X479020Y465280D03*
X460020Y465280D03*
X378120Y439380D03*
X387620Y439380D03*
X397120Y439380D03*
X397120Y465280D03*
X378120Y465280D03*
D10*
X460500Y502000D03*
X447500Y502000D03*
X378500Y502000D03*
X391500Y502000D03*
D11*
X434300Y439500D03*
X434300Y452500D03*
X354460Y443500D03*
X354460Y456500D03*
D20*
X654286Y752484D03*
D21*
X581786Y678484D03*
D20*
X580786Y771484D03*
D10*
X597500Y537000D03*
X584500Y537000D03*
D11*
X579000Y614500D03*
X579000Y627500D03*
D20*
X529286Y752484D03*
D21*
X456786Y678484D03*
D20*
X455786Y771484D03*
D10*
X475500Y537000D03*
X462500Y537000D03*
D11*
X455000Y614500D03*
X455000Y627500D03*
D20*
X404286Y752484D03*
D21*
X331786Y678484D03*
D20*
X330786Y771484D03*
D10*
X349500Y537000D03*
X336500Y537000D03*
D11*
X331000Y614500D03*
X331000Y627500D03*
D20*
X279286Y752484D03*
D21*
X206786Y678484D03*
D20*
X205786Y771484D03*
D10*
X218500Y537000D03*
X205500Y537000D03*
D11*
X205000Y614500D03*
X205000Y627500D03*
D20*
X154286Y752484D03*
D21*
X81786Y678484D03*
D20*
X80786Y771484D03*
D10*
X106500Y537000D03*
X93500Y537000D03*
D11*
X81000Y614500D03*
X81000Y627500D03*
D22*
X400000Y222500D03*
X408000Y222500D03*
X416000Y222500D03*
X424000Y222500D03*
X432000Y222500D03*
X440000Y222500D03*
X448000Y222500D03*
X456000Y222500D03*
X464000Y222500D03*
X472000Y222500D03*
X480000Y222500D03*
D23*
X497500Y240000D03*
X497500Y248000D03*
X497500Y256000D03*
X497500Y264000D03*
X497500Y272000D03*
X497500Y280000D03*
X497500Y288000D03*
X497500Y296000D03*
X497500Y304000D03*
X497500Y312000D03*
X497500Y320000D03*
D22*
X480000Y337500D03*
X472000Y337500D03*
X464000Y337500D03*
X456000Y337500D03*
X448000Y337500D03*
X440000Y337500D03*
X432000Y337500D03*
X424000Y337500D03*
X416000Y337500D03*
X408000Y337500D03*
X400000Y337500D03*
D23*
X382500Y320000D03*
X382500Y312000D03*
X382500Y304000D03*
X382500Y296000D03*
X382500Y288000D03*
X382500Y280000D03*
X382500Y272000D03*
X382500Y264000D03*
X382500Y256000D03*
X382500Y248000D03*
X382500Y240000D03*
D10*
X465500Y172000D03*
X478500Y172000D03*
X550500Y300000D03*
X563500Y300000D03*
D11*
X415000Y388500D03*
X415000Y401500D03*
D10*
X319500Y257000D03*
X306500Y257000D03*
D24*
X303500Y281000D03*
X324500Y281000D03*
X324500Y301000D03*
X303500Y301000D03*
D10*
X302500Y332000D03*
X289500Y332000D03*
D20*
X904286Y752484D03*
D21*
X831786Y678484D03*
D20*
X830786Y771484D03*
D25*
X610000Y479000D03*
X603500Y461000D03*
X616500Y461000D03*
D11*
X666500Y463500D03*
X666500Y476500D03*
X685500Y470000D03*
X580000Y463500D03*
X580000Y476500D03*
X643000Y463500D03*
X643000Y476500D03*
D10*
X696500Y430000D03*
X683500Y430000D03*
X656500Y430000D03*
X643500Y430000D03*
D26*
X427600Y77870D03*
X453000Y77870D03*
X478400Y77870D03*
D27*
X397850Y20320D03*
X495350Y20320D03*
X495350Y58420D03*
X397850Y58420D03*
D11*
X476000Y129628D03*
X476000Y116628D03*
X499904Y116120D03*
X499904Y129120D03*
D10*
X517108Y171656D03*
X504108Y171656D03*
D28*
X421500Y139628D03*
X421500Y133128D03*
X421500Y126628D03*
X438500Y126628D03*
X438500Y139628D03*
D16*
X421500Y101256D03*
X438500Y101256D03*
D10*
X436500Y160000D03*
X423500Y160000D03*
D28*
X271500Y191500D03*
X271500Y185000D03*
X271500Y178500D03*
X288500Y178500D03*
X288500Y191500D03*
D16*
X271500Y150000D03*
X288500Y150000D03*
D10*
X286500Y220000D03*
X273500Y220000D03*
D28*
X286500Y471500D03*
X286500Y465000D03*
X286500Y458500D03*
X303500Y458500D03*
X303500Y471500D03*
D16*
X286500Y431000D03*
X303500Y431000D03*
D10*
X301500Y491000D03*
X288500Y491000D03*
D17*
X994040Y430500D03*
X994040Y440000D03*
X994040Y449500D03*
X965960Y449500D03*
X965960Y430500D03*
D10*
X981500Y408000D03*
X968500Y408000D03*
D29*
X671000Y360000D03*
X649000Y350500D03*
X649000Y369500D03*
D11*
X620000Y353500D03*
X620000Y366500D03*
D30*
X778000Y356000D03*
X722000Y356000D03*
D20*
X779286Y752484D03*
D21*
X706786Y678484D03*
D20*
X705786Y771484D03*
D10*
X913500Y375000D03*
X926500Y375000D03*
X871500Y375000D03*
X858500Y375000D03*
X926500Y405500D03*
X913500Y405500D03*
X920000Y424500D03*
X871500Y405500D03*
X858500Y405500D03*
X865000Y424500D03*
D16*
X563500Y390000D03*
X580500Y390000D03*
D11*
X843000Y601500D03*
X843000Y614500D03*
X978000Y599500D03*
X978000Y612500D03*
D16*
X1044512Y592972D03*
X1044512Y609972D03*
D11*
X73152Y238148D03*
X73152Y225148D03*
X101600Y238148D03*
X101600Y225148D03*
M02*
